<?xml version="1.0" encoding="utf-8"?>
<!-- Generator: Adobe Illustrator 26.0.0, SVG Export Plug-In . SVG Version: 6.00 Build 0)  -->
<svg version="1.1" id="Laag_1" xmlns="http://www.w3.org/2000/svg" xmlns:xlink="http://www.w3.org/1999/xlink" x="0px" y="0px"
	 viewBox="0 0 804.5 781.8" style="enable-background:new 0 0 804.5 781.8;" xml:space="preserve">
<style type="text/css">
	.st0{fill:#1E3851;}
	.st1{fill:#102D44;}
	.st2{fill:#FF6584;}
	.st3{fill:#E6E6E6;}
	.st4{fill:#CCCCCC;}
	.st5{fill:#FFB8B8;}
	.st6{fill:#2F2E41;}
	.st7{fill:#3B82F6;}
	.st8{fill:#3F3D56;}
	.st9{opacity:0.74;fill:#3F3D56;enable-background:new    ;}
	.st10{opacity:0.74;fill:#3B82F6;enable-background:new    ;}
	.st11{opacity:0.74;fill:#FF6584;enable-background:new    ;}
	.st12{opacity:0.21;enable-background:new    ;}
</style>
<path class="st0" d="M756.9,215.8c-7.5-13.6-15.9-26.7-25-39.3c-6.4-8.8-13.2-17.3-20.3-25.6h0c-12.9-14.9-26.9-28.8-41.9-41.5
	c-3.1-2.6-6.2-5.2-9.4-7.7c-28.5-22.7-60.1-41.2-93.9-54.9l0.3,49.3l3.2,562.3h-280L274.2,97.3l1.2-48.5
	C138.1,106.5,41.7,242.2,41.7,400.5c0,32.7,4.1,65.2,12.4,96.8c3.5,13.4,7.7,26.5,12.6,39.4c1.8,4.7,3.7,9.3,5.6,13.9
	c1,2.2,1.9,4.5,2.9,6.7c1.3,2.9,2.6,5.8,4,8.6c1.1,2.2,2.2,4.5,3.3,6.7c1.5,2.9,3,5.8,4.5,8.6c1.2,2.2,2.4,4.5,3.7,6.7
	c20.1,35.6,45.8,67.8,76.2,95.2c8.6,7.8,17.6,15.3,27,22.3c135.7,102,322.6,102,458.3,0c5.1-3.8,10.1-7.8,14.9-11.8
	c3.2-2.7,6.4-5.4,9.5-8.2c0.8-0.7,1.7-1.5,2.5-2.2c27.9-25.3,52-54.6,71.4-87c7.1-11.9,13.6-24.1,19.3-36.7c1.5-3.3,3-6.7,4.4-10
	c6.6-15.5,12.1-31.4,16.6-47.6c0.7-2.5,1.3-5,2-7.5v0c0.1-0.4,0.2-0.9,0.3-1.3c0.7-2.7,1.3-5.3,1.9-8v0c2-8.6,3.6-17.3,5-26.2
	c0.2-1.1,0.3-2.3,0.5-3.4c0.1-0.4,0.1-0.8,0.2-1.2v0c1-6.8,1.7-13.7,2.3-20.6c0.9-10.9,1.4-21.9,1.4-33
	C804.6,335.9,788.2,272.3,756.9,215.8z"/>
<path class="st1" d="M719.4,630.7c22.6-30.5,31.3-73.5,13.7-107.1c-16.5,37.8-45.8,68.6-82.8,86.9c-14.3,7-30.9,13.3-37.5,27.8
	c-4.1,9-3.3,19.6,0,29c3.3,9.3,8.9,17.6,14.5,25.8l0.3,2.5C662.6,681,696.8,661.2,719.4,630.7z"/>
<path class="st0" d="M732.3,523.9c-1,31.4-11.9,61.7-31.1,86.5c-4,5.4-8.9,10.2-14.4,14.1c-5.5,3.6-11.9,5.7-18.5,6.1
	c-6.1,0.4-12.5,0.2-18.4,2.1c-6.1,2.1-11,6.7-13.5,12.6c-3.3,7.2-3.8,15.2-4,23c-0.2,8.7-0.3,17.7-4.4,25.6c-0.5,1,1,1.7,1.5,0.7
	c7.1-13.7,2.5-29.8,6.7-44.2c2-6.7,6-12.9,12.7-15.6c5.9-2.4,12.4-2.1,18.6-2.5c6.4-0.2,12.7-2,18.3-5.3c5.7-3.6,10.7-8.2,14.9-13.5
	c9.6-11.8,17.2-25,22.7-39.2c6.3-16.1,9.9-33.3,10.4-50.6C734,522.6,732.4,522.8,732.3,523.9z"/>
<path class="st0" d="M707.9,602.7c9.5,5.5,21.6,3.3,28.6-5.2c0.7-0.8-0.6-1.9-1.3-1.1c-6.5,7.9-17.7,10-26.6,4.8
	C707.7,600.7,707,602.2,707.9,602.7L707.9,602.7z"/>
<path class="st0" d="M671.5,630.7c-2.9-10.5-1.8-21.7,3.2-31.3c0.5-1-1-1.7-1.5-0.7c-5.1,10.1-6.3,21.7-3.2,32.6
	C670.2,632.3,671.8,631.8,671.5,630.7z"/>
<path class="st0" d="M727.7,558.2c-4.1-1.3-7.2-4.6-8.3-8.7c-0.3-1-1.9-0.5-1.6,0.6c1.3,4.5,4.7,8.2,9.1,9.7c0.4,0.2,0.9,0,1.1-0.4
	C728.3,558.9,728.1,558.4,727.7,558.2L727.7,558.2z"/>
<path class="st1" d="M607.4,496.8c0.2,0.7,0.3,1.3,0.5,2c2,8.8,3.4,17.8,4,26.8c0.1,0.7,0.1,1.4,0.1,2.1c1.2,21.8-1.6,43.6-8.4,64.3
	c-2.7,8.2-6,16.3-9.9,24c-5.4,10.7-12.1,21.9-13.6,33.4c-0.2,1.2-0.3,2.4-0.3,3.6l44.8,42.7c0.2,0,0.3,0.1,0.4,0.1l1.7,1.8
	c0.2-0.4,0.5-0.8,0.7-1.2c0.1-0.2,0.3-0.5,0.4-0.7c0.1-0.2,0.2-0.3,0.3-0.4c0-0.1,0.1-0.1,0.1-0.1c0.1-0.1,0.2-0.3,0.2-0.4
	c1.3-2.3,2.6-4.5,3.8-6.8c0,0,0,0,0,0c9.6-17.4,17.8-35.8,23-54.9c0.2-0.6,0.3-1.2,0.5-1.7c2.3-8.6,3.9-17.4,4.7-26.2
	c0.5-4.9,0.7-9.7,0.6-14.6c-0.1-12.6-2.2-25.1-6.2-37c-8-23.8-23.5-44.7-45.6-55.9C608.6,497.4,608,497.1,607.4,496.8z"/>
<path class="st0" d="M607,497.5c18.1,25.7,27.6,56.4,27.3,87.8c0,6.8-1,13.5-3,19.9c-2.2,6.2-6,11.7-11.1,16
	c-4.6,4-9.8,7.6-13.4,12.7c-3.6,5.3-4.8,12-3.2,18.2c1.7,7.7,6.2,14.4,10.7,20.8c5,7.1,10.4,14.3,11.9,23.1c0.2,1.1,1.8,0.7,1.6-0.3
	c-2.6-15.2-15.9-25.3-21.2-39.4c-2.5-6.6-3-13.9,0.8-20.1c3.3-5.4,8.6-9.1,13.4-13.2c5-4.1,8.9-9.3,11.4-15.2
	c2.4-6.3,3.7-13,3.8-19.7c0.5-15.2-1.3-30.4-5.5-45c-4.7-16.7-12.2-32.5-22.1-46.7C607.6,495.5,606.4,496.6,607,497.5L607,497.5z"/>
<path class="st0" d="M635,575.2c10.9-1.4,19.2-10.4,19.6-21.4c0-1.1-1.6-1.2-1.7-0.1c-0.4,10.2-8.2,18.6-18.3,19.8
	C633.6,573.7,633.9,575.3,635,575.2L635,575.2z"/>
<path class="st0" d="M622.8,619.4c-8.6-6.6-14.5-16.2-16.3-26.9c-0.2-1.1-1.8-0.7-1.6,0.3c2,11.1,8,21.1,17,28
	C622.7,621.5,623.6,620.1,622.8,619.4L622.8,619.4z"/>
<path class="st0" d="M624,527.7c-4,1.4-8.5,0.6-11.9-2c-0.8-0.7-1.8,0.7-0.9,1.4c3.7,2.9,8.7,3.7,13.1,2.2c0.4-0.1,0.7-0.5,0.6-1
	C624.9,527.9,624.5,527.6,624,527.7L624,527.7z"/>
<path class="st1" d="M17.8,459.9c-20-32.2-25.2-75.8-4.9-107.9c13.3,39,40.1,72.1,75.4,93.4c13.7,8.1,29.7,15.8,35.1,30.7
	c3.4,9.3,1.7,19.8-2.3,28.9c-4.1,9-10.3,16.9-16.6,24.6l-0.5,2.4C70.3,514.6,37.8,492.1,17.8,459.9z"/>
<path class="st0" d="M13.6,352.3c-1.5,31.4,6.8,62.4,24,88.8c3.6,5.7,8,10.9,13.2,15.2c5.2,4.1,11.4,6.7,17.9,7.5
	c6.1,0.9,12.4,1.2,18.1,3.6c5.9,2.6,10.4,7.5,12.5,13.7c2.7,7.5,2.5,15.5,2.1,23.3c-0.5,8.7-1.1,17.7,2.3,25.9
	c0.4,1-1.1,1.6-1.6,0.6c-6-14.3-0.1-29.9-3.1-44.6c-1.4-6.9-4.9-13.4-11.4-16.6c-5.7-2.8-12.2-3.1-18.3-4
	c-6.4-0.8-12.5-3.1-17.8-6.7c-5.4-4.1-10-9-13.8-14.6c-8.6-12.5-15.2-26.3-19.4-40.9c-5-16.6-7.1-34-6.3-51.3
	C12,351,13.6,351.3,13.6,352.3L13.6,352.3z"/>
<path class="st0" d="M31.5,432.9c-9.9,4.7-21.8,1.5-28-7.5c-0.6-0.9,0.7-1.9,1.4-1c5.8,8.4,16.9,11.4,26.1,7
	C31.9,430.9,32.5,432.5,31.5,432.9L31.5,432.9z"/>
<path class="st0" d="M65.5,463.8c3.8-10.2,3.5-21.4-0.6-31.5c-0.4-1,1.2-1.6,1.6-0.6c4.3,10.5,4.5,22.2,0.6,32.8
	C66.7,465.5,65.1,464.8,65.5,463.8L65.5,463.8z"/>
<path class="st0" d="M15.4,387c4.2-1,7.5-4,9-8c0.4-1,1.9-0.3,1.5,0.7c-1.6,4.4-5.3,7.8-9.9,8.9c-0.4,0.1-0.9-0.1-1.1-0.5
	C14.8,387.6,15,387.1,15.4,387z"/>
<path class="st1" d="M140.3,335.5c-0.2,0.6-0.4,1.3-0.6,1.9c-2.8,8.6-4.8,17.5-6.1,26.4c-0.1,0.7-0.2,1.4-0.3,2.1
	c-3,21.6-1.9,43.6,3.1,64.8c2,8.4,4.7,16.7,7.9,24.8c4.5,11.1,10.3,22.8,10.9,34.4c0.1,1.2,0.1,2.4,0,3.6l-48.1,38.9
	c-0.2,0-0.3,0.1-0.5,0.1l-1.9,1.6c-0.2-0.4-0.4-0.8-0.6-1.2c-0.1-0.2-0.2-0.5-0.3-0.7c-0.1-0.2-0.1-0.3-0.2-0.5c0-0.1,0-0.1-0.1-0.1
	c-0.1-0.1-0.1-0.3-0.2-0.4c-1.1-2.4-2.2-4.7-3.3-7.1c0,0,0,0,0,0c-8.1-18.1-14.9-37.1-18.5-56.5c-0.1-0.6-0.2-1.2-0.3-1.8
	c-1.6-8.8-2.4-17.6-2.6-26.5c-0.1-4.9,0.1-9.7,0.6-14.6c1.1-12.5,4.3-24.8,9.2-36.4c9.9-23.1,27.1-42.7,50-52
	C139.1,336,139.7,335.8,140.3,335.5z"/>
<path class="st0" d="M140.7,336.2c-20.1,24.1-32.1,54-34.3,85.3c-0.6,6.7-0.1,13.5,1.4,20.1c1.7,6.4,5.1,12.2,9.7,16.8
	c4.3,4.4,9.2,8.4,12.3,13.8c3.2,5.6,3.8,12.3,1.7,18.4c-2.4,7.6-7.3,13.9-12.4,19.8c-5.6,6.6-11.5,13.4-13.7,22
	c-0.3,1-1.9,0.6-1.6-0.5c3.8-15,17.9-23.9,24.4-37.5c3-6.3,4.1-13.6,0.9-20.1c-2.8-5.7-7.9-9.8-12.2-14.2c-4.6-4.4-8.1-10-10.1-16.1
	c-1.9-6.5-2.6-13.2-2.2-20c0.7-15.2,3.8-30.2,9.1-44.4c6-16.3,14.8-31.4,25.9-44.7C140.2,334.2,141.3,335.4,140.7,336.2L140.7,336.2
	z"/>
<path class="st0" d="M106.5,411.4c-10.8-2.2-18.3-11.9-17.8-22.9c0-0.5,0.4-0.8,0.9-0.8c0.4,0,0.8,0.4,0.8,0.8
	c-0.5,10.2,6.6,19.2,16.6,21.3C108,410,107.5,411.6,106.5,411.4L106.5,411.4z"/>
<path class="st0" d="M115,456.5c9.1-5.9,15.7-15,18.5-25.5c0.3-1,1.9-0.6,1.6,0.5c-2.9,10.9-9.7,20.4-19.3,26.5
	C114.9,458.5,114.1,457.1,115,456.5L115,456.5z"/>
<path class="st0" d="M121.3,365c3.9,1.7,8.4,1.3,12-1c0.9-0.6,1.7,0.9,0.8,1.5c-4,2.6-8.9,3-13.3,1.1c-0.4-0.1-0.7-0.6-0.6-1
	C120.4,365.1,120.8,364.9,121.3,365z"/>
<circle class="st2" cx="389.4" cy="77.8" r="53"/>
<path class="st3" d="M551.7,75.1c-4.8-5-9.8-9.8-15.1-14.3c-10.3-8.8-21.7-16.2-34.5-20.9c-4.8-1.8-9.8-3.1-14.8-3.9
	c-0.6-0.1-1.2-0.2-1.8-0.3c0,0-0.1,0-0.1,0c-0.1,0-0.2,0-0.3-0.1c-1.2-0.2-2.5-0.3-3.7-0.4c-6.7-0.4-13.5,0.2-20,1.8
	c-3.8,1-7.5,2.2-11.1,3.9c-3.6,1.7-7,3.7-10.4,5.9c-1.8,1.1-3.6,2.1-5.5,3c-5.5,2.6-11.4,4.5-17.4,5.6c-4.1,0.7-8.2,1.1-12.3,1.2
	c-3.6,0.1-7,0.2-10.4,1.5c-7.3,2.8-13,8.8-15.1,16.4c-0.2,0.7,0.1,1.4,0.7,1.8c0.9,0.7,1.8,1.4,2.8,2c0.9,0.4,1.8,0.6,2.7,0.7
	c1.5,0.3,3.1,0.6,4.6,0.9c5.7,1.1,11.3,2.1,17.1,3c11.5,1.7,23,3,34.6,3.7c0.1,0,0.1,0,0.2,0c13.1,0.8,26.3,0.9,39.4,0.4
	c2-0.1,4-0.2,6-0.3c8.3-0.5,16.5-1.2,24.8-2.2c7.6-0.9,15.2-2.1,22.8-3.4c5.4-1,10.8-2.1,16.1-3.3c0.8-0.2,1.3-1.1,1.1-2
	C552,75.5,551.8,75.3,551.7,75.1z"/>
<path class="st3" d="M441.5,145.7c-7.7-8.2-16.1-15.6-25.2-22.2c-3-2.1-6.1-4.1-9.3-5.9c-3.9-2.3-8-4.3-12.2-6
	c-0.9-0.4-1.9-0.7-2.8-1.1c-5.4-2-10.9-3.4-16.6-4.2c0,0-0.1,0-0.1,0c-0.1,0-0.2,0-0.3-0.1c-2.7-0.4-5.5-0.5-8.3-0.5
	c-2,0-4,0.1-6,0.3c-3.2,0.3-6.4,0.9-9.5,1.6c-1.5,0.4-3.1,0.8-4.6,1.3c-2.2,0.7-4.4,1.6-6.5,2.5c0,0-0.1,0-0.1,0
	c-3.5,1.7-7,3.7-10.3,5.8c-0.1,0-0.2,0.1-0.2,0.1c-3.7,2.2-7.7,4.1-11.8,5.5c-3.5,1.2-7.2,2.2-10.9,2.9c-4.1,0.7-8.2,1.1-12.3,1.2
	c-3.6,0.1-7,0.2-10.3,1.5c-7.4,2.8-13,8.8-15.1,16.4c-0.2,0.7,0.1,1.4,0.7,1.8c0.9,0.7,1.8,1.4,2.8,2c0.9,0.4,1.8,0.6,2.7,0.7
	c1.5,0.3,3.1,0.6,4.6,0.9c5.7,1.1,11.3,2.1,17.1,3c7.8,1.2,15.7,2.1,23.6,2.8c3.7,0.3,7.5,0.6,11.2,0.9c9.6,0.6,19.2,0.8,28.9,0.7
	c2,0,4-0.1,6-0.1c11.8-0.3,23.6-1.2,35.3-2.7c13.1-1.6,26.1-3.8,38.9-6.7c0.8-0.2,1.3-1.1,1.1-2
	C441.8,146.1,441.7,145.9,441.5,145.7z"/>
<path class="st1" d="M309.5,3.5l46.7,645.1l-93.4,8.3V11.7C273.9,3,289.9,1.7,309.5,3.5z"/>
<path class="st1" d="M539.9,3.5l-46.7,645.1l93.4,8.3V11.7C575.4,3,559.5,1.7,539.9,3.5z"/>
<path class="st1" d="M588.8,12c-2.9-7.1-9.1-12-16.2-12H275.8c-9.9,0-18,9.5-18,21.2v641.1c-0.1,5.9,2.1,11.7,6.2,16
	c2.1,2.2,4.8,3.8,7.8,4.7c1.3,0.4,2.6,0.5,4,0.5h296.8c1.3,0,2.7-0.2,4-0.5c8-2.1,14-10.6,14-20.7V21.2
	C590.5,18,589.9,14.9,588.8,12z M584.6,662.3c0,7.8-5.4,14.2-12,14.2H275.8c-5.5,0-10.1-4.4-11.5-10.3c-0.3-1.3-0.5-2.6-0.5-3.9
	V21.2c0-7.8,5.4-14.2,12-14.2h296.8c1.2,0,2.4,0.2,3.6,0.6c4.9,1.8,8.4,7.2,8.4,13.5V662.3z"/>
<rect x="260.8" y="194.9" class="st1" width="326.8" height="6"/>
<rect x="260.8" y="71.9" class="st1" width="326.8" height="6"/>
<rect x="260.8" y="294.2" class="st1" width="326.8" height="6"/>
<rect x="360.9" y="2.7" class="st1" width="6" height="375.9"/>
<rect x="481.5" y="2.7" class="st1" width="6" height="375.9"/>
<path class="st1" d="M624.8,646.3H233.5c-14.8,0-26.8,12-26.8,26.8c0,3.4,0.7,6.8,1.9,10c4.1,10.2,13.9,16.8,24.9,16.8h391.3
	c9.5,0,18.3-5.1,23.1-13.3c0.7-1.1,1.3-2.3,1.7-3.6c1.3-3.2,1.9-6.6,1.9-10C651.6,658.3,639.6,646.3,624.8,646.3z"/>
<rect x="262.8" y="364.7" class="st1" width="324.8" height="19.9"/>
<path class="st4" d="M422.2,358.8h6c6,0,10.9,4.9,10.9,10.9l0,0l0,0h-27.8l0,0l0,0C411.3,363.6,416.2,358.8,422.2,358.8
	C422.2,358.8,422.2,358.8,422.2,358.8z"/>
<circle id="b6ad44ff-295b-418b-9346-03b76e49c34f" class="st5" cx="430.9" cy="359.2" r="61.5"/>
<path id="e8f77054-5a04-4fda-83df-6cd2e0c3cac3-170" class="st6" d="M362.2,300c0.5-7.1,5.1-14.3,20-18.1c0,0,25.5-32.6,60.1-15.5
	c0,0,16.8-2.9,29.2,14.5c0,0,12.3-7.3,17.6,5.6c0,0,14.5,26.3,9.1,53.2s-8.1,30.2-8.1,30.2s6.8-55.5-32.3-51.7s-70.6-9.9-79.5,20.2
	c-7.4,25-6.4,38-6.4,38s-24.6-25-16.2-44.6C360,321.8,361.5,310.9,362.2,300z"/>
<path class="st7" d="M263.5,695.5H604c-2.3-26-3.8-125.2-3.8-131.8c0-28.8-23.6-60.3-23.6-60.3l-8.4-4.7l-70.5-22l-18.2-23.7
	c-3.9-5-9.9-8-16.2-7.9l-57.6,0.4c-5.1,0-9.9,2-13.7,5.4l-35.7,33.1l-52.3,25l-0.1-0.1l-0.5,0.4l-7.8,5.6l-5,3.6
	c0,0-13.1,15.7-23.6,62.9C265.4,588.7,264.3,680.5,263.5,695.5z"/>
<path class="st1" d="M682.8,683.1c-0.8,0.7-1.6,1.5-2.5,2.2c-3.1,2.8-6.3,5.5-9.5,8.2c-4.9,4.1-9.9,8-14.9,11.8H197.5
	c-9.3-7-18.3-14.4-27-22.3H682.8z"/>
<polygon class="st6" points="514.8,688.4 346.3,688.4 349.9,671.5 511.2,671.5 "/>
<path class="st8" d="M667.2,615.3h-43.8c-2,0-3.9,0.9-5.2,2.4c-0.6-0.1-1.2-0.2-1.9-0.2c-5.7,0-10.4,4.7-10.4,10.4
	s4.7,10.4,10.4,10.4c0,0,0,0,0,0c1.6,0,3.1-0.4,4.5-1.1l0.7,9l2.9,35.5c0.1,0.4,0.3,0.9,0.6,1.3c1.2,2.2,3.5,3.6,6,3.6h28.5
	c2.5,0,4.8-1.4,6-3.6c0.2-0.4,0.4-0.8,0.5-1.3l7.7-57.6c1.1-3.6-0.9-7.5-4.5-8.6C668.6,615.4,667.9,615.3,667.2,615.3z M616.3,635.4
	c-4.1,0-7.4-3.3-7.4-7.4c0-4.1,3.3-7.4,7.4-7.4c0.1,0,0.3,0,0.4,0c-0.3,1.2-0.3,2.5,0.1,3.6l3.1,10.2
	C618.8,635,617.6,635.4,616.3,635.4L616.3,635.4z"/>
<path class="st8" d="M568.2,426.9H290.7c-5,0-9,4-9,9v187.3c0,5,4,9,9,9h277.5c5,0,9-4,9-9V435.8
	C577.2,430.9,573.1,426.9,568.2,426.9z"/>
<path class="st6" d="M460.7,576.9h-64.9c-1.9,0-3.5,1.6-3.5,3.5v102.6h71.8V580.4C464.1,578.5,462.6,576.9,460.7,576.9
	C460.7,576.9,460.7,576.9,460.7,576.9z M428.4,635.2c-4.2,0-7.6-3.4-7.7-7.7v-11.8c0-4.2,3.4-7.7,7.7-7.7s7.7,3.4,7.7,7.7v11.8
	C436.1,631.7,432.7,635.1,428.4,635.2L428.4,635.2z"/>
<path class="st8" d="M392.1,679.6v9.9c0,1.1,0.9,1.9,1.9,1.9h68.4c1.1,0,1.9-0.9,1.9-1.9v-9.9H392.1z"/>
<circle class="st6" cx="562.3" cy="616.8" r="4.4"/>
<path class="st6" d="M325.7,610.4c-0.8,0-1.5,0.7-1.5,1.5c0,0,0,0,0,0v7.9c0,0.8,0.7,1.5,1.5,1.5c0.8,0,1.5-0.7,1.5-1.5v-7.9
	C327.2,611.1,326.5,610.4,325.7,610.4C325.7,610.4,325.7,610.4,325.7,610.4z"/>
<path class="st6" d="M334,610.4c-0.8,0-1.5,0.7-1.5,1.5c0,0,0,0,0,0v7.9c0,0.8,0.7,1.5,1.5,1.5c0.8,0,1.5-0.7,1.5-1.5v-7.9
	C335.6,611.1,334.9,610.4,334,610.4C334,610.4,334,610.4,334,610.4z"/>
<path class="st6" d="M342.4,610.4c-0.8,0-1.5,0.7-1.5,1.5c0,0,0,0,0,0v7.9c0,0.8,0.7,1.5,1.5,1.5c0.8,0,1.5-0.7,1.5-1.5v-7.9
	C343.9,611.1,343.2,610.4,342.4,610.4C342.4,610.4,342.4,610.4,342.4,610.4z"/>
<path class="st6" d="M350.7,610.4c-0.8,0-1.5,0.7-1.5,1.5c0,0,0,0,0,0v7.9c0,0.8,0.7,1.5,1.5,1.5c0.8,0,1.5-0.7,1.5-1.5v-7.9
	C352.2,611.1,351.5,610.4,350.7,610.4C350.7,610.4,350.7,610.4,350.7,610.4z"/>
<circle class="st5" cx="357.3" cy="660.8" r="23.2"/>
<ellipse transform="matrix(0.9239 -0.3827 0.3827 0.9239 -215.0507 249.3391)" class="st5" cx="519.2" cy="665.2" rx="23.2" ry="23.2"/>
<path class="st8" d="M758.4,385.5c-2.3-3.8-5-7.8-9.3-9.1c-4.9-1.4-10,1.4-14.3,4.2c-12.8,8.4-25.2,17.5-37,27.3l0,0.1
	c9.2-0.6,16.8,23.8,26,23.2c6.6-0.5,15.1-26.1,21-29.2c2.2-1.2,4.4-2.8,6.9-2.9c3.1-0.1,5.9,2.1,8,4.3
	c12.7,13.5,16.4,34.3,30.7,46.2C781.6,427.4,770.8,406,758.4,385.5z"/>
<path class="st8" d="M782.9,418.4c6.7,12.1,13.8,24,21.4,35.6v0c0,0.4-0.1,0.8-0.2,1.2c-0.9-1.4-1.8-2.8-2.7-4.2
	c-6.8-10.6-13.2-21.4-19.3-32.4c-2.9-5.2-5.7-10.5-8.5-15.8c-2.1-4.1-4.2-8.3-6.2-12.4c-0.6-1.2-1.1-2.4-1.7-3.6
	c-1.3-2.8-2.6-5.7-4-8.4c-1.6-3.2-3.5-6.5-6.4-8.6c-1.3-1-2.9-1.6-4.6-1.8c-2.3,0-4.6,0.7-6.6,1.9c-15.1,7.9-29.2,17.6-41.9,28.9
	c-12.8,11.2-24.2,23.9-34.1,37.8c-0.3,0.4-1,0-0.7-0.4c1.2-1.7,2.4-3.4,3.7-5c15.5-20.6,34.4-38.3,56-52.3c3.6-2.4,7.3-4.6,11.1-6.7
	c1.9-1.1,3.8-2.1,5.7-3.1c1.9-1.1,3.9-1.7,6.1-1.9c7.4-0.1,11.2,8.3,13.9,13.9c0.8,1.8,1.7,3.5,2.5,5.3c3.2,6.7,6.5,13.3,10,19.9
	C778.5,410.4,780.7,414.4,782.9,418.4z"/>
<path class="st8" d="M701.5,394.7c-0.4-0.5-0.9-1-1.3-1.4c-3.4-3.8-7.1-7.5-11.8-9.7c-2.2-1.1-4.7-1.6-7.1-1.7
	c-2.6,0.1-5.1,0.6-7.4,1.6c-1.1,0.4-2.2,1-3.3,1.5c-1.2,0.6-2.4,1.3-3.6,1.9c-2.3,1.2-4.5,2.6-6.7,3.9c-4.4,2.7-8.6,5.6-12.7,8.7
	c-2.1,1.6-4.2,3.3-6.2,5c-1.9,1.6-3.8,3.2-5.6,4.9c-0.4,0.4-1-0.2-0.6-0.6c0.5-0.4,1-0.9,1.4-1.3c1.4-1.2,2.8-2.5,4.2-3.6
	c2.6-2.2,5.2-4.3,7.9-6.3c4.2-3.1,8.6-6,13.1-8.7c2.3-1.3,4.5-2.6,6.8-3.9c0.7-0.4,1.4-0.7,2.1-1.1c1.6-0.8,3.3-1.5,5-2.1
	c2.5-0.8,5-1,7.6-0.7c2.5,0.4,4.9,1.2,7,2.4c4.6,2.6,8.2,6.5,11.6,10.4C702.4,394.5,701.8,395.1,701.5,394.7z"/>
<path class="st8" d="M667.8,412.9c-1.2,0.1-2.3-0.3-3.3-0.9c-2.5-1.9-2.5-6.6,0.2-14.2c1.5-4.2,4.6-7.5,8.7-9.3
	c3.8-1.7,8.1-1.7,11.9-0.1c0.3,0.1,0.7,0.3,1,0.5l0,0c2.2,1.2,4.2,2.7,6.1,4.3c1.6,1.4,3.3,2.6,5.1,3.8l0.6,0.3l-0.6,0.4
	C683.1,407.8,673.3,412.9,667.8,412.9z"/>
<path class="st8" d="M723.4,352.4c-9.8,0-18.2-6.9-20.1-16.5c-11.1,2.2-18.3,13.1-16,24.2s13.1,18.3,24.2,16
	c11.1-2.2,18.2-13,16-24.1C726.1,352.2,724.7,352.4,723.4,352.4z"/>
<circle class="st9" cx="174.6" cy="354.7" r="30.6"/>
<circle class="st10" cx="205.1" cy="354.7" r="30.6"/>
<circle class="st11" cx="190.1" cy="330.4" r="30.6"/>
<rect x="189.9" y="333.9" transform="matrix(0.954 -0.2997 0.2997 0.954 -89.7199 84.6519)" class="st8" width="82.4" height="1.8"/>
<circle class="st8" cx="270.6" cy="322.2" r="3.6"/>
<path class="st8" d="M780.8,482.6c5.2,3.7,10.2,7.4,16,10.3c-0.1,0.4-0.2,0.9-0.3,1.3c-0.7-0.3-1.4-0.7-2.1-1
	c-5.8-3-10.8-7.2-16.3-10.8c-2.7-1.9-5.7-3.4-8.8-4.4c-3.3-1-6.7-1.4-10-1.2c-14.1,0.7-26.3,9.1-39.4,13.4c-6.4,2.1-13.3,3.2-20,1.9
	c-6.7-1.3-12.7-4.9-18.6-8.1c-5.8-3.2-12.2-6.4-19-6.4c-5.6,0-11.4,2.2-14.4,7.2c-0.2,0.3-0.6,0.4-0.9,0.2c-0.3-0.2-0.4-0.6-0.2-0.9
	c0.7-1.1,1.5-2.1,2.4-3c3.9-3.7,9.6-5.1,14.9-4.7c6.8,0.6,13,3.8,18.9,7c6.2,3.4,12.6,7.1,19.8,7.9c7.1,0.7,14.2-1.1,20.8-3.6
	c12.8-4.9,25.4-13,39.6-12.1C769.6,475.9,775.4,478.8,780.8,482.6z"/>
<path class="st7" d="M221.7,224.8v1.8c-0.6-0.1-1.2-0.2-1.8-0.2h-9.3v20c0,6.2-5,11.2-11.2,11.2h-13.8v3.1c0,1.2,0.2,2.5,0.7,3.6
	h-1.9c-0.4-1.2-0.6-2.4-0.6-3.6v-3.1h-7.6v-1.8h7.6v-20c0-6.2,5-11.2,11.2-11.2h13.8v-3.1h1.8v3.1h9.3
	C220.5,224.7,221.1,224.7,221.7,224.8z"/>
<path class="st8" d="M199.3,210.4h-24.9c-6.2,0-11.2,5-11.2,11.2v24.9c0,6.2,5,11.2,11.2,11.2h24.9c6.2,0,11.2-5,11.2-11.2v-24.9
	C210.5,215.4,205.5,210.4,199.3,210.4z M208.7,246.5c0,5.2-4.2,9.4-9.4,9.4h-24.9c-5.2,0-9.4-4.2-9.4-9.4v-24.9
	c0-5.2,4.2-9.4,9.4-9.4h24.9c5.2,0,9.4,4.2,9.4,9.4V246.5z"/>
<path class="st8" d="M183.8,255.9v1.8h1.8v-1.8H183.8z M183.8,255.9v1.8h1.8v-1.8H183.8z M221.7,224.8c-0.6-0.1-1.2-0.2-1.8-0.2H195
	c-6.2,0-11.2,5-11.2,11.2v24.9c0,1.2,0.2,2.4,0.6,3.6c1.5,4.5,5.8,7.6,10.6,7.6h24.9c6.2,0,11.2-5,11.2-11.2v-24.9
	C231,230.4,227.1,225.7,221.7,224.8z M229.2,260.7c0,5.2-4.2,9.4-9.4,9.4H195c-5.2,0-9.4-4.2-9.4-9.4v-24.9c0-5.2,4.2-9.4,9.4-9.4
	h24.9c5.2,0,9.4,4.2,9.4,9.4V260.7z M183.8,255.9v1.8h1.8v-1.8H183.8z"/>
<path class="st7" d="M166.2,488.2H60.5c-1.5,0-2.8,1.2-2.8,2.8v6.3c3.5,13.4,7.7,26.5,12.6,39.4h95.9c1.5,0,2.8-1.2,2.8-2.8
	c0,0,0,0,0,0V491C169,489.5,167.7,488.2,166.2,488.2z"/>
<path class="st1" d="M156.1,550.6H76c1,2.2,1.9,4.5,2.9,6.7h77.2C160.5,557.3,160.4,550.5,156.1,550.6z"/>
<path class="st1" d="M156.1,565.9H82.9c1.1,2.2,2.2,4.5,3.3,6.7h69.9C160.5,572.6,160.4,565.8,156.1,565.9z"/>
<path class="st1" d="M156.1,581.2H90.7c1.2,2.2,2.4,4.5,3.7,6.7h61.7C160.5,587.9,160.4,581.1,156.1,581.2z"/>
<path class="st8" d="M704.2,170.3h-0.5c1.6,0,3.1,0.4,4.6,1.1h-2.3c-5.2,0-9.4,4.2-9.4,9.4v24.9c0,5.2,4.2,9.4,9.4,9.4h1.5
	c-1.2,0.5-2.4,0.7-3.7,0.7h0.5c5.7,0,10.3-4.6,10.3-10.3v-24.9C714.5,174.9,709.9,170.3,704.2,170.3z"/>
<path class="st12" d="M704.2,170.3h-0.5c1.6,0,3.1,0.4,4.6,1.1h-2.3c-5.2,0-9.4,4.2-9.4,9.4v24.9c0,5.2,4.2,9.4,9.4,9.4h1.5
	c-1.2,0.5-2.4,0.7-3.7,0.7h0.5c5.7,0,10.3-4.6,10.3-10.3v-24.9C714.5,174.9,709.9,170.3,704.2,170.3z"/>
<path class="st7" d="M638.2,170.3h-0.5c1.6,0,3.1,0.4,4.6,1.1h-2.3c-5.2,0-9.4,4.2-9.4,9.4v24.9c0,5.2,4.2,9.4,9.4,9.4h1.5
	c-1.2,0.5-2.4,0.7-3.7,0.7h0.5c5.7,0,10.3-4.6,10.3-10.3v-24.9C648.5,174.9,643.9,170.3,638.2,170.3z"/>
<path class="st12" d="M638.2,170.3h-0.5c1.6,0,3.1,0.4,4.6,1.1h-2.3c-5.2,0-9.4,4.2-9.4,9.4v24.9c0,5.2,4.2,9.4,9.4,9.4h1.5
	c-1.2,0.5-2.4,0.7-3.7,0.7h0.5c5.7,0,10.3-4.6,10.3-10.3v-24.9C648.5,174.9,643.9,170.3,638.2,170.3z"/>
<path class="st7" d="M640,215.1c-5.2,0-9.4-4.2-9.4-9.4v-24.9c0-5.2,4.2-9.4,9.4-9.4h2.3c-1.4-0.7-3-1.1-4.6-1.1h-24.9
	c-5.7,0-10.3,4.6-10.3,10.3v24.9c0,5.7,4.6,10.3,10.3,10.3h24.9c1.3,0,2.5-0.2,3.7-0.7H640z"/>
<path class="st8" d="M706,215.1c-5.2,0-9.4-4.2-9.4-9.4v-24.9c0-5.2,4.2-9.4,9.4-9.4h2.3c-1.4-0.7-3-1.1-4.6-1.1h-24.9
	c-5.7,0-10.3,4.6-10.3,10.3v24.9c0,5.7,4.6,10.3,10.3,10.3h24.9c1.3,0,2.5-0.2,3.7-0.7H706z"/>
<path class="st2" d="M735.4,176.5c9.1,12.6,17.5,25.7,25,39.3h-15.6c-5.7,0-10.3-4.6-10.3-10.3v-24.9
	C734.6,179.2,734.8,177.8,735.4,176.5z"/>
<path class="st1" d="M704.2,228.9l-8.7-13.1l-6.4-9.5c-1.1-1.6-3.3-2.1-4.9-1c-0.7,0.5-1.2,1.1-1.4,1.9l-2.7,8.6l-5.4,17.3
	c-0.6,1.9,0.5,3.9,2.3,4.4c1,0.3,2,0.2,2.9-0.4l1.9-1.2c1.3-0.8,2.9-0.4,3.7,0.9c0.2,0.4,0.3,0.7,0.4,1.2l1.8,19.2
	c0.2,1.8,1.7,3.2,3.5,3.2c0.1,0,0.2,0,0.3,0l2.7-0.2c1.9-0.2,3.4-1.9,3.2-3.9c0,0,0,0,0,0l-1.8-19.8c-0.1-1.5,0.9-2.8,2.4-2.9
	c0.5,0,0.9,0,1.4,0.2l0.4,0.2c1.8,0.8,3.9,0,4.7-1.7C704.9,231.2,704.8,229.9,704.2,228.9z"/>
</svg>
