<?xml version="1.0" encoding="utf-8"?>
<!-- Generator: Adobe Illustrator 26.0.1, SVG Export Plug-In . SVG Version: 6.00 Build 0)  -->
<svg version="1.1" id="Laag_1" xmlns="http://www.w3.org/2000/svg" xmlns:xlink="http://www.w3.org/1999/xlink" x="0px" y="0px"
	 viewBox="0 0 141 21.1" style="enable-background:new 0 0 141 21.1;" xml:space="preserve">
<style type="text/css">
	.st0{enable-background:new    ;}
	.st1{fill:#1A202C;}
	.st2{fill:#3182CE;}
</style>
<g id="logo" transform="translate(-232 -56)">
	<g class="st0">
		<path class="st1" d="M235.6,72.2L232,59.1h3.7l2,8.8h0.1l2.1-8.8h3.6l2.1,8.7h0.1l2-8.7h3.7l-3.6,13.1h-3.8l-2.2-8.2h-0.2
			l-2.2,8.2H235.6z"/>
		<path class="st1" d="M259,72.5c-1.3,0-2.5-0.3-3.4-0.8c-1-0.6-1.7-1.4-2.2-2.4c-0.5-1-0.8-2.2-0.8-3.5c0-1.4,0.3-2.5,0.8-3.5
			c0.5-1,1.3-1.8,2.2-2.4c1-0.6,2.1-0.8,3.4-0.8c1.3,0,2.5,0.3,3.4,0.8c1,0.6,1.7,1.4,2.2,2.4c0.5,1,0.8,2.2,0.8,3.5
			c0,1.3-0.3,2.5-0.8,3.5c-0.5,1-1.3,1.8-2.2,2.4C261.4,72.2,260.3,72.5,259,72.5z M259,69.7c0.6,0,1.1-0.2,1.5-0.5s0.7-0.8,0.9-1.4
			c0.2-0.6,0.3-1.3,0.3-2c0-0.8-0.1-1.4-0.3-2c-0.2-0.6-0.5-1.1-0.9-1.4s-0.9-0.5-1.5-0.5c-0.6,0-1.1,0.2-1.5,0.5
			c-0.4,0.3-0.7,0.8-0.9,1.4s-0.3,1.3-0.3,2c0,0.8,0.1,1.4,0.3,2c0.2,0.6,0.5,1.1,0.9,1.4C257.9,69.5,258.4,69.7,259,69.7z"/>
		<path class="st1" d="M276.2,66.7v-7.5h3.6v13.1h-3.5v-2.4h-0.1c-0.3,0.8-0.8,1.4-1.5,1.8c-0.7,0.5-1.5,0.7-2.5,0.7
			c-0.9,0-1.6-0.2-2.3-0.6c-0.7-0.4-1.2-1-1.6-1.7c-0.4-0.7-0.6-1.6-0.6-2.6v-8.3h3.6v7.7c0,0.8,0.2,1.4,0.6,1.8
			c0.4,0.4,1,0.7,1.6,0.7c0.4,0,0.8-0.1,1.2-0.3c0.4-0.2,0.7-0.5,0.9-0.9C276.1,67.7,276.2,67.2,276.2,66.7z"/>
		<path class="st1" d="M289.7,59.1v2.7h-7.9v-2.7H289.7z M283.6,56h3.6v12.2c0,0.3,0.1,0.6,0.2,0.8c0.1,0.2,0.2,0.3,0.4,0.4
			c0.2,0.1,0.4,0.1,0.6,0.1c0.2,0,0.3,0,0.5,0s0.3-0.1,0.4-0.1l0.6,2.7c-0.2,0.1-0.4,0.1-0.8,0.2c-0.3,0.1-0.7,0.1-1.2,0.1
			c-0.9,0-1.6-0.1-2.3-0.3c-0.7-0.3-1.2-0.7-1.5-1.2s-0.5-1.3-0.5-2.1V56z"/>
	</g>
	<g class="st0">
		<path class="st1" d="M299,77.1v-18h3.6v2.2h0.2c0.2-0.4,0.4-0.7,0.7-1.1c0.3-0.4,0.7-0.7,1.2-0.9c0.5-0.2,1.1-0.4,1.8-0.4
			c1,0,1.8,0.2,2.6,0.7s1.5,1.2,1.9,2.2c0.5,1,0.7,2.2,0.7,3.7c0,1.5-0.2,2.7-0.7,3.7s-1.1,1.8-1.9,2.3c-0.8,0.5-1.7,0.8-2.7,0.8
			c-0.7,0-1.3-0.1-1.8-0.3c-0.5-0.2-0.9-0.5-1.2-0.9c-0.3-0.4-0.6-0.7-0.7-1.1h-0.1v7H299z M302.5,65.7c0,0.8,0.1,1.5,0.3,2
			c0.2,0.6,0.5,1,0.9,1.4c0.4,0.3,0.9,0.5,1.5,0.5c0.6,0,1.1-0.2,1.5-0.5c0.4-0.3,0.7-0.8,0.9-1.4c0.2-0.6,0.3-1.3,0.3-2
			c0-0.8-0.1-1.4-0.3-2c-0.2-0.6-0.5-1-0.9-1.3c-0.4-0.3-0.9-0.5-1.5-0.5c-0.6,0-1.1,0.2-1.5,0.5s-0.7,0.8-0.9,1.3
			C302.6,64.2,302.5,64.9,302.5,65.7z"/>
		<path class="st1" d="M320.1,72.5c-1.3,0-2.5-0.3-3.5-0.8c-1-0.5-1.7-1.3-2.2-2.3c-0.5-1-0.8-2.2-0.8-3.6c0-1.3,0.3-2.5,0.8-3.5
			c0.5-1,1.3-1.8,2.2-2.4s2.1-0.9,3.4-0.9c0.9,0,1.7,0.1,2.4,0.4c0.7,0.3,1.4,0.7,2,1.2c0.6,0.6,1,1.2,1.3,2.1
			c0.3,0.8,0.5,1.8,0.5,2.9v1h-11.1v-2.2h7.6c0-0.5-0.1-1-0.3-1.4c-0.2-0.4-0.5-0.7-0.9-1c-0.4-0.2-0.9-0.3-1.4-0.3
			c-0.6,0-1,0.1-1.5,0.4c-0.4,0.3-0.8,0.6-1,1c-0.2,0.4-0.4,0.9-0.4,1.4v2.1c0,0.6,0.1,1.2,0.4,1.7c0.2,0.5,0.6,0.8,1,1.1
			s1,0.4,1.6,0.4c0.4,0,0.8-0.1,1.1-0.2c0.3-0.1,0.6-0.3,0.9-0.5c0.2-0.2,0.4-0.5,0.5-0.8l3.4,0.2c-0.2,0.8-0.5,1.5-1,2.1
			c-0.5,0.6-1.2,1.1-2,1.4C322.2,72.3,321.2,72.5,320.1,72.5z"/>
		<path class="st1" d="M335.5,59.1v2.7h-7.9v-2.7H335.5z M329.4,56h3.6v12.2c0,0.3,0.1,0.6,0.2,0.8c0.1,0.2,0.2,0.3,0.4,0.4
			c0.2,0.1,0.4,0.1,0.6,0.1c0.2,0,0.3,0,0.5,0s0.3-0.1,0.4-0.1l0.6,2.7c-0.2,0.1-0.4,0.1-0.8,0.2c-0.3,0.1-0.7,0.1-1.2,0.1
			c-0.9,0-1.6-0.1-2.3-0.3c-0.7-0.3-1.2-0.7-1.5-1.2c-0.4-0.6-0.5-1.3-0.5-2.1V56z"/>
		<path class="st1" d="M343.7,72.5c-1.3,0-2.5-0.3-3.5-0.8c-1-0.5-1.7-1.3-2.2-2.3c-0.5-1-0.8-2.2-0.8-3.6c0-1.3,0.3-2.5,0.8-3.5
			c0.5-1,1.3-1.8,2.2-2.4s2.1-0.9,3.4-0.9c0.9,0,1.7,0.1,2.4,0.4c0.7,0.3,1.4,0.7,2,1.2c0.6,0.6,1,1.2,1.3,2.1
			c0.3,0.8,0.5,1.8,0.5,2.9v1h-11.1v-2.2h7.6c0-0.5-0.1-1-0.3-1.4c-0.2-0.4-0.5-0.7-0.9-1c-0.4-0.2-0.9-0.3-1.4-0.3
			c-0.6,0-1,0.1-1.5,0.4c-0.4,0.3-0.8,0.6-1,1c-0.2,0.4-0.4,0.9-0.4,1.4v2.1c0,0.6,0.1,1.2,0.4,1.7c0.2,0.5,0.6,0.8,1,1.1
			s1,0.4,1.6,0.4c0.4,0,0.8-0.1,1.1-0.2c0.3-0.1,0.6-0.3,0.9-0.5c0.2-0.2,0.4-0.5,0.5-0.8l3.4,0.2c-0.2,0.8-0.5,1.5-1,2.1
			c-0.5,0.6-1.2,1.1-2,1.4C345.7,72.3,344.7,72.5,343.7,72.5z"/>
		<path class="st1" d="M352,72.2V59.1h3.5v2.3h0.1c0.2-0.8,0.6-1.4,1.2-1.8c0.6-0.4,1.2-0.6,1.9-0.6c0.2,0,0.4,0,0.6,0
			s0.4,0.1,0.6,0.1v3.2c-0.2-0.1-0.4-0.1-0.7-0.1s-0.6-0.1-0.8-0.1c-0.5,0-1,0.1-1.4,0.3c-0.4,0.2-0.7,0.5-1,1
			c-0.2,0.4-0.4,0.9-0.4,1.4v7.4H352z"/>
		<path class="st1" d="M372.7,62.9l-3.3,0.2c-0.1-0.3-0.2-0.5-0.4-0.8s-0.4-0.4-0.7-0.6c-0.3-0.1-0.7-0.2-1.1-0.2
			c-0.6,0-1,0.1-1.4,0.4c-0.4,0.2-0.6,0.5-0.6,0.9c0,0.3,0.1,0.6,0.4,0.8s0.7,0.4,1.3,0.5l2.4,0.5c1.3,0.3,2.2,0.7,2.8,1.3
			c0.6,0.6,0.9,1.3,0.9,2.3c0,0.9-0.3,1.6-0.8,2.3c-0.5,0.6-1.2,1.2-2.1,1.5c-0.9,0.4-1.9,0.5-3,0.5c-1.7,0-3.1-0.4-4.1-1.1
			s-1.6-1.7-1.8-3l3.6-0.2c0.1,0.5,0.4,0.9,0.8,1.2c0.4,0.3,0.9,0.4,1.6,0.4c0.6,0,1.1-0.1,1.5-0.4s0.6-0.6,0.6-1
			c0-0.3-0.1-0.6-0.4-0.8c-0.3-0.2-0.7-0.4-1.3-0.5l-2.3-0.5c-1.3-0.3-2.2-0.7-2.9-1.3c-0.6-0.6-0.9-1.4-0.9-2.4
			c0-0.8,0.2-1.6,0.7-2.2c0.5-0.6,1.1-1.1,1.9-1.4c0.8-0.3,1.8-0.5,2.9-0.5c1.7,0,3,0.3,3.9,1C372,60.7,372.6,61.7,372.7,62.9z"/>
	</g>
	<g class="st0">
		<path class="st2" d="M294.1,72.4c-0.6,0-1-0.2-1.4-0.6c-0.4-0.4-0.6-0.9-0.6-1.4c0-0.6,0.2-1,0.6-1.4c0.4-0.4,0.9-0.6,1.4-0.6
			c0.5,0,1,0.2,1.4,0.6c0.4,0.4,0.6,0.9,0.6,1.4c0,0.4-0.1,0.7-0.3,1s-0.4,0.6-0.7,0.7C294.8,72.4,294.5,72.4,294.1,72.4z"/>
	</g>
</g>
</svg>
