<svg version="1.1" id="wp_1" xmlns="http://www.w3.org/2000/svg" x="0" y="0" viewBox="0 0 119.7 21.1" style="enable-background:new 0 0 119.7 21.1" xml:space="preserve"><style>.st0{fill:#f9fafb}.st1{fill:#14b8a6}</style><path class="st0" d="M4.6 16.3 0 4.8h2.7l3.1 8.4H5l3-8.4h1.5l3 8.4h-.8L15 4.8h2.7l-4.6 11.5h-1.5l-3.1-8h.9l-3.1 8H4.6zM24.4 16.6c-1.1 0-2.1-.3-3-.8-.9-.5-1.6-1.3-2.2-2.2-.5-.9-.8-1.9-.8-3s.3-2.1.8-3c.5-.9 1.3-1.6 2.2-2.1.9-.5 1.9-.8 3-.8s2.2.3 3.1.8c.9.5 1.6 1.2 2.2 2.1s.8 1.9.8 3-.3 2.1-.8 3c-.5.9-1.3 1.6-2.2 2.2-1 .5-2 .8-3.1.8zm0-2.6c.7 0 1.2-.1 1.7-.4.5-.3.9-.7 1.2-1.2.3-.5.4-1.1.4-1.8s-.1-1.3-.4-1.8c-.3-.5-.7-.9-1.2-1.2-.5-.3-1.1-.4-1.7-.4-.6 0-1.2.1-1.7.4-.5.3-.9.7-1.2 1.2-.3.5-.5 1.1-.5 1.7 0 .7.1 1.3.4 1.8.3.5.7.9 1.2 1.2.5.4 1.1.5 1.8.5zM37.3 16.6c-1 0-1.8-.2-2.6-.6-.8-.4-1.4-1-1.8-1.8-.4-.8-.6-1.6-.6-2.6V4.8h2.6v6.6c0 .6.1 1 .3 1.4.2.4.5.7.8.9.4.2.8.3 1.3.3.8 0 1.4-.2 1.8-.7.4-.5.6-1.1.6-2V4.8h2.6v6.7c0 1-.2 1.9-.6 2.7s-1 1.4-1.8 1.8c-.7.3-1.6.6-2.6.6zM44 7.2V4.8h8.2v2.4H44zm2.8 9.1V0h2.6v16.3h-2.6z"/><path class="st1" d="M54.1 21.1V4.8h2.6v3.1l-.5 2.8.5 2.8v7.6h-2.6zm6.1-4.5c-.9 0-1.7-.2-2.4-.6s-1.2-.9-1.6-1.5c-.4-.7-.6-1.4-.6-2.2V8.9c0-.8.2-1.6.6-2.2.4-.7.9-1.2 1.6-1.5.7-.4 1.5-.6 2.3-.6 1 0 2 .3 2.8.8.8.5 1.5 1.3 2 2.2.5.9.7 1.9.7 3.1 0 1.1-.2 2.1-.7 3-.5.9-1.2 1.6-2 2.1-.7.5-1.6.8-2.7.8zm-.4-2.5c.6 0 1.2-.1 1.7-.4.5-.3.9-.7 1.2-1.2.3-.5.4-1.1.4-1.8s-.1-1.3-.4-1.8c-.3-.5-.7-.9-1.2-1.2-.5-.3-1.1-.4-1.7-.4-.6 0-1.2.1-1.7.4-.5.3-.9.7-1.2 1.2-.3.5-.4 1.1-.4 1.8s.1 1.3.4 1.8c.3.5.7.9 1.2 1.2.5.2 1.1.4 1.7.4zM73.3 16.6c-1.2 0-2.2-.3-3.1-.8-.9-.5-1.6-1.2-2.2-2.1-.5-.9-.8-1.9-.8-3.1s.3-2.2.8-3.1c.5-.9 1.2-1.6 2.1-2.1.9-.5 1.9-.8 3-.8s2 .2 2.8.7c.8.5 1.5 1.2 1.9 2 .5.9.7 1.8.7 3v.6c0 .2-.1.4-.1.7h-9.5V9.4H77l-1 .9c0-.7-.2-1.3-.4-1.8s-.6-.8-1-1.1c-.4-.3-1-.4-1.6-.4-.7 0-1.3.1-1.8.4-.5.3-.9.7-1.2 1.2-.3.5-.4 1.1-.4 1.9 0 .7.1 1.4.4 1.9s.7 1 1.2 1.3c.5.3 1.1.4 1.8.4.6 0 1.1-.1 1.6-.3s.9-.5 1.3-.9l1.7 1.7c-.6.7-1.2 1.2-2 1.5-.5.3-1.4.5-2.3.5zM79.5 7.2V4.8h8.2v2.4h-8.2zm2.8 9.1V0h2.6v16.3h-2.6zM94.6 16.6c-1.2 0-2.2-.3-3.1-.8-.9-.5-1.6-1.2-2.2-2.1-.5-.9-.8-1.9-.8-3.1s.3-2.2.8-3.1c.5-.9 1.2-1.6 2.1-2.1.9-.5 1.9-.8 3-.8s2 .2 2.8.7c.8.5 1.5 1.2 1.9 2 .5.9.7 1.8.7 3v.6c0 .2-.1.4-.1.7h-9.5V9.4h8.1l-1 .9c0-.7-.2-1.3-.4-1.8s-.6-.8-1-1.1c-.4-.3-1-.4-1.6-.4-.7 0-1.3.1-1.8.4-.5.3-.9.7-1.2 1.2-.3.5-.4 1.1-.4 1.9 0 .7.1 1.4.4 1.9s.7 1 1.2 1.3c.5.3 1.1.4 1.8.4.6 0 1.1-.1 1.6-.3s.9-.5 1.3-.9l1.7 1.7c-.6.7-1.2 1.2-2 1.5-.5.3-1.4.5-2.3.5zM102.1 16.3V4.8h2.6v11.5h-2.6zm2.6-6.4-.9-.5c0-1.5.3-2.6 1-3.5s1.6-1.4 2.9-1.4c.6 0 1.1.1 1.6.3.5.2.9.5 1.3 1l-1.7 1.8c-.2-.2-.4-.4-.7-.5-.3-.1-.6-.1-.9-.1-.7 0-1.3.2-1.8.7s-.8 1.2-.8 2.2zM115.4 16.6c-.6 0-1.3-.1-1.8-.3s-1.1-.4-1.6-.7c-.5-.3-.9-.7-1.3-1.1l1.7-1.7c.4.5.9.8 1.4 1 .5.2 1.1.3 1.8.3.6 0 1-.1 1.3-.3.3-.2.5-.4.5-.8s-.1-.6-.4-.8c-.3-.2-.7-.4-1.1-.5-.5-.1-.9-.3-1.4-.4-.5-.1-1-.3-1.4-.6s-.8-.6-1.1-1c-.3-.4-.4-1-.4-1.7s.2-1.4.5-1.9.8-.9 1.5-1.2c.6-.3 1.4-.4 2.3-.4.9 0 1.7.2 2.5.5.7.3 1.3.8 1.8 1.5l-1.7 1.7c-.3-.4-.7-.7-1.2-.9S116 7 115.4 7c-.5 0-.9.1-1.2.2-.3.2-.4.4-.4.7 0 .3.1.6.4.7.3.2.7.3 1.1.5.5.1.9.3 1.4.4.5.2 1 .4 1.4.6.5.3.8.6 1.1 1.1.3.4.4 1 .4 1.7 0 1.1-.4 2-1.2 2.7-.6.6-1.7 1-3 1z"/></svg>