<?xml version="1.0" standalone="no"?>
<!DOCTYPE svg PUBLIC "-//W3C//DTD SVG 20010904//EN"
 "http://www.w3.org/TR/2001/REC-SVG-20010904/DTD/svg10.dtd">
<svg version="1.0" xmlns="http://www.w3.org/2000/svg"
 width="520.000000pt" height="520.000000pt" viewBox="0 0 520.000000 520.000000"
 preserveAspectRatio="xMidYMid meet">
<metadata>
Created by potrace 1.14, written by Peter Selinger 2001-2017
</metadata>
<g transform="translate(0.000000,520.000000) scale(0.100000,-0.100000)"
fill="#000000" stroke="none">
<path d="M275 5191 c-16 -4 -52 -19 -80 -34 -88 -45 -142 -109 -174 -204 -21
-61 -21 -77 -21 -957 l0 -895 61 -3 61 -3 34 -90 c18 -49 110 -297 204 -550
94 -253 192 -516 217 -585 26 -69 49 -129 53 -133 8 -9 1 -28 296 785 l209
578 145 0 146 0 52 -147 c29 -82 57 -157 62 -168 5 -11 50 -135 100 -275 51
-140 107 -295 125 -345 18 -49 61 -168 95 -263 35 -95 66 -169 70 -165 7 7 24
52 120 313 92 250 139 378 149 400 6 14 60 158 120 320 60 162 112 303 116
313 7 16 29 17 266 17 142 0 259 -2 259 -5 0 -3 -4 -13 -10 -23 -5 -9 -89
-215 -185 -457 -97 -242 -180 -449 -185 -460 -11 -22 -413 -1024 -462 -1150
-18 -44 -33 -82 -35 -85 -2 -2 -69 -5 -149 -5 l-144 -1 -41 106 c-22 58 -46
119 -53 135 -7 17 -102 258 -211 538 -109 279 -201 507 -205 507 -5 0 -271
-670 -421 -1060 -9 -25 -33 -86 -53 -135 l-36 -90 -145 0 -145 0 -21 55 c-12
30 -30 73 -40 95 -14 33 -97 240 -400 995 -18 44 -18 23 -18 -845 0 -553 3
-906 9 -933 26 -112 93 -194 200 -246 l65 -31 1510 -2 c831 -2 1505 1 1498 5
-9 5 -11 379 -11 1550 l0 1542 252 0 252 0 -1 -115 c-1 -63 1 -115 3 -115 2 0
26 19 52 43 127 114 263 182 427 213 320 60 638 -33 876 -256 l67 -62 0 1034
c0 883 -2 1042 -15 1091 -33 126 -126 219 -252 252 -50 13 -350 15 -2343 14
-1257 -1 -2298 -4 -2315 -8z"/>
<path d="M4205 2654 c-196 -48 -355 -194 -420 -388 -48 -144 -54 -325 -15
-470 24 -91 37 -119 92 -201 171 -254 550 -329 824 -164 127 77 228 218 271
380 24 93 24 301 -1 394 -47 175 -160 320 -313 403 -106 57 -305 78 -438 46z"/>
<path d="M5131 1139 c-124 -114 -275 -197 -438 -240 -103 -27 -326 -34 -433
-14 -158 31 -311 105 -422 205 -32 28 -59 50 -59 48 -1 -2 -2 -259 -3 -571
l-1 -568 575 3 575 3 65 31 c78 37 131 88 173 169 l32 60 3 405 c2 223 2 433
0 466 l-3 62 -64 -59z"/>
</g>
</svg>
