<svg version="1.1" id="Layer_1" xmlns="http://www.w3.org/2000/svg" x="0" y="0" viewBox="0 0 1163.1 859.6" style="enable-background:new 0 0 1163.1 859.6" xml:space="preserve"><style>.st1{fill:#b2b6bb}.st2{fill:#61656d}.st3{fill:#3f4249}.st4{fill:#868a91}.st5{fill:#14b8a6}.st6{opacity:.3;fill:#fff;enable-background:new}.st7{fill:#dadddf}.st8{opacity:.15;enable-background:new}.st9{fill:#fc9d9d}.st10{fill:#242830}.st11{enable-background:new}.st11,.st12{opacity:.2}.st13{opacity:.15}.st14{fill:#fff}.st15{fill:#21252b}.st16{opacity:.3}.st17,.st18,.st20,.st22{opacity:.3;enable-background:new}.st18,.st20,.st22{opacity:.8}.st20,.st22{opacity:.5;fill:#fff}.st22{opacity:.4}</style><path d="m1127.1 858 35.8-520.2c1-14.1-3.5-28-12.5-38.9l-231.1-279C907.8 6.1 890.3-1.3 872.4.2L198 56c-21.6 1.8-40.2 16.1-47.4 36.6L3.1 512c-3 8.6-3.9 17.8-2.5 26.8l49.9 318.5 1076.6.7z" style="fill:#f9fafb"/><path class="st1" d="M252.4 520H151.3v62.8h101.1V520z"/><path class="st2" d="M252.4 520h-21.5v62.8h21.5V520z"/><path class="st3" d="m104.9 525.2-16.3-80.4.5-.1 16.3 80.4-.5.1zM109.5 417.7l-2.1 104.5h.5l2.1-104.5h-.5z"/><path class="st3" d="m133.4 436.9-24.9 31.3.4.3 24.9-31.3-.4-.3z"/><path class="st4" d="m117.6 545.2-2.5-3.7c-2.5-3.7-3.8-8.1-3.8-12.6V520h-9.6v8.9c0 4.5-1.3 8.9-3.8 12.6l-2.5 3.7c-5.2 7.8-6.8 17.5-4.5 26.6l2.8 11h25.6l2.8-11c2.3-9.1.6-18.8-4.5-26.6z"/><path class="st2" d="m117.6 545.2-2.5-3.7c-2.5-3.7-3.8-8.1-3.8-12.6V520h-2.8v8.1c0 5 1.5 9.9 4.2 14.1 4.2 7.7 4.2 16.5 2.7 23.7-.9 4.3-2.6 8.4-4.9 12.1l-1.9 3.1c-.7 1.1-1.9 1.8-3.2 1.8h14l2.8-11c2.2-9.2.5-18.9-4.6-26.7z"/><path class="st3" d="m128.3 469.1-29.6 24.6.3.4 29.6-24.6-.3-.4zM102.5 513.2l-26.2-24.8.3-.3 26.2 24.7-.3.4z"/><path class="st5" d="m118.7 455.7 4.1-18c1.5-6.4 9.1-9.1 14.3-5 5.1 4.1 4.2 12.2-1.7 15l-16.7 8z"/><path class="st6" d="m118.7 455.7 4.1-18c1.5-6.4 9.1-9.1 14.3-5 5.1 4.1 4.2 12.2-1.7 15l-16.7 8z"/><path class="st5" d="M140.4 439.8c0 3.2-1.8 6.4-5.1 7.9l-16.7 8 18.4-23c2.4 1.8 3.5 4.5 3.4 7.1zM109.2 447.7l-11.8-24.4c-4.2-8.7 2.1-18.8 11.8-18.8 9.6 0 16 10.1 11.8 18.8l-11.8 24.4z"/><path class="st6" d="m109.2 447.7-11.8-24.4c-4.2-8.7 2.1-18.8 11.8-18.8 9.6 0 16 10.1 11.8 18.8l-11.8 24.4z"/><path class="st6" d="m109.8 404.6-.6 43.1 11.8-24.4c4.1-8.5-1.9-18.4-11.2-18.7z"/><path class="st5" d="M96.1 480.2 79 459.8c-6.1-7.3-2.5-18.5 6.7-20.8 9.2-2.3 17.7 5.8 15.8 15.1l-5.4 26.1z"/><path class="st6" d="M101.5 454.1c1.9-9.3-6.6-17.4-15.8-15.1l10.5 41.1 5.3-26z"/><path class="st5" d="M93.7 504.5 85.9 485c-2.8-7-11.9-8.6-16.9-3.1-5.1 5.5-2.6 14.4 4.6 16.6l20.1 6z"/><path class="st6" d="M93.7 504.5 85.9 485c-2.8-7-11.9-8.6-16.9-3.1-5.1 5.5-2.6 14.4 4.6 16.6l20.1 6z"/><path class="st6" d="m69.3 481.5 24.4 23-7.8-19.5c-2.7-6.8-11.5-8.5-16.6-3.5z"/><path class="st5" d="m106.7 487.4 8.5-20.6c3-7.3 12.7-9 18-3.1 5.3 5.9 2.6 15.3-5.1 17.5l-21.4 6.2z"/><path class="st6" d="m106.7 487.4 8.5-20.6c3-7.3 12.7-9 18-3.1 5.3 5.9 2.6 15.3-5.1 17.5l-21.4 6.2z"/><path class="st3" d="m107.7 512.7-.3-.4 40.6-22.2.2.4-40.5 22.2z"/><path class="st5" d="m114.2 508.8 14.7-20.1c5.2-7.2 16.2-6.4 20.3 1.4 4.2 7.8-1.3 17.3-10.1 17.7l-24.9 1z"/><path class="st6" d="m114.2 508.8 14.7-20.1c5.2-7.2 16.2-6.4 20.3 1.4 4.2 7.8-1.3 17.3-10.1 17.7l-24.9 1z"/><path class="st5" d="M149.6 500.7c-1.8 3.9-5.6 6.9-10.5 7.1l-24.9 1 35-18.7c1.9 3.6 1.8 7.4.4 10.6z"/><path class="st6" d="m115.2 466.8-8.5 20.6 26.5-23.7c-5.3-5.8-14.9-4.2-18 3.1z"/><path class="st1" d="M279.2 589.5h67.1c1.9 0 3.4-1.5 3.4-3.4s-1.5-3.4-3.4-3.4h-67.1v6.8z"/><path class="st1" d="M337.6 586.2h-67.7v208.5h67.7V586.2z"/><path class="st7" d="M272 586.2H64.9v208.5H272V586.2z"/><path class="st1" d="M261.5 778.8H74.6V615.2l186.9.2v163.4zm-185.4-1.5H260V616.9H76.1v160.4z"/><path class="st7" d="M57.2 589.5h222.1c1.9 0 3.4-1.5 3.4-3.4s-1.5-3.4-3.4-3.4H57.2c-1.9 0-3.4 1.5-3.4 3.4.1 1.9 1.6 3.4 3.4 3.4z"/><path class="st1" d="M261.5 696H74.6v1.5h186.9V696zM160 641.5c2.9 0 5.2-2.3 5.2-5.2 0-2.9-2.3-5.2-5.2-5.2s-5.2 2.3-5.2 5.2c0 2.9 2.4 5.2 5.2 5.2z"/><path class="st8" d="M161.9 636.3c0-2.3-1.5-4.2-3.5-4.9.5-.2 1.1-.3 1.7-.3 2.9 0 5.2 2.3 5.2 5.2 0 2.9-2.3 5.2-5.2 5.2-.6 0-1.1-.1-1.7-.3 2-.7 3.5-2.6 3.5-4.9z"/><path class="st1" d="M160 722c2.9 0 5.2-2.3 5.2-5.2 0-2.9-2.3-5.2-5.2-5.2s-5.2 2.3-5.2 5.2c0 2.9 2.4 5.2 5.2 5.2z"/><path class="st8" d="M161.9 716.8c0-2.3-1.5-4.2-3.5-4.9.5-.2 1.1-.3 1.7-.3 2.9 0 5.2 2.3 5.2 5.2 0 2.9-2.3 5.2-5.2 5.2-.6 0-1.1-.1-1.7-.3 2-.7 3.5-2.6 3.5-4.9z"/><path class="st1" d="m282.7 596.5-10.7-7H64.9v3.2l217.8 3.8z"/><path class="st7" d="m324.3 794.7 5.2 57.7c.4 2.1-1.2 4.1-3.3 4.1-1.4 0-2.7-.9-3.2-2.3l-15.1-59.5h16.4z"/><path class="st1" d="m322.4 828.3-6.3-1.5-8.1-32h16.4l5.2 57.7c.3 1.6-.6 3.2-2 3.8l-5.2-28z"/><path class="st7" d="m265.4 794.7 5.2 57.7c.4 2.1-1.2 4.1-3.3 4.1-1.4 0-2.7-.9-3.2-2.3L249 794.7h16.4z"/><path class="st1" d="m259.9 801.1-9.4-1.8-1.6-4.6h16.4l5.2 57.7c.3 1.6-.6 3.2-2 3.8l-8.6-55.1z"/><path class="st7" d="m135.6 794.7-5.2 57.7c-.4 2.1 1.2 4.1 3.3 4.1 1.4 0 2.7-.9 3.2-2.3l15.1-59.5h-16.4z"/><path class="st1" d="m138.5 825.4-5.6-1.4 2.7-29.3H152l-15.1 59.5c-.5 1.4-1.8 2.3-3.2 2.3h-.2l5-31.1z"/><path class="st7" d="m75.1 794.7-5.2 57.7c-.4 2.1 1.2 4.1 3.3 4.1 1.4 0 2.7-.9 3.2-2.3l15.1-59.5H75.1z"/><path class="st1" d="m81.5 799.7-7.2-1.3.8-3.7h16.4l-15.1 59.5c-.5 1.4-1.8 2.3-3.2 2.3H73l8.5-56.8z"/><path class="st9" d="M163.7 714.7 128.1 755l25.4 19.6 29.8-27.2-19.6-32.7z"/><path class="st10" d="m132.9 748.4-22.7 17.4c-2.5 1.9-3.2 5.4-1.7 8.1l43.6 80.5c.9 1.8 3 2.5 4.9 1.8 4-1.5 6.2-5.8 5-9.9l-.5-1.9c-2.5-8.8-3.8-17.8-3.9-27l-.6-42.5c0-2.6-1.9-4.9-4.4-5.5-8.3-1.9-14.5-8.9-15.5-17.4l-.2-2.1c-.4-1.7-2.6-2.6-4-1.5z"/><path class="st3" d="m143.9 736.7 114.8-133.2-1.2-186.2h62.9l-9.3 199.4c-.1 8.5-3.6 16.6-9.8 22.5L168.2 761.3l-24.3-24.6z"/><path class="st5" d="M332.5 256.2 329 313l-4.6-.7-4.1 105.3-133.6-.4-2.3-118-11.2-70.6 43.2-12.3 1.5-.4 5.5-1.6 23.4 20.1 24.9-20.4 6.6 2.1c.5.1.7.2.8.2h.1l.3.1.3.1 32 10.2c12.9 4.1 21.3 16.2 20.7 29.5z"/><path class="st5" d="m151.8 255.1-7.8 110 50.6-20.2 11-124-31.2 7.5c-12.5 3-21.7 13.8-22.6 26.7z"/><path class="st10" d="m243.2 239.3-8.4 133.1 11.4 12.2 10.7-12.2-6.1-133.7-4-2.7-3.6 3.3z"/><path class="st5" d="m429.1 246.1-72.6 114.2c-5.4 8.5-18.1 7.3-21.9-2l-19.2-47.9 15.1-66.1 22 62 42-60.2h34.6z"/><path class="st9" d="m185.3 796.5 32.7.7-1.6 25.3-30.2 2.7-.9-28.7z"/><path class="st10" d="M201.3 809.8c8.7 0 15.9 6.9 16.2 15.6l.1 4c.1 1.6.3 3.2.7 4.7l4.5 16.6c.8 2.9-1.4 5.7-4.3 5.7h-37.2c-3.2 0-5.4-3.2-4.2-6.2l6.4-16c.9-2.2 1.4-4.6 1.5-7l.1-1.9c.3-8.5 7.4-15.5 16.2-15.5z"/><path class="st11" d="m323.7 330.8-14.5-34.2c-.8-1.1-2.6-.7-2.7.7l-7.6 119.9 21.4.4 3.4-86.8z"/><path class="st11" d="M298.9 417.3 287 617.4 184 728.2l-.3-29.9-5.4 6.4-2.1 31.9-15.7 16.9 7.7 7.8 133.6-122.6c5.9-5.6 9.3-13.3 9.3-21.4l9.3-200h-21.5z"/><g class="st12"><path class="st11" d="m239.8 622.4-4.1 75.4 1.5.1 4.1-75.4-1.5-.1z"/></g><path class="st9" d="m277.8 319.2 6.1-9 1.5-9.6c.1-.4.4-.7.8-.8 2.7-.6 5.3 1.2 5.7 3.9l1.9 11.6 21.3-1.5c1.6 0 3 1.2 3.2 2.8.2 1.8-1.3 3.4-3.1 3.4h-1.7 1.8c1.8 0 3.4 1.4 3.5 3.2.2 1.9-1.2 3.7-3.2 3.8l-1.6.1 1.8-.2c1.8-.2 3.4 1.2 3.6 3 .2 1.8-1.2 3.4-3 3.6l-2.1.2 3-.3c1.3-.1 2.5.9 2.7 2.2.1 1.3-.8 2.4-2 2.6l-37.2 6-14.6 4.3 3.9-28.7 7.7-.6z"/><path class="st11" d="M205.6 325.8c-6.4-3.4-10.7-9.8-11.4-17l-3-30.8c-.1-.7-1-.7-1.1 0l-5 50.2-11.3 1.3c-.4 0-.7.4-.6.8 0 .4.4.7.8.6l103.9-11.8 1.2-1.8-73.5 8.5z"/><path class="st8" d="m320 335.7-.1-.2c-.3-1.4-1.7-2.3-3-2l-.4.1-30.9 4.7-8.3-19.1H275l-8.6 1 2.6 27.7s14.5-3.9 15-4l2.7-.4c9.6-1.6 28.9-4.7 30.9-5 2.8-.6 2.4-2.8 2.4-2.8z"/><g class="st13"><path class="st8" d="M306 320c0-.4.3-.7.7-.7l11.2-.9c-.5 1-1.5 1.7-2.6 1.7h-.1l-8.4.7c-.4-.1-.8-.4-.8-.8z"/></g><g class="st13"><path class="st8" d="M306.5 327.5c0-.4.2-.7.6-.8l11.3-1.5c-.4 1-1.4 1.7-2.5 1.8h-.1l-8.6 1.2c-.3 0-.6-.3-.7-.7z"/></g><path class="st11" d="m259.5 244.7-.2-.2.2.2-12.2-3.3-11.7 3.4-19.2-28.4 1.5-.4 18.9 27.9 10.1-7.9 11.4 7.9 20.2-27.7c.5.1.7.2.8.2h.1l.3.1.3.1-20.5 28.1z"/><path class="st5" d="m147.5 334.8 122.6-14.9 4.2 26.2L158.1 380c-7.7 2.3-15.3-4.1-14.4-12.1l3.8-33.1z"/><path class="st11" d="m273.6 341.6-109.8 26.3c-9.8 2.1-19-5.8-18.2-15.9l.2-2.2-2 18.1c-.9 8 6.7 14.4 14.4 12.1l46.6-13.7 69.6-20.3-.8-4.4z"/><path class="st10" d="m272 319.8 5.1 25.7 5-1.2-4.8-25.1-5.3.6z"/><path class="st10" d="M277.3 338.1c3.1 0 5.7-2.6 5.7-5.7s-2.6-5.7-5.7-5.7-5.7 2.6-5.7 5.7 2.6 5.7 5.7 5.7z"/><path class="st11" d="m280.9 338.1-2.4-12.3c-.4-.1-.8-.1-1.3-.1-1.5 0-2.8.5-3.9 1.3l2.4 12.1c.5.1 1 .2 1.5.2 1.4-.2 2.7-.6 3.7-1.2z"/><path class="st14" d="M277.3 337.4c2.8 0 5-2.2 5-5s-2.2-5-5-5-5 2.2-5 5 2.3 5 5 5z"/><path class="st3" d="m186.7 417.3-1.9 390.9h33l32.5-324.7c.1-1.9 1.6-3.3 3.5-3.3s3.4 1.5 3.5 3.3l.9 30 5.1-96.2h-76.6z"/><path class="st11" d="M253.7 480.1c-19.8 0-37.1 16.1-37.1 35.9l-12.9 292.1h13.9l32.5-324.7c.2-1.8 1.8-3.3 3.6-3.3z"/><path class="st10" d="M319.9 429.2H186.6l.1-11.9h133.7l-.5 11.9z"/><path class="st3" d="M223.7 417.3h-4.3v12.9h4.3v-12.9zM281.5 417.3h-4.3v12.9h4.3v-12.9z"/><path class="st1" d="M261.2 429.2h-15.7c-1.6 0-2.9-1.3-2.9-2.9v-6.1c0-1.6 1.3-2.9 2.9-2.9h15.7c1.6 0 2.9 1.3 2.9 2.9v6.1c0 1.6-1.3 2.9-2.9 2.9z"/><path class="st4" d="M194.4 826.3c-.2 0-.5-.1-.6-.3-.2-.3-.1-.8.2-1 .1 0 7.3-4.8 14.4 0 .3.2.4.7.2 1-.2.3-.7.4-1 .2-6.3-4.2-12.7 0-12.8 0-.1.1-.3.1-.4.1zM194.4 830.6c-.2 0-.5-.1-.6-.3-.2-.3-.1-.8.2-1 .1 0 7.3-4.8 14.4 0 .3.2.4.7.2 1-.2.3-.7.4-1 .2-6.3-4.2-12.7 0-12.8 0-.1 0-.3.1-.4.1zM194.4 834.8c-.2 0-.5-.1-.6-.3-.2-.3-.1-.8.2-1 .1 0 7.3-4.8 14.4 0 .3.2.4.7.2 1-.2.3-.7.4-1 .2-6.3-4.2-12.7 0-12.8 0-.1.1-.3.1-.4.1zM149.3 785.7c-.4 0-.7-.3-.7-.6-.1-.4.2-.8.6-.8l7.7-1.1c.4-.1.8.2.8.6.1.4-.2.8-.6.8l-7.8 1.1zM149.4 790.9c-.4 0-.7-.3-.7-.6-.1-.4.2-.8.6-.8l7.7-1.1c.4-.1.8.2.8.6.1.4-.2.8-.6.8l-7.8 1.1c.1 0 .1 0 0 0zM149.4 796.7c-.4 0-.7-.3-.7-.6-.1-.4.2-.8.6-.8l7.7-1.1c.4-.1.8.2.8.6.1.4-.2.8-.6.8l-7.8 1.1c.1 0 .1 0 0 0z"/><g class="st12"><path class="st11" d="m186.5 463.4 10.3-34.5c.1-.4.5-.6.9-.5.4.1.6.5.5.9l-11.7 39.3v-5.2z"/></g><g class="st12"><path class="st11" d="m318.2 464.1-10.5-35.2c-.1-.4-.5-.6-.9-.5-.4.1-.6.5-.5.9l11.7 39.3.2-4.5z"/></g><g class="st12"><path class="st11" d="M258.3 605.8c-.2 0-.3-.1-.5-.2-.3-.3-.3-.7-.1-1l13.3-15.5c.3-.3.7-.3 1-.1.3.3.3.7.1 1l-13.3 15.5c0 .2-.2.3-.5.3z"/></g><path class="st11" d="m348 311.9 4.5-5.6-5.5-15.5-3.1 19.4c-.2 1.9 2.9 3.2 4.1 1.7zM353.2 363.7c2.3-1.5 3.5-3.6 5.5-7l4-6.2v-58.4l-9.5 71.6z"/><path class="st9" d="m246.8 236 25.1-22-3.7-49.8h-41.6l-3.1 50.2 23.3 21.6z"/><path class="st9" d="M273.8 146.7s5.2 57-26.1 57.4c-30.6.4-28.1-56.7-28.1-56.7l.1-16.4 39.6-4.6 9.6 5.7 4.9 14.6z"/><path class="st15" d="M267.2 133.5s10.3-6 14.3 5.5c3.4 9.7-3.9 19.7-3.9 19.7l-5.7-.9c-2.4-.2-4-1.4-4.1-3.8l-.6-20.5z"/><path class="st15" d="M274.7 127.1c.2 10.8-9.2 13.1-12.9 13.2l-31 .8c-2.5.1-4.5 2.1-4.5 4.6v9.8c0 1.3-1 2.5-2.4 2.6l-1.9.1-2.3 2.5c-11.9-3.6-14.9-38.2 7.7-43.8 2.4-.6 4.6-2.2 5.8-4.4 3.6-6.5 17-7.5 23.2.4 1.3 1.7 3 2.5 5.1 2.6 8.2.3 13.1 5.7 13.2 11.6z"/><path class="st9" d="M221.8 161.6c-.2-4-4.8-6.3-8-4l-.1.1c-5.6 4.3-3 18.9 8.7 18.3l-.6-14.4zM280.4 157.4l-.1-.1c-3.3-2.3-7.8.1-7.9 4.1l-.2 13.8c11.8.3 13.8-13.7 8.2-17.8z"/><path class="st15" d="M223.2 163.5c0 .7-.6 1.3-1.4 1.3-.8 0-1.4-.5-1.5-1.1l-.8-9.3 3.8.4-.1 8.7zM274.8 162.7c0 .7-.6 1.3-1.4 1.3-.8 0-1.4-.5-1.5-1.1l-.8-9.3 3.8.4-.1 8.7z"/><path class="st9" d="M261.8 141.7c-.9 0-1.5-.1-1.6-.1-.4 0-.6-.4-.6-.7 0-.4.4-.6.7-.6.1 0 6.2.7 9.1-3.3.2-.3.6-.4.9-.1.3.2.4.6.1.9-2.2 3.3-6.3 3.9-8.6 3.9z"/><path class="st15" d="M237.1 170.5c1.5 0 2.7-1.2 2.7-2.7 0-1.5-1.2-2.7-2.7-2.7s-2.7 1.2-2.7 2.7c0 1.5 1.3 2.7 2.7 2.7z"/><path class="st14" d="M235.8 168.1c.3 0 .6-.3.6-.6s-.3-.6-.6-.6-.6.3-.6.6.3.6.6.6z"/><path class="st15" d="M258 170.2c1.5 0 2.7-1.2 2.7-2.7s-1.2-2.7-2.7-2.7-2.7 1.2-2.7 2.7 1.3 2.7 2.7 2.7z"/><path class="st14" d="M256.7 167.8c.3 0 .6-.3.6-.6s-.3-.6-.6-.6-.6.3-.6.6.3.6.6.6z"/><g class="st16"><path class="st17" d="M248.1 181.3h2.2c.4 0 .8-.4.8-.8s-.4-.8-.8-.8h-2.2c-.9 0-1.6-.7-1.6-1.6s.7-1.7 1.6-1.7c.4 0 .8-.4.8-.8s-.4-.8-.8-.8c-1.8 0-3.2 1.5-3.2 3.2 0 1.9 1.4 3.4 3.2 3.3z"/></g><path class="st15" d="M266 160.7H228.9c-2.2 0-3.9 1.7-3.9 3.9v3c0 5.8 4.7 10.6 10.6 10.6 5.8 0 10.6-4.7 10.6-10.6v-3c0-.9-.3-1.7-.8-2.4h4.1c-.5.7-.8 1.5-.8 2.3v3c0 5.8 4.7 10.6 10.6 10.6 5.8 0 10.6-4.7 10.6-10.6v-3c0-2-1.7-3.8-3.9-3.8zm-21.4 3.9v3c0 5-4.1 9-9.1 9s-9-4.1-9-9.1v-3c0-1.3 1.1-2.3 2.4-2.3h13.4c1.3 0 2.4 1.1 2.3 2.4zm23.7 3c0 5-4.1 9-9.1 9s-9-4.1-9-9.1v-3c0-1.3 1.1-2.3 2.4-2.3H266c1.3 0 2.3 1.1 2.3 2.4v3z"/><path class="st14" d="m241.2 185.2 13.3-.2c.3 0 .6.3.5.7-2.3 6.7-11.6 6.9-14.2.3v-.1c-.2-.3.1-.7.4-.7z"/><g class="st16"><path class="st17" d="M218.4 168.9c-.4 0-.8-.3-.8-.7l-.1-1.7c-.1-1.8-.5-3-1.3-3.7-.6-.5-1.2-.5-1.3-.5-.4 0-.8-.3-.8-.7s.3-.8.7-.9c.1 0 1.3-.1 2.4.8 1.1.9 1.7 2.6 1.8 4.8l.1 1.7c.1.5-.2.8-.7.9.1 0 .1 0 0 0z"/></g><g class="st16"><path class="st17" d="M276.1 168.1c.4 0 .8-.3.8-.7l.1-1.7c0-1.8.4-3.1 1.1-3.7.6-.6 1.2-.5 1.2-.5.4 0 .8-.3.8-.7 0-.4-.3-.8-.7-.8-.1 0-1.3-.1-2.4.9s-1.7 2.6-1.7 4.9l-.1 1.7c.1.2.4.5.9.6z"/></g><path class="st8" d="m269.8 185.7.1-.3c-3.4 9.7-9.8 17.5-20 18.6h.1c-.7.1-1.5.1-2.2.1-8.2.1-14.7-4.1-19.3-12.4-.2-.3-.6-.5-1-.3-.3.2-.5.6-.3 1 4.9 8.8 11.8 13.2 20.6 13.1 1.9 0 3.7-.3 5.4-.7 5.4 1.1 11.6.1 17.7-3.8l-1.1-15.3z"/><path class="st18" d="m108.4 773.9 43.6 80.5c.9 1.8 3 2.5 4.9 1.8.4-.1.8-.3 1.1-.5l-47.9-90c-2.5 2-3.2 5.4-1.7 8.2zM181.3 856.5h37.2c2.9 0 5-2.7 4.4-5.5h-46c-.6 2.8 1.5 5.5 4.4 5.5z"/><path class="st10" d="m277.5 333.6-3.1-1 .1-.5 2.7.9 1.9-3.2.5.3-2.1 3.5z"/><path class="st7" d="M1024.2 522.5h-55.9v118h55.9v-118z"/><path class="st1" d="M1002.2 522.5h23.9v11.4h-1.9v106.6h-18.4V533.9h-3.6v-11.4z"/><path class="st7" d="M1001.6 522.5h-33.3v11.4h33.3v-11.4z"/><path class="st1" d="M1012.3 533.9h-44v1.5h44v-1.5z"/><path class="st14" d="M1046 434.1H814v9.6h222.3v196.8H814v9.6h222.3v206.4h9.7V434.1z"/><path class="st1" d="M677.8 107.4c0-26.7 20.2-48.7 46.2-51.6v-.3h5.7c28.7 0 51.9 23.2 51.9 51.9s-23.2 51.9-51.9 51.9H724v-.3c-26-2.9-46.2-24.9-46.2-51.6z"/><path class="st4" d="M724 159.3c28.7 0 51.9-23.2 51.9-51.9S752.7 55.5 724 55.5s-51.9 23.2-51.9 51.9 23.3 51.9 51.9 51.9z"/><path class="st14" d="M724 153.6c25.5 0 46.2-20.7 46.2-46.2 0-25.5-20.7-46.2-46.2-46.2-25.5 0-46.2 20.7-46.2 46.2 0 25.5 20.7 46.2 46.2 46.2z"/><path class="st4" d="M724 153.6c25.5 0 46.2-20.7 46.2-46.2 0-25.5-20.7-46.2-46.2-46.2-25.5 0-46.2 20.7-46.2 46.2 0 25.5 20.7 46.2 46.2 46.2z"/><path d="M724 153.6c25.5 0 46.2-20.7 46.2-46.2 0-25.5-20.7-46.2-46.2-46.2-25.5 0-46.2 20.7-46.2 46.2 0 25.5 20.7 46.2 46.2 46.2z" style="opacity:.9;fill:#fff;enable-background:new"/><path class="st1" d="M724 61.2c.8 0 1.7 0 2.5.1-24.4 1.3-43.7 21.4-43.7 46.1 0 24.7 19.4 44.8 43.7 46.1-.8 0-1.6.1-2.5.1-25.5 0-46.2-20.7-46.2-46.2s20.7-46.2 46.2-46.2z"/><path class="st5" d="m723.5 111 15.3-30.5c.6-1.2.1-2.6-1.1-3.2-1.2-.6-2.6-.1-3.2 1.1l-13.1 26.2-17.6-8.6c-1.2-.6-2.6-.1-3.2 1.1-.6 1.2-.1 2.6 1.1 3.2l21.8 10.7z"/><path class="st20" d="M684.4 131.2c-4.2-7-6.6-15.1-6.6-23.8 0-25.5 20.7-46.2 46.2-46.2 1.3 0 2.5.1 3.8.2l-43.4 69.8zM734.7 62.5c2.2.5 4.4 1.2 6.5 2.1l-47.8 77.5c-1.9-1.6-3.6-3.5-5.2-5.4l46.5-74.2z"/><path class="st5" d="M969.7 857.2h-583c-7.9 0-14.2-6.4-14.2-14.2V260c0-7.9 6.4-14.2 14.2-14.2h583c7.9 0 14.2 6.4 14.2 14.2v583c0 7.9-6.3 14.2-14.2 14.2z"/><path class="st20" d="M969.7 857.2h-583c-7.9 0-14.2-6.4-14.2-14.2V260c0-7.9 6.4-14.2 14.2-14.2h583c7.9 0 14.2 6.4 14.2 14.2v583c0 7.9-6.3 14.2-14.2 14.2z"/><path class="st5" d="M959.9 857.2h-583c-7.9 0-14.2-6.4-14.2-14.2V260c0-7.9 6.4-14.2 14.2-14.2h583c7.9 0 14.2 6.4 14.2 14.2v583c0 7.9-6.3 14.2-14.2 14.2z"/><path d="M959.9 857.2h-583c-7.9 0-14.2-6.4-14.2-14.2V260c0-7.9 6.4-14.2 14.2-14.2h583c7.9 0 14.2 6.4 14.2 14.2v583c0 7.9-6.3 14.2-14.2 14.2z" style="opacity:.7;fill:#fff;enable-background:new"/><path class="st9" d="M395.9 240.9c0 2.7 2.2 4.8 4.8 4.8h6.6l1.6 16c.1 1.2 1.2 2.2 2.4 2.2 1.3 0 2.3-1 2.4-2.3l1-15.3c0-.2.2-.4.5-.4.2 0 .4.2.5.4l1 15.1c.1 1.4 1.2 2.5 2.6 2.5 1.4 0 2.6-1.1 2.6-2.6l.5-15.3-.5 14.9c-.1 1.6 1.3 3 2.9 3 1.5 0 2.7-1.1 2.9-2.6l1.4-15.2-1 11.3c-.1 1.4 1 2.7 2.4 2.7 1.2 0 2.2-.8 2.4-2l1.9-9.6c.5-2.5-.4-5.1-2.3-6.7-7.7-6.7-18.7-8-27.7-3.1l-8.5 1.7c-.2-.1-.4.2-.4.5z"/><g class="st13"><path class="st8" d="m421.8 246-.5 14.1h1.4l.5-14.1h-1.4z"/></g><g class="st13"><path class="st8" d="m428.3 246.9-.9 11.4 1.4.1.9-11.4-1.4-.1z"/></g><path class="st11" d="M407.3 245.8h-6.6l4-3.8c.8-.8 2.2-.3 2.3.9l.3 2.9z"/><path class="st5" d="M644.5 522.4H447.8c-4.2 0-7.5-3.4-7.5-7.5V318.2c0-4.2 3.4-7.5 7.5-7.5h196.7c4.2 0 7.5 3.4 7.5 7.5v196.7c0 4.2-3.3 7.5-7.5 7.5z"/><path class="st20" d="M644.5 522.4H447.8c-4.2 0-7.5-3.4-7.5-7.5V318.2c0-4.2 3.4-7.5 7.5-7.5h196.7c4.2 0 7.5 3.4 7.5 7.5v196.7c0 4.2-3.3 7.5-7.5 7.5z"/><path class="st14" d="M634.7 522.4H438c-4.2 0-7.5-3.4-7.5-7.5V318.2c0-4.2 3.4-7.5 7.5-7.5h196.7c4.2 0 7.5 3.4 7.5 7.5v196.7c.1 4.2-3.3 7.5-7.5 7.5z"/><path class="st2" d="M582.7 455.5h-92.6c-3.3 0-5.9-2.7-5.9-5.9 0-3.3 2.7-5.9 5.9-5.9h92.6c3.3 0 5.9 2.7 5.9 5.9 0 3.3-2.6 5.9-5.9 5.9z"/><path class="st1" d="M606.8 478.6H466c-1.7 0-3.1-1.4-3.1-3.1 0-1.7 1.4-3.1 3.1-3.1h140.8c1.7 0 3.1 1.4 3.1 3.1.1 1.7-1.4 3.1-3.1 3.1zM578.4 497.8h-83.9c-1.7 0-3.1-1.4-3.1-3.1s1.4-3.1 3.1-3.1h83.9c1.7 0 3.1 1.4 3.1 3.1s-1.4 3.1-3.1 3.1z"/><path class="st5" d="M544.4 335.3h-8v.8c-18.6 3.7-32.7 20.2-32.7 39.9s14 36.2 32.7 39.9v.8h8c22.5 0 40.7-18.2 40.7-40.7s-18.2-40.7-40.7-40.7z"/><path class="st5" d="M536.4 416.6c22.5 0 40.7-18.2 40.7-40.7 0-22.5-18.2-40.7-40.7-40.7-22.5 0-40.7 18.2-40.7 40.7 0 22.5 18.3 40.7 40.7 40.7z"/><path class="st22" d="M536.4 416.6c22.5 0 40.7-18.2 40.7-40.7 0-22.5-18.2-40.7-40.7-40.7-22.5 0-40.7 18.2-40.7 40.7 0 22.5 18.3 40.7 40.7 40.7z"/><path class="st14" d="m528.8 392.9-13.7-13.7c-.7-.7-.7-1.9 0-2.7l3.6-3.6c.7-.7 1.9-.7 2.7 0l8.8 8.8 21.2-21.3c.7-.7 1.9-.7 2.7 0l3.6 3.6c.7.7.7 1.9 0 2.7l-26.2 26.2c-.7.8-1.9.8-2.7 0z"/><path class="st5" d="M908.5 522.4H711.8c-4.2 0-7.5-3.4-7.5-7.5V318.2c0-4.2 3.4-7.5 7.5-7.5h196.7c4.2 0 7.5 3.4 7.5 7.5v196.7c.1 4.2-3.3 7.5-7.5 7.5z"/><path class="st20" d="M908.5 522.4H711.8c-4.2 0-7.5-3.4-7.5-7.5V318.2c0-4.2 3.4-7.5 7.5-7.5h196.7c4.2 0 7.5 3.4 7.5 7.5v196.7c.1 4.2-3.3 7.5-7.5 7.5z"/><path class="st14" d="M898.7 522.4H702.1c-4.2 0-7.5-3.4-7.5-7.5V318.2c0-4.2 3.4-7.5 7.5-7.5h196.7c4.2 0 7.5 3.4 7.5 7.5v196.7c0 4.2-3.4 7.5-7.6 7.5z"/><path class="st2" d="M846.7 455.5h-92.6c-3.3 0-5.9-2.7-5.9-5.9 0-3.3 2.7-5.9 5.9-5.9h92.6c3.3 0 5.9 2.7 5.9 5.9.1 3.3-2.6 5.9-5.9 5.9z"/><path class="st1" d="M870.8 478.6H730c-1.7 0-3.1-1.4-3.1-3.1 0-1.7 1.4-3.1 3.1-3.1h140.8c1.7 0 3.1 1.4 3.1 3.1.1 1.7-1.3 3.1-3.1 3.1zM842.4 497.8h-83.9c-1.7 0-3.1-1.4-3.1-3.1s1.4-3.1 3.1-3.1h83.9c1.7 0 3.1 1.4 3.1 3.1s-1.4 3.1-3.1 3.1z"/><path class="st5" d="M808.4 335.3h-8v.8c-18.6 3.7-32.7 20.2-32.7 39.9s14 36.2 32.7 39.9v.8h8c22.5 0 40.7-18.2 40.7-40.7s-18.2-40.7-40.7-40.7z"/><path class="st5" d="M840.6 382.4c3.6-22.2-11.5-43.1-33.7-46.7-22.2-3.6-43.1 11.5-46.7 33.7-3.6 22.2 11.5 43.1 33.7 46.7 22.2 3.6 43.1-11.5 46.7-33.7z"/><path class="st22" d="M840.6 382.4c3.6-22.2-11.5-43.1-33.7-46.7-22.2-3.6-43.1 11.5-46.7 33.7-3.6 22.2 11.5 43.1 33.7 46.7 22.2 3.6 43.1-11.5 46.7-33.7z"/><path class="st14" d="m792.9 392.9-13.7-13.7c-.7-.7-.7-1.9 0-2.7l3.6-3.6c.7-.7 1.9-.7 2.7 0l8.8 8.8 21.2-21.3c.7-.7 1.9-.7 2.7 0l3.6 3.6c.7.7.7 1.9 0 2.7l-26.2 26.2c-.8.8-2 .8-2.7 0z"/><path class="st5" d="M644.5 800.2H447.8c-4.2 0-7.5-3.4-7.5-7.5V596c0-4.2 3.4-7.5 7.5-7.5h196.7c4.2 0 7.5 3.4 7.5 7.5v196.7c0 4.1-3.3 7.5-7.5 7.5z"/><path class="st20" d="M644.5 800.2H447.8c-4.2 0-7.5-3.4-7.5-7.5V596c0-4.2 3.4-7.5 7.5-7.5h196.7c4.2 0 7.5 3.4 7.5 7.5v196.7c0 4.1-3.3 7.5-7.5 7.5z"/><path class="st14" d="M634.7 800.2H438c-4.2 0-7.5-3.4-7.5-7.5V596c0-4.2 3.4-7.5 7.5-7.5h196.7c4.2 0 7.5 3.4 7.5 7.5v196.7c.1 4.1-3.3 7.5-7.5 7.5z"/><path class="st2" d="M582.7 733.3h-92.6c-3.3 0-5.9-2.7-5.9-5.9 0-3.3 2.7-5.9 5.9-5.9h92.6c3.3 0 5.9 2.7 5.9 5.9 0 3.3-2.6 5.9-5.9 5.9z"/><path class="st1" d="M606.8 756.4H466c-1.7 0-3.1-1.4-3.1-3.1s1.4-3.1 3.1-3.1h140.8c1.7 0 3.1 1.4 3.1 3.1.1 1.7-1.4 3.1-3.1 3.1zM578.4 775.6h-83.9c-1.7 0-3.1-1.4-3.1-3.1 0-1.7 1.4-3.1 3.1-3.1h83.9c1.7 0 3.1 1.4 3.1 3.1 0 1.7-1.4 3.1-3.1 3.1z"/><path class="st5" d="M544.4 613.1h-8v.8c-18.6 3.7-32.7 20.2-32.7 39.9s14 36.2 32.7 39.9v.8h8c22.5 0 40.7-18.2 40.7-40.7s-18.2-40.7-40.7-40.7z"/><path class="st5" d="M536.4 694.4c22.5 0 40.7-18.2 40.7-40.7 0-22.5-18.2-40.7-40.7-40.7-22.5 0-40.7 18.2-40.7 40.7 0 22.5 18.3 40.7 40.7 40.7z"/><path class="st22" d="M536.4 694.4c22.5 0 40.7-18.2 40.7-40.7 0-22.5-18.2-40.7-40.7-40.7-22.5 0-40.7 18.2-40.7 40.7 0 22.5 18.3 40.7 40.7 40.7z"/><path class="st14" d="M528.8 670.7 515.1 657c-.7-.7-.7-1.9 0-2.7l3.6-3.6c.7-.7 1.9-.7 2.7 0l8.8 8.8 21.2-21.3c.7-.7 1.9-.7 2.7 0l3.6 3.6c.7.7.7 1.9 0 2.7l-26.2 26.2c-.7.8-1.9.8-2.7 0z"/><path class="st5" d="M908.5 800.2H711.8c-4.2 0-7.5-3.4-7.5-7.5V596c0-4.2 3.4-7.5 7.5-7.5h196.7c4.2 0 7.5 3.4 7.5 7.5v196.7c.1 4.1-3.3 7.5-7.5 7.5z"/><path class="st20" d="M908.5 800.2H711.8c-4.2 0-7.5-3.4-7.5-7.5V596c0-4.2 3.4-7.5 7.5-7.5h196.7c4.2 0 7.5 3.4 7.5 7.5v196.7c.1 4.1-3.3 7.5-7.5 7.5z"/><path class="st14" d="M898.7 800.2H702.1c-4.2 0-7.5-3.4-7.5-7.5V596c0-4.2 3.4-7.5 7.5-7.5h196.7c4.2 0 7.5 3.4 7.5 7.5v196.7c0 4.1-3.4 7.5-7.6 7.5z"/><path class="st2" d="M846.7 733.3h-92.6c-3.3 0-5.9-2.7-5.9-5.9 0-3.3 2.7-5.9 5.9-5.9h92.6c3.3 0 5.9 2.7 5.9 5.9.1 3.3-2.6 5.9-5.9 5.9z"/><path class="st1" d="M870.8 756.4H730c-1.7 0-3.1-1.4-3.1-3.1s1.4-3.1 3.1-3.1h140.8c1.7 0 3.1 1.4 3.1 3.1.1 1.7-1.3 3.1-3.1 3.1zM842.4 775.6h-83.9c-1.7 0-3.1-1.4-3.1-3.1 0-1.7 1.4-3.1 3.1-3.1h83.9c1.7 0 3.1 1.4 3.1 3.1 0 1.7-1.4 3.1-3.1 3.1z"/><path class="st5" d="M808.4 613.1h-8v.8c-18.6 3.7-32.7 20.2-32.7 39.9s14 36.2 32.7 39.9v.8h8c22.5 0 40.7-18.2 40.7-40.7s-18.2-40.7-40.7-40.7z"/><path class="st5" d="M840.6 660.2c3.6-22.2-11.5-43.1-33.7-46.7-22.2-3.6-43.1 11.5-46.7 33.7-3.6 22.2 11.5 43.1 33.7 46.7 22.2 3.6 43.1-11.5 46.7-33.7z"/><path class="st22" d="M840.6 660.2c3.6-22.2-11.5-43.1-33.7-46.7-22.2-3.6-43.1 11.5-46.7 33.7-3.6 22.2 11.5 43.1 33.7 46.7 22.2 3.6 43.1-11.5 46.7-33.7z"/><path class="st14" d="M792.9 670.7 779.2 657c-.7-.7-.7-1.9 0-2.7l3.6-3.6c.7-.7 1.9-.7 2.7 0l8.8 8.8 21.2-21.3c.7-.7 1.9-.7 2.7 0l3.6 3.6c.7.7.7 1.9 0 2.7l-26.2 26.2c-.8.8-2 .8-2.7 0z"/><path class="st3" d="M762.8 839.5c-7.4 0-13.4 6-13.4 13.4 0 1.6 1.3 2.9 2.9 2.9h21.5c2.4 0 4.6-1.4 5.6-3.7l28-62.8L776 753c.5 1.7-13.2 86.5-13.2 86.5zM917.9 787.8h-53.2l21.4 20.5c3.1 3 4.5 7.3 3.7 11.6l-3.8 19.6c-7.1 0-12.8 5.7-12.8 12.8v.6c0 1.6 1.3 2.9 2.9 2.9h19.5c2.3 0 4.5-1.3 5.5-3.4l18.3-37.1c2.4-4.9 3-10.6 1.6-15.9l-3.1-11.6z"/><path class="st4" d="M946.8 745.8c11.2-3.4 32-15.4 41.6-27.7.7-1 .7-2.3 0-3.3-.8-1-2.2-1.2-3.3-.6-84.4 47.6-171-8.8-171-8.8-1.2-6.7-5.3-12.4-11.2-15.8-11.8-6.7-26.3-6.7-38.2-.1-4.1 2.3-9 2.8-13.5 1.2L738 686c-2.3-.8-4.8.7-5 3.2l-.4 3.9c-1.3 11.6 2.8 23.2 11 31.5l56.6 57.4c6.4 6.5 9.3 15.6 8 24.6l-5 33c-7.4 0-13.4 6-13.4 13.4 0 1.6 1.3 2.9 2.9 2.9h21.5c2.4 0 4.6-1.4 5.6-3.7l28.5-64.3h56.5l21.4 20.5c3.1 3 4.5 7.3 3.7 11.6l-3.8 19.6c-7.1 0-12.8 5.7-12.8 12.8 0 2 1.6 3.5 3.5 3.5h18.8c2.3 0 4.5-1.3 5.5-3.4l18.3-37.1c2.4-4.9 3-10.6 1.6-15.9l-14.2-53.7z"/><path class="st3" d="M776.9 698.2c1.5-1.5 1.9-3.6.8-4.7-1.1-1.1-3.1-.7-4.7.8-1.5 1.5-1.9 3.6-.8 4.7 1.1 1.1 3.2.7 4.7-.8zM934.2 773.6c0 11.4 9.2 20.6 20.6 20.6 1.5 0 3-.2 4.5-.5L949 753.9c-8.6 2.4-14.8 10.3-14.8 19.7zM844.4 796.1l-3.7-1.5c-5-2-10.6-.8-14.4 3-3.1 3.2-4.4 7.7-3.5 12.1l.7 3c.5 2.4.4 4.9-.4 7.3l-.3.8c-2 5.8-.9 12.2 3.1 17l18.5-41.7zM819.4 708.7l3.6 22.1c2 12.4 13.1 20.5 24.3 17.8l10.4-2.5c2.3-.6 4.8-.6 7.1-.2l22.3 4.3c10.9 2.1 21.8-3.3 27.6-13.6l1.8-3.2c-45.4 1.3-83.4-17.1-97.1-24.7zM960.6 725.3c2.1 1.6 4.7 2.5 7.6 2.5 6.5 0 11.9-4.9 12.6-11.2-6.8 3.5-13.5 6.4-20.2 8.7z"/><path class="st1" d="M761.2 716c-3-4.1-4.2-9.2-3.6-14.2l1.4-10.2c-2.6.4-5.3.2-7.8-.7l-13.2-4.7c-2.3-.8-4.8.7-5 3.2l-.4 3.9c-1.3 11.6 2.8 23.2 11 31.5l16.6 16.8 2.4-4.4c3.6-6.8 3.1-15-1.4-21.2z"/><path class="st3" d="m811.4 709.3 10.3 25.9c2.6 6.1.1 14.2-5.4 17.8-6.5 4.3-15.3 4.6-23.9-3.7-11.7-11.2-6.8-36.1-.8-45.6M904.5 787.9l-11.3-12.3 9.5 20.7 1.8-8.4zM746 689l-7.9-2.8c-2.4-.9-5 .8-5.3 3.3l-.6 5.6c1 .2 2 .4 3 .4 4.7-.1 8.8-2.7 10.8-6.5z"/><path class="st4" d="m810.4 706.8 10.8 26.8c1.6 3.9.2 8.4-3.4 10.6-5.3 3.3-13.9 5.6-23.2-3.3-9.9-9.5-8.5-29.7-2.1-38.8"/><path class="st3" d="M808.2 747.8c-4.2 0-9-1.7-14-6.5-4.7-4.5-7.3-11.6-7.4-20.1-.1-7.5 1.9-15 5.2-19.7.2-.3.6-.4.9-.2.3.2.4.6.2.9-6 8.4-7.8 28.5 2 38 9 8.6 17.1 6.5 22.4 3.2 3.3-2.1 4.6-6.1 3.1-9.7l-10.8-26.8c-.1-.3 0-.7.4-.9.3-.1.7 0 .9.4l10.8 26.8c1.8 4.2.2 9-3.6 11.4-2.8 1.8-6.2 3.2-10.1 3.2z"/><path class="st1" d="M848 787.9s12-14.2 45.2-12.4l5.6 12.4H848z"/><path class="st3" d="m946 742.4.8 3.5s8.5-2.7 16.1-7.3l-16.9 3.8zM744.2 709c-2.7 0-5-.8-6.8-2.3-5.7-4.8-4.8-15.3-4.8-15.8 0-.4.4-.6.7-.6.4 0 .6.4.6.7 0 .1-.9 10.3 4.3 14.6 2.5 2.1 6 2.5 10.5 1.3.4-.1.7.1.8.5.1.4-.1.7-.5.8-1.6.6-3.3.8-4.8.8z"/><path class="st7" d="M1106.1 434.1H1046v422.4h60.1V434.1z"/><path d="M1158.2 859.6H25.3c-.7 0-1.2-.5-1.2-1.2s.5-1.2 1.2-1.9h1132.8c1.2.2 1.2 1.2 1.2 1.9 0 .6-.5 1.2-1.1 1.2z" style="fill:#9ca3af"/></svg>