<svg version="1.1" id="Layer_1" xmlns="http://www.w3.org/2000/svg" x="0" y="0" viewBox="0 0 1187.3 844" style="enable-background:new 0 0 1187.3 844" xml:space="preserve"><style>.st2{fill:#14b8a6}.st6{fill:#fc9d9d}.st7{opacity:.15;enable-background:new}.st8{fill:#fff}.st11,.st9{opacity:.3;enable-background:new}.st11{opacity:.8;fill:#fff}.st12{fill:#3f4249}.st13,.st14{opacity:.4;enable-background:new}.st14{opacity:.2}.st15{fill:#001b34}.st18,.st19{fill:#fff;stroke:#fff;stroke-width:.4;stroke-miterlimit:10}.st19{fill:none;stroke-width:1.61;stroke-linecap:round}.st20{opacity:.3}.st21{fill:#61656d}.st22,.st23{opacity:.2}.st23{fill:#fff;enable-background:new}.st25{fill:#dadddf}.st29{fill:#b2b6bb}.st30{opacity:.15}</style><path d="M84.9 842.4.6 406.3c-1-6-.8-12.2.7-18.1 1.5-5.9 4.1-11.5 7.8-16.4L278.3 17.7c4.2-5.5 9.6-9.9 15.7-13 6.2-3.1 13-4.7 19.9-4.7h516.6c6.2 0 12.4 1.3 18.1 3.8 5.7 2.5 10.8 6.2 15 10.8l312 342.5c4.1 4.5 7.2 9.8 9.2 15.5 2 5.7 2.8 11.8 2.3 17.9l-65.2 451.6-1037 .3z" style="fill:#f9fafb"/><path d="M1175.2 844H37.3c-.4 0-.8-.2-1-.5-.3-.3-.4-.7-.4-1.1 0-.4.2-.8.4-1.1.3-.3.6-.5 1-.5h1137.9c.4 0 .8.2 1 .5.3.3.4.7.4 1.1 0 .4-.2.8-.4 1.1-.2.3-.6.5-1 .5z" style="fill:#9ca3af"/><path class="st2" d="m905.5 460.1 3.2-108.5 1.2 4.4 39.3-9.2-10.7-49.6c-1.1-5-3.3-9.6-6.6-13.5-3.2-3.9-7.3-7-12-9.1l-48.6-21.1h-.1l-2.9-1.3-3.8.8-25.9 5.8-8.8-11.5-3-1v.1l-32-3.6c-11.7-1.3-23.4.9-33.8 6.2l-43.4 22.3 28.6 30.4 26.4-5.7 1.5 11.6c6.2 46.4 7.8 105.7 5.7 152.6h125.7zm-34-206.5v.2-.2z"/><path d="m780 452.7 7.8 339.8H819l17.4-285.9c.1-1.6.8-3.1 2-4.2s2.8-1.7 4.4-1.7c1.6 0 3.2.6 4.4 1.8 1.2 1.1 1.9 2.7 1.9 4.3l15.8 285.8h31.2l9.6-339.8H780z" style="fill:#21252b"/><g style="opacity:.5"><path d="m780 452.7-1 9.9h126.5l.4-9.9H780z" style="opacity:.5;enable-background:new"/></g><path class="st6" d="m791.1 812-.8-27.2h26.5l-1.2 28.1-24.5-.9z"/><path class="st7" d="m816.5 792.4-.8 20.4-6.3-.2.2-12c0-.9-.3-1.9-.9-2.6-.6-.7-1.4-1.3-2.3-1.5l-15.8-4.1h25.9z"/><path class="st6" d="m892.8 812 .8-27.2H867l1.2 28.1 24.6-.9zM827 210.5l.3 38.4c0 .9.3 1.8.8 2.6l.4.7c2.2 3.3 5.1 6.1 8.4 8.2 3.3 2.1 7.1 3.5 11 4 3.9.6 7.9.3 11.7-.8 3.8-1.1 7.3-2.9 10.4-5.4.6-.5 1.1-1.2 1.4-2 .3-.8.4-1.6.2-2.5l-7-46.2-37.6 3z"/><path class="st6" d="M868.6 191.5s7.6 50.5-20.2 52.6c-27.2 2-28.1-49-28.1-49l-.8-14.6 35.1-6.1 8.9 4.6 5.1 12.5z"/><path class="st7" d="m869.3 239.9-2.1-13.9c-2.5 9-7.7 16.4-16.9 17.9h.1l-2 .3c-7.3.6-13.3-2.8-17.9-10 0-.1-.1-.1-.2-.2s-.1-.1-.2-.1h-.2c-.1 0-.2 0-.2.1-.1 0-.1.1-.2.2s-.1.1-.1.2v.2c0 .1.1.2.1.2 4.8 7.7 11.3 11.2 19 10.6 1.6-.1 3.2-.4 4.8-.9 5.7.6 11.5-1.1 16-4.6z"/><path d="M862 180.2s8.8-5.9 13 4.2c3.5 8.5-2.4 17.7-2.4 17.7l-5.1-.6c-2.2-.1-3.6-1.1-3.8-3.2l-1.7-18.1z"/><path d="M868.4 174c.7 9.6-7.5 12.1-10.8 12.4l-27.5 2.3c-1.1.1-2.1.6-2.8 1.4-.7.8-1.1 1.9-1 3l.5 8.8c0 .6-.1 1.2-.5 1.6-.4.5-.9.7-1.5.8l-1.7.2-1.9 2.3c-10.8-2.6-15.3-33.3 4.6-39.4 1.1-.3 2.1-.9 2.9-1.6s1.6-1.6 2.1-2.6c2.9-6 14.7-7.5 20.7-.8.6.7 1.3 1.2 2.1 1.6.8.4 1.7.5 2.6.5 7.1-.3 11.8 4.2 12.2 9.5z"/><path class="st6" d="M823.1 207.5c-.1-.8-.4-1.6-.9-2.2-.5-.7-1.2-1.2-1.9-1.5s-1.6-.4-2.4-.3c-.8.1-1.6.4-2.2 1l-.1.1c-4.8 4.1-1.7 17 8.8 15.9l-1.3-13zM875.1 200.7c-.8-.5-1.6-.7-2.4-.7-.8 0-1.6.2-2.3.6-.7.4-1.3 1-1.7 1.7-.4.7-.6 1.5-.5 2.3l.6 12.3c10.5-.2 11.5-12.8 6.3-16.2z"/><path d="M824.4 209.1c0 .3-.1.6-.3.9-.2.2-.5.4-.8.4-.3 0-.6 0-.9-.2-.3-.2-.4-.4-.5-.7l-1.2-8.3 3.5.1.2 7.8zM870.3 205.7c0 .3-.1.6-.3.9-.2.2-.5.4-.8.4-.3 0-.6 0-.9-.2-.3-.2-.4-.4-.5-.7l-1.2-8.3 3.5.1.2 7.8z"/><path class="st6" d="M857.7 187.7c-.5.1-.9.1-1.4 0-.1 0-.3-.1-.4-.2-.1-.1-.1-.3-.1-.4 0-.1.1-.3.2-.4s.2-.2.4-.2c.1 0 5.6.3 7.9-3.4.1-.1.2-.2.4-.3.2 0 .3 0 .5.1.1 0 .1.1.2.2s.1.1.1.2v.2c0 .1 0 .2-.1.2-2.1 3.1-5.7 3.9-7.7 4z"/><path d="M837 214.7c.5 0 .9-.1 1.3-.4s.7-.6.9-1.1c.2-.4.2-.9.1-1.4-.1-.5-.3-.9-.7-1.2s-.8-.6-1.2-.7c-.5-.1-1 0-1.4.1-.4.2-.8.5-1.1.9s-.4.9-.4 1.4c0 .3.1.6.2.9.1.3.3.6.5.8.2.2.5.4.8.5.4.1.7.2 1 .2z"/><path class="st8" d="M835.9 212.5h.2c.1 0 .1-.1.2-.1.1-.1.1-.1.1-.2s.1-.2.1-.2c0-.1 0-.2-.1-.2 0-.1-.1-.1-.1-.2-.1-.1-.1-.1-.2-.1h-.4c-.1 0-.1.1-.2.1l-.2.2v.4c0 .1.1.1.2.2s.1.1.2.1c0 0 .1.1.2 0z"/><path d="M855.6 213.3c.5 0 .9-.1 1.3-.4.4-.3.7-.6.9-1.1.2-.4.2-.9.1-1.4-.1-.5-.3-.9-.7-1.2-.3-.3-.8-.6-1.2-.7-.5-.1-1 0-1.4.1-.4.2-.8.5-1.1.9-.3.4-.4.9-.4 1.4 0 .3.1.6.2.9.1.3.3.6.5.8.2.2.5.4.8.5.4.1.7.2 1 .2z"/><path class="st8" d="M854.6 211.2c.1 0 .3-.1.4-.2.1-.1.2-.2.2-.4 0-.1-.1-.3-.2-.4-.1-.1-.2-.2-.4-.2s-.3.1-.4.2c-.1.1-.2.2-.2.4 0 .1.1.3.2.4.1.2.2.2.4.2z"/><path class="st9" d="m847.6 223.7 2-.2c.2 0 .3-.1.5-.2s.2-.3.2-.5-.1-.4-.2-.5c-.1-.1-.3-.2-.5-.2l-2 .2c-.2 0-.4 0-.6-.1-.2-.1-.4-.2-.5-.3-.2-.1-.3-.3-.3-.5-.1-.2-.1-.4-.2-.6 0-.2 0-.4.1-.6.1-.2.2-.4.3-.5.1-.1.3-.3.5-.4.2-.1.4-.1.6-.2.1 0 .2 0 .3-.1.1 0 .2-.1.2-.2.1-.1.1-.1.1-.2v-.3c0-.1 0-.2-.1-.3 0-.1-.1-.2-.2-.2-.1-.1-.1-.1-.2-.1h-.3c-.4 0-.7.1-1.1.3-.3.2-.6.4-.9.7s-.4.6-.5 1c-.1.4-.1.7-.1 1.1 0 .4.1.8.2 1.1.2.3.4.7.6.9.3.3.6.5 1 .6.3.3.7.4 1.1.3z"/><path d="m862.4 204.4-10.5.6-1.4.1-9.2.6h-.1l-11.8.7c-.5 0-.9.1-1.3.3-.4.2-.8.5-1.1.8-.3.3-.5.8-.7 1.2-.2.4-.2.9-.2 1.4l.2 2.7c.2 2.5 1.3 4.8 3.2 6.4 1.9 1.6 4.3 2.5 6.8 2.4 2.5-.1 4.8-1.2 6.5-3.1 1.7-1.8 2.6-4.2 2.5-6.7l-.2-2.7c0-.8-.3-1.5-.8-2l3.6-.2c-.4.6-.6 1.4-.6 2.1l.2 2.7c.1 1.2.4 2.5.9 3.6s1.3 2.1 2.2 3c.9.8 2 1.5 3.2 1.9 1.2.4 2.4.6 3.7.5 1.2-.1 2.5-.4 3.6-.9s2.1-1.3 3-2.2c.8-.9 1.5-2 1.9-3.2.4-1.2.6-2.4.5-3.7l-.2-2.7c0-.5-.1-1-.3-1.4-.2-.4-.5-.8-.8-1.2-.3-.3-.8-.6-1.2-.7-.7-.2-1.1-.3-1.6-.3zm-18.9 4.6.2 2.7c.1 1.1-.1 2.1-.4 3.1-.3 1-.9 1.9-1.6 2.7-.7.8-1.5 1.4-2.5 1.9-.9.5-2 .7-3 .8-1 .1-2.1-.1-3.1-.4-1-.3-1.9-.9-2.7-1.6-.8-.7-1.4-1.5-1.9-2.5-.5-.9-.7-2-.8-3l-.2-2.7c0-.6.2-1.1.5-1.5.4-.4.9-.7 1.4-.7l11.8-.7h.1c.3 0 .5 0 .8.1s.5.2.7.4c.2.2.3.4.5.6.2.3.2.5.2.8zm21.4 1.5c.1 2.1-.6 4.2-2 5.8-1.4 1.6-3.4 2.5-5.5 2.7s-4.2-.6-5.8-2c-1.6-1.4-2.6-3.4-2.7-5.5l-.2-2.7c0-.6.2-1.1.6-1.5.4-.4.9-.7 1.4-.7l1.4-.1 10.5-.6c.6 0 1.1.2 1.5.5.4.4.7.9.7 1.5l.1 2.6z"/><path class="st8" d="m841.6 227.6 11.8-.8h.2c.1 0 .1.1.2.1 0 .1.1.1.1.2v.2c-.4 1.3-1.1 2.5-2.2 3.4-1.1.9-2.4 1.4-3.8 1.5-1.4.1-2.8-.2-3.9-.9-1.2-.7-2.1-1.8-2.7-3v-.1c0-.1-.1-.1-.1-.2v-.2c0-.1.1-.1.1-.2h.3z"/><path class="st9" d="M820.5 214.2c-.2 0-.3-.1-.5-.2-.1-.1-.2-.3-.3-.5l-.2-1.5c0-1.2-.5-2.4-1.3-3.3-.2-.1-.3-.2-.5-.3-.2-.1-.4-.1-.6-.1-.2 0-.4 0-.5-.1-.2-.1-.3-.3-.3-.5s0-.4.1-.5c.1-.2.3-.3.4-.3.8-.1 1.6.1 2.2.6.6.5 1.1 1.2 1.4 1.9.3.7.5 1.5.5 2.3l.2 1.5c0 .2-.1.4-.2.6 0 .2-.2.4-.4.4zM871.8 210.4c.2 0 .3-.1.5-.2.1-.1.2-.3.2-.5v-1.5c-.1-.6-.1-1.2.1-1.8.1-.6.4-1.1.8-1.6.1-.2.3-.3.5-.4.2-.1.4-.1.6-.1.2 0 .4 0 .5-.2.1-.1.2-.3.2-.5s-.1-.4-.2-.5c-.1-.1-.3-.2-.5-.2-.4 0-.8.1-1.1.3-.3.2-.7.4-.9.7-.9.9-1.3 2.4-1.2 4.5v1.5c-.2.2 0 .5.5.5z"/><path class="st2" d="M815.6 836.6v-23.8c0-3.5-1.4-6.8-3.8-9.2-2.4-2.4-5.7-3.8-9.2-3.9h-.6c-2.9 0-5.6 1-7.8 2.8-2.2 1.8-3.7 4.3-4.3 7.1-.7 3.4-2.2 6.6-4.5 9.2l-3.7 4.4c-3.2 3.7-4.9 8.5-4.9 13.3h38.8z"/><path class="st8" d="M793.1 812.5c-.1 0-.2 0-.3-.1-.1 0-.2-.1-.2-.2-.1-.3-.1-.6.2-.7 2.2-1.2 4.7-1.9 7.2-1.9s5 .7 7.2 1.9c.2.2.3.5.1.7-.2.2-.5.3-.7.1-2-1.2-4.3-1.8-6.7-1.8-2.3 0-4.6.6-6.7 1.8.1.2 0 .2-.1.2z"/><g style="opacity:.8"><path class="st11" d="m805.9 267-5 3.8-5.8-2.5-.8-6.3 5-3.8 5.8 2.5.8 6.3zM854.9 343l-5 3.8-5.8-2.5-.8-6.3 5-3.8 5.8 2.5.8 6.3zM824.9 395l-5 3.8-5.8-2.5-.8-6.3 5-3.8 5.8 2.5.8 6.3zM904.9 280l-5 3.8-5.8-2.5-.8-6.3 5-3.8 5.8 2.5.8 6.3zM851 298.3l-6.3-2.7-.8-6.8 5.5-4.2 6.3 2.7.8 6.8-5.5 4.2zm-5.5-3.3 5.3 2.2 4.6-3.5-.7-5.7-5.3-2.2-4.6 3.5.7 5.7zM801 363.3l-6.3-2.7-.8-6.8 5.5-4.2 6.3 2.7.8 6.8-5.5 4.2zm-5.5-3.3 5.3 2.2 4.6-3.5-.7-5.7-5.3-2.2-4.6 3.5.7 5.7zM847 444.3l-6.3-2.7-.8-6.8 5.5-4.2 6.3 2.7.8 6.8-5.5 4.2zm-5.5-3.3 5.3 2.2 4.6-3.5-.7-5.7-5.3-2.2-4.6 3.5.7 5.7zM930 332.3l-6.3-2.7-.8-6.8 5.5-4.2 6.3 2.7.8 6.8-5.5 4.2zm-5.5-3.3 5.3 2.2 4.6-3.5-.7-5.7-5.3-2.2-4.6 3.5.7 5.7zM864 385.3l-6.3-2.7-.8-6.8 5.5-4.2 6.3 2.7.8 6.8-5.5 4.2zm-5.5-3.3 5.3 2.2 4.6-3.5-.7-5.7-5.3-2.2-4.6 3.5.7 5.7zM888 338.3l-6.3-2.7-.8-6.8 5.5-4.2 6.3 2.7.8 6.8-5.5 4.2zm-5.5-3.3 5.3 2.2 4.6-3.5-.7-5.7-5.3-2.2-4.6 3.5.7 5.7zM750 277.3l-6.3-2.7-.8-6.8 5.5-4.2 6.3 2.7.8 6.8-5.5 4.2zm-5.5-3.3 5.3 2.2 4.6-3.5-.7-5.7-5.3-2.2-4.6 3.5.7 5.7zM804.9 438l-5 3.8-5.8-2.5-.8-6.3 5-3.8 5.8 2.5.8 6.3zM892.9 424l-5 3.8-5.8-2.5-.8-6.3 5-3.8 5.8 2.5.8 6.3zM805.9 317l-5 3.8-5.8-2.5-.8-6.3 5-3.8 5.8 2.5.8 6.3z"/></g><path class="st8" d="M791.5 815.8c-.1 0-.2 0-.3-.1-.1 0-.2-.1-.2-.2-.1-.3-.1-.6.2-.6 2.2-1.2 4.7-1.9 7.2-1.9s5 .7 7.2 1.9c.2.2.3.5.1.6l-.1.1c-.1 0-.1.1-.2.1h-.2c-.1 0-.1 0-.2-.1-2-1.2-4.3-1.8-6.7-1.8-2.3 0-4.6.6-6.7 1.8.1.2 0 .2-.1.2zM789.8 819.4c-.1 0-.2 0-.3-.1s-.2-.1-.2-.2c-.1-.3-.1-.6.2-.7 2.2-1.2 4.7-1.9 7.2-1.9s5 .7 7.2 1.9l.1.1c0 .1.1.1.1.2v.2c0 .1 0 .1-.1.2-.2.2-.5.3-.7.1-2-1.2-4.3-1.8-6.7-1.8s-4.6.6-6.7 1.8c0 .2-.1.2-.1.2z"/><path class="st12" d="M778.4 841.6h35.5c.4 0 .9-.2 1.2-.5.3-.3.5-.7.5-1.2v-3.2h-38.9v3.2c0 .2 0 .4.1.6.1.2.2.4.4.5.2.2.3.3.5.4.2.1.5.2.7.2z"/><path class="st2" d="m787.2 792.4-.3-10.8h33.6l-.7 10.8h-32.6z"/><path class="st2" d="m820.5 781.6-.7 10.8h-32.6l-.3-10.8h33.6z"/><path class="st7" d="m923.2 290 13.9 59.9 12.6-3-10.9-49.8c-1.1-5-3.3-9.6-6.6-13.5-3.2-3.9-7.3-7-12-9.1l-11.1-4.9c7.2 4.7 12.2 12 14.1 20.4zM898 319.8l-7.4 140.4H906l3.1-108.3-9-32.3c0-.3-.2-.5-.4-.7-.2-.2-.5-.3-.8-.2-.3 0-.5.2-.7.4-.1.1-.2.4-.2.7z"/><path class="st6" d="m957.6 383.4-8-36.5-39.3 9.2 7.8 23-65.8 14.6-3.6.8c-1.2.3-2.3.4-3.2-.5l-1.4-1.4c-1.3-1.1-2.8-1.9-4.5-2.3-3.9-1.1-7.2-3.7-9.1-7.3l-3.2-5.6c0-.1-.1-.1-.1-.2-.1 0-.1-.1-.2-.1h-.2s-.1 0-.2.1l-.6.2c-1.1.4-2 1.2-2.5 2.3s-.6 2.3-.3 3.4l2.4 7.6c.1.4.1.8-.1 1.2-.2.4-.5.7-.9.8L792.1 406c-3.3 1.2-2.2 5.7.8 4.9 1.6-.4 19-7.5 19-7.5l-3.1 1.6c-3.4 1.7-1.9 6.3 1.1 5.7 3-.7 6.9-1.7 6.9-1.7l-3.8 1.5c-.6.3-1.1.9-1.4 1.5-.2.7-.2 1.4 0 2.1.3.7.8 1.2 1.4 1.5.7.3 1.4.3 2.1.1 2.2-.6 5.8-1.7 5.8-1.7l-2.3 1.1c-3 .9-2 5.6.8 5 2.4-.5 25.2-6.1 36.9-8.2l87.2-9.5c2.2-.2 4.4-.9 6.4-2s3.7-2.6 5-4.5c1.3-1.8 2.2-3.9 2.7-6.1.5-2 .5-4.2 0-6.4zM717.6 271.3 674 294.2c-14.5 7.6-9.1 29.6 7.4 29.6l55.6 5.3.4-10.6v-13.8l9.8-3.4"/><path class="st7" d="m943.6 403.1-87.2 9.5c-11.8 2.1-34.5 7.7-36.9 8.2-.3 0-.7 0-1-.1-.3-.1-.6-.3-.9-.5-.2-.2-.5-.5-.6-.8-.1-.3-.2-.7-.2-1 0 0 .7 1.1 2.4.6.9-.3 14.9-5.4 23.8-8.8 4.8-1.8 9.7-3.1 14.7-3.9 19-3.2 68.5-11.6 81.9-14.5.9-.2 1.8-.6 2.6-1.1.8-.5 1.4-1.2 1.9-2s.8-1.7 1-2.6c.2-.9.1-1.9-.1-2.8l-7.7-33.2 12.4-2.9 7.9 36.5c.4 2.2.4 4.5-.1 6.7s-1.4 4.3-2.7 6.1c-1.3 1.8-3 3.4-4.9 4.5-1.9 1.1-4 1.8-6.3 2.1z"/><path class="st2" d="m937.2 349.9 12.4-2.9-12.4 2.9z"/><path class="st7" d="m737.1 291.2 10.2 10.4 25.5-5.6-1.9-10.6c-.1-.6-.4-1.2-.7-1.8s-.9-1-1.4-1.3c-.6-.3-1.2-.5-1.8-.6-.6-.1-1.3 0-1.9.2l-28 9.3zM747.2 301.5 737 291.1l-17.4 5.8-18.6-2.7c-.3-.1-.6.2-.7.5 0 .1 0 .3.1.4l.3.3 32.2 11.6 12-5 2.3-.5z"/><path class="st13" d="M842.9 500.6c-1.6 0-3.2.6-4.3 1.7-1.2 1.1-1.9 2.6-2 4.2l-16.8 275.2h-10l4-262.8c.1-4.9 2.1-9.6 5.6-13s8.2-5.3 13.1-5.3h10.4z"/><path class="st14" d="m819.9 792.4.7-10.8h-10.7l-.2 10.8h10.2z"/><path class="st7" d="m893.3 792.4-.6 19.6-11.1.4.2-13.2c0-.6-.2-1.2-.6-1.7-.3-.5-.9-.9-1.4-1.1l-12.5-4h26z"/><path class="st13" d="m905 462.3-8.7 330.2h-3l.3-8.4H882l4.1-321.7 18.9-.1z"/><path class="st2" d="M868.3 836.6v-23.8c0-3.5 1.4-6.8 3.8-9.2 2.4-2.4 5.8-3.8 9.2-3.8h.6c2.8 0 5.6 1 7.8 2.8 2.2 1.8 3.7 4.3 4.3 7.1.7 3.4 2.2 6.6 4.5 9.2l3.7 4.4c3.2 3.7 5 8.4 5 13.3h-38.9z"/><path class="st8" d="M890.8 812.5h-.1c-.1 0-.1 0-.1-.1-2-1.2-4.3-1.8-6.7-1.8-2.3 0-4.7.6-6.7 1.8 0 0-.1.1-.2.1h-.2c-.1 0-.1 0-.2-.1-.1 0-.1-.1-.1-.1s-.1-.1-.1-.2v-.2c0-.1 0-.1.1-.2 0-.1.1-.1.1-.1 2.2-1.3 4.7-1.9 7.2-1.9s5 .7 7.2 1.9c.3.1.3.5.2.6-.1.2-.2.3-.4.3zM892.3 815.8h-.1c-.1 0-.1 0-.1-.1-2-1.2-4.3-1.8-6.7-1.8-2.3 0-4.6.6-6.7 1.8 0 0-.1.1-.2.1h-.2c-.1 0-.1 0-.2-.1-.1 0-.1-.1-.1-.1s-.1-.1-.1-.2v-.2c0-.1 0-.1.1-.2l.1-.1c2.2-1.3 4.7-1.9 7.2-1.9s5 .7 7.2 1.9c.3.1.3.5.2.7-.1.2-.2.2-.4.2zM894.1 819.4h-.1c-.1 0-.1 0-.1-.1-2-1.2-4.3-1.8-6.7-1.8-2.3 0-4.6.6-6.7 1.8 0 0-.1.1-.2.1h-.2c-.1 0-.1 0-.2-.1l-.1-.1s-.1-.1-.1-.2v-.2c0-.1 0-.1.1-.2 0-.1.1-.1.1-.1 2.2-1.3 4.7-1.9 7.2-1.9s5 .7 7.2 1.9c.3.1.3.5.2.7 0 .1-.1.1-.2.1-.1.1-.1.1-.2.1z"/><path class="st12" d="M905.5 841.6H870c-.4 0-.9-.2-1.2-.5-.3-.3-.5-.7-.5-1.2v-3.2h39v3.2c0 .5-.2.9-.6 1.2-.3.3-.8.5-1.2.5z"/><path class="st2" d="m863.7 781.6.7 10.8H897l.2-10.8h-33.5z"/><path class="st14" d="M882.1 781.6v10.8H897l.2-10.8h-15.1z"/><path class="st15" d="m852.2 394 3.5 18.7 5.9-.7-3.5-19.3-5.9 1.3z"/><path class="st2" d="M857.2 409.6c1.2 0 2.3-.3 3.3-1 1-.6 1.7-1.6 2.2-2.6.5-1.1.6-2.3.3-3.4-.2-1.1-.8-2.2-1.6-3-.8-.8-1.9-1.4-3-1.6-1.1-.2-2.3-.1-3.4.3s-2 1.2-2.6 2.2c-.6 1-1 2.1-1 3.3 0 .8.2 1.5.4 2.3.3.7.7 1.4 1.3 1.9.6.5 1.2 1 1.9 1.3.6.1 1.4.3 2.2.3z"/><path class="st8" d="M857.2 408.6c1 0 1.9-.3 2.7-.9.8-.5 1.4-1.3 1.8-2.2.4-.9.5-1.9.3-2.9s-.7-1.8-1.4-2.5-1.6-1.2-2.5-1.3c-1-.2-2-.1-2.9.3-.9.4-1.7 1-2.2 1.8s-.8 1.8-.8 2.7c0 .7.1 1.3.4 1.9s.6 1.2 1.1 1.6c.5.5 1 .8 1.6 1.1.6.3 1.2.4 1.9.4z"/><path class="st15" d="m860.4 404.2-3.4-.2-2.4-1.8c-.1-.1-.2-.3-.1-.4.1-.1.3-.2.4-.1l2.2 1.7 3.2.2h.1s.1 0 .1.1c0 0 0 .1.1.1v.1c.1.1 0 .3-.2.3z"/><path class="st12" d="M435.5 163.7h260.7c5.3 0 10.6 1.1 15.6 3.1 4.9 2 9.4 5 13.2 8.8 3.8 3.8 6.8 8.3 8.8 13.2 2 4.9 3.1 10.2 3.1 15.6v595.8c0 10.8-4.3 21.1-11.9 28.8-7.6 7.6-18 11.9-28.8 11.9H429.3c-5.6 0-11-2.2-14.9-6.2s-6.2-9.3-6.2-14.9V191c0-7.2 2.9-14.2 8-19.3 5.1-5.1 12-8 19.3-8z"/><path class="st9" d="M435.5 163.7h260.7c5.3 0 10.6 1.1 15.6 3.1 4.9 2 9.4 5 13.2 8.8 3.8 3.8 6.8 8.3 8.8 13.2 2 4.9 3.1 10.2 3.1 15.6v595.8c0 10.8-4.3 21.1-11.9 28.8-7.6 7.6-18 11.9-28.8 11.9H434.3c-6.9 0-13.6-2.8-18.4-7.6-4.9-4.9-7.6-11.5-7.6-18.4V191c0-7.2 2.9-14.2 8-19.3 5-5.1 11.9-8 19.2-8z"/><path class="st2" d="M710.7 173.1H402.3v651h308.4v-651z"/><path d="M710.7 173.1H402.3v651h308.4v-651z" style="opacity:.6;fill:#fff;enable-background:new"/><path class="st2" d="M704.8 175.7H406.1v76h298.6v-76zM704.8 775.6H406.1v52.8h298.6v-52.8z"/><path class="st12" d="M681.6 821.3H429.3c-12.7 0-23-9.8-23-21.9V203.5c0-12.1 10.3-21.9 23-21.9h45.4c2.7 0 5.3.8 7.4 2.3 2.2 1.5 3.8 3.7 4.7 6.2l2.1 6.3c.9 2.5 2.5 4.7 4.7 6.2s4.8 2.3 7.4 2.3h108.9c2.7 0 5.3-.8 7.4-2.3 2.2-1.5 3.8-3.7 4.7-6.2l2.1-6.3c.9-2.5 2.5-4.7 4.7-6.2s4.8-2.3 7.4-2.3h45.4c12.7 0 23 9.8 23 21.9v595.8c0 12.2-10.2 22-23 22zM391.2 194.4v614.9c0 8.2 3.3 16.1 9.1 22s13.7 9.1 22 9.1h266.4c4.1 0 8.1-.8 11.9-2.4s7.2-3.8 10.1-6.7c2.9-2.9 5.2-6.3 6.7-10.1 1.6-3.8 2.4-7.8 2.4-11.9V194.4c0-8.2-3.3-16.1-9.1-22-5.8-5.8-13.7-9.1-22-9.1H422.2c-8.2 0-16.1 3.3-22 9.1-5.7 5.9-9 13.8-9 22z"/><path class="st8" d="M677.5 227.6H657c-.1 0-.3-.1-.4-.1-.1-.1-.1-.2-.1-.4 0-.1.1-.3.1-.4.1-.1.2-.1.4-.1h20.5c.1 0 .3.1.4.1.1.1.1.2.1.4 0 .1-.1.3-.1.4-.1.1-.2.1-.4.1zM677.5 234.4H657c-.1 0-.3-.1-.3-.1-.1-.1-.1-.2-.1-.3 0-.1.1-.3.1-.4.1-.1.2-.1.3-.1h20.5c.1 0 .3.1.4.1.1.1.1.2.1.4 0 .1-.1.3-.1.4-.1-.1-.2 0-.4 0zM677.5 241.1H657c-.1 0-.3-.1-.4-.1-.1-.1-.1-.2-.1-.4 0-.1.1-.3.1-.4.1-.1.2-.1.4-.1h20.5c.1 0 .3.1.4.1.1.1.1.2.1.4 0 .1-.1.3-.1.4-.1.1-.2.1-.4.1z"/><path d="m440.7 224.1-7.8 6.8c-.1.1-.2.2-.3.4-.1.1-.1.3-.1.5v11.5c0 .1 0 .2.1.3 0 .1.1.2.2.2s.2.1.2.2c.1 0 .2.1.3.1h4.6c.1 0 .2 0 .3-.1.1 0 .2-.1.2-.2.1-.1.1-.2.2-.2 0-.1.1-.2.1-.3v-6c0-.2.1-.4.2-.5.1-.1.3-.2.5-.2h4c.2 0 .4.1.5.2.1.1.2.3.2.5v6c0 .1 0 .2.1.3 0 .1.1.2.2.2.1.1.2.1.2.2s.2.1.3.1h4.6c.2 0 .4-.1.5-.2.1-.1.2-.3.2-.5v-11.5c0-.2 0-.3-.1-.5-.1-.1-.2-.3-.3-.4l-7.8-6.8c-.2-.2-.5-.3-.8-.3 0-.1-.3 0-.5.2z" style="fill:none;stroke:#fff;stroke-width:1.64;stroke-miterlimit:10"/><path class="st18" d="M464.1 793.1h-18.7c-.1 0-.2-.1-.3-.2-.1-.1-.1-.2-.1-.4 0-.1 0-.3.1-.4.1-.1.2-.2.3-.2h18.7c.1 0 .2.1.3.2.1.1.1.2.1.4 0 .1 0 .3-.1.4 0 .1-.2.1-.3.2zM464.1 799.4h-18.7c-.1 0-.3-.1-.3-.2-.1-.1-.1-.2-.1-.4 0-.1 0-.3.1-.4.1-.1.2-.2.3-.2h18.7c.1 0 .2.1.3.2.1.1.1.2.1.4 0 .1 0 .3-.1.4s-.2.1-.3.2zM464.1 805.7h-18.7c-.1 0-.2-.1-.3-.2-.1-.1-.1-.2-.1-.4 0-.1 0-.3.1-.4.1-.1.2-.2.3-.2h18.7c.1 0 .3.1.3.2.1.1.1.2.1.4 0 .1 0 .3-.1.4 0 .1-.1.1-.3.2z"/><path class="st19" d="m655.8 791.1 10.1 6.8-10.1 8.5M562.7 795.6v12.1h-16.1v-12.1"/><path class="st19" d="m544.2 797.2 10.5-7.2 10.5 7.2"/><path class="st8" d="m649.5 194.2-.6.6-.3.4c-.8-.8-1.7-1.4-2.7-1.8-1-.4-2.1-.6-3.2-.6s-2.2.2-3.2.6c-1 .4-1.9 1-2.7 1.8l-.3-.3-.6-.6.8-.7c.6-.5 1.2-.8 1.8-1.1.8-.4 1.6-.6 2.4-.8.4-.1.8-.1 1.2-.1h1l.8.1c.7.1 1.5.3 2.2.5.5.2 1 .4 1.5.7.5.3 1 .6 1.4 1 0 0 .2.2.5.3z"/><path class="st8" d="M638.6 197.1c-.3-.3-.7-.6-1-1 1.3-1.3 3.1-2 4.9-2s3.6.7 4.9 2l-1 1c-1.1-1.1-2.5-1.6-4-1.6s-2.8.5-3.8 1.6z"/><path class="st8" d="m645.6 198-1 1c-.3-.3-.6-.5-.9-.6-.3-.1-.7-.2-1.1-.2-.4 0-.8.1-1.1.2s-.7.4-.9.6l-1-1c.4-.4.9-.7 1.4-1 .5-.2 1.1-.3 1.6-.3.6 0 1.1.1 1.6.3.6.3 1 .6 1.4 1zM643.5 199.9c0 .2-.1.3-.2.5-.1.1-.2.3-.4.3-.2.1-.3.1-.5 0-.2 0-.3-.1-.5-.2s-.2-.3-.2-.5 0-.3.1-.5.2-.3.3-.4c.1-.1.3-.1.5-.1.1 0 .2 0 .3.1.1 0 .2.1.3.2.1.1.1.2.2.3.1.1.1.2.1.3zM428.7 196c0-.5.1-1 .4-1.4.3-.4.7-.7 1.1-.9.5-.2 1-.2 1.5-.1s.9.3 1.3.7.6.8.7 1.3c.1.5 0 1-.1 1.5-.2.5-.5.9-.9 1.1-.4.3-.9.4-1.4.4-.7 0-1.3-.3-1.8-.7-.5-.6-.8-1.2-.8-1.9zM436.6 196c0-.5.1-1 .4-1.4.3-.4.7-.7 1.1-.9.5-.2 1-.2 1.5-.1s.9.3 1.3.7c.4.4.6.8.7 1.3.1.5 0 1-.1 1.5-.2.5-.5.9-.9 1.1-.4.3-.9.4-1.4.4-.7 0-1.3-.3-1.8-.7-.5-.6-.8-1.2-.8-1.9zM444.6 196c0-.5.1-1 .4-1.4.3-.4.7-.7 1.1-.9.5-.2 1-.2 1.5-.1s.9.3 1.3.7c.4.4.6.8.7 1.3.1.5 0 1-.1 1.5-.2.5-.5.9-.9 1.1-.4.3-.9.4-1.4.4-.7 0-1.3-.3-1.8-.7-.5-.6-.8-1.2-.8-1.9zM452.6 196c0-.5.1-1 .4-1.4.3-.4.7-.7 1.1-.9.5-.2 1-.2 1.5-.1s.9.3 1.3.7c.4.4.6.8.7 1.3.1.5 0 1-.1 1.5-.2.5-.5.9-.9 1.1-.4.3-.9.4-1.4.4-.7 0-1.3-.3-1.8-.7-.5-.6-.8-1.2-.8-1.9zM688.6 200.7h-16.1v-7.5h16.1v7.5zm-15.2-.8h14.5V194h-14.5v5.9z"/><path class="st8" d="M684.3 194.5h-10.4v4.9h10.4v-4.9zM690.1 194.9h-1.4v4h1.4v-4zM609.4 230.4h-108c-1.8 0-3.2 1.5-3.2 3.2v.4c0 1.8 1.5 3.2 3.2 3.2h108c1.8 0 3.2-1.5 3.2-3.2v-.4c.1-1.7-1.4-3.2-3.2-3.2zM556.5 497.4c48.8 0 88.3-39.5 88.3-88.3s-39.5-88.3-88.3-88.3-88.3 39.5-88.3 88.3c0 48.7 39.5 88.3 88.3 88.3z"/><path class="st2" d="m628 460.5-45.8-13.9h-.1v.1l-2.9-1.3-3.8.8-24.1.6-10.7-2.1-3-1v.1l-38 10.9c-1 .3-1.9.5-2.9.7-4.1 1-8.1 2.7-11.6 5 8.2 11.3 18.9 20.5 31.3 26.8 12.4 6.3 26.2 9.7 40.1 9.7 13.9 0 27.7-3.3 40.1-9.6s23.2-15.5 31.4-26.8zm-45.9-13.8v.2-.2z"/><path class="st6" d="m537.6 403.6.3 38.4c0 .9.3 1.9.8 2.6l.4.7c2.2 3.3 5.1 6.1 8.4 8.2 3.3 2.1 7.1 3.5 11 4 3.9.6 7.9.3 11.7-.8 3.8-1.1 7.3-2.9 10.4-5.4.6-.5 1.1-1.2 1.4-2 .3-.8.4-1.6.3-2.5l-7-46.2-37.7 3z"/><path class="st6" d="M579.3 384.6s7.6 50.5-20.2 52.6c-27.2 2-28.1-49.1-28.1-49.1l-.7-14.6 35.1-6.2 8.9 4.6 5 12.7z"/><path class="st7" d="m580 433-2-13.9c-2.5 9-7.7 16.4-16.9 17.9h.1l-2 .3c-7.3.6-13.3-2.8-17.9-10-.1-.1-.2-.2-.4-.2s-.3 0-.4.1c-.1.1-.2.2-.2.3v.4c4.8 7.6 11.3 11.2 19 10.6 1.6-.1 3.2-.4 4.8-.9 5.7.6 11.4-1 15.9-4.6z"/><path d="M572.7 373.3s8.9-5.9 13.1 4.2c3.5 8.5-2.4 17.7-2.4 17.7l-5.1-.6c-2.1-.1-3.6-1.1-3.8-3.2l-1.8-18.1z"/><path d="M579.1 367.2c.7 9.6-7.5 12.1-10.8 12.4l-27.5 2.3c-1.1.1-2.1.6-2.8 1.4-.7.8-1.1 1.9-1 3l.5 8.8c0 .6-.1 1.2-.5 1.6s-.9.7-1.5.8l-1.7.2-1.8 2.3c-10.8-2.6-15.3-33.3 4.6-39.4 1.1-.3 2-.9 2.9-1.6.8-.7 1.5-1.6 2.1-2.6 2.9-6 14.7-7.5 20.7-.8.6.7 1.3 1.2 2.1 1.6.8.4 1.7.5 2.6.5 7-.3 11.7 4.2 12.1 9.5z"/><path class="st6" d="M533.8 400.7c-.1-.8-.4-1.6-.9-2.2-.5-.7-1.1-1.2-1.9-1.5-.8-.3-1.6-.4-2.4-.3-.8.1-1.6.4-2.2 1l-.1.1c-4.8 4.1-1.7 17 8.8 15.9l-1.3-13zM585.8 393.9c-.8-.5-1.6-.7-2.4-.7-.8 0-1.6.2-2.3.7-.7.4-1.3 1-1.7 1.7-.4.7-.6 1.5-.5 2.3l.6 12.3c10.5-.4 11.5-13 6.3-16.3z"/><path d="M535.1 402.2c0 .3-.1.6-.3.9-.2.2-.5.4-.8.4-.3 0-.6 0-.9-.2-.3-.2-.4-.4-.5-.7l-1.2-8.3 3.5.1.2 7.8zM581 398.9c0 .3-.1.6-.3.9-.2.2-.5.4-.8.4-.3 0-.6 0-.9-.2-.3-.2-.4-.4-.5-.7l-1.2-8.3 3.5.1.2 7.8z"/><path class="st6" d="M568.4 380.8c-.5.1-.9.1-1.4 0h-.2c-.1 0-.1-.1-.2-.1-.1-.1-.1-.1-.1-.2v-.3c0-.1 0-.2.1-.2 0-.1.1-.1.2-.2s.1-.1.2-.1h.3c.1 0 5.6.3 7.9-3.4 0-.1.1-.1.2-.2.1 0 .1-.1.2-.1h.2c.1 0 .2 0 .2.1.1 0 .1.1.2.2 0 .1.1.1.1.2v.2c0 .1 0 .2-.1.2-2.2 3.1-5.8 3.8-7.8 3.9z"/><path d="M547.7 407.8c.5 0 .9-.1 1.3-.4.4-.3.7-.6.9-1.1.2-.4.2-.9.1-1.4-.1-.5-.3-.9-.7-1.2-.3-.3-.8-.6-1.2-.7-.5-.1-1 0-1.4.1-.4.2-.8.5-1.1.9-.3.4-.4.9-.4 1.3 0 .3.1.6.2.9.1.3.3.6.5.8.2.2.5.4.8.5.4.3.7.3 1 .3z"/><path class="st8" d="M546.6 405.7c.1 0 .3-.1.4-.2.1-.1.2-.2.2-.4 0-.1-.1-.3-.2-.4-.1-.1-.2-.2-.4-.2-.1 0-.3.1-.4.2-.1.1-.2.2-.2.4 0 .1.1.3.2.4.1.1.3.2.4.2z"/><path d="M566.4 406.4c.5 0 1-.1 1.4-.4.4-.3.7-.6.9-1.1.2-.4.2-.9.1-1.4-.1-.5-.3-.9-.7-1.2-.3-.3-.8-.6-1.2-.7-.5-.1-1 0-1.4.1-.4.2-.8.5-1.1.9-.3.4-.4.9-.4 1.4 0 .6.3 1.3.7 1.7.4.5 1 .7 1.7.7z"/><path class="st8" d="M565.3 404.4c.1 0 .2 0 .3-.1.1-.1.2-.1.2-.3 0-.1.1-.2 0-.3 0-.1-.1-.2-.2-.3s-.2-.1-.3-.2h-.3c-.1 0-.2.1-.3.2-.1.1-.1.2-.1.3 0 .1.1.3.2.4.2.2.3.3.5.3z"/><path class="st9" d="m558.3 416.9 2-.2c.2 0 .4-.1.5-.2.1-.1.2-.3.2-.5s-.1-.4-.2-.5c-.1-.1-.3-.2-.5-.2l-2 .2c-.2 0-.4 0-.6-.1-.2-.1-.4-.2-.5-.3-.1-.1-.3-.3-.4-.5-.1-.2-.1-.4-.2-.6 0-.2 0-.4.1-.6.1-.2.2-.4.3-.5.1-.1.3-.3.5-.4.2-.1.4-.1.6-.2.1 0 .2 0 .3-.1.1 0 .2-.1.2-.2.1-.1.1-.1.1-.2v-.3c0-.1 0-.2-.1-.3 0-.1-.1-.2-.2-.2-.1-.1-.1-.1-.2-.1h-.3c-.4 0-.7.1-1.1.3-.3.2-.6.4-.9.7-.2.3-.4.6-.5 1-.1.4-.1.7-.1 1.1 0 .4.1.8.2 1.1.2.3.4.7.7.9.3.3.6.5 1 .6.3.3.7.3 1.1.3z"/><path d="m573.1 397.6-10.5.6-1.4.1-9.2.6h-.1l-11.8.7c-.5 0-.9.1-1.3.3-.4.2-.8.5-1.1.8s-.5.8-.7 1.2c-.1.4-.2.9-.2 1.4l.2 2.7c.2 2.5 1.3 4.8 3.2 6.4 1.9 1.6 4.3 2.5 6.8 2.4 2.5-.1 4.8-1.2 6.5-3.1 1.7-1.8 2.6-4.2 2.5-6.7l-.2-2.7c0-.7-.3-1.4-.8-2l3.6-.2c-.4.6-.6 1.4-.6 2.1l.2 2.7c.1 1.2.4 2.5.9 3.6s1.3 2.1 2.2 3c.9.8 2 1.5 3.2 1.9 1.2.4 2.4.6 3.7.5 1.2-.1 2.5-.4 3.6-.9s2.1-1.3 3-2.2c.8-.9 1.5-2 1.9-3.2.4-1.2.6-2.4.5-3.7l-.2-2.7c0-.5-.1-1-.3-1.4-.2-.4-.5-.9-.8-1.2-.4-.3-.8-.6-1.2-.8-.6-.2-1.1-.3-1.6-.2zm-18.8 4.6.2 2.7c.1 1.1-.1 2.1-.4 3.1-.3 1-.9 1.9-1.6 2.7s-1.5 1.4-2.5 1.9c-.9.5-2 .7-3 .8-1 .1-2.1-.1-3.1-.4-1-.3-1.9-.9-2.7-1.6-.8-.7-1.4-1.5-1.9-2.5-.5-.9-.7-2-.8-3l-.2-2.7c0-.6.2-1.1.5-1.5.4-.4.9-.7 1.5-.7l11.8-.7h.1c.3 0 .5 0 .8.1.2.1.5.2.7.4.2.2.3.4.5.6s.1.5.1.8zm21.3 1.4c.1 2.1-.6 4.2-2 5.8-1.4 1.6-3.4 2.5-5.5 2.7-2.1.1-4.2-.6-5.8-2-1.6-1.4-2.5-3.4-2.7-5.5l-.2-2.7c0-.6.2-1.1.5-1.5.4-.4.9-.7 1.5-.7l1.4-.1 10.5-.6c.6 0 1.1.2 1.5.5.4.4.7.9.7 1.4l.1 2.7z"/><path class="st8" d="m552.3 420.7 11.9-.8h.2c.1 0 .1.1.2.1 0 .1.1.1.1.2v.2c-.4 1.3-1.1 2.5-2.2 3.4-1.1.9-2.4 1.4-3.7 1.5-1.4.1-2.8-.2-3.9-.9-1.2-.7-2.1-1.7-2.7-3v-.1c0-.1-.1-.1-.1-.2v-.2c0-.1.1-.1.1-.2h.1z"/><path class="st9" d="M531.2 407.4c-.2 0-.3-.1-.5-.2-.1-.1-.2-.3-.3-.5l-.2-1.5c0-1.2-.5-2.4-1.3-3.3-.2-.1-.3-.2-.5-.3-.2-.1-.4-.1-.6-.1-.2 0-.4 0-.5-.1-.2-.1-.3-.3-.3-.4 0-.2 0-.4.1-.5.1-.2.3-.3.4-.3.8-.1 1.6.1 2.2.6.6.5 1 1.2 1.4 1.9.3.7.5 1.5.5 2.3l.2 1.5c0 .2-.1.4-.2.6 0 .1-.2.2-.4.3zM582.5 403.6c.2 0 .4-.1.5-.2.1-.1.2-.3.2-.5v-1.5c-.1-.6-.1-1.2.1-1.8.1-.6.4-1.1.8-1.6.1-.2.3-.3.5-.4.2-.1.4-.1.6-.2.2 0 .3-.1.5-.2.1-.1.2-.3.3-.5 0-.2-.1-.4-.2-.5-.1-.1-.3-.2-.5-.3-.4 0-.8.1-1.1.3-.4.2-.7.4-.9.7-.9.9-1.3 2.4-1.2 4.5v1.5c-.3.4-.1.7.4.7z"/><path class="st2" d="M556.5 505.9c-19.2 0-37.9-5.7-53.8-16.3-15.9-10.6-28.3-25.8-35.7-43.5-7.3-17.7-9.2-37.2-5.5-55.9 3.7-18.8 13-36 26.5-49.6 13.5-13.5 30.8-22.8 49.6-26.5 18.8-3.7 38.3-1.8 55.9 5.5 17.7 7.3 32.8 19.7 43.5 35.7 10.6 15.9 16.3 34.6 16.3 53.8 0 25.7-10.2 50.3-28.4 68.4-18.1 18.2-42.7 28.4-68.4 28.4zm0-191.5c-18.7 0-37 5.5-52.6 15.9-15.6 10.4-27.7 25.2-34.9 42.5-7.2 17.3-9 36.3-5.4 54.7 3.7 18.4 12.7 35.2 25.9 48.5 13.2 13.2 30.1 22.3 48.5 25.9 18.4 3.7 37.4 1.8 54.7-5.4 17.3-7.2 32.1-19.3 42.5-34.9s16-33.9 16-52.6c0-25.1-10-49.2-27.8-66.9-17.8-17.7-41.8-27.7-66.9-27.7zm0 183.9c-17.6 0-34.9-5.2-49.6-15-14.7-9.8-26.1-23.7-32.9-40-6.8-16.3-8.5-34.2-5.1-51.5 3.4-17.3 11.9-33.2 24.4-45.7 12.5-12.5 28.4-21 45.7-24.4 17.3-3.4 35.2-1.7 51.5 5.1 16.3 6.8 30.2 18.2 40 32.9s15 31.9 15 49.6c0 23.7-9.4 46.3-26.2 63.1-16.5 16.4-39.1 25.9-62.8 25.9zm0-176.3c-17.2 0-34 5.1-48.3 14.7-14.3 9.6-25.5 23.1-32 39-6.6 15.9-8.3 33.4-5 50.3 3.4 16.9 11.6 32.4 23.8 44.5 12.2 12.2 27.7 20.5 44.5 23.8 16.9 3.4 34.4 1.6 50.3-5 15.9-6.6 29.5-17.7 39-32 9.6-14.3 14.7-31.1 14.7-48.3 0-23.1-9.2-45.2-25.5-61.5-16.3-16.3-38.4-25.5-61.5-25.5z"/><path class="st8" d="M661.1 554.5H451.9c-.5 0-1-.2-1.4-.6-.4-.4-.6-.9-.6-1.4v-13c0-.5.2-1 .6-1.4.4-.4.9-.6 1.4-.6h209.3c.5 0 1 .2 1.4.6.4.4.6.9.6 1.4v13c0 .5-.2 1-.6 1.4-.4.4-.9.6-1.5.6zM661.1 590.5H451.9c-.5 0-1-.2-1.4-.6-.4-.4-.6-.9-.6-1.4v-13c0-.5.2-1 .6-1.4.4-.4.9-.6 1.4-.6h209.3c.5 0 1 .2 1.4.6.4.4.6.9.6 1.4v13c0 .5-.2 1-.6 1.4-.4.4-.9.6-1.5.6z"/><path class="st2" d="M610.6 645.5H502.4c-1.6 0-3.2-.7-4.4-1.8-1.2-1.2-1.8-2.7-1.8-4.4v-17.7c0-1.6.7-3.2 1.8-4.4 1.2-1.2 2.7-1.8 4.4-1.8h108.2c1.6 0 3.2.6 4.4 1.8 1.2 1.2 1.8 2.7 1.8 4.4v17.7c0 .8-.1 1.6-.5 2.4-.3.8-.8 1.4-1.3 2-.6.6-1.3 1-2 1.3-.8.3-1.6.5-2.4.5z"/><path class="st8" d="M499.3 721.1c-5.1 0-10.1-2-13.7-5.7-3.6-3.6-5.7-8.6-5.7-13.7s2-10.1 5.7-13.7c3.6-3.6 8.6-5.7 13.7-5.7s10.1 2 13.7 5.7c3.6 3.6 5.7 8.6 5.7 13.7s-2 10.1-5.7 13.7c-3.6 3.6-8.5 5.7-13.7 5.7z"/><path class="st2" d="M496.4 713.4h4.7v-11.8h3.3l.4-4h-3.6v-2.2c0-.9.2-1.3 1.1-1.3h2.6v-4h-3.3c-3.5 0-5.1 1.5-5.1 4.5v3.1H494v4h2.5v11.7z"/><path class="st8" d="M558.9 721.1c-5.1 0-10.1-2-13.7-5.7-3.6-3.6-5.7-8.6-5.7-13.7s2-10.1 5.7-13.7c3.6-3.6 8.6-5.7 13.7-5.7s10.1 2 13.7 5.7c3.6 3.6 5.7 8.6 5.7 13.7s-2 10.1-5.7 13.7c-3.6 3.6-8.6 5.7-13.7 5.7z"/><path class="st2" d="M558.9 693.5c2.7 0 3 0 4 .1.6 0 1.3.1 1.8.3.4.2.8.4 1.2.7s.6.7.7 1.2c.2.6.3 1.2.3 1.8 0 1 .1 1.4.1 4s0 3-.1 4c0 .6-.1 1.3-.3 1.9-.2.4-.4.8-.7 1.1-.3.3-.7.6-1.1.7-.6.2-1.2.3-1.8.3-1 0-1.4.1-4 .1s-3 0-4-.1c-.6 0-1.3-.1-1.9-.3-.4-.2-.8-.4-1.1-.8-.3-.3-.6-.7-.7-1.1-.2-.6-.3-1.2-.3-1.9 0-1.1-.1-1.4-.1-4s0-3 .1-4c0-.6.1-1.3.3-1.8.2-.4.4-.8.8-1.2.3-.3.7-.6 1.1-.8.6-.2 1.2-.3 1.9-.3.8.1 1.2.1 3.8.1zm0-1.8c-2.7 0-3 0-4.1.1-.8 0-1.6.2-2.4.5-.7.3-1.2.6-1.7 1.2-.5.5-.9 1.1-1.2 1.8-.3.8-.5 1.6-.5 2.4 0 1.1-.1 1.4-.1 4.1 0 2.7 0 3 .1 4.1 0 .8.2 1.6.5 2.4.3.7.7 1.3 1.2 1.8s1.1.9 1.8 1.2c.8.3 1.6.5 2.4.5 1.1 0 1.4.1 4.1.1 2.7 0 3 0 4.1-.1.8 0 1.6-.2 2.4-.5.7-.2 1.3-.6 1.8-1.2.5-.5.9-1.1 1.2-1.8.3-.8.4-1.6.5-2.4 0-1.1.1-1.4.1-4.1 0-2.7 0-3.1-.1-4.1 0-.8-.2-1.6-.5-2.4-.3-.7-.6-1.3-1.2-1.8-.5-.5-1.1-.9-1.8-1.1-.8-.3-1.6-.4-2.4-.5-1.1-.1-1.5-.2-4.2-.2"/><path class="st2" d="M558.9 696.6c-1 0-2 .3-2.8.9-.8.6-1.5 1.4-1.9 2.3-.4.9-.5 2-.3 3s.7 1.9 1.4 2.6 1.6 1.2 2.6 1.4c1 .2 2 .1 3-.3.9-.4 1.7-1 2.3-1.9.6-.8.9-1.8.9-2.8 0-1.4-.5-2.7-1.5-3.6-1.1-1.1-2.4-1.6-3.7-1.6zm0 8.4c-.7 0-1.3-.2-1.9-.6s-1-.9-1.2-1.5c-.3-.6-.3-1.3-.2-1.9.1-.6.4-1.2.9-1.7s1.1-.8 1.7-.9c.6-.1 1.3-.1 1.9.2.6.3 1.1.7 1.5 1.2.4.5.6 1.2.6 1.9 0 .4-.1.9-.3 1.3-.2.4-.4.8-.7 1.1-.3.3-.7.6-1.1.7-.3.1-.8.2-1.2.2M565.4 696.4c0 .2-.1.5-.2.7-.1.2-.3.4-.5.4-.2.1-.5.1-.7.1-.2 0-.4-.2-.6-.3-.2-.2-.3-.4-.3-.6 0-.2 0-.5.1-.7.1-.2.2-.4.4-.5.2-.1.4-.2.7-.2.2 0 .3 0 .5.1.1.1.3.1.4.3.1.1.2.2.3.4s-.1.1-.1.3"/><path class="st8" d="M618.4 721.1c-5.1 0-10.1-2-13.7-5.7-3.6-3.6-5.7-8.6-5.7-13.7s2-10.1 5.7-13.7c3.6-3.6 8.6-5.7 13.7-5.7s10.1 2 13.7 5.7c3.6 3.6 5.7 8.6 5.7 13.7s-2 10.1-5.7 13.7c-3.6 3.6-8.5 5.7-13.7 5.7z"/><path class="st2" d="M606.9 709c2.1 1.3 4.5 2.1 7 2.1 2.5.1 4.9-.6 7.1-1.8 2.1-1.2 3.9-3 5.1-5.2 1.2-2.2 1.8-4.6 1.6-7.1.9-.7 1.7-1.5 2.4-2.5-.9.4-1.8.6-2.7.8 1-.6 1.7-1.5 2.1-2.6-.9.5-1.9.9-3 1.2-.7-.8-1.7-1.3-2.7-1.4-1-.2-2.1 0-3 .5-.9.5-1.7 1.3-2.1 2.2-.4 1-.5 2-.3 3-1.9-.1-3.7-.6-5.4-1.5-1.7-.9-3.2-2.1-4.4-3.5-.6 1-.8 2.3-.5 3.5.3 1.2 1 2.2 2 2.9-.8 0-1.5-.2-2.2-.6 0 1.1.4 2.2 1.1 3 .7.9 1.7 1.5 2.8 1.7-.7.2-1.4.2-2.1.1.3.9.9 1.8 1.7 2.4.8.6 1.8.9 2.7.9-1 .8-2.1 1.4-3.3 1.7-1.4.2-2.7.3-3.9.2z"/><path class="st12" d="M210.5 765.5c-8-114.5-16.8-122-17.2-122.3l.6-1c.4.2 9.6 5.9 17.8 123.2l-1.2.1zM218.8 765.5l-1.2-.1c5.2-83.6-.5-129.2-.5-129.7l1.2-.2c0 .5 5.7 46.2.5 130zM226 767.9c-6.4-52.1 9.8-91.9 10-92.3l1.1.5c-.2.4-16.3 39.8-9.9 91.7l-1.2.1z"/><path class="st12" d="M232.6 774.3c-2.7-18.6-2.5-37.5.4-56.1l1.2.2c-2.9 18.4-3.1 37.2-.4 55.7l-1.2.2z"/><path class="st2" d="m236.2 676.6 5.1-.4c3.7-.3 7.2-1.4 10.4-3.2 1.6-.9 3.2-1.7 4.8-2.4 6.4-2.5 13.5-2.1 20.3-2.4 11.2-.6 22.2-3.4 32.3-8.3.6-.3 1.1-.7 1.4-1.3 1-1.9-.9-3.6-2.6-4.7-8.7-5.3-17.5-10.8-27.3-13.4-9.8-2.7-21-2.2-29.4 3.6-9.8 6.8-13.4 20.7-15 32.5"/><g class="st20"><g class="st20"><path class="st9" d="M310.6 658c-.3-.1-.6-.2-.9-.4l-2.4-1.3c-2.1-1.1-5.2-2.8-9-4.6-4.5-2.2-9.1-4-13.9-5.4-5.9-1.7-12-2.2-18.1-1.5-6.1.7-11.8 3.1-16.5 7.1-3.6 3.4-6.6 7.5-8.6 12-1.4 3.1-2.6 6.2-3.7 9.4-.4 1.1-.7 1.9-.9 2.6-.1.3-.2.6-.4.9 0-.3.1-.6.2-.9.2-.7.5-1.5.8-2.6 1-3.2 2.2-6.4 3.5-9.5 2-4.7 4.9-8.9 8.6-12.3 4.7-4 10.6-6.6 16.8-7.3 6.2-.7 12.4-.2 18.4 1.5 4.8 1.4 9.5 3.3 14 5.6 3.8 1.9 6.8 3.6 8.9 4.8l2.4 1.4c.4.1.7.3.8.5"/></g></g><g class="st20"><g class="st20"><path class="st9" d="M298.3 664.6c-.1.2-6.8-4.2-15-9.7-8.2-5.5-14.8-10.1-14.7-10.3s6.8 4.2 15 9.7c8.2 5.5 14.8 10.2 14.7 10.3"/></g></g><g class="st20"><g class="st20"><path class="st9" d="M291.1 644.3c-1.6.5-3.2.8-4.9.9-1.7.2-3.3.2-5-.1 1.6-.3 3.3-.5 4.9-.5 1.7-.3 3.4-.4 5-.3"/></g></g><g class="st20"><g class="st20"><path class="st9" d="M261.7 640.4c.2.1-.8 1.6-2.2 3.5-.8 1.2-1.7 2.3-2.8 3.2-.2-.1.8-1.6 2.2-3.5.8-1.2 1.7-2.3 2.8-3.2"/></g></g><g class="st20"><g class="st20"><path class="st9" d="M267.7 668.6c-1.1-.5-2.2-1.1-3.2-1.8-1.9-1.2-4.6-2.9-7.4-4.9-2.8-2-5.3-4-7.1-5.4-1-.7-1.9-1.5-2.8-2.4 1.1.6 2.1 1.2 3.1 2l7.2 5.2c2.8 2 5.4 3.8 7.2 5.1 1.1.6 2.1 1.4 3 2.2"/></g></g><path class="st21" d="M250.1 840h-50.9l-9.5-69.8h69.9l-9.5 69.8z"/><path class="st21" d="M265.5 780.8h-81.7l-1.2-15.4h84.1l-1.2 15.4z"/><g class="st22"><g class="st22"><path class="st14" d="M191.2 780.8h67l-8 59.2-8-.5 4.5-53.9-54.9-.9-.6-3.9z"/></g></g><g class="st22"><g class="st22"><path class="st14" d="m248 765.5-2.4 15.3h19.9l1.2-15.4-18.7.1z"/></g></g><g class="st22"><g class="st22"><path class="st23" d="M254.9 798.4h-60.6v1.2h60.6v-1.2z"/></g></g><g class="st22"><g class="st22"><path class="st23" d="M254.9 803.1h-60.6v1.2h60.6v-1.2z"/></g></g><path class="st2" d="M194.7 642.6c-4.9-3.7-10.1-4.5-16.2-4.2-6.2.4-12.2 2-17.8 4.6-9.6 4.2-18.6 10.4-24.4 19.2-5.7 8.8-7.7 20.4-3.4 30 .3 1 1 1.8 1.9 2.4 1.1.3 2.2.2 3.2-.2 10.9-3.6 21.9-7.2 32-12.7 10.1-5.6 19.2-13.3 24.5-23.5 1.4-2.4 2.3-5.1 2.6-7.8.2-1.4 0-2.8-.4-4.1-.3-1.4-1.1-2.6-2-3.7"/><g class="st20"><g class="st20"><path class="st9" d="M194.8 641.5c-.2.1-.5.2-.8.3l-2.3.8-1.7.5c-.6.2-1.2.5-1.9.8-1.4.6-3 1.1-4.7 1.9l-2.7 1.2c-.9.4-1.9 1-2.8 1.5-2 1-4 2.2-6.1 3.5-9.2 5.7-17.3 12.8-24.1 21.2-1.5 2-3 3.8-4.2 5.6-.6.9-1.3 1.8-1.8 2.6l-1.5 2.5c-1 1.6-1.8 3.1-2.5 4.4-.4.6-.7 1.3-1 1.8-.3.6-.5 1.1-.8 1.6l-1.1 2.2c-.1.3-.2.5-.4.7.1-.3.2-.5.3-.8.2-.6.6-1.3 1-2.2l.7-1.6c.3-.6.6-1.2.9-1.9.7-1.3 1.4-2.9 2.4-4.5l1.5-2.5c.5-.9 1.2-1.7 1.8-2.7 1.2-1.9 2.7-3.7 4.2-5.7 6.8-8.5 15-15.7 24.3-21.4 2.2-1.2 4.2-2.5 6.2-3.4 1-.5 1.9-1 2.9-1.4l2.7-1.2c1.7-.8 3.3-1.3 4.7-1.8.7-.2 1.4-.5 2-.7l1.7-.5 2.3-.7c.3 0 .6 0 .8-.1"/></g></g><g class="st20"><g class="st20"><path class="st9" d="M156.6 662.2c0 .2-5.3 1.9-11.9 3.8-6.6 1.9-12.1 3.4-12.1 3.2s5.3-1.9 11.9-3.8c6.6-1.9 12-3.4 12.1-3.2z"/></g></g><g class="st20"><g class="st20"><path class="st9" d="M156.1 688.5c-.2-1.2-.3-2.5-.3-3.7-.1-2.3-.1-5.5 0-9s.3-6.7.5-9c0-1.2.2-2.5.5-3.7.1 1.2.1 2.5 0 3.7-.1 2.5-.2 5.6-.3 9-.1 3.4-.2 6.4-.2 9 0 1.2-.1 2.5-.2 3.7"/></g></g><g class="st20"><g class="st20"><path class="st9" d="M178.6 677c-.2 0-.8-6.4-1.3-14.4-.6-8-.9-14.4-.7-14.5.2 0 .8 6.4 1.3 14.4.6 8 .9 14.5.7 14.5z"/></g></g><g class="st20"><g class="st20"><path class="st9" d="M150.6 647.6c1.3-.2 2.5-.2 3.8-.1 2.3 0 5.6.1 9.2.2s6.8.3 9.2.4c1.3 0 2.5.1 3.8.4-1.3.2-2.5.2-3.8.1-2.4 0-5.6-.1-9.2-.2s-6.8-.3-9.2-.4c-1.3-.1-2.6-.2-3.8-.4"/></g></g><path class="st2" d="m184.9 617.7-6.3 11.4c-.1.3-.3.6-.6.6s-.6-.3-.8-.6l-16.7-25.6 3.9-2.2 20.5 16.4z"/><g class="st22"><g class="st22"><path class="st14" d="m184.9 617.7-6.3 11.4c-.1.3-.3.6-.6.6s-.6-.3-.8-.6l-16.7-25.6 3.9-2.2 20.5 16.4z"/></g></g><path class="st2" d="m218.8 638.4-57-33.6c-.6-.3-1.2-.8-1.4-1.4-.2-.9.4-1.7 1-2.3 3.9-4.1 8.7-7.3 13.9-9.3 5.3-2.1 10.9-3 16.5-2.7 11.2.8 22 7.3 27.5 17.1 5.6 9.8 5.7 22.8-.5 32.2"/><g class="st20"><g class="st20"><path class="st9" d="M170 594c.2-.1.5-.1.7-.1.5 0 1.2-.1 2.2-.1 2.6 0 5.3.2 7.9.6 8.7 1.5 16.8 5.4 23.3 11.3s11.2 13.6 13.6 22.1c.7 2.6 1.2 5.2 1.4 7.8.1.6.1 1.1.1 1.7 0 .4-.2.9-.4 1.2.2-1 .2-1.9.1-2.9-.3-2.6-.9-5.2-1.6-7.7-2.4-8.4-7.1-15.9-13.5-21.7-6.5-5.8-14.4-9.7-23-11.3-2.6-.5-5.2-.8-7.8-.8-2 0-3 0-3-.1"/></g></g><g class="st20"><g class="st20"><path class="st9" d="M211.1 615.2c-.9.5-1.9 1-2.9 1.3-1.8.7-4.4 1.6-7.2 2.5-2.8.9-5.4 1.6-7.3 2.1-1 .3-2.1.5-3.1.6 1-.4 2-.8 3-1l7.2-2.3 7.2-2.4c1-.4 2-.7 3.1-.8"/></g></g><g class="st20"><g class="st20"><path class="st9" d="M202.1 591c.2 0 .6 2.8.7 6.4.1 3.5-.2 6.4-.4 6.4s-.2-2.9-.3-6.4-.2-6.3 0-6.4"/></g></g><g class="st20"><g class="st20"><path class="st9" d="M161.3 604.1c1.3-.6 2.7-1.1 4.1-1.5 2.6-.8 6.2-1.8 10.2-2.8 4-1 7.7-1.7 10.4-2.2 1.4-.3 2.9-.5 4.4-.6-1.4.4-2.8.8-4.3 1.1-2.6.6-6.3 1.4-10.3 2.4-4 1-7.6 1.9-10.2 2.6-1.4.4-2.8.8-4.3 1"/></g></g><path class="st2" d="M242.6 702c-4.9-1.3-10.8 3.5-11.8 8.5s.9 10.1 3 14.6c4.8 10.1 11.5 19.5 20.3 26.5s19.8 11.5 31 11.4c-2.1-9.6.5-19.7-.6-29.5-1-8.6-4.9-16.6-11.1-22.7-6.2-6.1-14.2-9.9-22.8-10.9-3.1-.2-6.7-.7-8 2.1"/><g class="st20"><g class="st20"><path class="st9" d="M285.1 763.1c-.2-.1-.5-.2-.7-.3-.6-.4-1.3-.8-1.8-1.2-2.1-1.8-3.7-4-4.8-6.5-.8-1.5-1.7-3.2-2.5-5-.9-1.8-1.7-3.8-2.6-5.8-1-2.1-2-4.2-3.2-6.2-1.3-2.1-2.8-4.2-4.5-6.1-3.4-4-7-7.4-10.1-10.6-2.8-2.8-5.4-5.9-7.7-9.2-1.5-2.2-2.8-4.6-3.8-7.2-.3-.9-.5-1.6-.7-2.1-.1-.2-.1-.5-.1-.8.1 0 .3 1 1.1 2.8 1 2.5 2.4 4.8 3.9 7 2.3 3.2 4.9 6.3 7.7 9.1 3.1 3.2 6.8 6.6 10.1 10.6 1.7 1.9 3.2 4 4.5 6.2 1.2 2 2.3 4.1 3.2 6.3l2.6 5.9c.8 1.8 1.7 3.5 2.4 5 1.1 2.5 2.6 4.7 4.6 6.5 1.6 1 2.5 1.5 2.4 1.6"/></g></g><g class="st20"><g class="st20"><path class="st9" d="M259.8 755.1c0-1.1.2-2.2.4-3.3.4-2 1-4.8 1.9-7.8.9-3 1.8-5.7 2.5-7.6.3-1 .8-2 1.3-3-.2 1.1-.5 2.2-.9 3.2-.6 2-1.4 4.7-2.3 7.7s-1.6 5.7-2.1 7.7c-.1 1-.4 2.1-.8 3.1"/></g></g><g class="st20"><g class="st20"><path class="st9" d="M284.2 731.4c-1.2-.2-2.3-.4-3.5-.8-2.1-.5-5-1.3-8.3-2s-6.2-1.3-8.4-1.7c-1.2-.1-2.3-.4-3.5-.8 1.2 0 2.4.1 3.5.3 2.2.3 5.2.8 8.4 1.5 3.3.7 6.2 1.6 8.3 2.2 1.3.4 2.5.8 3.5 1.3"/></g></g><g class="st20"><g class="st20"><path class="st9" d="M241.6 738.3c0-1.3.2-2.6.5-3.8.4-2.3 1.1-5.6 2-9.1.9-3.5 1.9-6.7 2.7-8.9.3-1.2.8-2.4 1.4-3.6-.2 1.3-.5 2.5-1 3.7-.6 2.3-1.5 5.4-2.5 9-.9 3.5-1.7 6.7-2.2 9-.1 1.2-.5 2.5-.9 3.7"/></g></g><g class="st20"><g class="st20"><path class="st9" d="M273 710.8c0 .2-6.1-.3-13.7-1.1-7.5-.8-13.6-1.6-13.6-1.8 0-.2 6.1.3 13.7 1.1 7.5.8 13.6 1.6 13.6 1.8z"/></g></g><path class="st2" d="M218.4 653.5c-.4-4.5-4.9-7.8-9.4-7.9-4.5 0-8.7 2.6-11.4 6.2-2.7 3.5-4.3 7.9-5.5 12.2-3 10.5-4.7 21.6-3.4 32.4 1.3 10.9 5.7 21.6 13.5 29.2 1.3 1.2 2.9 2.5 4.6 2.1.9-.3 1.8-.8 2.5-1.5 7.6-7 13.7-15.5 17.8-25.1 4.1-9.5 6-19.8 5.8-30.2-.1-4.1-.7-8.4-3-11.9-2.3-3.2-7.6-6.9-11.5-5.5"/><g class="st20"><g class="st20"><path class="st9" d="M204.6 727.2c-.1-.2-.1-.5-.1-.8 0-.6-.1-1.3-.1-2.2-.1-1.9-.1-4.7 0-8.1.1-3.4.3-7.5.7-12s1.1-9.4 2-14.5 2.1-10 3.2-14.3c1.2-4.3 2.4-8.2 3.6-11.5 1.1-3.2 2.1-5.8 2.9-7.6l.9-2c.1-.2.2-.5.3-.7 0 .3-.1.5-.2.7-.2.5-.5 1.2-.8 2.1-.7 1.8-1.6 4.4-2.7 7.6s-2.2 7.1-3.4 11.5c-1.2 4.3-2.2 9.2-3.2 14.3-.9 5.1-1.6 10-2.1 14.5s-.7 8.5-.9 11.9c-.1 3.4-.2 6.2-.2 8v2.2c.3.3.2.6.1.9"/></g></g><g class="st20"><g class="st20"><path class="st9" d="M207.6 689.9c-.7.9-1.4 1.8-2.3 2.5-1.5 1.5-3.6 3.4-6 5.5s-4.6 3.9-6.3 5.2c-.8.7-1.8 1.4-2.8 1.9.8-.8 1.6-1.6 2.5-2.3l6.1-5.3 6.1-5.4c.9-.7 1.8-1.5 2.7-2.1"/></g></g><g class="st20"><g class="st20"><path class="st9" d="M225.7 704.4c-.9-1.1-1.7-2.2-2.4-3.3l-5.6-8.2-5.8-8.1c-.8-1.1-1.6-2.2-2.3-3.4 1 1 1.9 2 2.7 3.2 1.6 2 3.7 4.8 5.9 8s4.1 6.2 5.5 8.3c.7 1 1.4 2.2 2 3.5"/></g></g><g class="st20"><g class="st20"><path class="st9" d="M216.2 658.8c.1.2-5.9 4.2-13.4 9s-13.6 8.6-13.8 8.4c-.1-.2 5.9-4.2 13.4-9s13.7-8.6 13.8-8.4"/></g></g><g class="st20"><g class="st20"><path class="st9" d="M233.1 677c-.1.1-4.2-3.6-9.1-8.4s-8.7-8.7-8.6-8.9c.1-.1 4.2 3.6 9.1 8.4 4.9 4.8 8.8 8.8 8.6 8.9z"/></g></g><path class="st8" d="M245.3 335.2H141.4V479h103.9V335.2z"/><path d="M231.4 348.5h-76.2v117.2h76.2V348.5z" style="fill:#ddd"/><path class="st25" d="M248.4 335.2h-3V479h3V335.2z"/><path d="M211.2 390h-35.7v56.6h35.7V390z" style="fill:#b1b5ba"/><path class="st2" d="M193.4 382.9c4.7 0 9.1-1.8 12.4-5.1 3.3-3.3 5.2-7.8 5.2-12.4h-35.2c0 2.3.5 4.6 1.3 6.7.9 2.1 2.2 4.1 3.8 5.7 1.6 1.6 3.6 2.9 5.7 3.8 2.2.9 4.5 1.3 6.8 1.3"/><path d="M332.1 174H234v142.2h98.1V174z" style="fill:#e1e1e1"/><path class="st8" d="M326.8 174h-98.1v142.2h98.1V174z"/><path d="M314.8 189h-74v111.5h74V189z" style="fill:#dbdbdb"/><path class="st2" d="M265.5 251.7c-1.7 0-3.3-.5-4.7-1.4-1.4-.9-2.5-2.3-3.1-3.8-.6-1.6-.8-3.3-.5-4.9s1.1-3.2 2.3-4.4c1.2-1.2 2.7-2 4.4-2.3 1.6-.3 3.4-.2 4.9.5 1.6.6 2.9 1.7 3.8 3.1.9 1.4 1.4 3 1.4 4.7 0 2.3-.9 4.4-2.5 6-1.6 1.6-3.7 2.5-6 2.5"/><g class="st22"><g class="st22"><g class="st22"><g class="st22"><path class="st14" d="M290.2 209.7h-24.7v70.1h24.7v-70.1z"/></g></g></g></g><path class="st25" d="M1154.7 615.8H949v174.5h180.5l25.2-174.5z"/><path class="st29" d="M957.1 777h174.3l.2-1.2H958.4V641.5H1151l.2-1.3-194.1-.1V777z"/><path class="st25" d="M1155.1 613H942.6c-.7 0-1.4.3-2 .8-.5.5-.8 1.2-.8 2 0 .7.3 1.4.8 2 .5.5 1.2.8 2 .8h211.7l.8-5.6z"/><path class="st29" d="M1141.6 707.6H957.1v1.3h184.5v-1.3zM1068.9 665c.8 0 1.7-.3 2.4-.7.7-.5 1.3-1.1 1.6-1.9s.4-1.7.2-2.5-.6-1.6-1.2-2.2c-.6-.6-1.4-1-2.2-1.2s-1.7-.1-2.5.2c-.8.3-1.5.9-1.9 1.6-.5.7-.7 1.5-.7 2.4 0 1.1.5 2.2 1.3 3.1.7.7 1.8 1.2 3 1.2"/><g class="st30"><g class="st30"><path class="st7" d="M1070.5 660.7c0-.9-.3-1.8-.8-2.5s-1.3-1.3-2.1-1.6c.4-.2.9-.3 1.4-.2 1.1 0 2.2.5 3.1 1.3.8.8 1.3 1.9 1.3 3.1s-.5 2.2-1.3 3.1c-.8.8-1.9 1.3-3.1 1.3-.5 0-.9-.1-1.4-.2.9-.3 1.6-.9 2.1-1.6.5-1 .8-1.8.8-2.7"/></g></g><path class="st29" d="M1068.9 732.3c.8 0 1.7-.3 2.4-.7.7-.5 1.3-1.1 1.6-1.9.3-.8.4-1.7.2-2.5s-.6-1.6-1.2-2.2c-.6-.6-1.4-1-2.2-1.2s-1.7-.1-2.5.2c-.8.3-1.5.9-1.9 1.6-.5.7-.7 1.5-.7 2.4 0 1.1.5 2.2 1.3 3.1.7.8 1.8 1.2 3 1.2"/><g class="st30"><g class="st30"><path class="st7" d="M1070.5 728c0-.9-.3-1.8-.8-2.5s-1.3-1.3-2.1-1.6c.4-.2.9-.2 1.4-.2.6 0 1.1.1 1.7.3.5.2 1 .5 1.4.9.4.4.7.9.9 1.4.2.5.3 1.1.3 1.7s-.1 1.1-.3 1.7c-.2.5-.5 1-.9 1.4-.4.4-.9.7-1.4.9-.5.2-1.1.3-1.7.3-.5 0-.9-.1-1.4-.2.9-.3 1.6-.8 2.1-1.6.5-.7.8-1.6.8-2.5"/></g></g><path class="st29" d="M1154.3 618.5H949v2.7l204.5 2.6.8-5.3z"/><path class="st25" d="M955.2 790.3h13.7l-12.6 49.8c-.2.5-.6 1-1 1.4-.5.3-1 .5-1.6.5-.4 0-.8-.1-1.2-.3-.4-.2-.7-.4-1-.8-.3-.3-.5-.7-.6-1.1-.1-.4-.1-.8 0-1.2l4.3-48.3z"/><path class="st29" d="m962.6 795.6-7.7-1.6.3-3.7H969l-12.2 48.1c-.8 2.7-1.5 3.6-3.1 3.6l8.9-46.4z"/><path class="st25" d="m1008.2 790.3-4.4 48.2c-.1.4-.1.8 0 1.2.1.4.3.8.6 1.1.3.3.6.6 1 .8.4.2.8.3 1.2.3.6 0 1.2-.2 1.7-.5s.8-.8 1-1.4l12.6-49.8h-13.7z"/><path class="st29" d="m1010.5 816-4.7-1.1 2.2-24.5h13.8l-12.6 49.8c-.2.5-.6 1-1 1.4-.5.3-1.1.5-1.7.5h-.2l4.2-26.1z"/><path class="st2" d="M1089.6 595.4H1024v17.1h65.6c2.2-.1 4.3-1 5.9-2.6 1.5-1.6 2.4-3.7 2.4-6 0-2.2-.9-4.4-2.4-6-1.6-1.5-3.7-2.4-5.9-2.5"/><path class="st23" d="M1089.6 595.4H1024v17.1h65.6c2.2-.1 4.3-1 5.9-2.6 1.5-1.6 2.4-3.7 2.4-6 0-2.2-.9-4.4-2.4-6-1.6-1.5-3.7-2.4-5.9-2.5"/><path class="st2" d="M1029.4 612.5h-33.2v-2.4h10.3v-12.2h-10.3v-2.5h33.2c2.2.1 4.3 1 5.9 2.6 1.5 1.6 2.4 3.7 2.4 6 0 2.2-.9 4.4-2.4 6-1.5 1.5-3.6 2.5-5.9 2.5z"/><path class="st8" d="M998.7 610h30.6c1.6 0 3.1-.6 4.3-1.8 1.1-1.1 1.8-2.7 1.8-4.3 0-1.6-.6-3.1-1.8-4.3-1.1-1.1-2.7-1.8-4.3-1.8h-30.6V610z"/><path class="st2" d="M1099.4 582.2h-54.7v13.2h54.8c.3 0 .6-.1.9-.2.3-.1.5-.3.7-.5.2-.2.4-.5.5-.7.1-.3.2-.6.2-.9v-8.7c0-.6-.2-1.2-.7-1.6-.2-.2-.5-.4-.7-.5-.4-.1-.7-.1-1-.1"/><path class="st14" d="M1068.3 586.6h18.8c.3 0 .5.1.7.3.2.2.3.4.3.7v2.9c0 .2-.1.5-.3.7-.2.2-.4.3-.7.3h-18.8c-.2 0-.5-.1-.7-.3-.2-.2-.3-.4-.3-.7v-2.9c0-.3.1-.5.3-.7.1-.2.4-.3.7-.3z"/><path class="st2" d="M1023.4 595.4h29.8c.3 0 .6-.1.9-.2.3-.1.5-.3.7-.5.2-.2.4-.5.5-.7.1-.3.2-.6.2-.9v-8.7c0-.6-.2-1.2-.7-1.6-.2-.2-.5-.4-.7-.5-.3-.1-.6-.2-.9-.2h-29.8v13.3z"/><path class="st14" d="M1023.4 595.4h29.8c.3 0 .6-.1.9-.2.3-.1.5-.3.7-.5.2-.2.4-.5.5-.7.1-.3.2-.6.2-.9v-8.7c0-.6-.2-1.2-.7-1.6-.2-.2-.5-.4-.7-.5-.3-.1-.6-.2-.9-.2h-29.8v13.3z"/><path class="st8" d="M1023.4 593.4h28.9c.3 0 .6-.1.8-.3.2-.2.3-.5.3-.8v-7.1c0-.3-.1-.6-.3-.8-.2-.2-.5-.3-.8-.3h-28.9v9.3z"/><path class="st2" d="M1006.5 582.2h64.7V569h-64.7c-.4 0-.8.1-1.2.2-.4.2-.7.4-1 .7-.3.3-.5.6-.7 1-.2.4-.2.8-.2 1.2v7.1c0 .4.1.8.2 1.2.2.4.4.7.7 1 .6.5 1.4.8 2.2.8"/><path d="M1006.5 582.2h64.7V569h-64.7c-.4 0-.8.1-1.2.2-.4.2-.7.4-1 .7-.3.3-.5.6-.7 1-.2.4-.2.8-.2 1.2v7.1c0 .4.1.8.2 1.2.2.4.4.7.7 1 .6.5 1.4.8 2.2.8" style="opacity:.3;fill:#fff;enable-background:new"/><path class="st8" d="M1093.4 571h-29.8c-.3 0-.6.1-.8.3-.1.1-.2.2-.2.4-.1.1-.1.3-.1.4v7.1c0 .1 0 .3.1.4.1.1.1.3.2.4.2.2.5.3.8.3h29.8V571z"/><path class="st2" d="M1062.8 569h32.8v2h-32.4c-.1 0-.3.1-.4.2-.1.1-.2.2-.3.4 0 .1-.1.3-.1.4v7.2c0 .1 0 .3.1.4.1.1.2.3.3.3.1.1.2.2.4.2h32.4v2h-32.8c-.3 0-.6-.1-.9-.2-.3-.1-.5-.3-.7-.5-.4-.4-.7-1-.7-1.6v-8.7c0-.3.1-.6.2-.9.1-.3.3-.5.5-.7.2-.2.5-.4.7-.5.3 0 .6-.1.9 0"/><path class="st14" d="M1062.8 569h32.8v2h-32.4c-.1 0-.3.1-.4.2-.1.1-.2.2-.3.4 0 .1-.1.3-.1.4v7.2c0 .1 0 .3.1.4.1.1.2.3.3.3.1.1.2.2.4.2h32.4v2h-32.8c-.3 0-.6-.1-.9-.2-.3-.1-.5-.3-.7-.5-.4-.4-.7-1-.7-1.6v-8.7c0-.3.1-.6.2-.9.1-.3.3-.5.5-.7.2-.2.5-.4.7-.5.3 0 .6-.1.9 0"/></svg>