<svg version="1.1" id="Layer_1" xmlns="http://www.w3.org/2000/svg" x="0" y="0" viewBox="0 0 1264 742.3" style="enable-background:new 0 0 1264 742.3" xml:space="preserve"><style>.st1{fill:#fff}.st2{opacity:8.000000e-02;fill:#21252b;enable-background:new}.st3{fill:#e6e6e6}.st4{fill:#f0f0f0}.st5{fill:#e0e0e0}.st6{fill:#f5f5f5}.st7{opacity:5.000000e-02;enable-background:new}.st9{fill:#afb3b8}.st10{fill:#fc9d9d}.st11{fill:#14b8a6}.st12,.st13{opacity:.6;enable-background:new}.st13{opacity:.15}.st14{fill:#21252b}.st15{opacity:.3}.st16,.st17{opacity:.3;enable-background:new}.st17{opacity:.4}.st18{fill:#3f4249}.st19,.st20{opacity:.5;enable-background:new}.st20{opacity:.2}.st21{opacity:.15;stroke-width:.6;stroke-linecap:round}.st21,.st23,.st26{fill:none;stroke:#000;stroke-miterlimit:10;enable-background:new}.st23{opacity:.15;stroke-width:.61;stroke-linecap:round}.st26{opacity:.2}.st27{fill:#868a91}.st28{fill:#b2b6bb}.st30{fill:#dadddf}.st31,.st32{opacity:.1;enable-background:new}.st32{opacity:.2;fill:#fff}.st33{fill:none;stroke:#000;stroke-width:.61;stroke-linecap:round;stroke-linejoin:round}</style><path d="M198.7 742.3 8.2 536.1c-4.5-4.8-7.3-11-8-17.6-.7-6.6.7-13.2 4-18.9l245.9-422c3.3-5.7 7.9-10.5 13.4-14s11.8-5.7 18.3-6.4L844.4.2c5.8-.6 11.6.1 17.1 1.9s10.6 4.8 14.9 8.7l377.4 341c4.6 4.1 7.8 9.6 9.3 15.6 1.5 6 1.1 12.3-1.1 18.1l-134.3 356.9h-929z" style="fill:#f9fafb"/><path class="st1" d="M577.2 322.1s9.3 1.3 51.8.4c11.5 7 61.4 2.5 81.1.7 22.8 4.2 34-6.8 23.9-12.8-3.1-1.8-8.3-3.2-15.7-3.5.5-23.7-58.1-31.5-74.4 3.1-8.6-7-26.6-6.3-27.8 3.1-16.7-3.1-29.8.4-35.8 4-3.3 2-4.5 4-3.1 5z"/><path class="st2" d="M577.2 322.1s9.3 1.3 51.8.4c11.5 7 61.4 2.5 81.1.7 22.8 4.2 34-6.8 23.9-12.8.1 1.5-.4 2.9-1.4 4-2.3 2.6-6.7 3.7-10.6 3.4-3.9-.5-7.6-1.7-11-3.7-1.6-1-3.3-1.7-5.1-2-3.4-.3-6.3 1.8-8.7 3.8-2-3.2-6.9-4.9-11.1-3.8-4.2 1-7 4.7-6.4 8.2-8.2-1.5-16.5 2.4-24.8 1.8-9.5-.7-18-7.2-27.3-5.6-2.4.4-4.5 1.3-6.9 1.7-2.3.3-4.7.3-7.1.2-7.6-.1-15.2.8-22.8.4-3.7-.2-7.3-.8-10.8-1.8-3 2.1-4.2 4.1-2.8 5.1z"/><path class="st3" d="M256.6 673.8h211.3V261.5H256.6v412.3z"/><path class="st4" d="M295 673.8h172.9V261.5H295v412.3z"/><path class="st5" d="M254.1 268.2h218.3v-6.7H254.1v6.7zM254.1 254.8h218.3V248H254.1v6.8z"/><path class="st4" d="M258.7 261.5h209.2v-6.7H258.7v6.7z"/><path class="st3" d="M419 318.2h32.5v-32.5H419v32.5z"/><path class="st6" d="M419 318.2h29.6v-32.5H419v32.5z"/><path class="st3" d="M369.8 318.2h32.5v-32.5h-32.5v32.5z"/><path class="st6" d="M369.9 318.2h29.6v-32.5h-29.6v32.5z"/><path class="st3" d="M320.7 318.2h32.5v-32.5h-32.5v32.5z"/><path class="st6" d="M320.7 318.2h29.6v-32.5h-29.6v32.5z"/><path class="st3" d="M419 366h32.5v-32.5H419V366z"/><path class="st6" d="M419 366h29.6v-32.5H419V366z"/><path class="st3" d="M369.8 366h32.5v-32.5h-32.5V366z"/><path class="st6" d="M369.9 366h29.6v-32.5h-29.6V366z"/><path class="st3" d="M320.7 366h32.5v-32.5h-32.5V366z"/><path class="st6" d="M320.7 366h29.6v-32.5h-29.6V366z"/><path class="st3" d="M419 453.6h32.5v-32.5H419v32.5z"/><path class="st6" d="M419 453.6h29.6v-32.5H419v32.5z"/><path class="st3" d="M369.8 453.6h32.5v-32.5h-32.5v32.5z"/><path class="st6" d="M369.9 453.6h29.6v-32.5h-29.6v32.5z"/><path class="st3" d="M320.7 453.6h32.5v-32.5h-32.5v32.5z"/><path class="st6" d="M320.7 453.6h29.6v-32.5h-29.6v32.5z"/><path class="st3" d="M419 501.4h32.5v-32.5H419v32.5z"/><path class="st6" d="M419 501.4h29.6v-32.5H419v32.5z"/><path class="st3" d="M369.8 501.4h32.5v-32.5h-32.5v32.5z"/><path class="st6" d="M369.9 501.4h29.6v-32.5h-29.6v32.5z"/><path class="st3" d="M320.7 501.4h32.5v-32.5h-32.5v32.5z"/><path class="st6" d="M320.7 501.4h29.6v-32.5h-29.6v32.5z"/><path class="st3" d="M419 598.7h32.5v-32.5H419v32.5z"/><path class="st6" d="M419 598.7h29.6v-32.5H419v32.5z"/><path class="st3" d="M369.8 598.7h32.5v-32.5h-32.5v32.5z"/><path class="st6" d="M369.9 598.7h29.6v-32.5h-29.6v32.5z"/><path class="st3" d="M320.7 598.7h32.5v-32.5h-32.5v32.5z"/><path class="st6" d="M320.7 598.7h29.6v-32.5h-29.6v32.5z"/><path class="st3" d="M419 646.5h32.5V614H419v32.5z"/><path class="st6" d="M419 646.5h29.6V614H419v32.5z"/><path class="st3" d="M369.8 646.5h32.5V614h-32.5v32.5z"/><path class="st6" d="M369.9 646.5h29.6V614h-29.6v32.5z"/><path class="st3" d="M320.7 646.5h32.5V614h-32.5v32.5z"/><path class="st6" d="M320.7 646.5h29.6V614h-29.6v32.5z"/><path class="st5" d="M256.6 391.9h211.3v-3H256.6v3zM256.6 541.5h211.3v-3H256.6v3zM859.8 382.3H713.7v355.5h146.1V382.3z"/><path class="st4" d="M818.2 382.3H713.7v355.5h104.5V382.3z"/><path class="st3" d="M763.4 411.6h-38.9v18.9h38.9v-18.9z"/><path class="st6" d="M763.4 411.6h-36.3v18.9h36.3v-18.9z"/><path class="st3" d="M808.4 411.6h-38.9v18.9h38.9v-18.9z"/><path class="st6" d="M808.4 411.6h-36.3v18.9h36.3v-18.9z"/><path class="st3" d="M763.4 447.1h-38.9V466h38.9v-18.9z"/><path class="st6" d="M763.4 447.1h-36.3V466h36.3v-18.9z"/><path class="st3" d="M808.4 447.1h-38.9V466h38.9v-18.9z"/><path class="st6" d="M808.4 447.1h-36.3V466h36.3v-18.9z"/><path class="st3" d="M763.4 492.5h-38.9v18.9h38.9v-18.9z"/><path class="st6" d="M763.4 492.5h-36.3v18.9h36.3v-18.9z"/><path class="st3" d="M808.4 492.5h-38.9v18.9h38.9v-18.9z"/><path class="st6" d="M808.4 492.5h-36.3v18.9h36.3v-18.9z"/><path class="st3" d="M763.4 518.6h-38.9v18.9h38.9v-18.9z"/><path class="st6" d="M763.4 518.6h-36.3v18.9h36.3v-18.9z"/><path class="st3" d="M808.4 518.6h-38.9v18.9h38.9v-18.9z"/><path class="st6" d="M808.4 518.6h-36.3v18.9h36.3v-18.9z"/><path class="st3" d="M763.4 561.5h-38.9v18.9h38.9v-18.9z"/><path class="st6" d="M763.4 561.5h-36.3v18.9h36.3v-18.9z"/><path class="st3" d="M808.4 561.5h-38.9v18.9h38.9v-18.9z"/><path class="st6" d="M808.4 561.5h-36.3v18.9h36.3v-18.9z"/><path class="st3" d="M763.4 587.6h-38.9v18.9h38.9v-18.9z"/><path class="st6" d="M763.4 587.6h-36.3v18.9h36.3v-18.9z"/><path class="st3" d="M808.4 587.6h-38.9v18.9h38.9v-18.9z"/><path class="st6" d="M808.4 587.6h-36.3v18.9h36.3v-18.9z"/><path class="st3" d="M763.4 634.2h-38.9v18.9h38.9v-18.9z"/><path class="st6" d="M763.4 634.2h-36.3v18.9h36.3v-18.9z"/><path class="st3" d="M808.4 634.2h-38.9v18.9h38.9v-18.9z"/><path class="st6" d="M808.4 634.2h-36.3v18.9h36.3v-18.9z"/><path class="st3" d="M763.4 668.7h-38.9v18.9h38.9v-18.9z"/><path class="st6" d="M763.4 668.7h-36.3v18.9h36.3v-18.9z"/><path class="st3" d="M808.4 668.7h-38.9v18.9h38.9v-18.9z"/><path class="st6" d="M808.4 668.7h-36.3v18.9h36.3v-18.9z"/><path class="st7" d="M859.8 477.6H713.7v3.2h146.1v-3.2zM859.8 547.8H713.7v3.2h146.1v-3.2zM859.8 618.7H713.7v3.2h146.1v-3.2z"/><path class="st5" d="M859.8 371.8h-153v11.4h153v-11.4z"/><path class="st7" d="M859.8 371.8h-35v11.4h35v-11.4z"/><path class="st3" d="M1082.8 276v389.6l-19.8 56.3H911.2V276h171.6z"/><path class="st4" d="M1019.3 276H847.7v445.9h171.6V276z"/><path class="st3" d="M1004.3 306.3H862.6V329h141.6v-22.7z"/><path class="st6" d="M1004.3 306.3H868.1V329h136.1v-22.7z"/><path class="st3" d="M1004.3 344.5H862.6v22.7h141.6v-22.7z"/><path class="st6" d="M1004.3 344.5H868.1v22.7h136.1v-22.7z"/><path class="st3" d="M1004.3 384.2H862.6V407h141.6v-22.8z"/><path class="st6" d="M1004.3 384.2H868.1V407h136.1v-22.8z"/><path class="st3" d="M1004.3 424H862.6v22.7h141.6V424z"/><path class="st6" d="M1004.3 424H868.1v22.7h136.1V424z"/><path class="st3" d="M1004.3 463.7H862.6v22.7h141.6v-22.7z"/><path class="st6" d="M1004.3 463.7H868.1v22.7h136.1v-22.7z"/><path class="st3" d="M1004.3 503.4H862.6v22.7h141.6v-22.7z"/><path class="st6" d="M1004.3 503.4H868.1v22.7h136.1v-22.7z"/><path class="st3" d="M1004.3 547.2H862.6v22.7h141.6v-22.7z"/><path class="st6" d="M1004.3 547.2H868.1v22.7h136.1v-22.7z"/><path class="st3" d="M1004.3 591H862.6v22.7h141.6V591z"/><path class="st6" d="M1004.3 591H868.1v22.7h136.1V591z"/><path class="st3" d="M1004.3 634.8H862.6v22.7h141.6v-22.7z"/><path class="st6" d="M1004.3 634.8H868.1v22.7h136.1v-22.7z"/><path class="st3" d="M1004.3 678.6H862.6v22.7h141.6v-22.7z"/><path class="st6" d="M1004.3 678.6H868.1v22.7h136.1v-22.7z"/><path class="st5" d="M1087.2 271.5H842.8v10.9h244.4v-10.9zM1087.2 251.9H842.8v10.9h244.4v-10.9z"/><path class="st4" d="M1079.1 260.6H847.7v10.9h231.4v-10.9z"/><path class="st5" d="M1082.8 306.3H1035V329h47.8v-22.7zM1082.8 343.7H1035v22.7h47.8v-22.7zM1082.8 381H1035v22.7h47.8V381zM1082.8 424H1035v22.7h47.8V424zM1082.8 463.7H1035v22.7h47.8v-22.7zM1082.8 503.4H1035v22.7h47.8v-22.7zM1082.8 547.2H1035V570h47.8v-22.8zM1082.8 591H1035v22.7h47.8V591zM1082.8 634.8H1035v22.7h47.8v-22.7z"/><path d="m1251.8 349.3-1.2-1.1c-20.2 12.1-28.8 33.2-28.8 33.2-9.2-10.9-27.2-29.2-39.9-24-17.8 7.4 7.8 33.9 7.8 33.9-60.9 20.1-50.5 63.2-50.5 63.2-6.1-5.8-13.5-9.6-22-8.8-30.2 3-9 42.3-9 42.3-111.8-12.3-118.8 60.6-118.8 60.6S976.6 502.3 961 505c-15.6 2.8-7.1 52.5-7.1 52.5s-10.1-29.8-28.9-23.9c-18.8 5.9 0 49.8 0 49.8-55 2.2-44.8 33-44.8 33-11-5.1-23-7.7-35.1-7.7-41.1-.2-49.3 23.8-50.8 29.7l-.9-.9c-5.7-14.4-37.9-30-59.9-31.8-6.1-.5-12.3-.7-18.5-.5-5.6-.2-11.2 0-16.8.5-7.6.9-15 2.9-22 5.9-13 4.1-25.4 10.1-36.7 17.8-5-9.1-16.5-20.8-42.7-20.7-11.1-.1-22.1 2.6-31.9 7.7 0 0 9.3-30.8-40.7-33 0 0 17.1-43.8 0-49.8-17.1-5.9-26.2 24-26.2 24s7.7-49.7-6.4-52.5-25.6 43.7-25.6 43.7-6.3-72.9-107.9-60.6c0 0 19.3-39.3-8.1-42.3-7.7-.8-14.4 2.9-20 8.8 0 0 9.5-43.2-45.8-63.2 0 0 23.3-26.5 7.1-33.9-11.5-5.3-27.9 13-36.2 24 0 0-13.3-29.8-42.3-40.3-98.5-35.8-92.5 117.2-92.5 117.2-98-11-124.3 57.8-114 75l95 103.1L196.8 740h929L1260 383c2.2-5.8 2.6-12.1 1.1-18.1-1.5-6.1-4.7-11.5-9.3-15.6z" style="fill:#d9dcde"/><path class="st9" d="M1220.1 488.8c-17.6 9.1-21.6 22.6-21.6 22.6-11 1-21.5 5-30.4 11.6-23.8 18.1-7 41.9-7 41.9-7.4-5.8-19.7-10.7-37-2.5-20.7 9.8-15.1 33.8-15.1 33.8-82.8-19.8-99.6 43.2-99.6 43.2-35.2 5.2-26.1 24.9-26.1 24.9-98.9-9.8-93.6 49.6-93.6 49.6-1.5-8-6.7-16-15.5-16.2-17.3-.5-12.6 18-12.6 18s-24.8-28.5-44.4-19.5c-17.7 8.1-10.9 38-9.4 43.7h317.9l94.4-251.1zM196.7 739.8H656c13.5-56-30.6-53-53.9-23.8 6.4-19.1-22.6-27.9-28.1-1.7 0 0 5.2-59.3-93.6-49.6 0 0 5.8-47.5-44.2-23.5 0 0 0-54-74-22 8-25.5-59.6-43.6-85-24 15.5-20.5 22-81-45-58 0 0-9.9-26.2-30-32-19-5.5-47.6 8.8-68 24-30.3-45.5-85.5-18.2-93 12-6.6 8.4-5.1 14.6-5.6 24.1l161.1 174.5z"/><path class="st10" d="M512.8 541.7c-3.6 59.1 1.3 121.7-1.7 180.9l21.1 2.7.8-12.1.2.1c4-56 14.7-116.1 19.9-172.3l-40.3.7z"/><path class="st1" d="M534.6 695.7h-22.7c-.2 9-.4 18-.9 26.9l9.8 1.3 11.5-1 .7-9.6.2.1c.4-5.9.9-11.8 1.4-17.7z"/><path class="st11" d="m510.6 714.7-.1 2.1c0 1.8-.3 3.5-.9 5.2l-2.6 7.3c-.7 2.1-1.1 4.2-1.1 6.4v.4c0 .4.1.7.2 1 .1.3.4.6.6.9.3.2.6.4.9.5.3.1.7.2 1 .2h25.8c.7 0 1.4-.2 1.9-.7.5-.5.8-1.2.9-1.9v-.9c0-1.9-.3-3.8-.9-5.5l-2.2-7.4c-.5-1.5-.7-3.1-.7-4.7v-2.7c0-1.7-.7-3.4-1.9-4.6l-.4-.4c-2.4-2.4-5.6-3.8-9-3.8-3.4 0-6.6 1.3-9.1 3.6l-.6.6c-.9 1-1.7 2.7-1.8 4.4z"/><path class="st12" d="M506 734h31.4c.1.4.1.7.1 1.1v.9c0 .4-.1.7-.2 1-.1.3-.4.6-.6.9-.3.2-.6.4-.9.5-.3.1-.7.2-1 .2H509c-.7 0-1.4-.2-1.9-.7-.5-.5-.8-1.2-.9-1.9v-2h-.2z"/><path class="st1" d="M527.7 715.8c.1-.2.1-.3 0-.5s-.2-.3-.3-.4c-1.7-.8-3.5-1.2-5.4-1.2-1.9 0-3.7.4-5.4 1.2-.1 0-.1.1-.2.2s-.1.1-.1.2v.3c0 .1 0 .2.1.2 0 .1.1.1.2.2s.1.1.2.1h.2c.1 0 .2 0 .2-.1 1.5-.7 3.1-1.1 4.8-1.1s3.3.4 4.8 1.1c.1.1.2.1.3.1.1 0 .3 0 .4-.1l.2-.2zM527.7 719.1c.1-.2.1-.3 0-.5s-.2-.3-.3-.4c-1.7-.8-3.5-1.2-5.4-1.2s-3.7.4-5.4 1.2c-.2.1-.3.2-.3.4-.1.2 0 .3 0 .5.1.2.2.3.4.3.2.1.3 0 .5 0 1.5-.7 3.1-1.1 4.8-1.1 1.6 0 3.3.4 4.8 1.1.1.1.2.1.3.1.1 0 .3 0 .4-.1 0-.1.1-.1.2-.3zM527.7 722.4c.1-.2.1-.3 0-.5s-.2-.3-.3-.4c-1.7-.8-3.5-1.2-5.4-1.2-1.9 0-3.7.4-5.4 1.2-.1 0-.1.1-.2.2s-.1.1-.1.2v.3c0 .1 0 .2.1.2 0 .1.1.1.2.2s.1.1.2.1h.2c.1 0 .2 0 .2-.1 1.5-.7 3.1-1.1 4.8-1.1s3.3.4 4.8 1.1c.1.1.2.1.3.1.1 0 .3 0 .4-.1l.2-.2z"/><path class="st10" d="m634.2 724.7-17-12.8c-1.4-1-2.5-2.4-3.3-3.9-.8-1.5-1.3-3.2-1.4-4.9l2.7-119.8c0-.7 0-1.3-.1-1.9l-3-40.6-42 4.7 7.8 46.6v1c-.9 19.7.5 39.5 4.3 58.9l.6 3.3c2.2 11.6 4.8 27.1 6.5 41.3l2.2 27 42.7 1.1z"/><path class="st1" d="m589.4 696.7 2.2 27 42.6 1.1-17-12.8c-1.4-1.1-2.5-2.4-3.3-3.9-.8-1.5-1.3-3.2-1.4-4.9l.6-7.4-23.7.9"/><path class="st13" d="M593.2 708.3c.4 4.8 7.1 7.8 11.6 9.6l6.4 2.5-19.5 2.1-2-23.8c-1.7-14.9-4.5-31.4-6.8-43.6l-.6-3.3c-3.8-19.4-5.2-39.2-4.3-58.9v-1l-4.7-32.8 8-1 4 33s-3 38 3.5 67.6c0 0 2.6 24 4 39.9.2 2.6.4 4.9.5 6.9l-.1 2.8z"/><path class="st11" d="m591.3 713.7 9.5 3c.7.2 1.4.2 2.1.1.7-.1 1.4-.5 1.9-.9l7.5-6.4c.8-.7 1.9-1.1 2.9-1.1 1.1 0 2.1.3 3 1l17 13.2 13.4 4.4c1.9.7 3.6 1.9 4.8 3.5 1.2 1.6 1.8 3.6 1.8 5.7 0 .6-.2 1.1-.6 1.5s-.9.6-1.5.6h-59.4c-.7 0-1.3-.1-2-.4-.6-.3-1.2-.6-1.7-1.1-.5-.5-.9-1-1.1-1.7-.3-.6-.4-1.3-.4-2v-17.5c0-.3.1-.6.2-.9.1-.3.4-.5.6-.7.3-.2.5-.3.9-.4.5 0 .8 0 1.1.1z"/><path class="st12" d="M588.7 734H655c.2.7.3 1.4.3 2.1 0 .6-.2 1.1-.6 1.5s-.9.6-1.5.6h-59.4c-1.2 0-2.4-.4-3.3-1.2-.9-.8-1.6-1.8-1.8-3z"/><path class="st1" d="m618.4 716.1 3.6-3.9c.1-.1.1-.2.1-.4 0-.1-.1-.3-.1-.4-.1-.1-.2-.2-.4-.2-.1 0-.3.1-.4.2l-3.6 3.9c-.1.1-.1.2-.1.4 0 .1.1.3.1.4.1.1.2.1.4.1.1.1.2 0 .4-.1zM621.2 718.3l3.6-3.9c.1-.1.2-.2.2-.4 0-.1-.1-.3-.2-.4-.1-.1-.2-.1-.4-.1-.1 0-.3.1-.4.1l-3.6 3.9c-.1.1-.2.2-.2.4 0 .1.1.3.2.4.1.1.2.1.3.1.2 0 .4 0 .5-.1zM624 720.6l3.6-3.9c.1-.1.2-.2.2-.4 0-.1-.1-.3-.2-.4-.1-.1-.2-.1-.4-.1s-.3.1-.4.1l-3.6 3.9c-.1.1-.2.2-.2.4 0 .1.1.3.2.4.1.1.2.1.3.1.3 0 .4 0 .5-.1z"/><path class="st14" d="m554.8 561.3-45.6-.1 2.6-60.7c.3-6.2.1-12.3-.6-18.5-1.3-12.5-1-23.8-.3-37.3l1.3-6.5 90.3 9.6 12.3 106.8-45.4 4.7-9.3-61.2-5.3 63.2z"/><g class="st15"><path class="st16" d="M561.2 499.3h-1l.5-44.9h4.9v27.2l-3 5.9-.9-.5 2.9-5.7v-26h-2.9l-.5 44z"/></g><path class="st16" d="m517.3 561.3 2.3-42.6c.3-6.1.3-12.2 0-18.2-.9-15.4-.4-30.9 1.6-46.2l-11-8v14c-.5 6.8.2 11.4.5 18.1 1.2 10.8 1.6 21.8 1 32.7l-2.5 50.2h8.1z"/><g class="st15"><path class="st16" d="M602.3 471.2c-9.5-8.7-12.1-21-12.2-21.1l1-.2c0 .1 2.6 12 11.9 20.5l-.7.8z"/></g><path class="st16" d="m569.5 559.5 6.6-1-8.9-53.5c-1.1-8.1-7-5.6-7-5.6l9.3 60.1z"/><path class="st11" d="m497 373.9 1-9.5 8.3 30.6 3 59.9 26.7 1.8c23.1 1.7 46.4-1.3 68.3-8.9-1.9-40.4-9-94.5-9-94.5l-2.5-16.7 32-16-13-30.2-14.4 3.3c-6.7.8-22.6 3.9-22.6 3.9l-26.5 1.2-33.3-1.5-35.3 12.7c-11.6 5.8-11.6 22.5-11.6 22.5l-3.2 38 32.1 3.4z"/><path class="st10" d="m497.6 477.8-3.5-57.5-.2.1-1.1-17.9 2.1-28.6-28.1-3.3-.4 29.8c-.2 2 0 4 .5 6l4.3 25.1 13 50 13.4-3.7zM659.3 287.6c-11.9-18.3-66.3-45.1-66.3-45.1l-10.8 8.9 42.7 36.3-13 3 13 30.2 25.6-12.8c14.2-7.2 8.8-20.5 8.8-20.5z"/><path class="st14" d="m511 497.7-33.1-8c-.5-.1-.9.2-1 .6l-3.8 15.8c-.1.5.2.9.6 1l33.1 8c.5.1.9-.2 1-.6l3.8-15.8c.1-.4-.2-.9-.6-1z"/><path class="st16" d="m511 497.7-33.1-8c-.5-.1-.9.2-1 .6l-3.8 15.8c-.1.5.2.9.6 1l33.1 8c.5.1.9-.2 1-.6l3.8-15.8c.1-.4-.2-.9-.6-1z"/><path class="st14" d="m509.9 497.4-33.1-8c-.5-.1-.9.2-1 .6l-3.8 15.8c-.1.5.2.9.6 1l33.1 8c.5.1.9-.2 1-.6l3.8-15.8c.1-.4-.2-.9-.6-1z"/><path class="st17" d="M507.6 500.5c.2-.2.3-.5.4-.8 0-.3 0-.6-.2-.8l-.3-.3c-.1-.1-.3-.1-.4-.1h-.4c-.1 0-.2.1-.4.2-.2.2-.3.5-.4.8 0 .3.1.6.2.8l.3.3c.1.1.3.1.4.1h.4c.2 0 .3-.1.4-.2z"/><path class="st18" d="M507.8 500.6c.2-.2.4-.5.4-.8 0-.3-.1-.6-.2-.8l-.3-.3c-.1-.1-.3-.1-.4-.1h-.4c-.1 0-.2.1-.4.2-.2.2-.3.5-.4.8 0 .3 0 .6.2.8l.3.3c.1.1.3.1.4.1h.4c.2 0 .3-.1.4-.2z"/><path class="st19" d="M507.6 500.3c.1-.1.2-.3.2-.5s0-.4-.1-.5l-.2-.2c-.1 0-.2-.1-.3-.1h-.3c-.1 0-.2.1-.2.2-.1.1-.2.3-.2.5s0 .4.1.5l.2.2c.1 0 .2.1.3.1h.3c0-.1.1-.1.2-.2z"/><path class="st17" d="M507.6 499.8c0-.2 0-.3-.1-.4-.1-.1-.2-.2-.4-.3h.1c.1 0 .2 0 .3.1.1 0 .2.1.2.2.1.1.1.1.1.2v.3c0 .2-.1.4-.2.5s-.3.2-.5.2h-.1c.2 0 .3-.1.4-.3.1-.2.2-.4.2-.5z"/><path class="st17" d="M507.6 500.5c.2-.2.3-.5.4-.8 0-.3 0-.6-.2-.8l-.3-.3c-.1-.1-.3-.1-.4-.1h-.4c-.1 0-.2.1-.4.2-.2.2-.3.5-.4.8 0 .3.1.6.2.8l.3.3c.1.1.3.1.4.1h.4c.2 0 .3-.1.4-.2z"/><path class="st18" d="M507.8 500.6c.2-.2.4-.5.4-.8 0-.3-.1-.6-.2-.8l-.3-.3c-.1-.1-.3-.1-.4-.1h-.4c-.1 0-.2.1-.4.2-.2.2-.3.5-.4.8 0 .3 0 .6.2.8l.3.3c.1.1.3.1.4.1h.4c.2 0 .3-.1.4-.2z"/><path class="st19" d="M507.6 500.3c.1-.1.2-.3.2-.5s0-.4-.1-.5l-.2-.2c-.1 0-.2-.1-.3-.1h-.3c-.1 0-.2.1-.2.2-.1.1-.2.3-.2.5s0 .4.1.5l.2.2c.1 0 .2.1.3.1h.3c0-.1.1-.1.2-.2z"/><path class="st17" d="M507.6 499.8c0-.2 0-.3-.1-.4-.1-.1-.2-.2-.4-.3h.1c.1 0 .2 0 .3.1.1 0 .2.1.2.2.1.1.1.1.1.2v.3c0 .2-.1.4-.2.5s-.3.2-.5.2h-.1c.2 0 .3-.1.4-.3.1-.2.2-.4.2-.5z"/><g class="st15"><path class="st16" d="M495.9 341c-.1 0-.2 0-.3-.1l-.2-.2c-.9-4.5-2.6-8.7-5.2-12.5s-5.8-7-9.6-9.5l-.1-.1-.1-.1v-.2c0-.1 0-.1.1-.2l.1-.1.1-.1h.2c.1 0 .1 0 .2.1 3.9 2.5 7.3 5.9 9.9 9.7 2.6 3.9 4.4 8.2 5.3 12.8v.2c0 .1 0 .1-.1.1l-.1.1s-.1 0-.2.1z"/></g><path class="st20" d="M509.4 454.9 523 456v-2l-5.7-55.1c-.4-3.9-1.5-7.6-3.1-11.1l-15.1-40.6-3.3-7.5.8 2.6c1.6 7.1 2.6 17.1 2 22.3l.5 2.8 7.3 27.6 3 59.9z"/><path class="st10" d="m581.7 235.4-3.5-1.7-9.1-4.6-8.7-.1c-.2 0-.4.2-.6.4-.1.2-.2.4-.2.6.1 1 .5 2.5 2.4 2.2l-6.3-.6c-.2 0-.5 0-.7.2-.2.1-.4.3-.5.5l-.2.5c-.4.9 1.7 2.2 2.7 2.3l.5.1-5.6-.7c-.1 0-.3.1-.4.1l-.3.3c-.1.1-.1.2-.2.4v.4c.1.6.3 1.3.7 1.8.4.2-4-.2-5.7-.3h-.2c-.1 0-.1.1-.2.1-.1.1-.1.1-.1.2v.2c.2 1 1.1 3 5.7 3.7 6.3 1 8.9.4 8.9.4l4.8 2.2-.7 3-6.8-1.3-.4 3.9c.9.6 8.6 2.9 8.6 2.9s10.5 2 13.6 1.1c3.1-.9 5.4-1.6 5.4-1.6l9.6-8.8-12.5-7.8z"/><path class="st21" d="M565.8 243.2s6-2.2 9.1-5.8M557.6 246.2l9.6 1.8s5-3.9 9.3-2.1M552.2 238.1s6.6 1 9.5-.3c0 0 1.1 2 4.7 2.5M557.5 235.2c2.3.2 4.6.2 6.9 0 1.3 1.5 3 2.6 5 3.1M561.3 232.4c2 .4 4.1.4 6.1.1l3.9 2.7"/><path class="st13" d="M565.2 229.4c0 4-.5 8.1-1.3 12l-.5 2.1-3.4-1.6.1-12.4 5.1-.1zM564.2 247.3v5l-5.2-1.8.8-4.3 4.4 1.1zM659.2 287.6c1.2 11.2-21.9 20.4-21.9 20.4l-15.4 5.8 3 7 25.6-12.8c13.7-6.8 9.1-19.4 8.7-20.4z"/><path class="st20" d="m624.9 320.8-31.9 16-3.4-10.8 32.4-12.1 2.9 6.9z"/><g class="st15"><path class="st16" d="M593 337.1c-.1 0-.2 0-.2-.1s-.1-.1-.2-.2c0-.2-4.6-15.4-6.2-18.7 0-.1-.1-.2 0-.3 0-.1.1-.2.2-.2h.4c.1 0 .1 0 .1.1l.1.1c1.7 3.3 6.1 18.2 6.3 18.8v.3c-.1.1-.1.2-.2.2h-.3z"/></g><g class="st15"><path class="st16" d="M550.3 417.6c-.1 0-.2 0-.3-.1-.1-.1-.1-.1-.1-.2v-.2c0-.1 0-.1.1-.2l.1-.1.1-.1c.2 0 17.4-4.8 25.4-19.7 0-.1.1-.1.1-.1l.1-.1h.2c.1 0 .1 0 .2.1.1 0 .1.1.1.1s.1.1.1.2v.2c0 .1 0 .1-.1.2-8.2 15.1-25.8 19.9-26 20z"/></g><path class="st13" d="M488.4 402.9c-.1 0-.2-.1-.2-.3v-.3c0-.1.1-.2.1-.3 1.5-1.3 4.6-.1 4.7 0 .1.1.2.3.2.5s-.1.4-.2.3c-.2.1-3.1-1.1-4.6.1z" style="opacity:.15"/><path class="st10" d="m497.3 477.5 6.1 10.5 3.8 9-5.8-1.5s-.3 10.8-3.5 12.2c-.9.4-3.8-.7-3.5-2.9-.4.4-.9.7-1.5.9-.5.2-1.1.2-1.7.1-1.7-.4-2.2-1.5-2-3.7 0 0-.8 1.6-3.2.6-1.5-.6-1.1-2.8-1.1-2.8s-2.6.2-3-1.1c-.4-2.2-.4-4.5-.1-6.8l1.6-7.6.6-4.9 13.3-2z"/><path class="st23" d="M485.2 499.9c.4-1.5.7-3.1.9-4.7M489.4 502c.6-1.8.9-3.6 1.1-5.5M494.6 504.8c.6-2.2 1.1-4.5 1.3-6.8"/><path class="st13" d="m476.4 430.3-5.5-26.4.2-32.7-4.2-.6-.4 29.8c-.2 2 0 4 .5 6l4.3 25.1 12.7 49.4-1.8 10.4-.3 2.1.1 3.9c.1 2.8 1.2 2.4 1.2 2.4v-7.1l2.8-12.3-9.6-50z"/><path class="st20" d="m464.9 370.6 3.2-38s0-16.7 11.7-22.5l1.4-.4c-6.5 5.8-6.8 15.8-6.8 15.8l-3.2 45.8-6.3-.7z"/><path class="st10" d="m512.5 246.5 4.9 26.5-.9 24.6 13.8 5.2c4.6 1.7 9.3 2.8 14.2 3.1h.7c.7 0 1.4-.1 2-.3.6-.2 1.2-.6 1.7-1.1.5-.5.8-1.1 1-1.7.2-.6.3-1.3.2-2l-1.9-16.1 8-.2h.8c5.1-.3 8-1.2 8.1-9.6l-.6-10.1 2.9-1.9c.1 0 .1-.1.2-.1.4-.3.6-.7.7-1.2.1-.5-.1-1-.4-1.3l-5.9-7.1-.2-.5.1-1.2c.5-5.1-.3-10.2-2.4-14.9l-2.1-4.5-44.9 14.4z"/><path d="m557.7 238.3-11.8 2.3c-5.6 4 3.1 10-10.4 12.9-.2 1.5 1.8 7.6-.8 8-2 .5-2.2-2.2-2.5-3.6l-7.5 2.5c1.2 9.4-2.2 11.9-7.3 14-7.5-12.6-23.8-40.2-1.8-44.9 2.2.1 2.9-2.3 3.5-3.1 2-5.3 11.4-8.8 17.8-6.5 2.2 1.4 4.7 2.2 7.3 2.4 2.6.2 5.2-.2 7.6-1.3 12.1-4.5 18.8 13.5 5.9 17.3z"/><path class="st10" d="m534.9 270.9-2.6-12.4c-.1-.7-.4-1.3-.8-1.8s-.8-1-1.4-1.4c-.6-.4-1.2-.6-1.8-.7-.6-.1-1.3-.1-2 0-1.3.3-2.4 1.1-3.2 2.2-.7 1.1-1 2.5-.7 3.8l.5 2.5c.3 1.3.8 2.5 1.5 3.6s1.7 2 2.8 2.8c1.1.7 2.3 1.2 3.6 1.5 1.5.1 2.8.1 4.1-.1z"/><path d="m531 261.5-.4-2.1c-.2-.9-.7-1.6-1.4-2.1s-1.6-.7-2.5-.5c-.5.1-.9.3-1.3.6s-.7.7-.9 1.1v.1c0 .1-.1.2-.1.3v.3c0 .1.1.2.2.2.1.1.2.1.2.2.1 0 .2.1.3.1h.3c.1 0 .2-.1.3-.2.1-.1.1-.2.2-.3.1-.3.3-.5.5-.7s.5-.3.8-.3c.2-.1.5-.1.7 0 .2 0 .5.1.7.3.2.1.4.3.5.5.1.2.2.4.3.7l.4 2.1c.1.2.2.4.3.5.2.1.4.2.6.1.1 0 .2-.1.2-.1l.2-.2c0-.1.1-.2.1-.3-.1-.1-.1-.2-.2-.3z" style="opacity:.3;fill:#21252b;enable-background:new" class="st15"/><path class="st13" d="m549.3 291.5-7.9-5.3c-.2-.1-.3-.3-.4-.5s-.1-.4-.1-.6c0-.3.2-.6.4-.8.2-.2.6-.3.9-.3l5.9.6 1.2 6.9z"/><path d="m548.1 284.8-5.8-.8c-10.1-.3-9.9-25.5-9.9-25.5l3.5-1.4c.6 10.7 4.3 15.4 4.3 15.4 4.5 6.1 9 4.8 11.9 2.7 1.7-1.3 3-3.9 3.9-5.9 2.6-6 8.5-3.4 8.5-3.4l.5 9.1c0 8.4-2.9 9.3-8.1 9.6h-.8"/><path class="st13" d="m521.4 272.4 6.8-2.5c-1.2-.8-2.3-1.8-3.2-2.8-.2 1.1-.7 2.1-1.3 3-.6.9-1.4 1.7-2.3 2.3z"/><path d="M558.2 256.3c1-.2 1.7-1.3 1.5-2.4-.2-1.1-1.2-1.9-2.2-1.7-1 .2-1.7 1.3-1.5 2.4.1 1.2 1.2 1.9 2.2 1.7z"/><path class="st1" d="M558.7 253.5c.2 0 .3-.1.3-.3s-.1-.3-.3-.3c-.2 0-.3.1-.3.3s.1.3.3.3zM564.9 271.2c-1.6-.1-3.2.1-4.8.5h-.3c-.1 0-.2-.1-.2-.2s-.1-.2 0-.3c0-.1.1-.2.1-.2 1.4-1.4 3.2-2.4 5.1-2.8l.1 3z"/><path d="M560.8 246.9c-.1.4-2 .6-4.2 1.2s-3.9 1.4-4.3 1.1c-.2-.1.1-.6.7-1.1.9-.7 1.9-1.2 3-1.5 1.1-.3 2.3-.4 3.4-.3.9.2 1.4.4 1.4.6z"/><path d="M624.9 287.6s5.3 4.7 9.3 6.7" style="opacity:.15;fill:none;stroke:#000;stroke-linecap:round;stroke-miterlimit:10;enable-background:new"/><path class="st26" d="M527.8 588.2s6.9-.1 9.7-2.5M606.3 588s6.3.1 7.6-1.3"/><path class="st13" d="m511.5 713.1 4.6-5.8.2-111.6 1-34.4-5.4-.8c-1.6 50.4 1.5 102.6-.4 152.6z"/><g class="st15"><path class="st16" d="m514.4 477.2-.3-1c11.7-3.6 14.6-18.8 14.7-18.9l1 .2c-.1.2-3.1 15.9-15.4 19.7z"/></g><path class="st18" d="M941.6 722.2s-.8-23.9 12.4-31.1 110-11.1 110-11.1l47.3 32.8-2.5 25.3H941.5l.1-15.9z"/><path class="st27" d="M874.3 738.2s-.2-1 14.7-16.9c14.8-15.8 78.2-11.7 84.1-11s13.4 27.9 13.4 27.9H874.3z"/><path class="st28" d="M437 620.3h6.7V507.7H437v112.6zM384.8 620.3h6.7V507.7h-6.7v112.6z"/><path class="st20" d="M437 507.7h6.7v11.6l-6.7-.7v-10.9zm-52.2 9.3 6.7.7v-10h-6.7v9.3z"/><path class="st14" d="M384.9 499.3h58.6c.9 0 1.7.4 2.3 1s1 1.5.9 2.4v4.7c0 .9-.3 1.7-.9 2.4-.6.6-1.5 1-2.3 1h-10c-3.2 0-6.3-.8-9.1-2.3-3.2-1.6-6.7-2.5-10.2-2.5s-7.1.9-10.2 2.5c-2.8 1.6-5.9 2.3-9.1 2.3h-10c-.4 0-.9-.1-1.3-.3-.4-.2-.8-.4-1.1-.7-.3-.3-.5-.7-.7-1.1-.2-.4-.2-.8-.2-1.3v-4.6c0-.4.1-.9.3-1.3.2-.4.4-.8.7-1.1.3-.3.7-.6 1.1-.7.4-.3.8-.4 1.2-.4z"/><path class="st11" d="M374.5 726.3h76.4c3.1 0 5.6-2.5 5.6-5.6V582.8c0-3.1-2.5-5.6-5.6-5.6h-76.4c-3.1 0-5.6 2.5-5.6 5.6v137.9c0 3.1 2.5 5.6 5.6 5.6z"/><path class="st20" d="M374.5 726.3h76.4c3.1 0 5.6-2.5 5.6-5.6V582.8c0-3.1-2.5-5.6-5.6-5.6h-76.4c-3.1 0-5.6 2.5-5.6 5.6v137.9c0 3.1 2.5 5.6 5.6 5.6z"/><path d="M442.3 577.2v149" style="fill:none;stroke:#1656bd;stroke-width:1.42;stroke-miterlimit:10"/><path class="st11" d="M343.4 726.3h76.4c3.1 0 5.6-2.5 5.6-5.6V582.8c0-3.1-2.5-5.6-5.6-5.6h-76.4c-3.1 0-5.6 2.5-5.6 5.6v137.9c0 3.1 2.5 5.6 5.6 5.6z"/><path class="st14" d="M442 577.2h-1.4v149h1.4v-149z"/><path class="st1" d="M435.5 622.3H447v-5.1h-11.5v5.1zM435.5 686.3H447v-5.1h-11.5v5.1z"/><g class="st15"><path class="st16" d="M409.7 714.5c.8 0 1.5-.3 2-.8s.8-1.3.8-2V593.4c0-.4-.1-.8-.2-1.1-.1-.4-.4-.7-.6-.9-.3-.3-.6-.5-.9-.6-.4-.1-.7-.2-1.1-.2-.4 0-.8.1-1.1.2-.4.1-.7.4-.9.6-.3.3-.5.6-.6.9-.1.4-.2.7-.2 1.1v118.2c0 .8.3 1.5.8 2 .5.6 1.3.9 2 .9zM390.9 714.5c.8 0 1.5-.3 2-.8s.8-1.3.8-2V593.4c0-.4-.1-.8-.2-1.1s-.4-.7-.6-.9c-.3-.3-.6-.5-.9-.6-.4-.1-.7-.2-1.1-.2-.4 0-.8.1-1.1.2s-.7.4-.9.6c-.3.3-.5.6-.6.9-.1.4-.2.7-.2 1.1v118.2c0 .8.3 1.5.8 2 .5.6 1.3.9 2 .9zM372.2 714.5c.8 0 1.5-.3 2-.8s.8-1.3.8-2V593.4c0-.4-.1-.8-.2-1.1-.1-.4-.4-.7-.6-.9-.3-.3-.6-.5-.9-.6-.4-.1-.7-.2-1.1-.2-.4 0-.8.1-1.1.2s-.7.4-.9.6c-.3.3-.5.6-.6.9-.1.4-.2.7-.2 1.1v118.2c0 .8.3 1.5.8 2 .5.6 1.2.9 2 .9zM353.4 714.5c.4 0 .8-.1 1.1-.2.4-.1.7-.4.9-.6.3-.3.5-.6.6-.9.1-.4.2-.7.2-1.1V593.4c0-.4-.1-.8-.2-1.1-.1-.4-.4-.7-.6-.9-.3-.3-.6-.5-.9-.6-.4-.1-.7-.2-1.1-.2-.4 0-.8.1-1.1.2-.4.1-.7.4-.9.6-.3.3-.5.6-.6.9-.1.4-.2.7-.2 1.1v118.2c0 .8.3 1.5.8 2 .5.6 1.2.9 2 .9z"/></g><path class="st18" d="M378.2 738.8c3.3 0 5.9-2.7 5.9-5.9 0-3.3-2.7-6-5.9-6-3.3 0-6 2.7-6 6 .1 3.2 2.7 5.9 6 5.9zM342.9 732.9c0 1.2.3 2.3 1 3.3s1.6 1.7 2.7 2.2c1.1.5 2.3.6 3.4.3 1.2-.2 2.2-.8 3-1.6.8-.8 1.4-1.9 1.6-3 .2-1.2.1-2.4-.3-3.4-.5-1.1-1.2-2-2.2-2.7-1-.7-2.1-1-3.3-1-.8 0-1.6.2-2.3.5-.7.3-1.4.7-1.9 1.3-.6.6-1 1.2-1.3 1.9-.2.6-.4 1.4-.4 2.2z"/><path class="st14" d="M348.9 729.9h96.2V726h-96.2v3.9z"/><path class="st18" d="M439.1 732.9c0 1.2.3 2.3 1 3.3s1.6 1.7 2.7 2.2c1.1.5 2.3.6 3.4.3 1.2-.2 2.2-.8 3-1.6.8-.8 1.4-1.9 1.6-3 .2-1.2.1-2.3-.3-3.4s-1.2-2-2.2-2.7c-1-.7-2.1-1-3.3-1-.8 0-1.6.1-2.3.4-.7.3-1.4.7-1.9 1.3-.6.6-1 1.2-1.3 1.9s-.4 1.5-.4 2.3zM415.7 738.8c3.3 0 6-2.7 6-5.9 0-3.3-2.7-6-6-6s-6 2.7-6 6c0 3.2 2.7 5.9 6 5.9z"/><path class="st27" d="M415.7 735.2c1.3 0 2.3-1 2.3-2.3s-1-2.3-2.3-2.3c-1.3 0-2.3 1-2.3 2.3s1 2.3 2.3 2.3zM442.7 732.9c0 .5.1.9.4 1.3.3.4.6.7 1 .9.4.2.9.2 1.3.1s.9-.3 1.2-.6.5-.7.6-1.2c.1-.4 0-.9-.1-1.3-.2-.4-.5-.8-.9-1-.4-.3-.8-.4-1.3-.4-.6 0-1.2.2-1.6.7-.3.3-.6.8-.6 1.5z"/><path class="st28" d="M783.7 232.3h-16.5v506h16.5v-506z"/><path class="st20" d="m767.2 305.1 16.5-21.2v-51.6h-16.5v72.8z"/><path class="st11" d="M899.7 132.3H661.2v109.8h238.5V132.3z"/><path class="st20" d="M899.7 132.3H661.2v109.8h238.5V132.3z"/><path class="st11" d="M894.7 132.3H661.9v103.1h232.8V132.3z"/><path class="st1" d="M738.1 204h-7.7v13.2h-13.1V204h-27.2v-9.4l27.9-41.1h12.4v40h7.7V204zm-20.8-10.5v-10.8c0-1.8.1-4.4.2-7.8.1-3.4.3-5.4.3-6h-.3c-1.1 2.4-2.4 4.8-3.9 7L702 193.5h15.3zM796.1 185.3c0 11.1-1.8 19.3-5.5 24.7s-9.2 8-16.8 8c-7.3 0-12.9-2.8-16.6-8.3-3.7-5.5-5.6-13.6-5.6-24.4 0-11.2 1.8-19.5 5.4-24.8s9.2-8 16.8-8c7.3 0 12.9 2.8 16.6 8.4 3.8 5.5 5.7 13.7 5.7 24.4zm-31.1 0c0 7.8.7 13.4 2 16.8 1.3 3.4 3.6 5.1 6.8 5.1 3.1 0 5.4-1.7 6.8-5.1 1.4-3.4 2.1-9 2.1-16.7 0-7.8-.7-13.4-2.1-16.8-1.4-3.4-3.7-5.1-6.8-5.1s-5.4 1.7-6.8 5.1-2 8.9-2 16.7zM857.6 204H850v13.2h-13.1V204h-27.1v-9.4l27.9-41.1H850v40h7.7V204zm-20.8-10.5v-10.8c0-1.8.1-4.4.2-7.8.2-3.4.3-5.4.3-6h-.3c-1.1 2.4-2.4 4.8-3.9 7l-11.7 17.6h15.4z"/><path class="st14" d="m839.2 123.5 3.4 7.5c0 .1.1.1.2.2.1 0 .2.1.2.1h4.6c1.6 0 3.6-.3 3.7 1.9 0 .6 1 .6 1 0-.3-4-5.3-2.9-8.1-2.9h-1c-.5 0 .3.5.1 0l-1.1-2.5c-.7-1.6-1.4-3.2-2.2-4.8-.2-.6-1.1-.1-.8.5z"/><path class="st14" d="M843 130.3c-2.6 0-6.8-.8-7 2.9 0 .6 1 .6 1 0 .1-1.4 1-1.9 2.2-1.9h3.7c.1 0 .3-.1.4-.1.1-.1.1-.2.1-.4 0-.1-.1-.3-.1-.4-.1 0-.2-.1-.3-.1"/><path class="st30" d="M813.9 110.8s17.8-16.3 23.7-22.8c5.9-6.5 13.5-10.2 21-8.1 7.5 2.1 12.3 10.3 9.7 20.7-2.6 10.3-14.5 25.5-30.7 24.8-16.1-.8-21.4-11.6-23.7-14.6z"/><path class="st31" d="M813.9 110.8s17.8-16.3 23.7-22.8c5.9-6.5 13.5-10.2 21-8.1 7.5 2.1 12.3 10.3 9.7 20.7-2.6 10.3-14.5 25.5-30.7 24.8-16.1-.8-21.4-11.6-23.7-14.6z"/><path class="st30" d="M819.4 117.9c1.1.8 2.4 1.3 3.8 1.5 1.4.2 2.7 0 4-.4 0 0-2.4 2.6 1.8 3.1s12.8-2.9 12.8-2.9-2 3.1 1.1 2.9c3.1-.2 9.5-3.8 14.8-9.2s12.8-14.1 8.1-24.4C862 80.4 850 75 832.9 94.2l-13.5 23.7z"/><path class="st11" d="M858.6 79.9c-7.5-2.1-15.1 1.5-21 8.1-2.1 2.3-5.7 5.9-9.5 9.5l4.1 4.1 7.6-5.7s0-6.1 5-6.6c7.3-.7 6.2 14.3 24.2 6.4.2-7.9-4.2-14-10.4-15.8"/><path class="st20" d="M858.6 79.9c-7.5-2.1-15.1 1.5-21 8.1-2.1 2.3-5.7 5.9-9.5 9.5l4.1 4.1 7.6-5.7s0-6.1 5-6.6c7.3-.7 6.2 14.3 24.2 6.4.2-7.9-4.2-14-10.4-15.8"/><path d="M861.7 92.4c0 .5-.1 1-.4 1.4-.3.4-.7.7-1.1.9-.4.2-.9.2-1.4.1-.5-.1-.9-.3-1.2-.7-.3-.3-.6-.8-.7-1.3-.1-.5-.1-1 .1-1.4.2-.4.5-.8.9-1.1s.9-.4 1.4-.4c.3 0 .6.1.9.2.3.1.6.3.8.5.2.2.4.5.5.8.1.4.2.7.2 1z"/><path class="st18" d="M868.5 90.6s5.1 2.5 5.2 3.5-4.9 4.4-4.9 4.4-2.3-4.8-.3-7.9"/><path class="st14" d="m836.9 124.3 3.4 7.5c0 .1.1.1.2.2s.2.1.2.1h4.6c1.6 0 3.6-.3 3.7 1.9 0 .6 1 .6 1 0-.3-4-5.3-2.9-8-2.9h-1c-.5 0 .3.5.1.1l-1.1-2.5-2.2-4.8c-.3-.7-1.1-.2-.9.4"/><path class="st14" d="M840.7 131c-2.6 0-6.8-.8-7 2.9 0 .6 1 .6 1 0 .1-1.4 1-1.9 2.2-1.9h3.7c.1 0 .3-.1.4-.1.1-.1.1-.2.1-.4 0-.1-.1-.3-.1-.4-.1 0-.2-.1-.3-.1"/><path class="st11" d="M804.2 115.8s21.1-17.8 26.4-20.7c5.4-2.9 14.1-2.1 16.3 5.5 2.4 8.4-5.9 23.3-29.4 15.2l-7.1 11.1-6.2-11.1z"/><path class="st32" d="M818.8 110.3s1.2 2 7.4-2.9c0 0-2.6 3.5-.5 4s7.9-3.5 7.9-3.5-2.9 2.9-.5 3.7c2.5.8 6.5-2.7 7.4-4.8.9-2.1 2.9-7.1-1.1-9.3s-10.9.4-15.7 4.2c-4.7 3.9-6.1 6.4-4.9 8.6"/><path class="st1" d="M860.4 92.2c0 .1 0 .2-.1.3-.1.1-.1.2-.2.2s-.2.1-.3 0c-.1 0-.2-.1-.3-.1-.1-.1-.1-.2-.1-.3V92c0-.1.1-.2.2-.2.1-.1.2-.1.3-.1.1 0 .3.1.4.1.1.1.1.3.1.4"/><path class="st14" d="M930.7 699.5c-1 2.6-1.9 5.1-2.9 7.7 0 .1-.1.1-.2.2-.1 0-.2.1-.2.1l-4.5.3c-1.6.1-3.6-.1-3.6 2.2 0 .6-1 .7-1 .1 0-4 5.1-3.2 7.9-3.4l1-.1c.5 0-.2.5-.1.1l1-2.6c.6-1.6 1.2-3.3 1.8-4.9.2-.7 1-.3.8.3"/><path class="st14" d="M927.3 706.5c2.6-.2 6.7-1.2 7.1 2.5.1.6-.9.7-1 .1-.2-1.4-1.1-1.8-2.4-1.8l-3.7.2c-.1 0-.3 0-.4-.1-.1-.1-.2-.2-.2-.3 0-.1 0-.3.1-.4.2-.2.4-.2.5-.2"/><path class="st30" d="M955.2 685.2s-18.8-15.1-25.1-21.3c-6.3-6.2-14.1-9.3-21.4-6.7-7.3 2.6-11.7 11.1-8.5 21.2s16.1 24.6 32.2 22.8c16.1-1.7 20.7-12.8 22.8-16"/><path class="st31" d="M955.2 685.2s-18.8-15.1-25.1-21.3c-6.3-6.2-14.1-9.3-21.4-6.7-7.3 2.6-11.7 11.1-8.5 21.2s16.1 24.6 32.2 22.8c16.1-1.7 20.7-12.8 22.8-16"/><path class="st30" d="M950.1 692.7c-1.1.9-2.3 1.4-3.7 1.7-1.3.3-2.7.2-4.1-.2 0 0 2.5 2.5-1.6 3.2-4.1.8-12.9-2.1-12.9-2.1s2.2 3-.9 3-9.8-3.1-15.4-8.2-13.6-13.3-9.6-23.8c3.3-8.4 14.9-14.5 33.2 3.6l15 22.8z"/><path class="st11" d="M908.6 657.2c7.3-2.6 15.1.6 21.4 6.7 2.2 2.2 6.1 5.5 10.1 8.9l-3.8 4.3-7.9-5.2s-.3-6-5.4-6.2c-7.4-.3-5.3 14.7-23.8 7.9-.8-7.9 3.3-14.2 9.4-16.4"/><path class="st20" d="M908.6 657.2c7.3-2.6 15.1.6 21.4 6.7 2.2 2.2 6.1 5.5 10.1 8.9l-3.8 4.3-7.9-5.2s-.3-6-5.4-6.2c-7.4-.3-5.3 14.7-23.8 7.9-.8-7.9 3.3-14.2 9.4-16.4"/><path d="M906.3 669.8c0 .5.2.9.5 1.3s.7.7 1.2.8c.4.2.9.2 1.4 0 .5-.1.9-.4 1.2-.7.3-.4.5-.8.6-1.3.1-.5 0-1-.2-1.4-.2-.4-.5-.8-1-1-.4-.2-.9-.4-1.4-.3-.6 0-1.2.3-1.7.8-.4.6-.6 1.2-.6 1.8"/><path class="st18" d="M899.4 668.4s-4.9 2.8-4.9 3.8c-.1 1 5.2 4 5.2 4s1.9-4.9-.3-7.8"/><path class="st14" d="m933 700.1-2.9 7.7c0 .1-.1.1-.2.2-.1 0-.2.1-.2.1l-4.5.3c-1.6.1-3.6-.1-3.6 2.2 0 .6-1 .7-1 .1.1-4 5.1-3.2 7.9-3.4l1-.1c.5 0-.2.5-.1.1l1-2.6 1.8-4.9c.2-.7 1.1-.3.8.3"/><path class="st14" d="M929.7 707.1c2.6-.2 6.7-1.2 7.1 2.5.1.6-.9.7-1 .1-.2-1.4-1.1-1.9-2.4-1.8l-3.7.2c-.1 0-.3 0-.4-.1-.1-.1-.2-.2-.2-.3 0-.1 0-.3.1-.4.2-.1.3-.2.5-.2"/><path class="st11" d="M965.2 689.7s-22.1-16.5-27.7-19-14.2-1.2-15.9 6.5c-1.9 8.5 7.3 22.9 30.3 13.4l7.8 10.6 5.5-11.5z"/><path class="st32" d="M950.3 685.1s-1.1 2.1-7.5-2.4c0 0 2.8 3.3.7 4-2.1.7-8.1-3-8.1-3s3.1 2.7.7 3.7c-2.4 1-6.7-2.3-7.7-4.4-1-2.1-3.4-6.9.5-9.3 3.9-2.5 10.9-.3 15.9 3.2s6.5 5.9 5.5 8.2"/><path class="st1" d="M907.6 669.6c0 .1.1.2.2.3.1.1.2.1.3.1.1 0 .2-.1.3-.1.1-.1.2-.2.2-.3v-.2c0-.1-.1-.2-.1-.2-.1-.1-.1-.1-.2-.1h-.2c-.1 0-.2 0-.2.1-.1 0-.1.1-.2.2 0 .1-.1.1-.1.2 0-.2 0-.1 0 0"/><path class="st11" d="M749.2 696.8c-4.2-5-8.9-9.9-12.5-15.3-.8-1.2-4.9-8.8-1.5-7.9s6.4 6.7 7.9 9.5 3 5.6 4.3 8.5c.7 1.2 1.2 2.5 1.7 3.8 0 .2.4 1.8.1 1.4-3.1-3.7.6.6 0 0zM766 738.3c0-1.8-.3-3.5-.8-5.2-1-3.5-2.6-6.7-4.7-9.7-4.4-6.3-10.4-12.2-17.7-14.8-1.7-.7-3.4-1.1-5.2-1.3-.8-.1-3.4-.5-4.1.2-.7.7.2.6.8.9 1.3.6 2.5 1.2 3.7 2 11 6.8 24 14.7 26.9 28l1.1-.1z"/><path class="st20" d="M766 738.3c0-1.8-.3-3.5-.8-5.2-1-3.5-2.6-6.7-4.7-9.7-4.4-6.3-10.4-12.2-17.7-14.8-1.7-.7-3.4-1.1-5.2-1.3-.8-.1-3.4-.5-4.1.2-.7.7.2.6.8.9 1.3.6 2.5 1.2 3.7 2 11 6.8 24 14.7 26.9 28l1.1-.1z"/><path class="st11" d="M768.4 738.3c-.6-10.2-3.7-20.1-7-29.7-1.5-4.4-3-8.8-4.9-13.1-2.3-5.1-5.1-10.1-7.8-15-1.3-2.3-2.6-4.6-4.1-6.8-.7-1-1.3-2-2-3-.3-.4-1.6-1.6-1.6-2.1 0-.7.6-.1 1 .1.9.6 1.8 1.2 2.6 1.9 2 1.7 3.8 3.6 5.4 5.7 3.5 4.3 6.3 9.2 8.5 14.3 2 5.1 3.7 10.3 5.1 15.6 1.8 6.1 3.3 12.3 4.4 18.5.5 2.8.8 5.6.9 8.5.1 1.2.1 2.4.1 3.6 0 .3.1 1.1 0 1.3-.2.1-.6.8-.6.2z"/><path class="st20" d="M768.4 738.3c-.6-10.2-3.7-20.1-7-29.7-1.5-4.4-3-8.8-4.9-13.1-2.3-5.1-5.1-10.1-7.8-15-1.3-2.3-2.6-4.6-4.1-6.8-.7-1-1.3-2-2-3-.3-.4-1.6-1.6-1.6-2.1 0-.7.6-.1 1 .1.9.6 1.8 1.2 2.6 1.9 2 1.7 3.8 3.6 5.4 5.7 3.5 4.3 6.3 9.2 8.5 14.3 2 5.1 3.7 10.3 5.1 15.6 1.8 6.1 3.3 12.3 4.4 18.5.5 2.8.8 5.6.9 8.5.1 1.2.1 2.4.1 3.6 0 .3.1 1.1 0 1.3-.2.1-.6.8-.6.2z"/><path class="st11" d="M768.1 738.3h.8c0-.6-.1-1.2-.1-1.6-.1-2.5-.4-4.9-.8-7.4-.9-5.3-2.5-10.5-4.8-15.4-4.3-9-10.6-17.2-19.4-21.9-.8-.4-10.7-4.8-11-3.5-.2.6 3.2 2.5 3.8 2.9 1.8 1.3 3.5 2.6 5.2 4 7.4 6 14.5 12.6 19.1 21 3.6 6.9 6.1 14.3 7.2 21.9zM772.7 738.3h.4v-1.9c0-1.8 0-3.6-.1-5.4-.1-4.1-.3-8.1-.7-12.2-.7-7.5-1.5-14.9-4.1-22-.6-1.6-1.2-3.2-2-4.8-.1-.3-1.2-2.6-1.5-2.2-.1.2.1 1.1.2 1.3.1.7.2 1.4.3 2 .3 1.6.6 3.3.9 4.9 1.4 7.3 3.2 14.6 4.3 22 1 6.1 1.7 12.2 2.3 18.3z"/><path class="st32" d="M772.7 738.3h.4v-1.9c0-1.8 0-3.6-.1-5.4-.1-4.1-.3-8.1-.7-12.2-.7-7.5-1.5-14.9-4.1-22-.6-1.6-1.2-3.2-2-4.8-.1-.3-1.2-2.6-1.5-2.2-.1.2.1 1.1.2 1.3.1.7.2 1.4.3 2 .3 1.6.6 3.3.9 4.9 1.4 7.3 3.2 14.6 4.3 22 1 6.1 1.7 12.2 2.3 18.3z"/><path class="st11" d="M779.1 717.2c-.5-4.3-.4-8.6.5-12.8.4-2.5 1-4.9 1.8-7.3.9-2.2 2.1-4.3 3.5-6.3.5-.8 1.1-1.6 1.6-2.4.1-.2 1-2 1.2-2 .9-.1-.1 4-.3 4.6-.7 2.2-1.7 4.4-2.9 6.4-1.2 2.2-2.1 4.5-2.8 6.9-.7 2.5-1.3 5-1.8 7.6-.2 1.2-.3 2.3-.4 3.5.1.5.1.9 0 1.4 0-.1-.3 1.2-.4.4z"/><path class="st20" d="M779.1 717.2c-.5-4.3-.4-8.6.5-12.8.4-2.5 1-4.9 1.8-7.3.9-2.2 2.1-4.3 3.5-6.3.5-.8 1.1-1.6 1.6-2.4.1-.2 1-2 1.2-2 .9-.1-.1 4-.3 4.6-.7 2.2-1.7 4.4-2.9 6.4-1.2 2.2-2.1 4.5-2.8 6.9-.7 2.5-1.3 5-1.8 7.6-.2 1.2-.3 2.3-.4 3.5.1.5.1.9 0 1.4 0-.1-.3 1.2-.4.4z"/><path class="st11" d="M776.7 683.3c.2 1.9.3 3.8.5 5.8.7 8.6 1 17.2.9 25.9-.1 7-.3 16.1-.1 23.4h.7v-3.5c.1-2.1.2-5.1.4-7.2l1.2-14.4c.6-8.4 1.1-16.8-.7-25-.4-1.8-.9-3.6-1.5-5.4-.3-.9-.6-1.7-1-2.5-.1-.2-.4-1.2-.7-.8s.1 1.1.1 1.3c0 .7.1 1.5.2 2.4zM783.5 739.3c.5-4 1-9.3 1.4-11.1 1-5.3 2.3-10.6 3.7-15.8 2.3-8.4 5.8-16.5 9.4-24.4.9-2.1 1.9-4.1 2.8-6.2.3-.5 2-3.4 1-3.3-.5 0-1.7 1.5-2.1 1.8-.8.8-1.6 1.6-2.3 2.4-1.4 1.6-2.8 3.3-3.9 5.1-4.9 7.7-6.9 16.5-8.5 25.3-1.4 8.7-2.4 17.4-2.9 26.2h1.4z"/><path class="st11" d="M824.2 671.8c-1-.1-2.7.8-3.6 1.2-1.2.5-2.4 1-3.5 1.7-2.2 1.2-4.3 2.5-6.2 4.1-9.6 7.4-15.2 18.4-19.8 29.4-3.6 8.5-7.8 21-8 31.1h1.1v-1.2c.1-1.3.3-2.6.5-3.9.6-3.1 1.5-6.2 2.6-9.2 2.3-6.2 5-12.3 8.1-18.1 5.5-10.5 12.7-19.9 21.4-28 2.1-2 4.3-3.8 6.5-5.6.6-.5 2.4-1.3.9-1.5z"/><path class="st32" d="M824.2 671.8c-1-.1-2.7.8-3.6 1.2-1.2.5-2.4 1-3.5 1.7-2.2 1.2-4.3 2.5-6.2 4.1-9.6 7.4-15.2 18.4-19.8 29.4-3.6 8.5-7.8 21-8 31.1h1.1v-1.2c.1-1.3.3-2.6.5-3.9.6-3.1 1.5-6.2 2.6-9.2 2.3-6.2 5-12.3 8.1-18.1 5.5-10.5 12.7-19.9 21.4-28 2.1-2 4.3-3.8 6.5-5.6.6-.5 2.4-1.3.9-1.5z"/><path class="st11" d="M824.5 701.6c-.6-.8-4.4-.4-5.3-.3-1.6.2-3.2.5-4.7 1-8.5 2.7-14.8 9.4-20.2 16.2-4.3 5.4-8.9 13.6-10.8 20.9h1.3c.2-.9.5-1.8.8-2.7.9-2.1 2.1-4.2 3.4-6.1 2.6-4 5.6-7.6 9-11 5.9-5.9 12.7-10.9 20.1-14.8 1.6-.8 3.2-1.5 4.9-2.1.3-.3 2-.5 1.5-1.1z"/><path class="st20" d="M824.5 701.6c-.6-.8-4.4-.4-5.3-.3-1.6.2-3.2.5-4.7 1-8.5 2.7-14.8 9.4-20.2 16.2-4.3 5.4-8.9 13.6-10.8 20.9h1.3c.2-.9.5-1.8.8-2.7.9-2.1 2.1-4.2 3.4-6.1 2.6-4 5.6-7.6 9-11 5.9-5.9 12.7-10.9 20.1-14.8 1.6-.8 3.2-1.5 4.9-2.1.3-.3 2-.5 1.5-1.1z"/><path class="st11" d="M1046.6 740.3s-9-2.9-9.9-19.6c-.8-13.3-10.7-8.6-17.9-18.2-8.2-11-1-15.9-6.5-28.4-3.4-7.8-13.4-3.4-14.3-21.4-.9-18-2.8-21.7-6.6-29 0 0 10.6 12.8 19 17.8 7.8 4.6 9.3 3.2 14.2 6.6 5.9 4.1 2 11.1 8 15.6 6 4.6 11.6 2.7 15.9 8.7 7.6 10.4 2.4 18 8.2 24.8s16.2 6.8 23.7 18.9c4.4 7.2 6 15.8 4.4 24.1l-38.2.1z"/><path class="st33" d="m1068.2 740.3-53.3-77.2M1025.9 690l15.6 11.7M1026.6 668.1l1.9 14.7M1058 710.6l2.7 18.8"/><path class="st11" d="M1071 740.3s-11.4-27.3-10.3-45.9c1.1-18.5 6.7-22.9 3.7-36.4s-14-16.9-9.4-34.4 11.3-20.3 10-58c0 0 4.8 27.3 17.2 43.1 10.6 13.6 14.9 17.1 11 41.9-3.6 22.8 2.4 26.2 8.6 35.5 6.2 9.3 9.9 33.6 2 54.1l-32.8.1z"/><path d="M1071 740.3s-11.4-27.3-10.3-45.9c1.1-18.5 6.7-22.9 3.7-36.4s-14-16.9-9.4-34.4 11.3-20.3 10-58c0 0 4.8 27.3 17.2 43.1 10.6 13.6 14.9 17.1 11 41.9-3.6 22.8 2.4 26.2 8.6 35.5 6.2 9.3 9.9 33.6 2 54.1l-32.8.1z" style="opacity:.3;fill:#fff;enable-background:new"/><path class="st33" d="M1069.9 604.1s8 18.3 7.8 48.8c-.2 29 3.6 65 13.2 87.3"/><path class="st33" d="M1062.2 625.3s9.7 8.5 15.4 18.7M1083.9 644.1s.1 9.6-5.9 24.4M1068.2 685.2c.9 3.5 2.5 6.9 4.7 9.8 2.2 2.9 5 5.4 8.2 7.2"/><path class="st11" d="M1106.3 661.7s-4.4-10.6 8-31.8c12.4-21.2 24.4-27.5 29-24.8 6.5 3.8-6.3 49.1-37 56.6z"/><path class="st33" d="M1099.7 683.2c4.2-14.1 6.7-27.9 19.8-43.6"/><path class="st11" d="M1120.1 722.2s-6.4-9.6-1.9-36.1 12.2-37.3 18-36c6.2 1.4 9.8 52.6-16.1 72.1z"/><path class="st33" d="M1112.6 740.3s11.6-19.8 12.7-49.4"/><path class="st18" d="M313.5 729s.6-15.9-8.2-20.7-73.1-7.4-73.1-7.4l-31.4 21.8 1.7 16.8h111.1l-.1-10.5z"/><path class="st11" d="M278.5 737.3c.3-2.3.6-5.5.8-6.6.6-3.1 1.4-6.3 2.2-9.4 1.5-5 3.3-9.8 5.5-14.5.5-1.2 1.1-2.4 1.7-3.7.1-.3 1.2-2 .6-2-.3 0-1 .9-1.3 1.1-.5.4-.9.9-1.4 1.4-.9.9-1.6 1.9-2.3 3-2.9 4.5-4.1 9.8-5.1 15-.9 5.1-1.4 10.3-1.7 15.5l1 .2z"/><path class="st11" d="M302.6 697.3c-.7.1-1.5.4-2.1.7-.7.3-1.4.6-2.1 1-1.3.7-2.5 1.5-3.7 2.4-5.7 4.4-9 10.9-11.7 17.4-2.1 5-4.6 12.4-4.8 18.4h.6v-.7c.1-.8.2-1.5.4-2.3.4-1.9.9-3.7 1.5-5.5 1.4-3.7 2.9-7.3 4.8-10.8 3.3-6.2 7.5-11.8 12.7-16.6 1.2-1.2 2.5-2.3 3.9-3.3.3-.1 1.4-.6.5-.7z"/><path class="st32" d="M302.6 697.3c-.7.1-1.5.4-2.1.7-.7.3-1.4.6-2.1 1-1.3.7-2.5 1.5-3.7 2.4-5.7 4.4-9 10.9-11.7 17.4-2.1 5-4.6 12.4-4.8 18.4h.6v-.7c.1-.8.2-1.5.4-2.3.4-1.9.9-3.7 1.5-5.5 1.4-3.7 2.9-7.3 4.8-10.8 3.3-6.2 7.5-11.8 12.7-16.6 1.2-1.2 2.5-2.3 3.9-3.3.3-.1 1.4-.6.5-.7z"/><path class="st11" d="M302.8 714.9c-.4-.5-2.6-.2-3.1-.2-.9.1-1.9.3-2.8.6-5 1.6-8.8 5.6-12 9.6-2.9 3.7-5.1 7.9-6.4 12.4h.7c.1-.5.3-1.1.5-1.6.6-1.3 1.2-2.5 2-3.6 1.6-2.3 3.3-4.5 5.3-6.5 3.5-3.5 7.5-6.5 11.9-8.8.9-.5 1.9-.9 2.9-1.3.3-.1 1.2-.2 1-.6z"/><path class="st20" d="M302.8 714.9c-.4-.5-2.6-.2-3.1-.2-.9.1-1.9.3-2.8.6-5 1.6-8.8 5.6-12 9.6-2.9 3.7-5.1 7.9-6.4 12.4h.7c.1-.5.3-1.1.5-1.6.6-1.3 1.2-2.5 2-3.6 1.6-2.3 3.3-4.5 5.3-6.5 3.5-3.5 7.5-6.5 11.9-8.8.9-.5 1.9-.9 2.9-1.3.3-.1 1.2-.2 1-.6z"/><path class="st11" d="M248.2 710.5s10.6-5.2 18.9-25.4c6.9-16.6 4.8-26.4 1.1-27.9-5.1-2-29.6 32.2-20 53.3z"/><path class="st13" d="M248.2 710.5s10.6-5.2 18.9-25.4c6.9-16.6 4.8-26.4 1.1-27.9-5.1-2-29.6 32.2-20 53.3z"/><path class="st33" d="M243 717.6c6.2-7.8 14.5-21.8 17.6-36.4"/><path class="st11" d="M229.4 672.1s11.5-2.7 24.2-20.4c10.5-14.6 10.7-24.6 7.4-26.9-4.4-3.1-36 24.6-31.6 47.3z"/><path class="st13" d="M229.4 672.1s11.5-2.7 24.2-20.4c10.5-14.6 10.7-24.6 7.4-26.9-4.4-3.1-36 24.6-31.6 47.3z"/><path class="st33" d="M226.2 683.8c.3-13.8 12.8-24.2 22.8-36.4"/><path class="st11" d="M213.2 670.3s-11.8-.1-28.1-14.7c-13.4-12-15.8-21.7-13.1-24.6 3.7-4 40.6 16.2 41.2 39.3z"/><path class="st13" d="M213.2 670.3s-11.8-.1-28.1-14.7c-13.4-12-15.8-21.7-13.1-24.6 3.7-4 40.6 16.2 41.2 39.3z"/><path class="st33" d="M223.2 677.1s-15.2-7.8-28.9-26.7"/><path class="st11" d="M226.7 697.7s-9.6 6.8-31.3 4.4c-17.9-1.9-25.5-8.4-25-12.4.6-5.4 42.4-10.5 56.3 8z"/><path class="st13" d="M226.7 697.7s-9.6 6.8-31.3 4.4c-17.9-1.9-25.5-8.4-25-12.4.6-5.4 42.4-10.5 56.3 8z"/><path class="st33" d="M237.6 705.1c-8.8-8-17.6-11.5-37.8-12.7"/><path class="st11" d="M217.3 642.1s-7.4-9.2-6.5-31c.7-18 6.7-26 10.7-25.8 5.4.3 13.3 41.6-4.2 56.8z"/><path class="st13" d="M217.3 642.1s-7.4-9.2-6.5-31c.7-18 6.7-26 10.7-25.8 5.4.3 13.3 41.6-4.2 56.8z"/><path class="st33" d="M243 728.9c1.2-5.6.5-11.5-1.8-16.7-6.8-14.6-19-30.4-21.9-49.1-1.1-7.1-4.6-25.6 1.4-48.2"/><path class="st27" d="M297.2 739.3s.1-.7-7.6-11.2-40.8-7.8-43.9-7.3c-3.1.4-7 18.5-7 18.5h58.5z"/><path class="st1" d="M261.9 181s11.6 1.6 65.1.5c14.5 8.8 77.1 3.2 101.9.9 28.6 5.3 42.7-8.5 30-16-3.9-2.3-10.4-4-19.8-4.4.6-29.7-72.9-39.5-93.4 3.9-10.9-8.8-33.5-8-35 3.9-20.9-3.8-37.5.5-45 5-4 2.4-5.5 4.8-3.8 6.2z"/><path class="st2" d="M261.9 181s11.6 1.6 65.1.5c14.5 8.8 77.1 3.2 101.9.9 28.6 5.3 42.7-8.5 30-16 .1 1.9-.5 3.7-1.8 5.1-2.9 3.3-8.3 4.7-13.3 4.3-5-.4-9.5-2.4-13.7-4.6-2-1.1-4-2.3-6.4-2.5-4.2-.4-7.9 2.3-10.9 4.7-2.5-4-8.7-6.1-13.9-4.8-5.2 1.3-8.9 5.9-8.1 10.3-10.2-1.8-20.7 3.1-31.1 2.3-11.9-.9-22.6-9.1-34.3-7-3 .5-5.7 1.7-8.6 2.2-2.9.3-5.9.4-8.9.2-9.5-.2-19 1-28.6.6-4.6-.2-9.2-1-13.6-2.3-4 2.3-5.5 4.7-3.8 6.1z"/><path class="st1" d="M1077.2 203.1s-9.3 1.3-51.8.4c-11.5 7-61.4 2.5-81.1.7-22.8 4.2-34-6.8-23.9-12.8 3.1-1.8 8.3-3.2 15.7-3.5-.5-23.7 58.1-31.5 74.4 3.1 8.6-7 26.7-6.4 27.8 3.1 16.7-3.1 29.8.4 35.8 4 3.2 2 4.4 4 3.1 5z"/><path class="st2" d="M1077.2 203.1s-9.3 1.3-51.8.4c-11.5 7-61.4 2.6-81.1.7-22.8 4.2-34-6.8-23.9-12.8-.1 1.5.4 2.9 1.4 4.1 2.3 2.6 6.6 3.7 10.6 3.4 3.9-.5 7.6-1.7 11-3.7 1.5-1 3.3-1.7 5.1-2 3.4-.3 6.3 1.8 8.6 3.8 2-3.2 6.9-4.9 11.1-3.8 4.2 1 7 4.7 6.4 8.2 8.2-1.5 16.5 2.4 24.8 1.8 9.5-.7 18-7.2 27.3-5.6 2.3.4 4.5 1.3 6.9 1.7 2.3.3 4.7.3 7.1.2 7.6-.1 15.2.8 22.8.5 3.7-.2 7.3-.8 10.8-1.8 3 1.9 4.2 3.9 2.9 4.9z"/><path d="M1181.1 741.8h-1042l-.6-.3c-.2-.1-.3-.3-.4-.5-.1-.2-.1-.4-.1-.6 0-.2 0-.4.1-.6.1-.2.2-.4.4-.5l.6-.3c.2-.1.4-.1.7 0h1042l.6.3c.2.1.3.3.4.5.1.2.1.4.1.6 0 .2-.1.4-.1.6-.1.2-.2.4-.4.5l-.6.3c-.3.1-.5.1-.7 0z" style="fill:#9ca3af"/><path class="st1" d="m490.9 242.9-14.4-7.6c.2-6.6-2-13.1-6.4-18.1-4.3-5-10.4-8.3-17-9.1s-13.2.9-18.6 4.8c-5.4 3.9-9.2 9.6-10.5 16.1-1.4 6.5-.3 13.3 3.1 19 3.4 5.7 8.8 10 15.1 11.9 6.3 1.9 13.2 1.4 19.2-1.5s10.7-7.9 13.2-14l16.3-1.5z"/><path class="st28" d="M450 261.5c-3.8 0-7.5-.9-10.9-2.4-3.4-1.5-6.5-3.8-9-6.6s-4.4-6.1-5.6-9.7c-1.2-3.6-1.6-7.4-1.2-11.1.4-3.7 1.6-7.4 3.4-10.6 1.9-3.3 4.4-6.1 7.4-8.3 3-2.2 6.5-3.8 10.2-4.6 3.7-.8 7.5-.9 11.2-.1 6.2 1.3 11.7 4.7 15.6 9.6s6 11.1 5.8 17.4l15.7 8.2-17.7 1.6c-2 4.9-5.5 9.2-9.9 12.1-4.5 2.9-9.7 4.5-15 4.5zm0-53.1c-4.7 0-9.3 1.3-13.4 3.7-4 2.4-7.3 5.9-9.5 10.1-2.2 4.2-3.2 8.9-3 13.6s1.8 9.3 4.4 13.2c2.6 3.9 6.3 7 10.6 9s9 2.8 13.7 2.3c4.7-.5 9.2-2.3 12.9-5.1 3.8-2.8 6.7-6.7 8.5-11l.1-.3 14.9-1.3-13.2-7v-.3c.2-6.1-1.8-12.1-5.5-16.9-3.8-4.8-9.1-8.1-15.1-9.4-1.8-.4-3.7-.6-5.4-.6z"/><path class="st11" d="m446.2 241.3-.1-1.5c-.1-1.2.1-2.3.7-3.4.7-1.2 1.7-2.3 2.8-3.1 1-.7 1.9-1.6 2.6-2.6.4-.6.6-1.4.6-2.1 0-.4-.1-.8-.3-1.1-.2-.3-.4-.6-.7-.8-.8-.5-1.8-.7-2.7-.5-2.4.2-4.7 1-6.7 2.3l-2.4-4.2c2.8-1.7 5.9-2.7 9.2-2.9 2.3-.2 4.7.3 6.6 1.6.8.6 1.5 1.4 1.9 2.2.5.9.7 1.9.7 2.9.1 1.3-.2 2.7-.8 3.8-1 1.5-2.2 2.7-3.6 3.8-.9.6-1.6 1.4-2.3 2.3-.3.6-.5 1.3-.4 1.9l.1 1.2-5.2.2zm-.3 6.9c-.1-.5 0-.9.1-1.4.1-.4.4-.9.7-1.2.7-.7 1.6-1 2.6-1 .9-.1 1.9.2 2.6.8.6.7 1 1.5 1 2.5 0 .9-.2 1.8-.8 2.5-.3.3-.7.6-1.2.8-.4.2-.9.3-1.4.2-.9.1-1.9-.2-2.6-.8-.3-.3-.6-.7-.8-1.1-.2-.5-.3-.9-.2-1.3z"/></svg>