<svg version="1.1" id="Layer_1" xmlns="http://www.w3.org/2000/svg" x="0" y="0" viewBox="0 0 1229.9 939.8" style="enable-background:new 0 0 1229.9 939.8" xml:space="preserve"><style>.st1{fill:#61656d}.st2{fill:#868a91}.st3{fill:#f4f4f4}.st5,.st6{opacity:.3}.st6{enable-background:new}.st7{fill:#b2b6bb}.st8{fill:#fff}.st10,.st9{opacity:.15}.st10{enable-background:new}.st12{fill:#ececec}.st13{fill:#dadddf}.st14{fill:#b1b5ba}.st15{opacity:.7}.st17{fill:#14b8a6}.st18{fill:#3f4249}.st19{opacity:.2;fill:#fff;enable-background:new}.st20{fill:#fc9d9d}.st21{opacity:.7;fill:#fff;enable-background:new}.st22{fill:#21252b}.st25{opacity:.4}.st26,.st28{opacity:.4;fill:#14b8a6;enable-background:new}.st28{opacity:.7;fill:#21252b}</style><path d="M103.1 937 .2 340.3c-1.2-15.2 3-30.3 11.9-42.7L255 26.5c6.5-9 15.2-16.1 25.3-20.7S301.5-.7 312.5.3l744.8 73.3c13.2 1.2 25.6 6.4 35.7 14.9s17.3 20 20.6 32.8L1227.9 496c2.8 10.8 2.7 22.2-.2 32.9l-111.8 409.7L103.1 937z" style="fill:#f9fafb"/><path class="st1" d="M469.9 177.7h-10.8V570h10.8V177.7z"/><path class="st2" d="M459.4 177.7H119.6L12.1 297.6C3.2 310-1 325.1.2 340.3L39.8 570h419.6V177.7z"/><path class="st3" d="M444.6 193.2h-339L12.1 297.6C3.2 310-1 325.1.2 340.3l37.2 215.8h407.2V193.2z"/><path d="M444.6 193.2h-339L12.1 297.6C3.2 310-1 325.1.2 340.3l37.2 215.8h407.2V193.2z" style="opacity:5.000000e-02;enable-background:new"/><g class="st5"><path class="st6" d="M355.7 388.2h-88.8V477h88.8v-88.8z"/></g><path class="st7" d="M444.9 555.9h-407l-1-6h408v6z"/><path class="st8" d="M346 380h-88.8v88.8H346V380z"/><g class="st9"><g class="st9"><path class="st10" d="M305.5 392c0 .8-.2 1.6-.6 2.2-.4.7-1 1.2-1.8 1.5-.7.3-1.5.4-2.3.2-.8-.2-1.5-.6-2-1.1-.7-.7-1.1-1.7-1.1-2.8 0-1 .4-2 1.1-2.7.7-.7 1.7-1.1 2.7-1.1s2 .4 2.8 1.1c.7.7 1.2 1.7 1.2 2.7z"/></g></g><path d="M62.1 412.3H148v101.2l-83.8-1.8-2.1-99.4z" style="opacity:.1;enable-background:new"/><path class="st8" d="M58.1 408.3H144v101.2l-83.8-1.8-2.1-99.4z"/><path class="st12" d="M131.4 434.1H68.8c-.3 0-.6.1-.9.4-.2.2-.4.5-.4.9 0 .2 0 .3.1.5.1.1.1.3.3.4.1.1.2.2.4.3.1.1.3.1.5.1h62.6c.3 0 .6-.1.9-.4.2-.2.4-.5.4-.9 0-.2 0-.3-.1-.5-.1-.1-.2-.3-.3-.4-.1-.1-.2-.2-.4-.3-.2-.1-.4-.1-.5-.1zM131.4 437.9H68.8c-.3 0-.6.1-.9.4-.2.2-.4.5-.4.9 0 .3.1.6.4.9.2.2.5.4.9.4h62.6c.2 0 .3 0 .5-.1.1-.1.3-.2.4-.3.1-.1.2-.2.3-.4.1-.1.1-.3.1-.5 0-.3-.1-.6-.4-.9-.3-.3-.6-.4-.9-.4zM131.4 459.4H68.8c-.2 0-.3 0-.5.1-.1.1-.3.2-.4.3-.1.1-.2.2-.3.4-.1.1-.1.3-.1.5 0 .3.1.6.4.9.2.2.5.4.9.4h62.6c.3 0 .6-.1.9-.4.2-.2.4-.5.4-.9 0-.2 0-.3-.1-.5-.1-.1-.2-.3-.3-.4-.1-.1-.2-.2-.4-.3-.2-.1-.4-.1-.5-.1zM123.2 472H75.4c-.2 0-.3 0-.5.1-.1.1-.3.2-.4.3-.1.1-.2.2-.3.4-.1.1-.1.3-.1.5 0 .3.1.6.4.9.2.2.5.4.9.4h47.8c.3 0 .6-.1.9-.4.2-.2.4-.5.4-.9 0-.3-.1-.6-.4-.9-.3-.2-.6-.4-.9-.4zM124.2 489.7H76.4c-.2 0-.3 0-.5.1-.1.1-.3.2-.4.3-.1.1-.2.2-.3.4-.1.1-.1.3-.1.5s0 .3.1.5c.1.1.2.3.3.4.1.1.2.2.4.3.1.1.3.1.5.1h47.8c.2 0 .3 0 .5-.1.1-.1.3-.2.4-.3.1-.1.2-.2.3-.4.1-.1.1-.3.1-.5s0-.3-.1-.5c-.1-.1-.1-.3-.3-.4-.1-.1-.2-.2-.4-.3-.2-.1-.4-.1-.5-.1z"/><g class="st9"><g class="st9"><path class="st10" d="M104 417.3c0 .9-.3 1.7-.9 2.4-.6.7-1.3 1.1-2.2 1.3-.9.2-1.8 0-2.5-.4-.8-.4-1.4-1.1-1.7-1.9-.3-.8-.4-1.7-.1-2.5.3-.8.8-1.6 1.5-2 .7-.5 1.6-.7 2.5-.6.9.1 1.7.5 2.3 1.1.7.7 1.1 1.6 1.1 2.6z"/></g></g><path class="st13" d="M107.4 301.4H31.2v71.3h76.2v-71.3z"/><path class="st14" d="M96.3 324.1H40.7c-.1 0-.3 0-.4.1-.1.1-.2.1-.3.2-.1.1-.2.2-.2.3-.1.1-.1.3-.1.4v.1c0 .3.1.6.3.8.2.2.5.3.7.3h55.6c.3 0 .6-.1.8-.3s.3-.5.3-.8v-.1c0-.3-.1-.6-.3-.8-.3-.1-.5-.2-.8-.2zM96.3 335.4H40.7c-.1 0-.3 0-.4.1-.1.1-.2.1-.3.2-.1.1-.2.2-.2.3-.1.1-.1.3-.1.4v.1c0 .1 0 .3.1.4.1.1.1.2.2.3.1.1.2.2.3.2.1 0 .3.1.4.1h55.6c.1 0 .3 0 .4-.1s.2-.1.3-.2c.1-.1.2-.2.2-.3.1-.1.1-.3.1-.4v-.1c0-.3-.1-.6-.3-.8-.2-.2-.4-.3-.7-.2zM96.3 346.5H40.7c-.1 0-.3 0-.4.1-.1.1-.2.1-.3.2-.1.1-.2.2-.2.3-.1.1-.1.3-.1.4v.1c0 .1 0 .3.1.4.1.1.1.2.2.3.1.1.2.2.3.2.1.1.3.1.4.1h55.6c.1 0 .3 0 .4-.1.1-.1.2-.1.3-.2s.2-.2.2-.3c.1-.1.1-.3.1-.4v-.1c0-.3-.1-.6-.3-.8-.2-.1-.4-.2-.7-.2zM88.8 357.8H46.4c-.1 0-.3 0-.4.1-.1.1-.2.1-.3.2-.1.1-.2.2-.2.3-.1.1-.1.3-.1.4v.1c0 .1 0 .3.1.4.1.1.1.2.2.3.1.1.2.2.3.2.1.1.3.1.4.1h42.4c.1 0 .3 0 .4-.1.1-.1.2-.1.3-.2s.2-.2.2-.3c0-.1.1-.3.1-.4v-.1c0-.1 0-.3-.1-.4-.1-.1-.1-.2-.2-.3s-.2-.2-.3-.2c-.1 0-.2-.1-.4-.1zM70.5 307.3h-5.6v5.6h5.6v-5.6z"/><path class="st14" d="M70.5 310.1c0 .8-.3 1.5-.9 2-.5.5-1.3.8-2 .8-.4 0-.7-.1-1.1-.2-.3-.1-.7-.4-.9-.6-.3-.3-.5-.6-.6-.9-.1-.3-.2-.7-.2-1.1a2.732 2.732 0 0 1 2.7-2.7c.7 0 1.5.3 2 .8.7.4 1 1.1 1 1.9z"/><path d="M208.9 254.8s61.1-11 76.5 4.4c15.4 15.4 9.5 82.4 9.5 82.4l-86.4-.4.4-86.4z" style="opacity:.7;fill:#b2b6bb;enable-background:new" class="st15"/><path class="st13" d="M199.1 242.4s51.5-7 66.7 8.3c15.1 15.3 19.1 78.5 19.1 78.5l-86.2-.5.4-86.3z"/><g class="st9"><g class="st9"><path class="st10" d="M245.2 250.5c-.1.8-.4 1.5-1 2s-1.3.8-2.1.8-1.5-.3-2.1-.9c-.5-.6-.8-1.3-.8-2 0-.4 0-.8.2-1.2.1-.4.4-.7.6-1 .4-.4 1-.7 1.6-.8s1.2-.1 1.8.2c.6.2 1 .6 1.4 1.1.2.6.4 1.2.4 1.8z"/></g></g><path class="st14" d="m267.7 265.3-50.1-.3c-.9 0-1.8.4-2.5 1-.7.7-1 1.5-1 2.5 0 .9.4 1.8 1 2.5.7.7 1.5 1 2.5 1l50.1.3c.9 0 1.8-.4 2.5-1 .7-.7 1-1.5 1-2.5 0-.9-.4-1.8-1-2.5-.7-.6-1.6-1-2.5-1zM270 282.7l-55-.3c-.1 0-.3 0-.4.1-.1 0-.2.1-.3.2-.1.1-.2.2-.2.3-.1.1-.1.3-.1.4s0 .3.1.4.1.2.2.3c.1.1.2.2.3.2s.3.1.4.1l55 .3c.3 0 .5-.1.7-.3.2-.2.3-.4.3-.7 0-.3-.1-.5-.3-.7-.2-.2-.4-.3-.7-.3zM269.9 295.1l-55-.3c-.1 0-.3 0-.4.1-.1 0-.2.1-.3.2-.1.1-.2.2-.2.3-.1.1-.1.3-.1.4 0 .1 0 .3.1.4s.1.2.2.3c.1.1.2.2.3.2s.3.1.4.1l55 .3c.1 0 .3 0 .4-.1.1 0 .3-.1.4-.2.1-.1.2-.2.2-.3.1-.1.1-.3.1-.4s0-.3-.1-.4-.1-.2-.2-.3c-.1-.1-.2-.2-.3-.2-.2 0-.3-.1-.5-.1zM269.9 307.6l-55-.3c-.3 0-.5.1-.7.3-.2.2-.3.4-.3.7 0 .3.1.5.3.7.2.2.4.3.7.3l55 .3c.3 0 .5-.1.7-.3.2-.2.3-.4.3-.7s-.1-.5-.3-.7c-.2-.2-.5-.3-.7-.3zM325.1 410.9h-55c-.3 0-.5.1-.7.3-.2.2-.3.4-.3.7s.1.5.3.7c.2.2.4.3.7.3h55c.3 0 .5-.1.7-.3.2-.2.3-.4.3-.7s-.1-.5-.3-.7c-.2-.2-.4-.3-.7-.3zM325.1 423.4h-55c-.3 0-.5.1-.7.3-.2.2-.3.4-.3.7s.1.5.3.7c.2.2.4.3.7.3h55c.3 0 .5-.1.7-.3.2-.2.3-.4.3-.7s-.1-.5-.3-.7c-.2-.2-.4-.3-.7-.3zM317.5 435.9h-47.4c-.3 0-.5.1-.7.3-.2.2-.3.4-.3.7s.1.5.3.7c.2.2.4.3.7.3h47.4c.3 0 .5-.1.7-.3.2-.2.3-.4.3-.7s-.1-.5-.3-.7c-.2-.2-.4-.3-.7-.3z"/><path class="st7" d="M609.6 589.3c-4.4 2.7-9.5 4.3-14.6 4.6-5.2.4-10.4-.5-15.1-2.5-4.8-2-9-5.1-12.3-9.1-3.3-4-5.7-8.7-6.9-13.7-1.4-5.9-1.1-12.1.8-17.8 1.9-5.8 5.4-10.9 10-14.8 4.6-3.9 10.3-6.5 16.3-7.4 6-.9 12.1-.1 17.7 2.2 5.6 2.4 10.4 6.2 13.9 11.2 3.5 4.9 5.6 10.8 6 16.8.4 6.1-.8 12.1-3.6 17.5s-7 9.9-12.2 13z"/><path class="st8" d="M602.6 557.5c0 2-.6 3.9-1.7 5.5s-2.7 2.9-4.5 3.6c-1.8.7-3.8.9-5.8.5-1.9-.4-3.7-1.4-5.1-2.8-1.4-1.4-2.3-3.2-2.7-5.1-.4-1.9-.1-4 .6-5.8.8-1.8 2.1-3.4 3.7-4.5 1.7-1.1 3.6-1.6 5.6-1.6 2.6 0 5.2 1.1 7 3 1.9 2 3 4.5 2.9 7.2zM609.6 585.2v4.1c-5.2 3.2-11.2 4.8-17.4 4.7-6.1-.1-12.1-1.9-17.2-5.1v-4.1c.1-4.5 2.1-8.8 5.3-11.9 3.3-3.1 7.6-4.9 12.2-4.8 4.5.1 8.8 1.9 12 5.1 3.2 3.1 5 7.5 5.1 12z"/><path class="st7" d="M965.2 304c-9.6 5.8-20.7 8.8-31.9 8.6-11.2-.2-22.2-3.4-31.7-9.4-11.1-7.1-19.6-17.5-24.2-29.9-4.6-12.3-5.1-25.8-1.3-38.4 3.8-12.6 11.5-23.6 22.1-31.4 10.6-7.8 23.4-11.9 36.6-11.8 13.2.2 25.9 4.6 36.3 12.7s17.9 19.3 21.3 32c3.4 12.7 2.7 26.2-2.3 38.4-4.9 12.2-13.7 22.5-24.9 29.2z"/><path class="st8" d="M952.4 245.6c0 3.6-1.2 7.2-3.2 10.2-2.1 3-5 5.3-8.3 6.7-3.4 1.4-7.1 1.7-10.6.9-3.6-.8-6.8-2.5-9.4-5.1s-4.3-5.9-4.9-9.5c-.7-3.6-.3-7.3 1.2-10.6 1.4-3.3 3.8-6.2 6.9-8.2s6.6-3 10.3-3c2.4 0 4.8.5 7 1.5s4.2 2.3 5.9 4.1c1.7 1.7 3 3.8 3.9 6 .8 2.1 1.3 4.5 1.2 7zM965.2 296.5l-.1 7.6c-9.6 5.8-20.7 8.8-31.9 8.6-11.2-.1-22.2-3.4-31.7-9.4l.1-7.6c.1-8.4 3.5-16.5 9.6-22.4 6-5.9 14.2-9.1 22.6-9 8.4.1 16.5 3.5 22.4 9.6 5.9 6 9.1 14.1 9 22.6z"/><path class="st7" d="M1011 461.4c-1.6 4.2-2.6 8.5-2.8 13h-11.5v-.3l.1-.9c.2-1.5.4-3 .8-4.5.6-2.4 1.4-4.8 2.5-7.1 0-.1.1-.1.1-.1h.2l10.6-.1zM1010.6 490.4h-10.7c-.1 0-.1-.1-.1-.1-1.8-3.8-2.9-7.8-3.1-12v-.4h11.3c.2 0 .2 0 .2.2.1.9.1 1.9.2 2.8.2 1.5.4 2.9.7 4.4.4 1.8.9 3.5 1.5 5.1 0-.1 0-.1 0 0zM1055 493.7c0 .1-.1.1-.1.2-.9 1.4-1.9 2.7-3 3.9-1.3 1.5-2.8 2.8-4.4 4-3.1 2.3-6.6 4.1-10.3 5.1-1.4.4-2.9.7-4.4.9l-.4.1h-.3l-.3-.2.3-.2c3.2-2.2 6-4.9 8.3-8.1 1.3-1.8 2.4-3.7 3.4-5.6 0-.1.1-.1.1-.1h11.1zM1044.4 474.4h-14.8v-13h11.7l.1.1c1.1 2.4 1.8 5 2.3 7.6.3 1.4.5 2.7.6 4.1.1.4.1.8.1 1.2zM1044.3 477.8v.9c-.1.7-.1 1.4-.2 2.2-.1 1-.3 2-.5 3-.4 2.2-1.1 4.3-1.9 6.3 0 .1 0 .1-.1.1h-12.1v-12.6l14.8.1zM1026.3 461.5v13h-14.5c0-.3 0-.7.1-1 .1-.7.1-1.5.3-2.2l.6-3.3c.5-2.2 1.2-4.3 2.1-6.4 0-.1 0-.1.1-.1H1026.3zM1026.3 478v12.4H1014.5c-.1 0-.1-.1-.1-.1-.9-2.1-1.6-4.3-2-6.5-.2-1.2-.4-2.3-.5-3.5-.1-.8-.1-1.5-.2-2.3v-.1h14.3c.3-.1.3 0 .3.1zM1060.2 474.5H1048c-.2-4.5-1.2-8.8-2.8-13h11.5l.1.1c1.3 2.6 2.2 5.3 2.8 8.1.3 1.5.5 3 .6 4.5v.3zM1060.2 477.7v.8c-.1 1.1-.2 2.2-.4 3.3-.4 2.5-1.2 5-2.2 7.3-.2.4-.3.8-.5 1.1 0 0 0 .1-.1.1h-11.4c.1-.4.3-.8.4-1.1.7-1.9 1.2-3.9 1.5-5.9.3-1.5.4-2.9.5-4.4v-1c0-.1 0-.1.1-.1l12.1-.1zM1054.7 458.1h-11l-.1-.1c-1.4-2.8-3.2-5.5-5.3-7.8-1.2-1.4-2.6-2.6-4-3.7-.7-.6-1.5-1.1-2.2-1.6l-.1-.1.2-.1-.2-.2c4.5.5 8.9 2 12.8 4.4 3.9 2.2 7.3 5.4 9.9 9.2zM1024.2 507.8h-.3c-1.2-.2-2.3-.4-3.5-.7-2.1-.5-4.2-1.3-6.2-2.3-2.3-1.1-4.4-2.5-6.3-4.1-1.4-1.1-2.6-2.4-3.8-3.8-.8-1-1.6-2.1-2.3-3.3v-.1H1012.1l.1.1c1 2.1 2.3 4.1 3.6 5.9 1.3 1.7 2.7 3.2 4.2 4.7 1.3 1.2 2.7 2.3 4.1 3.3l.1.3zM1024.1 444.7c-.4.3-1 .7-1.5 1.1-1.7 1.3-3.3 2.8-4.8 4.5-2 2.2-3.7 4.6-5 7.2-.1.2-.2.3-.3.5l-.1.1H1002.1c2.5-3.7 5.7-6.8 9.5-9.1s8-3.9 12.4-4.5l-.1.1.2.1zM1040 493.7c-1.4 2.4-3 4.6-4.9 6.6-1.7 1.8-3.5 3.4-5.6 4.7v-11.4h10.5v.1zM1026.3 493.7v11.1c-4.2-2.9-7.6-6.7-10.1-11.1h10.1zM1039.7 458.1h-10.1v-10.7c2.1 1.3 4 2.9 5.7 4.7 1.6 1.8 3.1 3.8 4.4 6zM1026.3 447.8v10.4h-9.7c2.4-4.2 5.7-7.8 9.7-10.4zM587.4 296.3h-4.7c-.7 0-1.4-.1-2-.4-.6-.3-1.2-.7-1.7-1.1-.5-.5-.9-1.1-1.1-1.7-.3-.6-.4-1.3-.4-2 0-1.4.6-2.8 1.6-3.7 1-1 2.3-1.6 3.7-1.6h6.5l3.1-17.7h-5.9c-1.4-.1-2.7-.6-3.6-1.6-.9-1-1.5-2.3-1.5-3.7s.5-2.7 1.5-3.7c.9-1 2.2-1.6 3.6-1.6h7.8l2-12.1c.2-1.3.8-2.4 1.8-3.2s2.2-1.2 3.5-1.2c.8 0 1.5.2 2.2.5.7.3 1.3.8 1.8 1.4.5.6.9 1.3 1.1 2 .2.7.3 1.5.2 2.3l-1.7 10.3h16l2-12.1c.2-1.3.9-2.4 1.9-3.2s2.3-1.2 3.5-1.2c.8 0 1.5.2 2.2.5.7.3 1.3.8 1.8 1.4.5.6.9 1.3 1.1 2 .2.7.2 1.5.1 2.3l-1.7 10.3h4.7c1.4 0 2.7.6 3.7 1.6s1.5 2.3 1.5 3.7-.6 2.7-1.6 3.7-2.3 1.6-3.7 1.6H630l-3 17.7h5.8c.7 0 1.4.1 2 .4.6.3 1.2.7 1.7 1.1.5.5.9 1.1 1.1 1.7.3.6.4 1.3.4 2 0 1.4-.6 2.8-1.6 3.7-1 1-2.3 1.6-3.7 1.6h-7.6l-2.2 12.5c-.2 1.2-.9 2.4-1.8 3.2-1 .8-2.2 1.2-3.5 1.2-.8 0-1.5-.2-2.2-.5-.7-.3-1.3-.8-1.8-1.4s-.9-1.3-1.1-2c-.2-.7-.3-1.5-.1-2.3l2-10.7h-16l-2.1 12.5c-.2 1.3-.9 2.4-1.9 3.2-1 .8-2.2 1.2-3.5 1.2-.8 0-1.5-.1-2.2-.5-.7-.3-1.3-.8-1.8-1.4s-.9-1.3-1.1-2c-.2-.8-.2-1.5-.1-2.3l1.7-10.7zm28.6-10.6 3.1-17.7h-15.9l-3.1 17.7H616zM944.3 641.3c-11.5.1-22.6 4.7-30.7 12.9-8.1 8.2-12.7 19.3-12.6 30.8s4.7 22.6 12.9 30.7c8.2 8.1 19.3 12.7 30.8 12.6 3.6 0 7.1-.5 10.6-1.4.5-.1 1-.3 1.5-.6.4-.3.8-.7 1.1-1.2.3-.4.4-.9.4-1.4s0-1-.2-1.5c0-.4-.2-.8-.4-1.2-.2-.4-.5-.7-.8-.9-.5-.3-1-.5-1.6-.6-.6-.1-1.1-.1-1.7.1-2.9.8-5.9 1.1-8.9 1-7.1 0-14-2-19.9-5.9-5.9-3.9-10.5-9.5-13.3-16S908 685 909.3 678c1.3-7 4.7-13.3 9.7-18.4 5-5 11.3-8.5 18.3-9.9 6.9-1.4 14.1-.8 20.7 1.9s12.2 7.2 16.1 13.1c3.9 5.9 6.1 12.8 6.2 19.8.1 5.7-1.2 11.3-3.9 16.3-.4 1-3 5-6.3 5.8h-.9c-1.1 0-1.4-.3-1.4-.4-.4-.8-.6-1.6-.8-2.4-.5-4.3-.1-17.6-.1-17.8v-1.6c0-13-10.2-23.5-22.5-23.5s-22.6 10.7-22.5 23.7 10.3 23.8 22.7 23.8c5.5 0 10.9-2.2 14.8-6.1v2c.1 2.3.8 4.5 2.2 6.4.9 1.2 2 2.1 3.4 2.7 1.3.6 2.8.9 4.3.9.9 0 1.8-.1 2.7-.3 4.4-1.3 8.1-4.4 11.2-9.2.1-.2.2-.3.2-.3l.2-.2c3.3-6.7 4.8-14.1 4.4-21.5-.4-7.4-2.6-14.6-6.5-20.9s-9.4-11.5-15.9-15.1c-6.6-3.5-13.9-5.4-21.3-5.5zm.2 59.2c-8.2 0-14.6-6.9-14.6-15.7s6.4-15.9 14.5-16c8.1-.1 14.7 7.2 14.8 15.8 0 8.7-6.6 15.9-14.7 15.9z"/><path class="st17" d="M869.1 539.7c17.5-17.6 27.3-41.4 27.2-66.2-.1-54.1-46-97.5-101.2-97.5-54.2 0-93.3 40.4-99.5 83.8-3.9 28.9 5.5 57.1 24.9 78.4 17.1 18.4 26.5 42.6 26.4 67.8v2.3h97.3V606c0-25.9 8.6-49.6 24.9-66.3z"/><path class="st18" d="M746 591.9s18.8 6 49.6 6 49.5-6 49.5-6-2.9 59.3-3 63.7c-.2 5.5-28 12.5-43.3 12.5-22.8 0-49.6-6.6-50.4-11.6-.7-5.1-2.4-64.6-2.4-64.6z"/><path class="st8" d="M817.7 593.7h-.1c-.3 0-.5-.1-.8-.2-.3-.1-.5-.3-.7-.5-.2-.2-.3-.4-.4-.7-.1-.3-.1-.5-.1-.8l2.5-39.7c.4-6.4 1.6-12.7 3.7-18.8 1.8-5.2 4.1-12.1 6.7-19.3h-.7c-9.3 0-17.7-3.2-21.5-8.2-3.2-4.1-4.4-8.4-5.4-11.8-1.3-4.7-2-6.2-4.4-6.5h-2.1c-2.4.3-3 1.8-4.3 6.5-1 3.4-2.2 7.7-5.4 11.8-3.8 4.9-12.2 8.1-21.5 8.2h-.7c2.6 7.2 5 14.1 6.7 19.3l3.7 18.8 2.4 39.7c0 .3 0 .5-.1.8-.1.3-.2.5-.4.7-.2.2-.4.4-.6.5-.2.1-.5.2-.8.2s-.5 0-.8-.1-.5-.2-.7-.4c-.2-.2-.4-.4-.5-.6-.1-.2-.2-.5-.2-.8l-2.2-39.4c-.4-6.2-1.6-12.3-3.6-18.2-2.3-6.7-4.8-13.8-7.3-20.8-9.3-1.1-17.7-5.9-23.5-13.2-9.2-11.7-7.5-22.1-2-26.9.9-.8 1.9-1.4 3-1.9 1.1-.4 2.3-.6 3.4-.6 1.2 0 2.3.3 3.4.8s2 1.2 2.8 2c3.6 3.7 10.2 20 16 35.8.8 0 1.5.1 2.2.1 7.8 0 15.3-2.7 18.2-6.6 2.7-3.5 3.8-7.2 4.7-10.5 1.3-4.4 2.5-8.9 8-9.4h2.7c5.4.5 6.7 5 8 9.4.9 3.3 2 7 4.7 10.5 3 3.8 10.5 6.5 18.3 6.6.7 0 1.4 0 2.2-.1 5.8-15.8 12.3-32.1 16-35.8.8-.9 1.8-1.6 2.8-2 1.1-.5 2.2-.8 3.4-.8 1.2 0 2.3.2 3.4.6 1.1.4 2.1 1 2.9 1.9 5.4 4.7 7.1 15.2-2 26.9-2.9 3.7-6.4 6.7-10.5 9s-8.6 3.7-13.2 4.2c-2.5 6.9-5 14.1-7.3 20.8-2 5.9-3.2 12-3.6 18.2l-2.4 39.4c0 .5-.3 1-.6 1.4-.4.3-.9.5-1.4.5zM852.4 475c-.7 0-1.3.2-1.9.4-.6.3-1.1.7-1.6 1.2-2.8 2.9-8.5 16.6-14.3 32.4 7.4-1.3 14.1-5.4 18.7-11.3 7.5-9.6 6.6-17.8 2.6-21.3-1-.9-2.2-1.4-3.5-1.4zm-113.6 0c-1.3 0-2.5.5-3.5 1.4-4 3.5-4.9 11.6 2.6 21.3 4.6 6 11.3 10 18.7 11.3-5.8-15.8-11.5-29.5-14.3-32.4-.4-.5-1-.9-1.6-1.2-.6-.3-1.3-.4-1.9-.4z"/><path class="st2" d="M794.7 609.2c-25.7 0-43.3-6.6-43.6-6.7-.2-.1-.4-.3-.5-.6-.1-.2-.1-.5 0-.8.1-.2.3-.5.5-.6.2-.1.5-.1.8-.1.4.2 39.2 14.7 86 0 .3-.1.6-.1.8.1.3.1.4.4.5.6.1.3.1.6-.1.8-.1.3-.4.4-.6.5-14.1 4.6-28.9 6.8-43.8 6.8zM794.7 619.2c-25.7 0-43.3-6.6-43.6-6.7-.2-.1-.4-.3-.5-.6-.1-.2-.1-.5 0-.8.1-.2.3-.4.5-.6.2-.1.5-.1.8-.1.4.2 39.2 14.7 86 0 .3-.1.6-.1.8.1.3.1.4.4.5.6.1.3.1.6-.1.8-.1.3-.4.4-.6.5-14.1 4.6-28.9 6.8-43.8 6.8zM794.7 629.2c-25.7 0-43.3-6.6-43.6-6.7-.2-.1-.4-.3-.5-.6-.1-.2-.1-.5 0-.8.1-.2.3-.5.5-.6.2-.1.5-.1.8-.1.4.2 39.2 14.7 86 0 .3-.1.6-.1.8.1.3.1.4.4.5.6.1.3.1.6-.1.8-.1.3-.4.4-.6.5-14.1 4.6-28.9 6.8-43.8 6.8zM794.7 639.2c-25.7 0-43.3-6.6-43.6-6.7-.2-.1-.4-.3-.5-.6-.1-.2-.1-.5 0-.8.1-.2.3-.5.5-.6.2-.1.5-.1.8-.1.4.2 39.2 14.7 86 0 .1 0 .3-.1.4 0 .1 0 .3.1.4.1l.3.3c.1.1.2.2.2.4 0 .1.1.3 0 .4-.1.1 0 .3-.1.4l-.3.3c-.1.1-.2.2-.4.2-14 4.5-28.8 6.7-43.7 6.7zM794.7 649.2c-25.7 0-43.3-6.6-43.6-6.7-.2-.1-.4-.3-.5-.6-.1-.2-.1-.5 0-.8.1-.2.3-.5.5-.6.2-.1.5-.1.8-.1.4.1 39.2 14.7 86 0 .3-.1.6-.1.8.1.3.1.4.4.5.6.1.3.1.6-.1.8-.1.3-.4.4-.6.5-14.1 4.6-28.9 6.8-43.8 6.8zM794.7 659.2c-25.7 0-43.3-6.6-43.6-6.7-.2-.1-.4-.3-.5-.6-.1-.2-.1-.5 0-.8.1-.2.3-.5.5-.6.2-.1.5-.1.8-.1.4.1 39.2 14.7 86 0 .1 0 .3-.1.4 0 .1 0 .3.1.4.1l.3.3c.1.1.2.2.2.4 0 .1.1.3 0 .4 0 .1 0 .3-.1.4l-.3.3c-.1.1-.2.2-.4.2-14 4.5-28.8 6.7-43.7 6.7z"/><path class="st19" d="M826.3 532.8c30.8 0 55.7-25.9 55.7-57.8s-25-57.8-55.7-57.8c-30.8 0-55.7 25.9-55.7 57.8s25 57.8 55.7 57.8z"/><path class="st20" d="m556.9 756.7 6.4 73.2 92.8 47.3-26.1 28.2-121.4-38.3-6.9-101.4 55.2-9z"/><path class="st17" d="m376 611.4-75.4 23.7c-17.4 5.5-33.6 28.3-32.9 46.6l13.9 233.1h224.1l7.8-151.2 49.4-7.8-17.3-89.9c-1.3-7-4.5-13.4-9.1-18.8s-10.5-9.5-17.2-11.8L451 611l-75 .4z"/><path class="st10" d="m362 615.8 44.4 64.1 19.1-29.5 29 22.5 3.9-59.8-96.4 2.7z"/><path class="st20" d="M425.4 646.1 376 611.4l4.7-68c-3.6-64.1 57.9-27.8 68-21.9-.7-1.3-1.4 35.1-3.5 48.4 1.1 10.2 4.2 30.4 5.4 40.8l-25.2 35.4z"/><path class="st10" d="m447.8 595.1-1.3-13.7-26.5 7.8c-6.6-1.2-12.7-3.9-18-8-.1-.1-.3-.2-.5-.3-.2-.1-.4-.1-.5-.1-.2 0-.4.1-.5.1-.2.1-.3.2-.4.3-.1.1-.2.3-.3.5 0 .2-.1.4 0 .5.1.1.1.4.2.5.1.2.2.3.4.4.4.4 10.9 8.9 24 8.9h.9c7 3.4 14.9 4.4 22.5 3.1z"/><path class="st21" d="M480.5 867.6c-.6 0-1.2-.2-1.8-.6-.5-.3-.9-.7-1.1-1.2-.3-.5-.4-1.1-.4-1.6 0-.9-.3-1.7-.8-2.4s-1.2-1.3-2-1.6c-.8-.3-1.6-.3-2.4-.2-.7.2-1.4.2-2.1.4.7.2 1.4.3 2.1.4.6 0 1.2.2 1.8.5.5.3.9.7 1.2 1.2s.4 1 .4 1.6c0 .9.2 1.7.7 2.4s1.1 1.3 1.9 1.6 1.6.4 2.4.2c.7-.1 1.4-.2 2.1-.4-.5-.1-1.3-.2-2-.3zm-21.2 41.7c-.6 0-1.2-.2-1.8-.6-.5-.3-.9-.7-1.1-1.2-.3-.5-.4-1.1-.4-1.6 0-.9-.3-1.7-.8-2.4s-1.2-1.3-2-1.6-1.6-.3-2.4-.1c-.7.1-1.4.2-2.1.4.7.2 1.4.3 2.1.4.6 0 1.2.2 1.8.5.5.3.9.7 1.2 1.2s.4 1 .4 1.6c0 .8.3 1.7.7 2.4.5.7 1.1 1.3 1.9 1.6s1.6.4 2.4.2c.7-.2 1.4-.2 2.1-.4-.6-.1-1.3-.2-2-.4zm-99.4-189c-.6 0-1.2-.3-1.7-.6s-.9-.7-1.1-1.2c-.3-.5-.4-1.1-.4-1.6 0-.9-.3-1.7-.8-2.4s-1.2-1.3-2-1.6c-.8-.3-1.6-.3-2.3-.2-.7.1-1.4.2-2.1.4.7.2 1.4.3 2.1.4.6 0 1.2.2 1.8.5.5.3.9.7 1.2 1.2.3.5.4 1 .4 1.6 0 .9.3 1.7.7 2.4.5.7 1.1 1.3 1.9 1.6.8.3 1.6.4 2.4.2.7-.1 1.4-.2 2.1-.4-.8-.1-1.5-.2-2.2-.3zm72.8 95.8c-.6-.1-1.2-.3-1.8-.6-.5-.3-.9-.7-1.1-1.2-.3-.5-.4-1.1-.4-1.6 0-.6-.1-1.3-.4-1.8-.3-.6-.7-1.1-1.2-1.5-.5-.4-1.1-.7-1.7-.8-.6-.1-1.3-.2-1.9 0-.7.1-1.4.2-2.1.4.7.2 1.4.3 2.1.4.6 0 1.2.2 1.8.5.5.3.9.7 1.2 1.2s.4 1 .4 1.6c0 .9.3 1.7.7 2.4.5.7 1.1 1.3 1.9 1.6.8.3 1.6.4 2.4.2.7-.1 1.4-.2 2.1-.4-.6-.2-1.3-.3-2-.4zm-103 9c-.6-.1-1.2-.3-1.8-.6-.5-.3-.9-.7-1.1-1.2-.3-.5-.4-1.1-.4-1.6 0-.9-.3-1.7-.8-2.4s-1.2-1.3-2-1.6c-.8-.3-1.6-.3-2.4-.2-.7.2-1.4.2-2.1.4.7.2 1.4.3 2.1.4.6 0 1.3.2 1.8.5s.9.7 1.2 1.2c.3.5.4 1 .5 1.6 0 .9.3 1.7.7 2.4.5.7 1.1 1.3 1.9 1.6s1.6.4 2.4.2c.7-.1 1.4-.2 2.1-.4l-2.1-.3zM295 698.5c-.6-.1-1.2-.3-1.8-.6-.5-.3-.9-.7-1.1-1.2-.3-.5-.4-1.1-.4-1.6 0-.6-.1-1.3-.4-1.8-.3-.6-.7-1.1-1.2-1.5s-1.1-.7-1.7-.8c-.6-.1-1.3-.1-1.9 0-.7.1-1.4.2-2.1.4.7.2 1.4.3 2.1.4.6 0 1.2.2 1.8.5.5.3.9.7 1.2 1.2s.4 1 .4 1.6c0 .9.3 1.7.7 2.4.5.7 1.1 1.3 1.9 1.6.7.3 1.6.4 2.4.3.7-.1 1.4-.2 2.1-.4-.6-.2-1.3-.3-2-.5zM516.3 683c-.6 0-1.2-.3-1.7-.6s-.9-.7-1.1-1.2c-.3-.5-.4-1.1-.4-1.6 0-.9-.3-1.7-.8-2.4s-1.2-1.3-2-1.6-1.6-.3-2.4-.1c-.7.1-1.4.2-2.1.4.7.2 1.4.3 2.1.4.6 0 1.2.2 1.8.5.5.3.9.7 1.2 1.2.3.5.4 1 .5 1.6 0 .9.2 1.7.7 2.4.5.7 1.1 1.3 1.9 1.6.7.3 1.6.4 2.4.2.7-.2 1.4-.2 2.1-.4-.8-.2-1.5-.3-2.2-.4zm-121.9-2.4c-.5.4-1 .7-1.7.9-.5.1-1.1.1-1.7 0-.5-.1-1-.4-1.4-.8-.6-.6-1.4-1-2.2-1.2-.8-.2-1.7-.1-2.5.2-.8.3-1.4.8-1.9 1.5l-1.2 1.8 1.8-1.2c.5-.4 1-.7 1.6-.8.5-.1 1.1-.1 1.7.1.5.2 1 .5 1.4.9.6.6 1.4 1 2.3 1.2.9.2 1.7 0 2.5-.3.7-.3 1.3-.9 1.8-1.6l1.2-1.8c-.6.3-1.2.7-1.7 1.1zm85.6-38.3c-.1-.7-.2-1.4-.4-2.1-.2.7-.3 1.4-.4 2.1 0 .6-.2 1.2-.5 1.8-.3.5-.7.9-1.2 1.2s-1 .4-1.6.4c-.9 0-1.7.3-2.4.7-.7.5-1.3 1.1-1.6 1.9-.3.8-.4 1.6-.2 2.4.1.7.2 1.4.4 2.1.2-.7.3-1.4.4-2.1.1-.6.3-1.2.6-1.8.3-.5.7-.9 1.2-1.1.5-.3 1.1-.4 1.6-.4.9 0 1.7-.3 2.4-.8s1.3-1.2 1.6-2c.3-.7.3-1.5.1-2.3zm-96.2 134.4c-.1-.7-.2-1.4-.4-2.1-.2.7-.3 1.4-.4 2.1 0 .6-.2 1.2-.5 1.8-.3.5-.7.9-1.2 1.2-.5.3-1 .4-1.6.4-.9 0-1.7.3-2.4.7-.7.5-1.3 1.1-1.6 1.9-.3.7-.4 1.6-.2 2.4.1.7.2 1.4.4 2.1.2-.7.3-1.4.4-2.1.1-.6.3-1.2.6-1.8.3-.5.7-.9 1.2-1.1.5-.3 1.1-.4 1.6-.4.6 0 1.3-.2 1.8-.4s1.1-.7 1.5-1.2.7-1.1.8-1.7c.1-.6.2-1.2 0-1.8zm-92.8.1c-.1-.7-.2-1.4-.4-2.1-.2.7-.3 1.4-.4 2.1 0 .6-.2 1.2-.5 1.8-.3.5-.7.9-1.2 1.2s-1 .4-1.6.4c-.9 0-1.7.3-2.4.7-.7.4-1.3 1.1-1.6 1.9-.3.8-.4 1.6-.2 2.4.1.7.2 1.4.4 2.1.2-.7.3-1.4.4-2.1.1-.6.3-1.2.6-1.7s.7-.9 1.2-1.1c.5-.3 1.1-.4 1.6-.4.9 0 1.7-.3 2.4-.8s1.3-1.2 1.6-2c.2-.8.3-1.6.1-2.4zm123.7-42.5c-.1-.7-.2-1.4-.4-2.1-.2.7-.3 1.4-.4 2.1 0 .6-.2 1.2-.5 1.8-.3.5-.7.9-1.2 1.2s-1 .4-1.6.4c-.9 0-1.7.3-2.4.7-.7.5-1.3 1.1-1.6 1.9-.3.8-.4 1.6-.2 2.4.1.7.2 1.4.4 2.1.2-.7.3-1.4.4-2.1.1-.6.3-1.2.6-1.8.3-.5.7-.9 1.2-1.1.5-.3 1.1-.4 1.6-.4.6 0 1.3-.2 1.8-.4.6-.3 1.1-.7 1.5-1.2.4-.5.7-1.1.8-1.7.2-.5.2-1.2 0-1.8zm47.7-39c-.1-.7-.2-1.4-.4-2.1-.2.7-.3 1.4-.4 2.1 0 .6-.2 1.2-.5 1.8-.3.5-.7.9-1.2 1.2s-1 .4-1.6.4c-.9 0-1.7.3-2.4.7-.7.5-1.3 1.1-1.6 1.9-.3.7-.4 1.6-.2 2.4.1.7.2 1.4.4 2.1.2-.7.3-1.4.4-2.1.1-.6.3-1.2.6-1.8.3-.5.7-.9 1.2-1.1.5-.3 1.1-.4 1.6-.4.6 0 1.3-.1 1.8-.4.6-.3 1.1-.7 1.5-1.2.4-.5.7-1.1.8-1.7.1-.5.1-1.2 0-1.8zm-80.2 156.6c-.1-.7-.2-1.4-.4-2.1-.2.7-.3 1.4-.4 2.1-.1.6-.2 1.2-.5 1.8-.3.5-.7.9-1.2 1.2-.5.3-1 .4-1.6.4-.9 0-1.7.2-2.4.7s-1.3 1.1-1.6 1.9c-.3.8-.4 1.6-.2 2.4.1.7.2 1.4.4 2.1.2-.7.3-1.4.4-2.1 0-.6.2-1.2.6-1.8.3-.5.7-.9 1.2-1.1.5-.3 1.1-.4 1.6-.4.6 0 1.3-.1 1.8-.4.6-.3 1.1-.7 1.5-1.2.4-.5.7-1.1.8-1.7.2-.5.2-1.1 0-1.8zm-79.4 7.4c-.5.4-1 .7-1.6.8-.5.1-1.1.1-1.7-.1-.5-.2-1-.5-1.4-.9-.6-.6-1.4-1-2.3-1.2-.9-.2-1.7 0-2.5.3-.7.4-1.3.9-1.8 1.6-.4.6-.9 1.2-1.2 1.8l1.8-1.2c.5-.4 1-.7 1.6-.9.5-.1 1.1-.1 1.6 0s1 .4 1.4.8c.6.6 1.4 1 2.2 1.2.8.2 1.7.1 2.5-.2.7-.3 1.4-.9 1.8-1.5.4-.6.9-1.1 1.2-1.8-.4.5-1 .9-1.6 1.3zm189.8-68.6c-.5.4-1 .7-1.7.8-.5.1-1.1.1-1.7-.1-.5-.2-1-.5-1.4-.9-.6-.6-1.4-1-2.3-1.2-.9-.1-1.7 0-2.5.3-.7.4-1.3.9-1.8 1.6L480 793c.7-.4 1.2-.8 1.8-1.2.5-.4 1-.7 1.6-.9.5-.1 1.1-.2 1.7 0 .5.1 1 .4 1.4.8.6.6 1.4 1 2.2 1.2.8.2 1.7.1 2.5-.2.7-.3 1.4-.8 1.8-1.5l1.2-1.8c-.4.4-1 .8-1.6 1.3zm45.9-56.4c-.5.4-1 .7-1.7.8-.5.1-1.1.1-1.7-.1-.6-.2-1-.5-1.4-.9-.6-.6-1.4-1-2.3-1.2-.9-.2-1.7 0-2.5.3-.7.4-1.3.9-1.8 1.6l-1.2 1.8 1.8-1.2c.5-.4 1-.7 1.6-.9.5-.1 1.1-.2 1.7 0 .5.1 1 .4 1.4.8.6.6 1.4 1 2.2 1.2.8.2 1.7.1 2.5-.2.7-.3 1.4-.9 1.8-1.5.4-.6.8-1.1 1.2-1.8-.4.5-.9.9-1.6 1.3zm-206.3-82.4c-.5.4-1 .7-1.6.8-.6.1-1.1.1-1.7-.1-.5-.2-1-.5-1.4-.9-.6-.6-1.4-1-2.3-1.2-.9-.2-1.7 0-2.5.3-.7.4-1.3.9-1.8 1.6-.4.6-.9 1.2-1.2 1.8.7-.4 1.2-.8 1.8-1.2.5-.4 1-.7 1.6-.9.5-.1 1.1-.1 1.7 0 .5.1 1 .4 1.4.8.6.6 1.4 1 2.2 1.2.8.2 1.7.1 2.5-.2.7-.3 1.4-.9 1.8-1.5.4-.6.8-1.1 1.2-1.8-.5.5-1.1.9-1.7 1.3zM412.8 901c-.6-.2-1.1-.6-1.5-1.1-.4-.4-.6-1-.7-1.5-.1-.6 0-1.1.1-1.7.3-.8.3-1.7 0-2.5-.2-.8-.7-1.6-1.4-2.1-.6-.5-1.4-.8-2.2-.9l-2.1-.3c.6.4 1.2.7 1.8 1.1.6.2 1.1.6 1.5 1.1.4.4.6.9.7 1.5.1.5.1 1.1-.1 1.7-.3.8-.3 1.7-.1 2.5.2.8.7 1.6 1.3 2.1.6.5 1.4.9 2.2 1l2.1.3c-.3-.5-1-.8-1.6-1.2zm-88.3 13c-.2.6-.6 1.1-1 1.5s-.9.6-1.5.8c-.5.1-1.1.1-1.7-.1-1.7-.5-3.6-20.8-4.6-19.4-.5.7-.7 1.4-.8 2.2 0 .7-.2 1.4-.2 2.2.4-.6.7-1.3 1-1.9.2-.6.6-1.1 1-1.6.4-.4.9-.7 1.4-.8s1.1-.2 1.7 0c1.6.5 3.6 21 4.6 19.6.5-.6.8-1.4.9-2.2 0-.7.1-1.4.2-2.2-.4.6-.7 1.3-1 1.9z"/><path class="st22" d="M454.5 523.9c4.3-.1 8.5-1.4 12.1-3.9 3.5-2.5 6.3-5.9 7.9-9.9 1.6-4 1.9-8.4 1-12.6-.9-4.2-3.1-8.1-6.2-11.1s-7-5-11.3-5.8c-4.3-.8-8.6-.3-12.6 1.5-4 1.7-7.3 4.6-9.7 8.2-2.3 3.6-3.6 7.9-3.5 12.2 0 2.9.7 5.7 1.8 8.3 1.1 2.6 2.8 5 4.9 7s4.5 3.6 7.2 4.6c2.6 1 5.5 1.6 8.4 1.5z"/><path class="st20" d="M455.3 485.9s24.7 95.9-24.7 103.3c-42.7 6.4-48.6-60.1-48.6-60.1l1.3-43.4 72 .2z"/><path class="st22" d="m452.6 492-43.6 4c-1.3.1-2.6.5-3.7 1.1-2.3 1.2-4.1 3.3-4.8 5.8-.4 1.2-.5 2.6-.4 3.8.2 2.6-.6 5.2-2.3 7.3-1.7 2-4.1 3.3-6.7 3.5-.4 0-.7.1-1 .3-.3.2-.6.4-.8.7s-.4.6-.5.9c-.1.3-.1.7-.1 1l.9 9.6c.1.6-.1 1.2-.5 1.6-.4.5-.9.7-1.5.8-.5.1-1.1-.1-1.5-.4-.4-.3-.7-.8-.9-1.3l-2.1-9.2-2-3-10.2 6.6s-17.2-25.4-9.6-48.9c4.3-13.4 17.5-18.4 23.7-19.2 1-.1 2-.5 2.8-1.1.8-.6 1.5-1.3 2-2.2 2.4-4.4 8.6-11.9 22.3-11.7 3.9-.1 7.7.9 11.2 2.7 3.5 1.8 6.4 4.5 8.5 7.7.9 1.3 2.2 2.3 3.8 2.7 1.5.4 3.2.3 4.6-.4 2.9-1.4 6.2-2.1 9.4-1.9 3.2.2 6.4 1.2 9.1 3 14.4 8.7 9.1 33.5-6.1 36.2z"/><path class="st10" d="M380.2 547.4c.8.1 1.6.1 2.4-.2.8-.2 1.5-.6 2-1.2l-4.9 10.6.5-9.2z"/><path class="st20" d="M384.5 523s-1.9-9.4-11.8-6.7c-11.3 3.1-12.7 27.7 5.1 31.7 9.4 2.1 8.2-3.6 7.7-11.1l-1-13.9z"/><path class="st10" d="M371.3 522.5c.8-.5 1.7-.8 2.6-.9.9-.1 1.9 0 2.7.3.9.3 1.7.8 2.3 1.5.6.7 1.1 1.5 1.4 2.4.9 2.2 1.2 4.5.8 6.9l-.1 2.1c-.1.2-.3.4-.5.6-.2.1-.5.2-.7.1-.2 0-.5-.1-.7-.3s-.3-.4-.3-.6l.1-2.1c.2-1.9 0-3.9-.7-5.8-.1-.6-.4-1.2-.9-1.7-.4-.5-.9-.8-1.5-1.1-.6-.2-1.2-.3-1.9-.2-.6.1-1.2.3-1.7.7-.3.1-.5.1-.8 0-.3-.1-.5-.3-.6-.6-.1-.3-.1-.5-.1-.8.2-.1.4-.4.6-.5z"/><g class="st9"><path class="st10" d="M431 573.8h-.1c-3.8-.9-5.8-1.4-5.8-1.4-.3-.1-.6-.3-.7-.6-.1-.3-.2-.6-.1-1 .1-.3.3-.6.6-.8.3-.2.6-.2 1-.2 0 0 1.9.5 5.7 1.4.2 0 .3.1.5.2.1.1.3.2.3.4.2.3.2.6.2.9-.1.3-.3.6-.5.8-.5.2-.8.3-1.1.3z"/></g><path class="st8" d="m560.6 744.1-46.7 8.7v11.3l49.4-7.8-2.7-12.2z"/><path class="st22" d="M420.8 535.5c.8 0 1.5-.3 2.2-.7.6-.4 1.1-1.1 1.4-1.8.3-.7.3-1.5.2-2.3-.2-.8-.6-1.5-1.1-2-.6-.5-1.3-.9-2-1-.8-.1-1.6 0-2.3.3s-1.3.8-1.7 1.5-.6 1.4-.6 2.2c0 .5.1 1 .3 1.5s.5.9.9 1.3.8.6 1.3.8c.4.2.9.3 1.4.2z"/><path class="st8" d="M422.5 531.2c.2 0 .3-.1.5-.2.1-.1.2-.2.3-.4.1-.2.1-.3 0-.5 0-.2-.1-.3-.2-.4s-.3-.2-.4-.2c-.1 0-.3 0-.5.1s-.3.2-.4.3c-.1.1-.1.3-.1.5 0 .1 0 .2.1.3 0 .1.1.2.2.3.1.1.2.1.3.2h.2z"/><path class="st22" d="M452.1 535c.8 0 1.5-.3 2.2-.7.6-.4 1.1-1.1 1.4-1.8.3-.7.3-1.5.2-2.3-.2-.8-.6-1.5-1.1-2s-1.3-.9-2-1c-.8-.1-1.6 0-2.3.3-.7.3-1.3.8-1.7 1.5-.4.7-.6 1.4-.6 2.2 0 .5.1 1 .3 1.5.2.5.5.9.9 1.3s.8.6 1.3.8c.4.1.9.2 1.4.2z"/><path class="st8" d="M453.8 530.7c.2 0 .3-.1.5-.2.1-.1.2-.2.3-.4.1-.2.1-.3 0-.5 0-.2-.1-.3-.2-.4-.1-.1-.3-.2-.4-.2-.2 0-.3 0-.5.1s-.3.2-.4.3c-.1.1-.1.3-.1.5 0 .1 0 .2.1.3 0 .1.1.2.2.3.1.1.2.1.3.2.1.1 0 0 .2 0z"/><g class="st9"><path class="st10" d="m438 552.6-5.3.5c-.2 0-.4 0-.5-.1-.2-.1-.3-.2-.4-.3-.1-.1-.2-.3-.2-.5v-.6c0-.1.1-.3.2-.4l.3-.3c.1-.1.3-.1.4-.1l5.3-.5c.3 0 .6-.1.9-.3.3-.1.5-.3.7-.6.2-.2.4-.5.4-.8.1-.3.1-.6.1-.9s-.1-.6-.3-.9c-.1-.3-.3-.5-.6-.7-.2-.2-.5-.3-.8-.4-.3-.1-.6-.1-.9-.1h-.5c-.2 0-.3-.1-.4-.2-.1-.1-.2-.2-.3-.4-.1-.1-.1-.3-.1-.4v-.5c0-.1.1-.3.2-.4.1-.1.2-.2.4-.3.1-.1.3-.1.5-.1.6-.1 1.2 0 1.8.2 1.2.4 2.2 1.2 2.8 2.3.3.5.5 1.1.5 1.8.1.6 0 1.2-.2 1.8-.2.6-.5 1.1-.9 1.6s-.9.9-1.4 1.1c-.5.3-1.1.5-1.7.5z"/></g><path class="st22" d="M427.8 523.6c-.3 0-.6-.1-.9-.2-2.1-1.4-4.6-2.1-7.1-2-2.5 0-4.9.8-7 2.3l-.6.3c-.2.1-.4.1-.6 0-.4-.1-.8-.3-1-.6l-.3-.6c-.1-.2-.1-.4 0-.6 0-.2.1-.4.2-.6s.2-.3.4-.5c2.6-1.8 5.6-2.8 8.8-2.9 3.1-.1 6.2.8 8.9 2.6.3.2.5.4.6.8.1.3.1.7 0 1-.1.3-.3.6-.5.8-.3.2-.6.3-.9.4v-.2z"/><path class="st10" d="m270.2 717.2 11.3 197.5h68.3l-10.2-101.3-69.4-96.2zM522.5 696.4l6.3 140.3c.2 3.9 1.5 7.7 3.7 11 2.3 3.2 5.4 5.8 9 7.3l90.5 38.1-.3 12.4-123.1-38.3 8.7-165.6 5.2-5.2zM381 765.5l-43.1-83.1c-.4-.8-1-1.3-1.8-1.6-.8-.3-1.6-.3-2.4 0l-9.7 4.4 38.6 101 8-2.8 1.1 3.3 101.4-43.4 3.5-9.5-95.6 31.7z"/><path class="st22" d="M459.8 523.1c-.3 0-.6-.1-.9-.3-2.1-1.4-4.6-2.1-7.1-2-2.5 0-4.9.8-7 2.3-.3.3-.8.4-1.2.3-.2 0-.4-.1-.6-.2-.2-.1-.3-.2-.5-.4-.2-.3-.4-.7-.3-1.2 0-.2.1-.4.2-.6.1-.2.2-.3.4-.5 2.6-1.8 5.6-2.8 8.8-2.9 3.2-.1 6.2.8 8.9 2.6.3.2.5.5.6.8.1.3.1.7 0 1-.1.3-.3.6-.5.8-.3.2-.6.3-.9.4l.1-.1z"/><path class="st17" d="m332 677.4 32.5 69.7-67.4 27.7-27.8-62 62.7-35.4z"/><path class="st8" d="M423.1 558h-.3c-.1 0-.2.1-.2.1l-.2.2c0 .1-.1.2-.1.2v.3c.4 2 1.3 3.8 2.6 5.2 1.4 1.5 3.1 2.5 5 3s4 .4 5.8-.2c1.9-.6 3.6-1.7 4.9-3.3.1-.1.1-.2.2-.3v-.3c0-.1-.1-.2-.2-.3-.1-.1-.2-.1-.3-.2l-17.2-4.4zM364.7 615.8l43.4 53.8 16.9-23.8 26.7 17.8 6.7-50.3-7.4-2.2-26 33.8-48.5-33.8-11.8 4.7z"/><path class="st20" d="M545.5 689.1c.3-3.2-4-5.7-6.5-3.6l-34.7 24.2 2.6-1.1c2.9-9.4-2.6-12.1-2.6-12.1l-16.5 15.6-14.8 25.3-1.9 1.8-96 40.7-15.9-36.5-57.2 27.1 31.1 64.9c1.5 3.1 3.6 5.9 6.3 8.1 2.6 2.2 5.7 3.9 9.1 4.9 3.3 1 6.8 1.2 10.3.8 3.4-.5 6.7-1.7 9.7-3.5l126.3-78.3c13.5-2.6 19.3-3.5 27.9-14.3l10.1-8.8c1.9-1.2 1.9-5.5-1.6-7.3-2.2-1.1-2-3.1-2-5.6 0-.9-.2-1.7-.5-2.5-.4-.8-.9-1.5-1.6-2-1.7-1.2-2.8-2.9-3.2-4.9-.8-3.8-3-5.8-7.3-5.8 1.5.1 30.5-25.7 28.9-27.1z"/><path class="st10" d="m499.3 760.8-8.9 1.5-116.2 63.3c-35 18.7-46.3-1.1-47.6-3.6l6.5 13.5c1.5 3.1 3.6 5.9 6.3 8.1 2.6 2.2 5.7 3.9 9.1 4.9 3.3 1 6.8 1.2 10.3.8 3.4-.5 6.7-1.7 9.7-3.5l126.3-78.3c12.3-3.1 16-1.5 24.6-10.8l3.2-3.5 8.1-7.1 2.1-2-11.7 8c-6.4 4.5-13.9 7.4-21.8 8.7zM503.4 710.3l3.7-2.6c1-3.8.6-6.4-.2-8.2 1 5.7-3.5 10.8-3.5 10.8z"/><path class="st8" d="m291.8 763.1 67.3-27.5 5.9 11.9-67.4 27.7-5.8-12.1z"/><path class="st21" d="M319.6 735.5c-.5.4-1 .7-1.6.8-.6.1-1.1.1-1.7-.1-.5-.2-1-.5-1.4-.9-.6-.6-1.4-1-2.3-1.2-.9-.2-1.7 0-2.5.3-.7.3-1.3.9-1.8 1.6l-1.2 1.8 1.8-1.2c.5-.4 1-.7 1.6-.9.5-.1 1.1-.2 1.7 0 .5.1 1 .4 1.5.8.6.6 1.4 1 2.2 1.2.8.2 1.7.1 2.5-.2.7-.3 1.4-.8 1.8-1.5l1.2-1.8c-.6.5-1.1.9-1.8 1.3z"/><path class="st18" d="M528.9 879.7h306.7c1.4 0 2.7.6 3.7 1.5 1 1 1.6 2.3 1.6 3.7v4c0 1.4-.6 2.7-1.6 3.7s-2.3 1.6-3.7 1.6H528.9c-1.3 0-2.6-.5-3.5-1.5-.9-.9-1.5-2.2-1.5-3.5v-4.7c0-1.3.6-2.5 1.5-3.5 1-.7 2.2-1.3 3.5-1.3z"/><path class="st6" d="M528.9 879.7h306.7c1.4 0 2.7.6 3.7 1.5 1 1 1.6 2.3 1.6 3.7v4c0 1.4-.6 2.7-1.6 3.7s-2.3 1.6-3.7 1.6H528.9c-1.3 0-2.6-.5-3.5-1.5-.9-.9-1.5-2.2-1.5-3.5v-4.7c0-1.3.6-2.5 1.5-3.5 1-.7 2.2-1.3 3.5-1.3z"/><path class="st18" d="M838 880.1H662.7l65.3-130h175.2l-65.2 130z"/><path class="st6" d="M838 880.1H662.7l65.3-130h175.2l-65.2 130z"/><path class="st18" d="M529.6 879.3h132.9c1.2 0 2.3.5 3.1 1.3.8.8 1.3 2 1.3 3.1v5.6c0 1.2-.5 2.3-1.3 3.2-.8.8-2 1.3-3.1 1.3H529.6c-1.3 0-2.6-.5-3.5-1.5-.9-.9-1.5-2.2-1.5-3.5v-4.7c0-1.3.6-2.5 1.5-3.5.9-.8 2.2-1.3 3.5-1.3z"/><path class="st18" d="m663.5 881.6-5.7-2.3 65.3-129.2h6.5l-66.1 131.5z"/><g class="st5"><path class="st6" d="M835 879.7H668.8c-.3 0-.5-.1-.7-.3-.2-.2-.3-.4-.3-.7 0-.3.1-.5.3-.7s.4-.3.7-.3H835c.3 0 .5.1.7.3s.3.4.3.7c0 .3-.1.5-.3.7-.2.2-.4.3-.7.3z"/></g><path class="st3" d="M792.4 830.4c5.9-8.1 6.4-17.8 1.2-21.7-5.2-3.9-14.3-.3-20.2 7.8-5.9 8.1-6.4 17.8-1.2 21.7 5.2 3.9 14.3.3 20.2-7.8z"/><path class="st2" d="M1089.5 894.5H138.3c-6.1 0-11 4.9-11 11v1.8c0 6.1 4.9 11 11 11h951.3c6.1 0 11-4.9 11-11v-1.8c-.1-6.1-5-11-11.1-11z"/><path class="st2" d="M1055.6 917.9H172.3v20.6h883.3v-20.6z"/><path class="st6" d="M1055 918.3H171.7v8.3H1055v-8.3z"/><path d="M1149.8 939.8H70.4c-.2 0-.5 0-.7-.1l-.6-.3c-.2-.2-.3-.3-.4-.6-.1-.2-.1-.4-.1-.7 0-.2 0-.5.1-.7.1-.2.2-.4.4-.6.2-.1.4-.3.6-.3.2-.1.4-.1.7-.1h1079.4c.2 0 .5 0 .7.1l.6.3c.2.2.3.4.4.6s.1.4.1.7c0 .2 0 .5-.1.7-.1.2-.2.4-.4.6-.2.2-.4.3-.6.3-.2.1-.5.2-.7.1z" style="fill:#9ca3af"/><path class="st17" d="M793.8 350.6c-.7-2.2-1.2-4.6-1.5-6.9-.6-4.6-.7-9.2-.3-13.9.2-2.4.6-4.7 1.3-7 .7 2.2 1.2 4.6 1.5 6.9.6 4.6.7 9.2.3 13.9-.3 2.4-.7 4.7-1.3 7zM730.5 368.3c-1.8-1.6-3.3-3.3-4.8-5.2-2.8-3.7-5.2-7.7-7.2-11.9-1-2.1-1.8-4.4-2.4-6.7 1.8 1.6 3.3 3.3 4.8 5.2 1.4 1.8 2.7 3.8 3.9 5.7 1.2 2 2.3 4 3.2 6.1 1.1 2.3 1.9 4.5 2.5 6.8zM684.6 415.2c-2.3-.5-4.6-1.2-6.7-2.1-2.1-.9-4.2-1.9-6.2-3s-4-2.3-5.9-3.7c-1.9-1.4-3.7-2.9-5.4-4.6 2.3.5 4.6 1.2 6.7 2.1 4.3 1.8 8.3 4 12.1 6.7 1.9 1.4 3.7 2.9 5.4 4.6zM668.2 478.8c-2.2.7-4.6 1.2-6.9 1.5-4.6.6-9.2.7-13.9.3-2.4-.2-4.7-.6-7-1.3 2.2-.7 4.6-1.2 6.9-1.5 4.6-.6 9.2-.7 13.8-.3 2.5.2 4.8.7 7.1 1.3zM685.9 542.1c-1.6 1.7-3.3 3.3-5.2 4.8-1.8 1.4-3.8 2.7-5.7 3.9-2 1.2-4 2.3-6.1 3.3-2.1 1-4.4 1.8-6.7 2.4 1.6-1.8 3.3-3.3 5.2-4.8 1.8-1.4 3.8-2.7 5.7-3.9 2-1.2 4-2.3 6.1-3.3 2.1-1.1 4.4-1.9 6.7-2.4zM905.6 539.8c2.3.5 4.6 1.2 6.7 2.1 2.1.9 4.2 1.9 6.3 3 2 1.1 4 2.3 5.9 3.7 1.9 1.3 3.7 2.9 5.4 4.6-2.3-.5-4.6-1.2-6.7-2.1-2.1-.9-4.2-1.9-6.2-3s-4-2.3-5.9-3.6c-2-1.5-3.9-3-5.5-4.7zM921.9 476.2c2.3-.7 4.6-1.2 6.9-1.5 2.3-.3 4.6-.5 6.9-.5 2.3-.1 4.6 0 6.9.3 2.4.2 4.7.6 7 1.3-2.3.7-4.6 1.2-6.9 1.5-2.3.3-4.6.5-6.9.5-2.3 0-4.6 0-6.9-.3-2.3-.3-4.7-.7-7-1.3zM904.3 412.9c1.6-1.7 3.3-3.3 5.2-4.8 1.8-1.4 3.8-2.7 5.7-3.9 2-1.2 4-2.3 6.1-3.3 2.1-1 4.4-1.8 6.7-2.4-1.6 1.8-3.3 3.3-5.2 4.8-1.8 1.4-3.8 2.7-5.7 3.9-2 1.2-4 2.3-6.1 3.3-2.2 1-4.4 1.8-6.7 2.4zM857.4 367c.5-2.3 1.2-4.6 2.1-6.7s1.9-4.2 3-6.3c1.1-2 2.3-4 3.7-5.9 1.4-1.9 2.9-3.7 4.6-5.4-.5 2.3-1.2 4.6-2.1 6.7-.9 2.1-1.9 4.2-3 6.3-1.1 2-2.3 4-3.7 5.9-1.4 1.9-2.9 3.7-4.6 5.4z"/><g style="opacity:.2"><path class="st19" d="M793.8 350.6c-.7-2.2-1.2-4.6-1.5-6.9-.6-4.6-.7-9.2-.3-13.9.2-2.4.6-4.7 1.3-7 .7 2.2 1.2 4.6 1.5 6.9.6 4.6.7 9.2.3 13.9-.3 2.4-.7 4.7-1.3 7zM730.5 368.3c-1.8-1.6-3.3-3.3-4.8-5.2-2.8-3.7-5.2-7.7-7.2-11.9-1-2.1-1.8-4.4-2.4-6.7 1.8 1.6 3.3 3.3 4.8 5.2 1.4 1.8 2.7 3.8 3.9 5.7 1.2 2 2.3 4 3.2 6.1 1.1 2.3 1.9 4.5 2.5 6.8zM684.6 415.2c-2.3-.5-4.6-1.2-6.7-2.1-2.1-.9-4.2-1.9-6.2-3s-4-2.3-5.9-3.7c-1.9-1.4-3.7-2.9-5.4-4.6 2.3.5 4.6 1.2 6.7 2.1 4.3 1.8 8.3 4 12.1 6.7 1.9 1.4 3.7 2.9 5.4 4.6zM668.2 478.8c-2.2.7-4.6 1.2-6.9 1.5-4.6.6-9.2.7-13.9.3-2.4-.2-4.7-.6-7-1.3 2.2-.7 4.6-1.2 6.9-1.5 4.6-.6 9.2-.7 13.8-.3 2.5.2 4.8.7 7.1 1.3zM685.9 542.1c-1.6 1.7-3.3 3.3-5.2 4.8-1.8 1.4-3.8 2.7-5.7 3.9-2 1.2-4 2.3-6.1 3.3s-4.4 1.8-6.7 2.4c1.6-1.8 3.3-3.3 5.2-4.8 1.8-1.4 3.8-2.7 5.7-3.9 2-1.2 4-2.3 6.1-3.3 2.1-1.1 4.4-1.9 6.7-2.4zM905.6 539.8c2.3.5 4.6 1.2 6.7 2.1 2.1.9 4.2 1.9 6.3 3 2 1.1 4 2.3 5.9 3.7 1.9 1.3 3.7 2.9 5.4 4.6-2.3-.5-4.6-1.2-6.7-2.1-2.1-.9-4.2-1.9-6.2-3s-4-2.3-5.9-3.6c-2-1.5-3.9-3-5.5-4.7zM921.9 476.2c2.3-.7 4.6-1.2 6.9-1.5 2.3-.3 4.6-.5 6.9-.5 2.3-.1 4.6 0 6.9.3 2.4.2 4.7.6 7 1.3-2.3.7-4.6 1.2-6.9 1.5-2.3.3-4.6.5-6.9.5-2.3 0-4.6 0-6.9-.3-2.3-.3-4.7-.7-7-1.3zM904.3 412.9c1.6-1.7 3.3-3.3 5.2-4.8 1.8-1.4 3.8-2.7 5.7-3.9 2-1.2 4-2.3 6.1-3.3 2.1-1 4.4-1.8 6.7-2.4-1.6 1.8-3.3 3.3-5.2 4.8-1.8 1.4-3.8 2.7-5.7 3.9-2 1.2-4 2.3-6.1 3.3-2.2 1-4.4 1.8-6.7 2.4zM857.4 367c.5-2.3 1.2-4.6 2.1-6.7s1.9-4.2 3-6.3c1.1-2 2.3-4 3.7-5.9 1.4-1.9 2.9-3.7 4.6-5.4-.5 2.3-1.2 4.6-2.1 6.7-.9 2.1-1.9 4.2-3 6.3-1.1 2-2.3 4-3.7 5.9s-2.9 3.7-4.6 5.4z"/></g><path class="st1" d="M1019.9 840.4h-64.2v32.3c0 5.7 2.3 11.1 6.3 15.1s9.4 6.3 15.1 6.3h21.1c5.6 0 11-2.2 15-6.2s6.3-9.3 6.3-14.9l.4-32.6z"/><path class="st17" d="M983.5 830.7c-1.6 1.1-3.4 1.7-5.3 1.9-1.9.2-3.8-.2-5.5-1-3.2-1.6-5.4-5.1-5.9-9.3 1.7-.8 3.5-1.3 5.3-1.4 1.8-.1 3.7.2 5.4.9 1.7.8 3.2 1.9 4.4 3.2 1.2 1.4 2.2 3 2.7 4.8M953.8 842.2c-1.6 1.1-3.4 1.7-5.3 1.9-1.9.2-3.8-.2-5.5-1-1.7-.9-3.1-2.3-4.1-3.9-1-1.6-1.6-3.5-1.8-5.4 1.7-.8 3.5-1.3 5.3-1.4 1.8-.1 3.7.2 5.4.9 1.7.8 3.2 1.9 4.4 3.2 1.2 1.4 2.2 3 2.7 4.8M970.5 816.6c-.7 1.7-1.9 3.3-3.4 4.4-1.5 1.2-3.3 1.9-5.1 2.2-1.9.1-3.8-.2-5.6-1-1.8-.8-3.3-2-4.4-3.5.9-1.6 2.1-3 3.6-4.1 1.5-1.1 3.2-1.8 5-2.2 1.8-.3 3.7-.3 5.5.2 1.8.5 3.5 1.3 4.9 2.5M959.7 829.9c1.9-.1 3.8.3 5.5 1.1 1.7.8 3.2 2.1 4.2 3.7 1.9 3 2 7.2.2 11-1.8-.1-3.6-.7-5.3-1.5-1.7-.8-3.1-2.1-4.2-3.6s-1.8-3.2-2.1-5.1c-.3-1.8-.3-3.7.1-5.5M949.2 850.8c.9 1.7 1.3 3.5 1.3 5.4-.1 1.9-.6 3.7-1.6 5.4-1.1 1.6-2.6 2.8-4.3 3.7-1.7.8-3.6 1.2-5.6 1.2-.7-1.7-.9-3.6-.8-5.4.1-1.8.6-3.7 1.5-5.3 1.7-3.1 4.8-4.6 8.6-5.5"/><path class="st17" d="M932 853.2c.7-.7 1.6-1.3 2.6-1.6 1.1-.4 2.3-.6 3.5-.6 1.6 0 3.2.1 4.8.3 2 .3 4 .1 5.9-.5 2.2-.9 3.9-2.6 4.9-4.7 1-2.3 1.7-4.7 2.1-7.2.4-2.6 1.2-5.1 2.5-7.4 1.5-2.1 3.4-4 5.5-5.6 2-1.5 3.8-3.3 5.2-5.3 2.3-3.6 3.3-8 2.6-12.2-.4-2.8-1.5-5.5-3.2-7.8-.5-.6-1-1.2-1.5-1.7-.2-.2-.4-.4-.6-.5.1.2.3.4.5.6.5.6 1 1.1 1.4 1.8 1.6 2.3 2.6 5 2.9 7.8.6 4.1-.4 8.3-2.7 11.8-1.5 2-3.2 3.7-5.2 5.2-2.2 1.6-4 3.5-5.6 5.7-1.3 2.3-2.2 4.9-2.6 7.6-.3 2.4-1 4.8-2 7-.9 2-2.5 3.6-4.5 4.4-1.8.6-3.8.8-5.7.5-1.6-.2-3.2-.2-4.8-.2-1.2 0-2.5.3-3.6.8-.7.3-1.4.7-2 1.3-.1.1-.3.3-.4.5 0-.1 0 0 0 0z"/><path class="st17" d="M932 853.2c.7-.7 1.6-1.3 2.6-1.6 1.1-.4 2.3-.6 3.5-.6 1.6 0 3.2.1 4.8.3 2 .3 4 .1 5.9-.5 2.2-.9 3.9-2.6 4.9-4.7 1-2.3 1.7-4.7 2.1-7.2.4-2.6 1.2-5.1 2.5-7.4 1.5-2.1 3.4-4 5.5-5.6 2-1.5 3.8-3.3 5.2-5.3 2.3-3.6 3.3-8 2.6-12.2-.4-2.8-1.5-5.5-3.2-7.8-.5-.6-1-1.2-1.5-1.7-.2-.2-.4-.4-.6-.5.1.2.3.4.5.6.5.6 1 1.1 1.4 1.8 1.6 2.3 2.6 5 2.9 7.8.6 4.1-.4 8.3-2.7 11.8-1.5 2-3.2 3.7-5.2 5.2-2.2 1.6-4 3.5-5.6 5.7-1.3 2.3-2.2 4.9-2.6 7.6-.3 2.4-1 4.8-2 7-.9 2-2.5 3.6-4.5 4.4-1.8.6-3.8.8-5.7.5-1.6-.2-3.2-.2-4.8-.2-1.2 0-2.5.3-3.6.8-.7.3-1.4.7-2 1.3-.1.1-.3.3-.4.5 0-.1 0 0 0 0zM1056.2 858.2c-.1-2.7.4-5.4 1.6-7.9 1.2-2.5 3-4.6 5.2-6.2 2.2-1.6 4.8-2.6 7.5-3 2.7-.4 5.4 0 8 .9-3.8 8.6-12.9 15.1-22.3 16.2zM1059.8 859.7c3.2 3.5 3.2 10.3.9 14.5-2.3 4.1-6.2 7.1-10.1 9.7-1.3-4.5-1.2-9.3.5-13.6 1.7-4.5 4.7-8.2 8.7-10.6zM1044.7 844.6c-.3 2.5-1 5-2.2 7.2s-2.9 4.2-4.9 5.8c-2 1.6-4.3 2.7-6.8 3.4s-5 .8-7.6.5c1.2-5.1 3.3-10.2 7.2-13.7s10.1-4.8 14.5-1.8M1044.7 837.6c.8-4.6 5.4-6.3 10.1-6.7 4.7-.4 9.3 1.6 13.1 4.4-2.8 3.3-6.8 5.3-11.1 5.7-4.4.5-8.7-.7-12.1-3.4zM1069.5 877.4c4.5 3.8 5.2 12 3.3 17.5-1.9 5.5-6.2 10-11 13.2-1.9-5.5-3-11.4-2.1-17.1 1-5.7 4.5-11.2 9.8-13.6zM1045.1 825.8c-1.1-1.6-2.6-3-4.4-3.9-1.8-.9-3.7-1.5-5.7-1.5-2.1-.1-4.2.3-6.1 1.1s-3.7 2.1-5 3.6c.9 2 2.4 3.7 4.3 5 1.9 1.3 4 1.9 6.2 2 2.2.1 4.4-.5 6.3-1.6 1.9-1.1 3.4-2.8 4.4-4.7zM1040 813c2.4.7 4.9.9 7.4.6s4.9-1.2 7-2.5c2.2-1.3 4-3.1 5.4-5.1 1.4-2.1 2.4-4.4 2.8-6.9-3.6-.4-7.2-.4-10.7.2-3.6.5-6.9 2.2-9.5 4.7-1.2 1.2-2 2.6-2.4 4.2-.4 1.5-.4 3.2 0 4.8zM1029.6 809.2c1.7-1.4 3-3.1 3.9-5 .9-1.9 1.4-4.1 1.4-6.2 0-2.1-.5-4.3-1.4-6.2-.9-1.9-2.2-3.7-3.9-5-3.2 3.9-5.4 8.6-6.4 13.5-.4 1.8-.4 3.8.1 5.6.3.9.8 1.7 1.4 2.4.7.6 1.6 1.1 2.5 1.3"/><g class="st25"><g class="st25"><path class="st26" d="M1044.7 844.6c-.3 2.5-1 5-2.2 7.2s-2.9 4.2-4.9 5.8c-2 1.6-4.3 2.7-6.8 3.4s-5 .8-7.6.5c1.2-5.1 3.3-10.2 7.2-13.7s10.1-4.8 14.5-1.8"/></g></g><g class="st25"><g class="st25"><g class="st25"><g class="st25"><path class="st26" d="M1040 813c2.4.7 4.9.9 7.4.6s4.9-1.2 7-2.5c2.2-1.3 4-3.1 5.4-5.1 1.4-2.1 2.4-4.4 2.8-6.9-3.6-.4-7.2-.4-10.7.2-3.6.5-6.9 2.2-9.5 4.7-1.2 1.2-2 2.6-2.4 4.2-.4 1.5-.4 3.2 0 4.8z"/></g></g></g></g><path class="st17" d="M1012 842.1v-.4c0-.3 0-.6-.1-1.1-.1-.9-.1-2.3-.2-4.1-.2-5 .6-10 2.4-14.7 1.3-3.2 3.3-6.1 5.9-8.3 3-2.6 6.8-4.1 10.8-4 2.1 0 4.2.5 6.1 1.5 2 1 3.6 2.6 4.7 4.5 2.3 3.9 2.9 8.8 2.7 13.5-.2 4.8-.9 9.6-.3 14.3.2 2.3.8 4.5 1.8 6.6.9 2 2.3 3.8 4 5.2 1.7 1.2 3.6 2.2 5.6 2.8 1.8.6 3.6 1.4 5.2 2.4 2.9 1.8 5.3 4.4 6.9 7.5 1.3 2.5 2 5.3 2 8.2 0 2.2-.3 4.3-1 6.3-.6 1.7-1.4 3.4-2.5 4.9 0 0 .1-.1.2-.3l.6-.9c.8-1.2 1.4-2.4 1.9-3.7.8-2.1 1.1-4.2 1.2-6.4 0-2.9-.6-5.8-1.9-8.4-1.6-3.2-4-5.9-7-7.8-3.2-2.1-7.4-2.7-10.7-5.2-3.3-2.6-5-7-5.5-11.4-.5-4.5.2-9.3.3-14.1.2-4.9-.4-9.9-2.8-13.9-1.2-2-2.9-3.6-5-4.7-2-1-4.2-1.6-6.4-1.6-4.1-.1-8.1 1.4-11.2 4.2-2.6 2.4-4.7 5.3-6 8.6-1.1 2.7-1.7 5.5-2 8.4-.2 2.2-.3 4.4-.2 6.5.1 1.8.2 3.2.3 4.1 0 .4.1.8.1 1.1.1.2.1.3.1.4z"/><g class="st25"><g class="st25"><g class="st25"><path d="M1012 842.1v-.4c0-.3 0-.6-.1-1.1-.1-.9-.1-2.3-.2-4.1-.2-5 .6-10 2.4-14.7 1.3-3.2 3.3-6.1 5.9-8.3 3-2.6 6.8-4.1 10.8-4 2.1 0 4.2.5 6.1 1.5 2 1 3.6 2.6 4.7 4.5 2.3 3.9 2.9 8.8 2.7 13.5-.2 4.8-.9 9.6-.3 14.3.2 2.3.8 4.5 1.8 6.6.9 2 2.3 3.8 4 5.2 1.7 1.2 3.6 2.2 5.6 2.8 1.8.6 3.6 1.4 5.2 2.4 2.9 1.8 5.3 4.4 6.9 7.5 1.3 2.5 2 5.3 2 8.2 0 2.2-.3 4.3-1 6.3-.6 1.7-1.4 3.4-2.5 4.9 0 0 .1-.1.2-.3l.6-.9c.8-1.2 1.4-2.4 1.9-3.7.8-2.1 1.1-4.2 1.2-6.4 0-2.9-.6-5.8-1.9-8.4-1.6-3.2-4-5.9-7-7.8-3.2-2.1-7.4-2.7-10.7-5.2-3.3-2.6-5-7-5.5-11.4-.5-4.5.2-9.3.3-14.1.2-4.9-.4-9.9-2.8-13.9-1.2-2-2.9-3.6-5-4.7-2-1-4.2-1.6-6.4-1.6-4.1-.1-8.1 1.4-11.2 4.2-2.6 2.4-4.7 5.3-6 8.6-1.1 2.7-1.7 5.5-2 8.4-.2 2.2-.3 4.4-.2 6.5.1 1.8.2 3.2.3 4.1 0 .4.1.8.1 1.1.1.2.1.3.1.4z" style="opacity:.4;fill:#21252b;enable-background:new" class="st25"/></g></g></g><path class="st22" d="M917.6 830.6c-.6-1.5-1-3.1-1-4.8 0-1.9.4-3.8 1.3-5.5.9-1.8 2.3-3.2 3.9-4.3 1.7-1.1 3.5-1.7 5.5-1.9 1.6-.1 3.1.1 4.7.5 3.2.8 6.3 2.6 10.1 3.4 1.9.4 3.9.4 5.8-.1 2-.7 3.7-2 4.8-3.8 2.3-3.5 2.9-7.9 5.6-11.2 1.4-1.6 3.1-2.7 5.1-3.3 1.9-.6 4-.8 6-.6 3.8.4 7.4 2.3 9.9 5.2 2.3 2.6 4 5.8 4.9 9.1.9 2.9 1.2 6 1.1 9-.3 4.4-.8 8.9-1.7 13.3-.3 1.5-.5 2.7-.6 3.6 0 .4-.1.7-.1.9v.3c0-.1.1-.2.1-.3 0-.3.1-.5.2-.9.2-.9.4-2.1.8-3.6 1-4.4 1.6-8.8 1.9-13.3.2-3.1-.2-6.2-1-9.2-.9-3.5-2.6-6.7-5-9.4-1.3-1.5-2.8-2.7-4.6-3.6-1.8-1-3.8-1.6-5.9-1.8s-4.2 0-6.2.6c-2.1.6-4 1.9-5.4 3.6-2.9 3.5-3.5 7.9-5.7 11.2-1 1.7-2.6 2.9-4.4 3.5-1.8.5-3.7.6-5.5.1-3.6-.7-6.8-2.5-10-3.3-1.6-.5-3.2-.6-4.9-.5-1.5.1-3 .5-4.3 1.2-2.1 1-3.8 2.6-5 4.5-1.2 2-1.8 4.2-1.7 6.5 0 1.2.3 2.4.7 3.6.1.4.3.8.6 1.3"/><path class="st17" d="M955.5 807c-1.7 1-3.7 1.7-5.7 1.8s-4-.2-5.9-1c-1.7-.9-3.1-2.3-4.1-3.9-1-1.6-1.6-3.5-1.8-5.4 1.6-.9 3.4-1.4 5.3-1.5 1.8-.1 3.7.2 5.4.9 1.7.7 3.2 1.8 4.5 3.2 1.2 1.4 2.2 3 2.7 4.8M943.2 818.2c0 2-.5 4-1.4 5.8-.9 1.8-2.3 3.3-3.9 4.5-1.7.9-3.6 1.4-5.5 1.5-1.9 0-3.8-.4-5.5-1.3.1-1.8.7-3.6 1.6-5.3.9-1.6 2.1-3.1 3.6-4.2 1.5-1 3.2-1.8 5.1-2.1 1.8-.3 3.7-.3 5.5.2M921.9 815.7c-1.8.9-3.8 1.3-5.8 1.2-2-.1-4-.6-5.7-1.6-3-1.9-4.8-5.7-4.9-9.9 1.7-.7 3.6-1 5.4-.9 1.9.1 3.7.6 5.3 1.5 1.6.9 3 2.1 4.1 3.6 1.1 1.5 1.8 3.2 2.1 5.1M973.4 799.7c3.1-2.7 5.2-7.4 4.6-10.9-.4-1.9-1.3-3.6-2.5-5.1-1.3-1.5-2.8-2.6-4.6-3.3-1.3 1.3-2.3 2.9-3 4.6-.6 1.7-.9 3.6-.7 5.5.2 1.8.8 3.6 1.7 5.2 1 1.6 2.3 3 3.8 4M1000.1 804.6c-2.3.1-4.6-.3-6.7-1.2s-4.1-2.2-5.6-3.9c-1.4-1.7-2.5-3.7-3-5.9-.6-2.2-.6-4.4-.2-6.7 2.4-.5 4.8-.4 7.1.3s4.4 2.1 5.9 3.9c1.6 1.8 2.7 4 3.1 6.4.4 2.4.2 4.8-.6 7.1z"/><g class="st15"><g class="st15"><path class="st21" d="M1000.1 804.6c-2.3.1-4.6-.3-6.7-1.2s-4.1-2.2-5.6-3.9c-1.4-1.7-2.5-3.7-3-5.9-.6-2.2-.6-4.4-.2-6.7 2.4-.5 4.8-.4 7.1.3s4.4 2.1 5.9 3.9c1.6 1.8 2.7 4 3.1 6.4.4 2.4.2 4.8-.6 7.1z"/></g></g><path class="st17" d="M1056.6 784.4s0-.1-.1-.3c-.1-.2-.3-.5-.4-.8-.6-1-1.2-2-1.9-2.9-2.5-3.5-5.6-6.5-9.3-8.8-2.5-1.6-5.4-2.6-8.3-3-3.4-.5-6.9-.1-10.1 1.1-3.6 1.3-6.7 3.8-8.7 7.1-2 3.5-2.6 7.5-3.8 11.4-.5 1.9-1.3 3.8-2.4 5.5-1.1 1.6-2.5 2.9-4.1 4-1.6 1.1-3.2 2.2-4.6 3.4-1.4 1.2-2.7 2.5-3.8 4.1-1.9 2.8-3.2 6-3.9 9.4-.6 2.9-.7 5.9-.5 8.8.4 4.3 1.1 8.5 2.3 12.6.4 1.5.7 2.6.9 3.3.1.4.2.8.4 1.2-.1-.4-.1-.8-.2-1.2-.2-.8-.5-2-.8-3.4-1-4.1-1.7-8.3-2-12.5-.2-2.9 0-5.8.6-8.7.6-3.3 1.9-6.4 3.8-9.2 1-1.5 2.3-2.8 3.6-3.9 1.4-1.2 3-2.2 4.6-3.3 1.7-1.1 3.1-2.6 4.3-4.2 1.1-1.8 2-3.7 2.5-5.6 1.2-4 1.8-8 3.7-11.3 1.9-3.2 4.8-5.6 8.3-6.8 3.1-1.2 6.5-1.5 9.8-1.1 2.9.4 5.7 1.4 8.2 2.9 3.6 2.2 6.8 5.1 9.3 8.5.9 1.2 1.6 2.2 2 2.8.2.2.4.5.6.9z"/><path class="st17" d="M1006.7 799.1c2.2.1 4.3.7 6.1 1.9 2.5 2 4.3 4.8 5.2 7.8.9 3.1 1 6.3.1 9.4-2.3.1-4.6-.4-6.6-1.5s-3.8-2.7-5-4.6c-2.4-3.9-2.1-9.1.2-13z"/><g class="st15"><g class="st15"><path class="st21" d="M1006.7 799.1c2.2.1 4.3.7 6.1 1.9 2.5 2 4.3 4.8 5.2 7.8.9 3.1 1 6.3.1 9.4-2.3.1-4.6-.4-6.6-1.5s-3.8-2.7-5-4.6c-2.4-3.9-2.1-9.1.2-13z"/></g></g><path class="st17" d="M1049.7 778.6c.6-1.4 1.3-1 2.7-1.3s2.9-.3 4.3.1c3.1.8 5.9 2.4 8.1 4.8 2.2 2.4 3.6 5.3 4.1 8.4-2 1.1-4.3 1.6-6.6 1.5-2.3-.1-4.6-.8-6.5-2.1-1.9-1.3-3.5-3-4.5-5.1-1-2.1-1.5-4.4-1.3-6.7M996 825.8c1.5-1.7 3.3-3 5.4-3.9s4.3-1.3 6.5-1.2c2.2.1 4.4.7 6.4 1.8s3.7 2.6 4.9 4.4c-3.3 3-7.6 4.7-12 4.8-4.5-.1-8.8-1.9-12.1-4.9M1015.1 781.7c-2.1.8-4.3 1.1-6.6.9-2.2-.2-4.4-.9-6.3-2-1.9-1.1-3.6-2.7-4.8-4.5-1.3-1.9-2.1-4-2.4-6.2 2-1.3 4.4-2 6.8-2.1 2.4-.1 4.8.5 6.9 1.7 2.1 1.2 3.9 2.9 5.1 5 1.2 2.1 1.8 4.5 1.8 6.9M1020.3 773.9c2.1-.8 4.4-1.1 6.6-.9 2.2.2 4.4.9 6.3 2 1.9 1.1 3.6 2.7 4.8 4.6 1.3 1.9 2.1 4 2.4 6.2-2 1.3-4.4 2-6.8 2.1-2.4.1-4.8-.5-6.9-1.7-2.1-1.2-3.9-2.9-5.1-5-1.2-2.1-1.8-4.5-1.8-6.9M1026.5 769.8c-2.1-.7-4.1-1.9-5.7-3.5-1.6-1.6-2.8-3.5-3.6-5.6-.8-2.1-1-4.4-.8-6.6.2-2.2.9-4.4 2.1-6.3 2.4.3 4.7 1.3 6.6 2.8 1.9 1.5 3.4 3.5 4.2 5.7.8 2.2 1.1 4.7.7 7.1-.4 2.4-1.4 4.6-3 6.4M1042.4 770.5c-.8-2.1-1.1-4.4-.8-6.6.2-2.2 1-4.4 2.1-6.3 1.2-1.9 2.8-3.6 4.7-4.8 1.9-1.2 4-2 6.3-2.3 1.3 2.1 1.9 4.4 1.9 6.9 0 2.4-.6 4.8-1.8 6.9-1.2 2.1-3 3.8-5.1 5-2.1 1.2-4.5 1.7-6.9 1.7"/><g class="st15"><g class="st15"><g class="st15"><g class="st15"><g class="st15"><g class="st15"><path class="st21" d="M983.5 830.7c-1.6 1.1-3.4 1.7-5.3 1.9-1.9.2-3.8-.2-5.5-1-3.2-1.6-5.4-5.1-5.9-9.3 1.7-.8 3.5-1.3 5.3-1.4 1.9-.1 3.7.2 5.4.9 1.7.8 3.2 1.9 4.4 3.2 1.2 1.4 2.2 3 2.7 4.8"/></g></g><g class="st15"><g class="st15"><path class="st21" d="M953.8 842.2c-1.6 1.1-3.4 1.7-5.3 1.9s-3.8-.2-5.5-1c-1.7-.9-3.1-2.3-4.1-3.9-1-1.6-1.6-3.5-1.8-5.4 1.7-.8 3.5-1.3 5.3-1.4 1.8-.1 3.7.2 5.4.9 1.7.8 3.2 1.9 4.4 3.2 1.2 1.4 2.2 3 2.7 4.8"/></g></g><g class="st15"><g class="st15"><path class="st21" d="M970.5 816.6c-.7 1.7-1.9 3.3-3.4 4.4-1.5 1.2-3.2 1.9-5.1 2.2-1.9.1-3.8-.2-5.6-1-1.7-.8-3.3-2-4.4-3.5.9-1.6 2.1-3 3.6-4.1 1.5-1.1 3.2-1.8 5-2.2 1.8-.3 3.7-.3 5.5.2 1.8.5 3.5 1.3 4.9 2.5"/></g></g><g class="st15"><g class="st15"><path class="st21" d="M959.7 829.9c1.9-.1 3.8.3 5.5 1.1 1.7.8 3.1 2.1 4.2 3.7 1.9 3 2 7.2.2 11-1.8-.1-3.6-.7-5.3-1.5-1.6-.9-3.1-2.1-4.2-3.6s-1.8-3.2-2.1-5.1c-.3-1.8-.3-3.7.1-5.5"/></g></g><g class="st15"><g class="st15"><path class="st21" d="M949.2 850.8c.9 1.7 1.3 3.5 1.3 5.4-.1 1.9-.6 3.7-1.6 5.4-1.1 1.6-2.6 2.8-4.3 3.7-1.7.8-3.6 1.2-5.6 1.2-.7-1.7-.9-3.6-.8-5.4.1-1.8.6-3.7 1.5-5.3 1.7-3.1 4.8-4.6 8.6-5.5"/></g></g></g></g><g class="st15"><g class="st15"><g class="st15"><g class="st15"><path class="st21" d="M932 853.2c.7-.7 1.6-1.3 2.6-1.6 1.1-.4 2.3-.6 3.5-.6 1.6 0 3.2.1 4.8.3 2 .3 4 .1 5.9-.5 2.2-.9 3.9-2.6 4.9-4.7 1-2.3 1.7-4.7 2.1-7.2.4-2.6 1.2-5.1 2.5-7.4 1.5-2.1 3.4-4 5.5-5.6 2-1.5 3.8-3.3 5.2-5.3 2.3-3.6 3.3-8 2.6-12.2-.4-2.8-1.5-5.5-3.2-7.8-.5-.6-1-1.2-1.5-1.7-.2-.2-.4-.4-.6-.5.1.2.3.4.5.6.5.6 1 1.1 1.4 1.8 1.6 2.3 2.6 5 2.9 7.8.6 4.1-.4 8.3-2.7 11.8-1.5 2-3.2 3.7-5.2 5.2-2.2 1.6-4 3.5-5.6 5.7-1.3 2.3-2.2 4.9-2.6 7.6-.3 2.4-1 4.8-2 7-.9 2-2.5 3.6-4.5 4.4-1.8.6-3.8.8-5.7.5-1.6-.2-3.2-.2-4.8-.2-1.2 0-2.5.3-3.6.8-.7.3-1.4.7-2 1.3-.1.1-.3.3-.4.5 0-.1 0 0 0 0z"/></g></g></g></g><g class="st15"><g class="st15"><g class="st15"><g class="st15"><path class="st28" d="M932 853.2c.7-.7 1.6-1.3 2.6-1.6 1.1-.4 2.3-.6 3.5-.6 1.6 0 3.2.1 4.8.3 2 .3 4 .1 5.9-.5 2.2-.9 3.9-2.6 4.9-4.7 1-2.3 1.7-4.7 2.1-7.2.4-2.6 1.2-5.1 2.5-7.4 1.5-2.1 3.4-4 5.5-5.6 2-1.5 3.8-3.3 5.2-5.3 2.3-3.6 3.3-8 2.6-12.2-.4-2.8-1.5-5.5-3.2-7.8-.5-.6-1-1.2-1.5-1.7-.2-.2-.4-.4-.6-.5.1.2.3.4.5.6.5.6 1 1.1 1.4 1.8 1.6 2.3 2.6 5 2.9 7.8.6 4.1-.4 8.3-2.7 11.8-1.5 2-3.2 3.7-5.2 5.2-2.2 1.6-4 3.5-5.6 5.7-1.3 2.3-2.2 4.9-2.6 7.6-.3 2.4-1 4.8-2 7-.9 2-2.5 3.6-4.5 4.4-1.8.6-3.8.8-5.7.5-1.6-.2-3.2-.2-4.8-.2-1.2 0-2.5.3-3.6.8-.7.3-1.4.7-2 1.3-.1.1-.3.3-.4.5 0-.1 0 0 0 0z"/></g></g></g></g></g></g><g class="st15"><g class="st15"><g class="st15"><g class="st15"><path class="st21" d="M1049.7 778.6c.6-1.4 1.3-1 2.7-1.3 1.4-.3 2.9-.3 4.3.1 3.1.8 5.9 2.4 8.1 4.8 2.2 2.4 3.6 5.3 4.1 8.4-2 1.1-4.3 1.6-6.6 1.5-2.3-.1-4.6-.8-6.5-2.1-1.9-1.3-3.5-3-4.5-5.1-1-2.1-1.5-4.4-1.3-6.7"/></g></g><g class="st15"><g class="st15"><path class="st21" d="M996 825.8c1.5-1.7 3.3-3 5.4-3.9s4.3-1.3 6.5-1.2c2.2.1 4.4.7 6.4 1.8s3.7 2.6 4.9 4.4c-3.3 3-7.6 4.7-12 4.8-4.5-.1-8.8-1.9-12.1-4.9"/></g></g><g class="st15"><g class="st15"><path class="st21" d="M1015.1 781.7c-2.1.8-4.3 1.1-6.6.9-2.2-.2-4.4-.9-6.3-2-1.9-1.1-3.6-2.7-4.8-4.5-1.3-1.9-2.1-4-2.4-6.2 2-1.3 4.4-2 6.8-2.1 2.4-.1 4.8.5 6.9 1.7 2.1 1.2 3.9 2.9 5.1 5 1.2 2.1 1.8 4.5 1.8 6.9"/></g></g><g class="st15"><g class="st15"><path class="st21" d="M1020.3 773.9c2.1-.8 4.4-1.1 6.6-.9 2.2.2 4.4.9 6.3 2 1.9 1.1 3.6 2.7 4.8 4.6 1.3 1.9 2.1 4 2.4 6.2-2 1.3-4.4 2-6.8 2.1-2.4.1-4.8-.5-6.9-1.7-2.1-1.2-3.9-2.9-5.1-5-1.2-2.1-1.8-4.5-1.8-6.9"/></g></g><g class="st15"><g class="st15"><path class="st21" d="M1026.5 769.8c-2.1-.7-4.1-1.9-5.7-3.5-1.6-1.6-2.8-3.5-3.6-5.6-.8-2.1-1-4.4-.8-6.6.2-2.2.9-4.4 2.1-6.3 2.4.3 4.7 1.3 6.6 2.8 1.9 1.5 3.4 3.5 4.2 5.7.8 2.2 1.1 4.7.7 7.1-.4 2.4-1.4 4.6-3 6.4"/></g></g><g class="st15"><g class="st15"><path class="st21" d="M1042.4 770.5c-.8-2.1-1.1-4.4-.8-6.6.2-2.2 1-4.4 2.1-6.3 1.2-1.9 2.8-3.6 4.7-4.8s4-2 6.3-2.3c1.3 2.1 1.9 4.4 1.9 6.9 0 2.4-.6 4.8-1.8 6.9-1.2 2.1-3 3.8-5.1 5-2.1 1.2-4.5 1.7-6.9 1.7"/></g></g><g class="st15"><g class="st15"><g class="st15"><g class="st15"><path class="st28" d="M1056.6 784.4s0-.1-.1-.3c-.1-.2-.3-.5-.4-.8-.6-1-1.2-2-1.9-2.9-2.5-3.5-5.6-6.5-9.3-8.8-2.5-1.6-5.4-2.6-8.3-3-3.4-.5-6.9-.1-10.1 1.1-3.6 1.3-6.7 3.8-8.7 7.1-2 3.5-2.6 7.5-3.8 11.4-.5 1.9-1.3 3.8-2.4 5.5-1.1 1.6-2.5 2.9-4.1 4-1.6 1.1-3.2 2.2-4.6 3.4-1.4 1.2-2.7 2.5-3.8 4.1-1.9 2.8-3.2 6-3.9 9.4-.6 2.9-.7 5.9-.5 8.8.4 4.3 1.1 8.5 2.3 12.6.4 1.5.7 2.6.9 3.3.1.4.2.8.4 1.2-.1-.4-.1-.8-.2-1.2-.2-.8-.5-2-.8-3.4-1-4.1-1.7-8.3-2-12.5-.2-2.9 0-5.8.6-8.7.6-3.3 1.9-6.4 3.8-9.2 1-1.5 2.3-2.8 3.6-3.9 1.4-1.2 3-2.2 4.6-3.3 1.7-1.1 3.1-2.6 4.3-4.2 1.1-1.8 2-3.7 2.5-5.6 1.2-4 1.8-8 3.7-11.3 1.9-3.2 4.8-5.6 8.3-6.8 3.1-1.2 6.5-1.5 9.8-1.1 2.9.4 5.7 1.4 8.2 2.9 3.6 2.2 6.8 5.1 9.3 8.5.9 1.2 1.6 2.2 2 2.8.2.2.4.5.6.9z"/></g></g></g></g></g></g><path class="st1" d="M227.5 894H195c-1.2 0-2.4-.2-3.5-.7s-2.1-1.1-3-2c-.8-.8-1.5-1.8-2-3-.5-1.1-.7-2.3-.7-3.5v-53.4h50.9v53.5c0 2.4-1 4.7-2.8 6.4-1.6 1.7-3.9 2.7-6.4 2.7z"/><path class="st1" d="M244.6 875.7h-8v-3.9h8c1 0 1.9-.4 2.6-1.1.7-.7 1.1-1.6 1.1-2.6v-21.8c0-1-.4-1.9-1.1-2.6-.7-.7-1.6-1.1-2.6-1.1h-8v-3.9h8c2 0 3.9.8 5.3 2.2 1.4 1.4 2.2 3.3 2.2 5.3V868c0 1-.1 2-.5 2.9-.4.9-.9 1.8-1.6 2.5-.7.7-1.5 1.3-2.4 1.7-1 .4-2 .6-3 .6z"/><path class="st18" d="M240.2 842.6v-3.9h-3.5v-7.5h-11.1v52.6c0 1.1-.2 2.2-.6 3.1-.4 1-1 1.9-1.8 2.7-.8.8-1.7 1.4-2.7 1.8s-2.1.6-3.1.6h-28.1c1.6 1.3 3.6 2 5.7 2h32.6c1.2 0 2.4-.2 3.5-.7 1.1-.5 2.1-1.1 3-2 .8-.8 1.5-1.8 2-3 .5-1.1.7-2.3.7-3.5v-9.2h3.5v-3.9h-3.5v-29.1h3.7-.3z"/><path class="st7" d="M203.2 827.5h-.2c-.1 0-.2-.1-.2-.1-.1-.1-.1-.1-.1-.2v-.2c0-2.3-.9-4.6-2.6-6.2-1.7-1.7-3.9-2.6-6.2-2.6h-4.3c-.9 0-1.8-.1-2.7-.4s-1.6-.8-2.3-1.5c-.7-.6-1.2-1.4-1.5-2.2-.4-.8-.5-1.8-.5-2.7 0-.9.2-1.8.5-2.7.3-.9.9-1.6 1.5-2.2.7-.6 1.4-1.1 2.3-1.5.9-.3 1.8-.5 2.7-.4h24.2c.7 0 1.5-.1 2.2-.4.7-.3 1.3-.7 1.9-1.2.5-.5 1-1.1 1.3-1.8.3-.7.4-1.4.4-2.2 0-.8-.2-1.5-.4-2.2-.3-.7-.7-1.3-1.3-1.8-.5-.5-1.2-.9-1.9-1.2s-1.5-.4-2.2-.4H208c-.9 0-1.8-.2-2.7-.5-.8-.3-1.6-.9-2.3-1.5-.6-.6-1.2-1.4-1.5-2.3-.3-.8-.5-1.7-.5-2.7 0-.2.1-.3.2-.4.1-.1.3-.2.4-.2.2 0 .3.1.4.2.1.1.2.2.2.4 0 .7.1 1.5.4 2.2.3.7.7 1.3 1.2 1.8s1.2.9 1.8 1.2c.7.3 1.4.4 2.2.4h5.8c1.8 0 3.5.7 4.8 2 1.3 1.3 2 3 2 4.8s-.7 3.5-2 4.8c-1.3 1.3-3 2-4.8 2h-24.2c-1.5 0-2.9.6-3.9 1.6s-1.6 2.5-1.6 3.9c0 1.5.6 2.9 1.6 3.9s2.5 1.6 3.9 1.6h4.3c2.7 0 5.2 1.1 7.1 3 1.9 1.9 3 4.5 3 7.1v.2c0 .1-.1.1-.1.2-.1.1-.1.1-.2.1-.2.3-.2.3-.3.3zM217.2 831.4h-.2c-.1 0-.2-.1-.2-.1-.1-.1-.1-.1-.1-.2v-1.7c0-.5-.2-1-.6-1.4s-.9-.6-1.4-.6c-.4 0-.9-.1-1.3-.2-.4-.2-.8-.4-1.1-.7-.3-.3-.5-.7-.7-1.1-.2-.4-.2-.8-.2-1.3v-2.7c0-.4.1-.9.2-1.3.2-.4.4-.8.7-1.1.3-.3.7-.5 1.1-.7s.8-.2 1.3-.2h4c2.7 0 5.2-1.1 7.1-2.9 1.9-1.9 2.9-4.4 2.9-7.1v-4.9c0-.2.1-.3.2-.4.1-.1.3-.2.4-.2.2 0 .3.1.4.2.1.1.2.3.2.4v4.8c0 3-1.2 5.8-3.3 7.9-2.1 2.1-5 3.3-7.9 3.3h-4c-.5 0-1 .2-1.4.6-.4.4-.6.9-.6 1.4v2.7c0 .5.2 1 .6 1.4.4.4.9.6 1.4.6.4 0 .9.1 1.3.2.4.2.8.4 1.1.7.3.3.5.7.7 1.1.2.4.2.8.2 1.3v1.5c0 .2 0 .4-.2.5-.2 0-.4.1-.6.2z"/></svg>