<svg version="1.1" id="Layer_1" xmlns="http://www.w3.org/2000/svg" x="0" y="0" viewBox="0 0 1187.3 844" style="enable-background:new 0 0 1187.3 844" xml:space="preserve"><style>.st2{fill:#3f4249}.st3{opacity:.3;enable-background:new}.st4{fill:#14b8a6}.st6{fill:#fff}.st8,.st9{fill:#fff;stroke:#fff;stroke-width:.4;stroke-miterlimit:10}.st9{fill:none;stroke-width:1.61;stroke-linecap:round}.st10{fill:#fa898f}.st11{opacity:.15}.st11,.st12{enable-background:new}.st12,.st13{opacity:.2}.st14,.st15{opacity:.8}.st15{fill:#fff;enable-background:new}.st16{fill:#dadddf}.st17,.st18{opacity:.4}.st18{fill:#fff;enable-background:new}.st19{fill:#61656d}.st20{fill:#b2b6bb}.st22{fill:#ddd}.st23{fill:#b1b5ba}</style><path d="M84.9 842.4.6 406.3c-1-6-.8-12.2.7-18.1 1.5-5.9 4.1-11.5 7.8-16.4L278.3 17.7c4.2-5.5 9.6-9.9 15.7-13 6.2-3.1 13-4.7 19.9-4.7h516.5c6.2 0 12.4 1.3 18.1 3.8 5.7 2.5 10.8 6.2 15 10.8l312.1 342.5c4.1 4.5 7.2 9.8 9.2 15.5 2 5.8 2.8 11.8 2.3 17.9L1122 842.2l-1037.1.2z" style="fill:#f9fafb"/><path d="M1177.2 844H39.3c-.4 0-.8-.2-1-.5-.3-.3-.4-.7-.4-1.1 0-.4.1-.8.4-1.1.3-.3.6-.5 1-.5h1137.9c.4 0 .8.2 1 .5.3.3.4.7.4 1.1 0 .4-.1.8-.4 1.1-.2.3-.6.5-1 .5z" style="fill:#9ca3af"/><path class="st2" d="M532.9 163.8h260.7c10.8 0 21.1 4.3 28.8 11.9 7.6 7.6 11.9 18 11.9 28.8v595.8c0 10.8-4.3 21.1-11.9 28.8-7.6 7.6-18 11.9-28.8 11.9H526.7c-5.6 0-11-2.2-14.9-6.2-4-4-6.2-9.3-6.2-14.9V191.1c0-7.2 2.9-14.2 8-19.3 5.1-5.1 12-8 19.3-8z"/><path class="st3" d="M532.9 163.8h260.7c10.8 0 21.1 4.3 28.8 11.9 7.6 7.6 11.9 18 11.9 28.8v595.8c0 10.8-4.3 21.1-11.9 28.8-7.6 7.6-18 11.9-28.8 11.9H531.7c-3.4 0-6.8-.7-10-2s-6-3.2-8.5-5.7c-2.4-2.4-4.3-5.3-5.7-8.5-1.3-3.2-2-6.6-2-10V191.1c0-7.2 2.9-14.2 8-19.3 5.2-5.1 12.1-8 19.4-8z"/><path class="st4" d="M808.1 173.2H499.7v651h308.4v-651z"/><path d="M808.1 173.2H499.7v651h308.4v-651z" style="opacity:.7;fill:#fff;enable-background:new"/><path class="st4" d="M802.2 175.8H503.5v76h298.6v-76zM802.1 775.8H503.5v52.8h298.6v-52.8z"/><path class="st2" d="M779 821.4H526.7c-12.7 0-23-9.8-23-21.9V203.7c0-12.1 10.3-21.9 23-21.9h45.4c2.7 0 5.3.8 7.4 2.3 2.2 1.5 3.8 3.7 4.7 6.2l2.1 6.3c.9 2.5 2.5 4.7 4.7 6.2s4.8 2.3 7.4 2.3h108.9c2.6 0 5.2-.7 7.4-2.3 2.2-1.5 3.8-3.7 4.7-6.2l2.1-6.3c.9-2.5 2.5-4.7 4.7-6.2s4.8-2.3 7.4-2.3H779c12.7 0 23 9.8 23 21.9v595.9c0 12-10.3 21.9-23 21.8zM488.6 194.5v614.9c0 4.1.8 8.1 2.3 11.9 1.6 3.8 3.8 7.2 6.7 10.1 2.9 2.9 6.3 5.2 10.1 6.8 3.8 1.6 7.8 2.4 11.9 2.4h266.5c8.2 0 16.1-3.3 22-9.1 5.8-5.8 9.1-13.7 9.1-22V194.6c0-8.2-3.3-16.1-9.1-22-5.8-5.8-13.7-9.1-22-9.1H519.6c-8.2 0-16.1 3.3-21.9 9.1-5.8 5.8-9.1 13.7-9.1 21.9z"/><path class="st6" d="M774.9 227.8h-20.5c-.1 0-.3-.1-.3-.1-.1-.1-.1-.2-.1-.4 0-.1.1-.3.1-.3.1-.1.2-.1.3-.1h20.5c.1 0 .3.1.4.1.1.1.1.2.1.4 0 .1-.1.3-.1.4-.2-.1-.3 0-.4 0zM774.9 234.5h-20.5c-.1 0-.3-.1-.4-.1-.1-.1-.1-.2-.1-.4 0-.1.1-.3.1-.4.1-.1.2-.1.4-.1h20.5c.1 0 .3.1.4.1.1.1.1.2.1.4 0 .1-.1.3-.1.4-.2.1-.3.1-.4.1zM774.9 241.3h-20.5c-.1 0-.3-.1-.3-.1-.1-.1-.1-.2-.1-.3v-.2c0-.1.1-.1.1-.2 0 0 .1-.1.2-.1H775c.1 0 .3.1.4.1.1.1.1.2.1.4s-.1.3-.1.4c-.3-.1-.4 0-.5 0z"/><path d="m538.1 224.2-7.8 6.8c-.1.1-.2.2-.3.4-.1.1-.1.3-.1.5v11.5c0 .2.1.4.2.5.1.1.3.2.5.2h4.6c.2 0 .4-.1.5-.2.1-.1.2-.3.2-.5v-6c0-.2.1-.4.2-.5.1-.1.3-.2.5-.2h4c.2 0 .4.1.5.2.1.1.2.3.2.5v6c0 .2.1.4.2.5.1.1.3.2.5.2h4.6c.2 0 .4-.1.5-.2.1-.1.2-.3.2-.5v-11.5c0-.2 0-.3-.1-.5-.1-.1-.2-.3-.3-.4l-7.8-6.8c-.2-.2-.5-.3-.8-.3.3 0 0 .1-.2.3z" style="fill:none;stroke:#fff;stroke-width:1.64;stroke-miterlimit:10"/><path class="st8" d="M561.5 793.2h-18.7c-.1 0-.2-.1-.3-.2-.1-.1-.1-.2-.1-.4 0-.1 0-.3.1-.4s.2-.2.3-.2h18.7c.1 0 .2.1.3.2.1.1.1.2.1.4 0 .1 0 .3-.1.4-.1.1-.2.2-.3.2zM561.5 799.5h-18.7c-.1 0-.2-.1-.3-.2-.1-.1-.1-.2-.1-.4s0-.3.1-.4c.1-.1.2-.2.3-.2h18.7c.1 0 .2.1.3.2.1.1.1.2.1.4s0 .3-.1.4c-.1.1-.2.2-.3.2zM561.5 805.8h-18.7c-.1 0-.2-.1-.3-.2-.1-.1-.1-.2-.1-.4s0-.3.1-.4c.1-.1.2-.2.3-.2h18.7c.1 0 .2.1.3.2.1.1.1.2.1.4s0 .3-.1.4c-.1.1-.2.2-.3.2z"/><path class="st9" d="m753.2 791.3 10.1 6.8-10.1 8.4M660.1 795.7v12.1H644v-12.1"/><path class="st9" d="m641.5 797.3 10.5-7.2 10.5 7.2"/><path class="st6" d="m746.9 194.3-.6.6-.3.4c-.8-.8-1.7-1.4-2.7-1.8-1-.4-2.1-.6-3.2-.6s-2.2.2-3.2.6c-1 .4-1.9 1-2.7 1.8l-.3-.3-.6-.6c.3-.2.5-.5.8-.7.5-.4 1.2-.8 1.8-1.1.8-.4 1.6-.6 2.4-.8.4-.1.8-.1 1.2-.2h1c.3 0 .5 0 .8.1 1.3.2 2.5.6 3.7 1.2.5.3 1 .6 1.4 1l.5.4z"/><path class="st6" d="m736 197.2-1-1c1.3-1.3 3.1-2 4.9-2s3.6.7 4.9 2l-1 1c-.5-.5-1.1-.9-1.8-1.2-.7-.3-1.4-.4-2.1-.4-.7 0-1.5.1-2.1.4-.7.3-1.3.7-1.8 1.2z"/><path class="st6" d="m743 198.2-1 1c-.3-.3-.6-.5-.9-.6-.3-.1-.7-.2-1.1-.2-.4 0-.8.1-1.1.2-.3.1-.7.4-.9.6l-1-1c.4-.4.9-.7 1.4-.9.5-.2 1.1-.3 1.6-.3s1.1.1 1.6.3c.5.2 1 .5 1.4.9zM740.9 200c0 .2-.1.3-.1.5-.1.1-.2.3-.4.3-.2.1-.3.1-.5 0-.2 0-.3-.1-.4-.2-.1-.1-.2-.3-.2-.4v-.5c.1-.2.2-.3.3-.4.1-.1.3-.1.5-.1s.5.1.6.3c.1.1.2.3.2.5zM526.1 196.2c0-.5.1-1 .4-1.4.3-.4.7-.7 1.1-.9.5-.2 1-.2 1.5-.1s.9.3 1.3.7c.4.4.6.8.7 1.3.1.5 0 1-.1 1.5-.2.5-.5.9-.9 1.1-.4.3-.9.4-1.4.4-.3 0-.7-.1-1-.2-.3-.1-.6-.3-.8-.5-.2-.2-.4-.5-.5-.8-.3-.5-.3-.8-.3-1.1zM534 196.2c0-.5.1-1 .4-1.4.3-.4.7-.7 1.1-.9.5-.2 1-.2 1.5-.1s.9.3 1.3.7c.4.4.6.8.7 1.3.1.5 0 1-.1 1.5-.2.5-.5.9-.9 1.1-.4.3-.9.4-1.4.4-.3 0-.7-.1-1-.2-.3-.1-.6-.3-.8-.5-.2-.2-.4-.5-.5-.8-.2-.5-.3-.8-.3-1.1zM542 196.2c0-.5.1-1 .4-1.4.3-.4.7-.7 1.1-.9.5-.2 1-.2 1.5-.1s.9.3 1.3.7c.4.4.6.8.7 1.3.1.5 0 1-.1 1.5-.2.5-.5.9-.9 1.1-.4.3-.9.4-1.4.4-.3 0-.7-.1-1-.2-.3-.1-.6-.3-.8-.5-.2-.2-.4-.5-.5-.8-.2-.5-.3-.8-.3-1.1zM550 196.2c0-.5.1-1 .4-1.4.3-.4.7-.7 1.1-.9.5-.2 1-.2 1.5-.1s.9.3 1.3.7c.4.4.6.8.7 1.3.1.5 0 1-.1 1.5-.2.5-.5.9-.9 1.1-.4.3-.9.4-1.4.4-.3 0-.7-.1-1-.2-.3-.1-.6-.3-.8-.5-.2-.2-.4-.5-.5-.8-.3-.5-.3-.8-.3-1.1zM786 200.8h-16.1v-7.4H786v7.4zm-15.3-.8h14.5v-5.8h-14.5v5.8z"/><path class="st6" d="M781.6 194.6h-10.4v4.9h10.4v-4.9zM787.4 195.1H786v4h1.4v-4zM706.8 230.6h-108c-1.8 0-3.2 1.5-3.2 3.2v.4c0 1.8 1.5 3.2 3.2 3.2h108c1.8 0 3.2-1.5 3.2-3.2v-.4c.1-1.8-1.4-3.2-3.2-3.2zM653.9 470.8c44.4 0 80.3-36 80.3-80.3 0-44.4-36-80.4-80.3-80.4-44.4 0-80.4 36-80.4 80.4 0 44.4 36 80.3 80.4 80.3z"/><path class="st4" d="M653.9 478.6c-17.4 0-34.5-5.2-49-14.8-14.5-9.7-25.8-23.4-32.5-39.5s-8.4-33.8-5-50.9c3.4-17.1 11.8-32.8 24.1-45.1 12.3-12.3 28-20.7 45.1-24.1 17.1-3.4 34.8-1.7 50.9 5s29.9 18 39.5 32.5c9.7 14.5 14.8 31.5 14.8 49 0 23.4-9.3 45.8-25.8 62.3-16.4 16.3-38.8 25.6-62.1 25.6zm0-174.2c-17 0-33.7 5-47.9 14.5-14.2 9.5-25.2 22.9-31.7 38.7-6.5 15.7-8.2 33.1-4.9 49.8 3.3 16.7 11.5 32.1 23.6 44.1 12 12 27.4 20.3 44.1 23.6 16.7 3.3 34 1.6 49.8-4.9 15.7-6.5 29.2-17.6 38.7-31.7 9.5-14.2 14.5-30.8 14.5-47.9 0-22.8-9.1-44.7-25.3-60.9-16.2-16.2-38.1-25.3-60.9-25.3zm0 167.3c-16.1 0-31.8-4.8-45.1-13.7-13.4-8.9-23.8-21.6-29.9-36.4-6.1-14.8-7.8-31.2-4.6-46.9 3.1-15.8 10.9-30.2 22.2-41.6 11.4-11.4 25.8-19.1 41.6-22.2 15.8-3.1 32.1-1.5 46.9 4.6s27.5 16.6 36.4 29.9c8.9 13.4 13.7 29.1 13.7 45.1 0 21.5-8.6 42.2-23.8 57.4-15.3 15.2-35.9 23.7-57.4 23.8zm0-160.4c-15.7 0-31 4.6-44 13.3-13 8.7-23.2 21.1-29.2 35.5-6 14.5-7.6 30.4-4.5 45.8 3.1 15.4 10.6 29.5 21.7 40.6 11.1 11.1 25.2 18.6 40.6 21.7 15.4 3.1 31.3 1.5 45.8-4.5 14.5-6 26.8-16.1 35.5-29.2 8.7-13 13.3-28.3 13.3-44 0-21-8.4-41.1-23.2-56-14.9-14.8-35-23.2-56-23.2z"/><path class="st2" d="m717.5 419.3-44.4-7.3-41.8.2s-2.6-.2-41.2 11.6c-2.7.8-5.3 2.1-7.5 3.8 7 13.4 17.6 24.5 30.6 32.2 13 7.6 27.9 11.4 43 11 15.1-.4 29.7-5.1 42.3-13.5 12.5-8.4 22.5-20.2 28.6-33.9-2.7-2.2-6.1-3.6-9.6-4.1z"/><path class="st10" d="M670.7 383.6c0 2.2-.2 4.4-.7 6.6l2.4 21.8c.1.7 0 1.4-.2 2-.3.6-.7 1.2-1.2 1.6L655.4 429c-.3.2-.6.4-1 .4s-.7 0-1-.2l-20-13.7c-.6-.4-1-.8-1.4-1.4-.3-.6-.5-1.2-.5-1.9l2.5-36.7.5-7.3c1.2-28 37.8-5.1 37.8-5.1s-1.1 9.8-1.6 20.5z"/><path d="M675.3 368.8c-2.5 0-4.9-.7-6.9-2.1-2-1.4-3.6-3.3-4.6-5.6s-1.2-4.8-.7-7.2c.5-2.4 1.7-4.6 3.4-6.4 1.7-1.7 3.9-2.9 6.4-3.4 2.4-.5 4.9-.2 7.2.7 2.3.9 4.2 2.5 5.6 4.6 1.4 2 2.1 4.4 2.1 6.9 0 1.6-.3 3.2-.9 4.7-.6 1.5-1.5 2.9-2.7 4s-2.5 2.1-4 2.7c-1.6.8-3.2 1.1-4.9 1.1z"/><path class="st10" d="m635.5 346.6-1 24.4s2.7 37.6 26.9 34.4c27.8-3.7 14.9-58 14.9-58l-40.8-.8z"/><path d="M678.5 330.6c-1.5-1-3.3-1.5-5.1-1.7s-3.6.2-5.3.9c-.8.4-1.8.4-2.6.2-.9-.3-1.6-.8-2.1-1.6-1.2-1.8-2.8-3.3-4.7-4.4-1.9-1-4.1-1.6-6.2-1.6-7.8-.3-11.2 4-12.7 6.3-.3.5-.7.9-1.1 1.2-.5.3-1 .5-1.6.5-3.7.5-11 3.2-13.7 10.7-4.6 13.1 4.9 27.6 4.9 27.6l5.8-3.7 1 1.7 1 5.1c0 .5.7.9 1.2.9.3 0 .6-.2.7-.4.2-.2.3-.5.3-.8l-.3-5.4c0-.2 0-.4.1-.6.1-.2.2-.4.3-.5.1-.2.3-.3.5-.4.2-.1.4-.1.6-.1.7-.1 1.4-.3 2.1-.6.7-.3 1.2-.8 1.7-1.3.5-.6.8-1.2 1.1-1.9.2-.7.3-1.4.2-2.2-.1-.7 0-1.5.2-2.2s.6-1.4 1.1-1.9c.5-.6 1.1-1 1.7-1.3.7-.3 1.4-.5 2.1-.6l24.7-1.8c8.7-1.4 12-15.2 4.1-20.1z"/><path class="st11" d="m633.4 386.4 4-6c-1.1.7-2.4 1-3.6.9l-.4 5.1z"/><path class="st10" d="M636.8 374.4c.9 4.2 2 7.3-3.4 6.9-10.3-.7-11.5-14.6-5.4-17.3.6-.4 1.3-.6 2.1-.6.7-.1 1.4 0 2.1.3.7.3 1.3.7 1.8 1.2s.9 1.2 1.1 1.8l1.7 7.7z"/><path class="st12" d="M627.3 368.8c.2.3.5.3.9.2.3-.2.6-.4.9-.5.3-.1.7-.1 1.1 0 .5 0 .9.5 1.5 1.2.6.9.9 2 .9 3.1l.2 1.2c0 .3.3.5.7.5.4 0 .5-.3.5-.7l-.2-1.2c0-1.3-.4-2.7-1-3.8-.3-.4-.6-.8-1-1.1-.4-.3-.9-.5-1.4-.6-1-.1-2.1.1-2.9.7-.2.1-.3.4-.2 1z"/><path class="st11" d="M656.8 406.7c-5-.7-9.6-3.1-12.9-6.9 0 0-.1-.1-.1-.2v-.4c0-.1.1-.1.1-.2 0 0 .1-.1.2-.1h.4c.1 0 .1.1.2.1 2.6 2.9 6 5 9.8 6 7.5 1.7 14.2-1.8 16.6-4.2l.9 8.8c-2.6.5-5.3.5-7.8 0-2.7-.4-5.2-1.4-7.4-2.9z"/><g class="st13"><path class="st12" d="M663.9 394.9v-.3c0-.1-.1-.2-.1-.3l-.2-.2c-.1 0-.2-.1-.3-.1-1.1.1-2.2.1-3.2 0-.2 0-.4.1-.5.2-.1.1-.2.3-.3.5 0 .2.1.4.2.5.1.1.3.2.5.3 1.1-.1 2.3-.1 3.5 0 .1-.1.6-.5.4-.6z"/></g><path class="st12" d="M666.1 392.1c-.6.2-1.1.3-1.6.4l-.5.1c-4 .7-5.8-1.5-6.4-2.5v-.1c-.1-.2-.1-.3 0-.5s.1-.3.2-.4l.1-.1H658.2c.1 0 .3 0 .4.1.1 0 .2.1.3.2l.1.1c.5.9 2.2 2.8 6.4 1.4.1 0 .2-.1.3-.1h.3c.1 0 .2.1.3.2.1.1.1.2.2.2.1.2.1.4 0 .6-.1.2-.2.3-.4.4z"/><path d="M657.8 376c-.4 0-.9-.1-1.2-.4-.4-.2-.6-.6-.8-1-.2-.4-.2-.8-.1-1.3.1-.4.3-.8.6-1.1.3-.3.7-.5 1.1-.6.4-.1.9 0 1.3.1.4.2.7.4 1 .8.2.4.4.8.4 1.2 0 .3 0 .6-.2.8-.1.3-.3.5-.5.7-.2.2-.4.4-.7.5-.3.2-.6.3-.9.3z"/><path class="st6" d="M658.8 374.6h-.2c-.1 0-.1-.1-.2-.1 0 0-.1-.1-.1-.2v-.4c0-.1 0-.2.1-.2 0-.1.1-.1.2-.2.1 0 .2-.1.2-.1.1 0 .2 0 .2.1.1 0 .1.1.2.2 0 .1.1.1.1.2v.4c0 .1-.1.1-.1.2 0 0-.1.1-.2.1h-.2z"/><path d="M675 376c-.4 0-.9-.1-1.2-.4-.4-.2-.6-.6-.8-1-.2-.4-.2-.8-.1-1.3.1-.4.3-.8.6-1.1.3-.3.7-.5 1.1-.6.4-.1.9 0 1.3.1.4.2.7.4 1 .8.2.4.4.8.4 1.2 0 .3 0 .6-.2.8-.1.3-.3.5-.5.7-.2.2-.4.4-.7.5-.3.2-.6.3-.9.3z"/><path class="st6" d="M676 374.6h-.2c-.1 0-.1-.1-.2-.1 0 0-.1-.1-.1-.2v-.2c0-.1.1-.2.2-.3.1-.1.2-.1.3-.1.1 0 .2 0 .3.1.1.1.2.2.2.3v.2c0 .1-.1.1-.1.2 0 0-.1.1-.2.1h-.2z"/><g class="st14"><path class="st15" d="M702 435.8c-.8 0-1.6-.2-2.2-.7-.7-.4-1.2-1.1-1.5-1.8-.3-.7-.4-1.5-.2-2.3.2-.8.5-1.5 1.1-2 .6-.6 1.3-.9 2-1.1.8-.2 1.6-.1 2.3.2.7.3 1.4.8 1.8 1.5.4.7.7 1.4.7 2.2 0 1.1-.4 2.1-1.2 2.8-.7.8-1.7 1.2-2.8 1.2zm0-7.4c-.7 0-1.4.2-1.9.6-.6.4-1 .9-1.3 1.6-.3.6-.3 1.3-.2 2 .1.7.5 1.3.9 1.8.5.5 1.1.8 1.8.9.7.1 1.4.1 2-.2.6-.3 1.2-.7 1.5-1.3.4-.6.6-1.2.6-1.9 0-.9-.4-1.8-1-2.4-.6-.7-1.4-1.1-2.4-1.1z"/><path class="st15" d="M702 434.4c-.1 0-.1 0-.2-.1 0 0-.1-.1-.1-.2s0-.1.1-.2c0 0 .1-.1.2-.1.4 0 .8-.1 1.1-.3.3-.2.6-.5.7-.9.2-.4.2-.8.1-1.2-.1-.4-.3-.7-.5-1-.3-.3-.6-.5-1-.5-.4-.1-.8 0-1.2.1-.4.2-.7.4-.9.7-.2.3-.3.7-.3 1.1 0 .1 0 .1-.1.2s-.1.1-.2.1-.1 0-.2-.1c0 0-.1-.1-.1-.2 0-.5.1-1 .4-1.4.3-.4.7-.7 1.1-.9.5-.2 1-.2 1.5-.1s.9.3 1.3.7c.4.4.6.8.7 1.3.1.5 0 1-.1 1.5-.2.5-.5.9-.9 1.1-.3.3-.8.4-1.4.4zM675.8 459.9c-.8 0-1.6-.2-2.2-.7-.7-.4-1.2-1.1-1.5-1.8-.3-.7-.4-1.5-.2-2.3.2-.8.5-1.5 1.1-2.1.6-.6 1.3-.9 2.1-1.1.8-.2 1.6-.1 2.3.2.7.3 1.4.8 1.8 1.5.4.7.7 1.4.7 2.2 0 1-.4 2-1.2 2.8-.9.9-1.8 1.3-2.9 1.3zm0-7.4c-.7 0-1.4.2-1.9.6-.6.4-1 .9-1.3 1.6-.3.6-.3 1.3-.2 2 .1.7.5 1.3.9 1.8.5.5 1.1.8 1.8.9.7.1 1.4.1 2-.2.6-.3 1.2-.7 1.6-1.3.4-.6.6-1.2.6-1.9 0-.9-.4-1.8-1-2.4-.7-.7-1.6-1.1-2.5-1.1z"/><path class="st15" d="M675.8 458.5c-.1 0-.1 0-.2-.1 0 0-.1-.1-.1-.2s0-.1.1-.2.1-.1.2-.1c.4 0 .8-.1 1.1-.3.3-.2.6-.5.7-.9.2-.4.2-.8.1-1.2-.1-.4-.3-.7-.5-1-.3-.3-.6-.5-1-.5-.4-.1-.8 0-1.2.1-.4.2-.7.4-.9.7-.2.3-.3.7-.3 1.1 0 .1 0 .1-.1.2 0 0-.1.1-.2.1s-.1 0-.2-.1c0 0-.1-.1-.1-.2 0-.5.1-1 .4-1.4s.7-.7 1.1-.9c.5-.2 1-.2 1.5-.1s.9.3 1.3.7c.4.4.6.8.7 1.3.1.5 0 1-.1 1.5-.2.5-.5.9-.9 1.1-.4.3-.9.4-1.4.4zM612.1 436.1c-.8 0-1.6-.2-2.2-.7-.7-.4-1.2-1.1-1.5-1.8-.3-.7-.4-1.5-.2-2.3.2-.8.5-1.5 1.1-2 .6-.6 1.3-.9 2-1.1.8-.2 1.6-.1 2.3.2.7.3 1.4.8 1.8 1.5.4.7.7 1.4.7 2.2 0 1.1-.4 2.1-1.2 2.8-.7.7-1.7 1.2-2.8 1.2zm0-7.4c-.7 0-1.4.2-1.9.6-.6.4-1 .9-1.3 1.6-.3.6-.3 1.3-.2 2 .1.7.5 1.3.9 1.8.5.5 1.1.8 1.8.9s1.4.1 2-.2 1.2-.7 1.6-1.3c.4-.6.6-1.2.6-1.9 0-.9-.4-1.8-1-2.4-.7-.8-1.6-1.1-2.5-1.1z"/><path class="st15" d="M612.1 434.6c-.1 0-.1 0-.2-.1 0 0-.1-.1-.1-.2s0-.1.1-.2c0 0 .1-.1.2-.1.4 0 .8-.1 1.1-.3.3-.2.6-.5.7-.9.2-.4.2-.8.1-1.2s-.3-.7-.5-1c-.3-.3-.6-.5-1-.5-.4-.1-.8 0-1.2.1-.4.2-.7.4-.9.7-.2.3-.3.7-.3 1.1 0 .1 0 .1-.1.2s-.1.1-.2.1-.1 0-.2-.1c0 0-.1-.1-.1-.2 0-.5.1-1 .4-1.4.3-.4.7-.7 1.1-.9.5-.2 1-.2 1.5-.1s.9.3 1.3.7c.4.4.6.8.7 1.3.1.5 0 1-.1 1.5-.2.5-.5.9-.9 1.1-.3.3-.8.5-1.4.4zM637.3 462.5c-.8 0-1.5-.2-2.2-.7s-1.1-1.1-1.4-1.8c-.3-.7-.4-1.5-.2-2.3.2-.8.5-1.5 1.1-2 .6-.5 1.3-.9 2-1.1.8-.1 1.6-.1 2.3.2.7.3 1.3.8 1.8 1.5.4.6.7 1.4.7 2.2 0 1.1-.4 2.1-1.2 2.8-.8.8-1.8 1.2-2.9 1.2zm0-7.4c-.7 0-1.3.2-1.9.6-.6.4-1 .9-1.3 1.5-.3.6-.3 1.3-.2 2s.5 1.3.9 1.8c.5.5 1.1.8 1.8.9.7.1 1.4.1 2-.2.6-.3 1.2-.7 1.5-1.3.4-.6.6-1.2.6-1.9 0-.9-.4-1.8-1-2.4-.6-.6-1.4-1-2.4-1z"/><path class="st15" d="M637.3 461.1c-.1 0-.1 0-.2-.1s-.1-.1-.1-.2 0-.1.1-.2.1-.1.2-.1c.4 0 .8-.1 1.1-.3.3-.2.6-.5.7-.9.2-.4.2-.8.1-1.2-.1-.4-.3-.7-.5-1-.3-.3-.6-.5-1-.5-.4-.1-.8 0-1.2.1-.4.2-.7.4-.9.7-.2.3-.3.7-.3 1.1 0 .1 0 .1-.1.2s-.1.1-.2.1-.1 0-.2-.1-.1-.1-.1-.2c0-.5.1-1 .4-1.4.3-.4.7-.7 1.1-.9.5-.2 1-.2 1.5-.1s.9.3 1.3.7.6.8.7 1.3c.1.5 0 1-.1 1.5-.2.5-.5.9-.9 1.1-.3.3-.8.4-1.4.4z"/></g><g class="st13"><path class="st12" d="M668.6 382.8c-.1-.7-.4-1.3-1-1.8-.5-.4-1.2-.7-1.9-.6-.3 0-.5.3-.5.7s.3.5.7.5c.4 0 .7.1 1 .3.3.2.4.6.5.9 0 .4-.1.7-.3 1-.2.3-.5.4-.9.5l-2.9.2c-.3 0-.5.3-.5.7 0 .4.3.5.7.5l2.9-.2c.3 0 .7-.1 1-.3.3-.2.6-.4.8-.6.2-.3.4-.6.5-.9-.1-.3-.1-.6-.1-.9z"/></g><path d="M660.7 365.7c-.2.4-2.1 0-4.4.1-2.3.1-4.2.4-4.4 0-.1-.2.2-.5 1-.9 1.1-.4 2.2-.6 3.3-.6 1.2 0 2.3.2 3.4.6.8.2 1.1.6 1.1.8zM671.3 365.6c.2.4 2.1.1 4.4.1s4.2.4 4.4 0c.1-.2-.2-.5-1-.9-1.1-.4-2.2-.7-3.3-.7-1.2 0-2.3.1-3.4.5-.8.5-1.2.8-1.1 1z"/><path class="st4" d="M714.1 475.1c12.4 0 22.4-10 22.4-22.4s-10-22.4-22.4-22.4c-12.4 0-22.4 10-22.4 22.4s10 22.4 22.4 22.4z"/><path class="st12" d="M714.1 475.1c12.4 0 22.4-10 22.4-22.4s-10-22.4-22.4-22.4c-12.4 0-22.4 10-22.4 22.4s10 22.4 22.4 22.4z"/><path class="st6" d="M722.7 445.8v-2.2c0-.3-.1-.6-.4-.9-.2-.2-.5-.4-.9-.4h-14.8c-.3 0-.6.1-.9.4s-.4.5-.4.9v2.2h-4c-.3 0-.6.1-.9.4-.2.2-.4.5-.4.9v14.8c0 .2 0 .3.1.5s.2.3.3.4c.1.1.3.2.4.3.2.1.3.1.5.1h25.1c.3 0 .6-.1.9-.4.2-.2.4-.5.4-.9v-14.8c0-.3-.1-.6-.4-.9s-.5-.4-.9-.4h-3.7z"/><path class="st4" d="M714.1 459.1c2.9 0 5.2-2.3 5.2-5.2 0-2.9-2.3-5.2-5.2-5.2-2.9 0-5.2 2.3-5.2 5.2 0 2.8 2.3 5.2 5.2 5.2z"/><path class="st12" d="M714.1 459.1c2.9 0 5.2-2.3 5.2-5.2 0-2.9-2.3-5.2-5.2-5.2-2.9 0-5.2 2.3-5.2 5.2 0 2.8 2.3 5.2 5.2 5.2z"/><path class="st6" d="M775.3 543.5H590.4c-.9 0-1.8-.3-1.8-.6v-3.8c0-.3.8-.6 1.8-.6h184.9c.9 0 1.8.3 1.8.6v3.8c0 .4-.7.6-1.8.6z"/><path class="st4" d="M695 528.6H589.6c-.2 0-.5-.1-.7-.2-.2-.2-.3-.4-.3-.6v-5.4c0-.2.2-.5.3-.6.2-.2.4-.2.7-.2H695c.2 0 .5.1.7.2.2.2.3.4.3.6v5.4c0 .2-.1.5-.3.6-.3.1-.5.2-.7.2z"/><path class="st6" d="M775.3 554.6H590.4c-.9 0-1.8-.3-1.8-.6v-3.8c0-.3.8-.6 1.8-.6h184.9c.9 0 1.8.3 1.8.6v3.8c0 .3-.7.6-1.8.6zM686.2 565.6h-96.6c-.5 0-.9-.3-.9-.6v-3.7c0-.3.4-.6.9-.6h96.6c.5 0 .9.3.9.6v3.8c0 .3-.4.5-.9.5z"/><path class="st4" d="M551.1 565.6c12.4 0 22.5-10.1 22.5-22.5s-10.1-22.5-22.5-22.5-22.5 10.1-22.5 22.5 10.1 22.5 22.5 22.5z"/><path class="st16" d="M562.7 553.5c0-7.4-5.2-13.3-11.5-13.3s-11.6 6-11.6 13.3c3.4 2.2 7.5 3.4 11.6 3.4 4 0 8-1.2 11.5-3.4z"/><path class="st6" d="M551.1 542.9c3.5 0 6.3-2.8 6.3-6.3s-2.8-6.3-6.3-6.3-6.3 2.8-6.3 6.3 2.8 6.3 6.3 6.3z"/><path class="st6" d="M551.1 542.9c3.5 0 6.3-2.8 6.3-6.3s-2.8-6.3-6.3-6.3-6.3 2.8-6.3 6.3 2.8 6.3 6.3 6.3zM775.3 625.5H590.4c-.9 0-1.8-.3-1.8-.6v-3.8c0-.3.8-.6 1.8-.6h184.9c.9 0 1.8.3 1.8.6v3.8c0 .4-.7.6-1.8.6z"/><path class="st4" d="M695 610.6H589.6c-.2 0-.5-.1-.7-.2-.2-.2-.3-.4-.3-.6v-5.4c0-.2.2-.5.3-.6.2-.2.4-.2.7-.2H695c.2 0 .5.1.7.2.2.2.3.4.3.6v5.4c0 .2-.1.5-.3.6-.3.1-.5.2-.7.2z"/><path class="st6" d="M723.4 636.6H589.9c-.7 0-1.3-.3-1.3-.6v-3.8c0-.3.6-.6 1.3-.6h133.5c.7 0 1.3.3 1.3.6v3.8c0 .3-.5.6-1.3.6z"/><path class="st4" d="M551.1 647.6c12.4 0 22.5-10.1 22.5-22.5s-10.1-22.5-22.5-22.5-22.5 10.1-22.5 22.5 10.1 22.5 22.5 22.5z"/><path class="st6" d="M551.1 619.6c1.9 0 3.5-1.6 3.5-3.5s-1.6-3.5-3.5-3.5-3.5 1.6-3.5 3.5 1.6 3.5 3.5 3.5zM554.1 622.1h-6v15.5h6v-15.5zM775.3 707.5H590.4c-.9 0-1.8-.3-1.8-.6v-3.8c0-.3.8-.6 1.8-.6h184.9c.9 0 1.8.3 1.8.6v3.8c0 .4-.7.6-1.8.6z"/><path class="st4" d="M695 692.6H589.6c-.2 0-.5-.1-.7-.2-.2-.2-.3-.4-.3-.6v-5.4c0-.2.2-.5.3-.6.2-.2.4-.2.7-.2H695c.2 0 .5.1.7.2.2.2.3.4.3.6v5.4c0 .2-.1.5-.3.6-.3.1-.5.2-.7.2z"/><path class="st6" d="M660 718.6h-70.8c-.2 0-.3-.1-.5-.2-.1-.1-.2-.3-.2-.4v-3.8c0-.2.1-.3.2-.4.1-.1.3-.2.5-.2H660c.2 0 .3 0 .5.2.1.1.2.3.2.4v3.8c0 .2-.1.3-.2.4-.1.2-.3.2-.5.2z"/><path class="st4" d="M551.1 729.6c12.4 0 22.5-10.1 22.5-22.5s-10.1-22.5-22.5-22.5-22.5 10.1-22.5 22.5 10.1 22.5 22.5 22.5z"/><path class="st6" d="m559.8 712.9-1.5-2.4c-.1-.2-.2-.3-.4-.4-.2-.1-.3-.2-.5-.2h-.6c-.2 0-.4.1-.6.2l-2.8 1.8-5.3-8.4 2.8-1.8c.3-.2.6-.6.7-1 .1-.4 0-.8-.2-1.2l-1.5-2.4c-.1-.2-.2-.3-.4-.4-.2-.1-.4-.2-.6-.2h-.6c-.2 0-.4.1-.6.2l-3.6 2.4c-1.7 1.1-2.6 3.2-1.3 6.1 0 .1 0 .2.1.3l.6.9 5.3 8.4.4.6c0 .1.1.1.1.1 2.1 2.8 4.5 3 6.3 1.8l3.7-2.2c.2-.1.3-.2.4-.4l.3-.6c0-.2.1-.4 0-.6s-.1-.5-.2-.6z"/><path class="st4" d="m547.6 689.9-.6.4 3.2 4.9.6-.4-3.2-4.9zM555.5 710.4l-.6.4 3.2 4.9.6-.4-3.2-4.9zM135.8 696.9c-6.8-4.2-14.4-6.9-22.3-7.7-3.6-.4-7.6-.3-10.6 1.9-.3.2-.6.5-.8.8-.2.3-.3.7-.3 1.1.2.5.5 1 1 1.3 9.1 7 22.8 7.9 33 2.6M135.2 696.2c-5.1-3.9-10.1-7.9-14.4-12.7-4.3-4.8-7.8-10.4-9-16.7-.4-1.9-.5-4.1.7-5.6 11.5 9.1 20.5 20.6 22.7 35"/><path class="st4" d="M135.7 696.8c-.9-6.3-1.2-12.8.3-18.9s4.8-12.1 10.1-15.6c2 4.6 1.1 10-.3 14.8-2.2 7.5-5.6 14.6-10 21M146.9 717c-6.8.8-12.8 4.4-17.9 9.1-5.1 4.7-8.7 10.8-10.2 17.6 6.7-.4 12.4-5.2 16.5-10.5s7-11.1 11.5-16.1M149.4 720.2c-2.7-6.8-3.6-14.2-2.7-21.5.9-7.3 3.6-14.2 7.8-20.2 3.9 13.8 2.4 29.5-5.1 41.7zM164.3 737.9c-6.3-.4-12.5 1.1-17.9 4.2-5.4 3.1-9.8 7.8-12.6 13.4-.4.8-.7 1.7-.2 2.4.3.2.6.4.9.5.3.1.7.1 1.1.1 6-.4 11.4-4 15.8-8.1s8.2-8.9 13.1-12.5M163.8 737c-3.2-10.3-3.4-21.3-.6-31.8 1.1-4.1 3-8.4 6.8-10.3.3-.2.7-.3 1-.2.3.2.5.4.7.8 1.3 2.9 1.8 6 1.6 9.1-.2 3.1-.7 6.2-1.4 9.2-1.2 5.6-1.8 11.7-4.9 16.6-.7 1.2-1.4 2.4-2 3.6-.6 1.2-.6 1.7-1.1 2.6M203.2 742.8c-2.9-11.1.2-24.6 7.2-33.7.5-.7 1.2-1.4 2-1.3 1.3.1 1.6 1.8 1.6 3.1-.6 11.5-4.3 22.5-10.8 31.9M206.7 745.3c13.5 3.5 29 .1 40.2-8.2-6.7-3.4-14.4-4.3-21.8-2.7-7.2 1.7-13.8 4.9-18.4 10.9M209.7 737.9c7.5-12.3 22-20.4 36.5-21.1-1.7 5.9-6.5 10.4-11.9 13.2s-11.5 4-17.5 5.1c-2.4.4-5.6.9-7.1 2.8M203.9 702c2-7 4.1-14.1 4.7-21.4.6-7.3-.5-14.9-4.3-21.1-7 13.7-7.8 29.6-.6 43.2"/><g class="st17"><path class="st18" d="M203.9 702c2-7 4.1-14.1 4.7-21.4.6-7.3-.5-14.9-4.3-21.1-7 13.7-7.8 29.6-.6 43.2"/></g><path class="st4" d="M227.7 690c8.2-15 25.1-27 42.1-28.7-6.5 16.4-24.4 29-42.1 28.7z"/><g class="st13"><path class="st12" d="M227.7 690c8.2-15 25.1-27 42.1-28.7-6.5 16.4-24.4 29-42.1 28.7z"/></g><path class="st4" d="M222.5 692.9c12.3 1.9 22.8 9.7 34.3 14.5 2.4 1.2 5.1 1.7 7.8 1.5 2.6-.3 5.2-2.1 5.8-4.7.2-1.1.1-2.2-.3-3.2-.3-1-.9-2-1.7-2.8-1.6-1.5-3.5-2.7-5.6-3.4-12.5-5.2-26-5.3-39.2-2.2M215.4 701.6c2.8.8 3.7 2.2 5.9 4.1 7.5 6.4 16.4 11 26 13.4 1 .2 2.3.4 2.8-.5s-.1-1.7-.7-2.4c-4-5-9.7-8.4-15.7-10.7-6-2.2-11.2-4.9-18.4-4.4M207.3 649.4c5 4.7 11 8.2 17.5 10.4 6.5 2.2 13.4 3 20.2 2.4.6 0 1.2-.2 1.7-.6 1-1-.2-2.6-1.3-3.5-11-8.6-24.4-12.2-38.1-8.7z"/><path class="st4" d="M216.9 645.9c6.7-4.9 14.4-8.2 22.6-9.5 8.2-1.3 16.6-.7 24.5 1.8-5.9 5.8-14.2 9-22.4 9.8-8.4.8-16.7.1-24.7-2.1M213.1 622c-1.1-11.1-.4-19.8-1.1-30.9-.1-.9-.2-2-1.1-2.3-1.2-.4-2.1 1-2.5 2.2-1.6 5.2-2 10.6-1.2 16 .8 5.3 2.8 10.4 5.9 14.9"/><path class="st4" d="M212.3 623.2c7.5-4.6 13.1-10.7 18.3-17.8 3.6-5 6.7-10.9 5.9-17-5.1-.1-9.9 2.7-13.2 6.6-3.3 3.9-5.3 8.7-6.7 13.6-1.6 4.8-2.6 9.8-4.3 14.6"/><g class="st13"><path class="st12" d="M212.3 623.2c7.5-4.6 13.1-10.7 18.3-17.8 3.6-5 6.7-10.9 5.9-17-5.1-.1-9.9 2.7-13.2 6.6-3.3 3.9-5.3 8.7-6.7 13.6-1.6 4.8-2.6 9.8-4.3 14.6"/></g><path class="st4" d="M230.3 618.2c16.5-6.1 31.8-15.1 45.1-26.6-5.4-2.2-11.6-.9-17 1.3-12.3 5-22.4 13.4-28.4 25.2M217.3 629.3c8.3.9 16.8 1.5 25.1.1s15.8-4.6 23.4-7.8c.7-.2 1.2-.6 1.6-1.2.1-.4.1-.7 0-1.1s-.3-.7-.6-.9c-.6-.5-1.3-.8-2-.9-8.2-2.3-17.2-1.2-25.3 1.5-7.7 2.6-15.1 6.1-22.2 10.3M169.7 649.8c-5.7-11.5-5.3-24.9-.4-36.7 3.4 5.3 3.9 12 3.2 18.2-.6 6.2-2.5 12.7-2.7 19M147.1 638.3c-7.1-.1-14.2 1.3-20.7 4.1s-12.4 6.9-17.3 12.1c7.1 1.1 14.4-.7 20.8-3.9s12.2-7.6 17.9-12"/><g class="st13"><path class="st12" d="M147.1 638.3c-7.1-.1-14.2 1.3-20.7 4.1s-12.4 6.9-17.3 12.1c7.1 1.1 14.4-.7 20.8-3.9s12.2-7.6 17.9-12"/></g><path class="st4" d="M131.8 633.2c-7-.6-13.6-1.4-20.3.6-6.7 2-12.8 6.7-15.5 13.1 6.5.7 13.1-.9 19-3.6 5.9-2.6 11.4-6.3 16.8-10.1M154.4 633.5c-6.2-4.1-12.7-8.3-19.9-10s-15.7-.4-20.8 5c5.9 3.5 13 3.9 19.9 3.9 6.9 0 15.2-.1 21.6 2.2"/><path class="st4" d="M154.4 633.8c-10.7-10.5-14.7-29.3-10.4-43.7 8.4 12.9 12.1 28.4 10.4 43.7M183.8 604.1c2-4.7 3.4-9.6 5.2-14.4s4-9.5 7.5-13.2c3.4-3.8 8.1-6.6 13.2-6.9-1.6 7.2-4.8 14-9.2 20-4.4 5.9-10 10.9-16.5 14.6"/><g class="st13"><path class="st12" d="M183.8 604.1c2-4.7 3.4-9.6 5.2-14.4s4-9.5 7.5-13.2c3.4-3.8 8.1-6.6 13.2-6.9-1.6 7.2-4.8 14-9.2 20-4.4 5.9-10 10.9-16.5 14.6"/></g><path class="st4" d="M178.5 610.3c-3.3-4.6-7.2-10.8-11.7-14.2-4.5-3.4-10.4-5.5-15.9-4.2 2.9 5 6.8 9.3 11.6 12.5s10.3 5.2 16 5.9M179.5 604.5c-2.2-5.5-4.4-11.2-5.3-17.1-.9-5.9-.3-12.2 2.7-17.3 5.9 11.1 7.8 23 2.9 34.5M183.8 570.1c3.3-11 13.4-19.1 24.2-22.8 1.3-.6 2.8-.8 4.2-.6.7.1 1.4.4 2 .8.6.5 1 1.1 1.2 1.8.4 1.9-1.1 3.5-2.6 4.8-8.4 7.2-18.3 12.6-29 16M184 561.1c.4-7.1.9-14.3 3.2-21 2.3-6.7 6.8-13 13.2-15.9 1.1 7.1-2.1 14.3-5.9 20.4-3.8 6.1-8.4 12-10.7 18.8M183.8 565.9c-2.7-8-3-18.2-7.8-25.2-3.4-4.9-8.7-8.2-11.6-13.4-1.9 4.8-1.3 10.4.7 15.2 2 4.8 5.3 8.9 8.9 12.7 3.5 3.9 6.5 6.7 9.8 10.7z"/><path class="st19" d="M183.8 801.7c-.2 0-.4-53.4-.4-119.3s.1-119.3.4-119.3c.2 0 .4 53.4.4 119.3s-.1 119.3-.4 119.3z"/><path class="st19" d="M230.5 641.7c-.6.3-1.3.6-2 .8l-5.5 1.9c-4.7 1.6-11.1 3.9-18 6.7-6.9 2.9-13.4 5.3-17.1 8.5-1.5 1.2-2.6 2.8-3.4 4.5-.5 1.2-.6 2-.7 2-.1 0 0-.2 0-.6.1-.5.2-1.1.4-1.6.7-1.9 1.8-3.5 3.3-4.8 2.2-1.9 4.7-3.4 7.4-4.6 3-1.4 6.2-2.8 9.7-4.3 7-2.9 13.4-5.1 18.1-6.5 2.4-.7 4.3-1.3 5.6-1.6.8-.1 1.5-.3 2.2-.4z"/><path class="st19" d="m245.8 604.2-.6.6-1.7 1.6-6.4 5.8-21.3 19c-8.3 7.4-15.5 14.5-20.5 19.8-2.5 2.7-4.4 4.9-5.8 6.4l-1.5 1.8-.6.6c.1-.2.3-.5.5-.7.3-.4.8-1.1 1.4-1.9 1.3-1.6 3.2-3.9 5.6-6.6 6.4-7 13.2-13.7 20.4-20 8.3-7.4 15.9-14 21.5-18.8l6.6-5.6 1.8-1.5c.2-.2.4-.4.6-.5z"/><path class="st19" d="M206.9 638.7c-.2-.1 1.5-4.1 3.2-9.2 1.7-5.1 2.6-9.4 2.8-9.3.2 0-.3 4.4-2.1 9.6-.7 2.2-1.6 4.3-2.6 6.4-.3.9-.7 1.7-1.3 2.5zM183.9 671c-.5-.5-.9-1-1.3-1.5l-3.3-4.2c-2.8-3.6-6.6-8.5-10.8-13.9-4.3-5.4-8.2-10.2-11-13.7l-3.4-4.1c-.4-.5-.8-1-1.2-1.6.5.4 1 .9 1.4 1.4.9.9 2.1 2.3 3.5 4 3 3.4 7 8.2 11.2 13.6 4.2 5.4 8 10.4 10.7 14 1.3 1.8 2.4 3.3 3.1 4.4.5.4.8 1 1.1 1.6z"/><path class="st4" d="M173.7 657.9c-.1.1-2.9-3.1-4.3-8-.8-2.6-1.2-5.4-1-8.1h.3c-.1.6-.3 1-.3.9-.1-.1-.1-.4 0-1h.3c.2 2.7.6 5.3 1.4 7.9 1.4 4.8 3.8 8.1 3.6 8.3z"/><path class="st19" d="M160.5 641.2c-.9-.7-1.9-1.3-3-1.7-2.7-.8-5.5-1-8.3-.7-2.8.2-5.6.7-8.4 1.4-1.1.4-2.3.6-3.4.8 1-.6 2.1-1.1 3.3-1.3 2.8-.8 5.6-1.4 8.5-1.6 3.3-.3 6.5 0 8.6.9 1 .4 2 1.2 2.7 2.2zM157.3 637.2c-.1.1-1.8-.7-4.6-1.7-7.4-2.5-15.4-3.2-23.1-1.8-3 .5-4.8 1.1-4.8 1 .4-.2.8-.4 1.2-.5 1.1-.4 2.3-.7 3.5-1 7.8-1.7 15.9-1.1 23.4 1.8 1.1.4 2.2.9 3.3 1.5.4.2.8.4 1.1.7zM183.8 620.2c-.2.1-1.7-5.2-3.3-11.6-1.6-6.5-2.8-11.8-2.6-11.8.2-.1 1.7 5.1 3.3 11.6 1.6 6.4 2.8 11.7 2.6 11.8z"/><path class="st19" d="M184 620.2c-.2.1-1.2-3.4-3.7-7s-5.6-5.5-5.5-5.6c.8.2 1.5.6 2.1 1.1 1.6 1.1 2.9 2.5 4 4.1 2.6 3.7 3.3 7.4 3.1 7.4zM183.8 773.3c-.1 0-.2-1.3-.8-3.6-.9-3.2-2.1-6.3-3.6-9.2-3.7-7.5-10.4-17.1-18.9-26.7-4.2-4.8-8.3-9.4-11.8-13.8-3.1-3.8-6-7.9-8.5-12.2-1.7-2.9-3.1-5.9-4.3-9-.4-1.1-.7-2-.8-2.6-.1-.3-.2-.6-.2-.9.1 0 .5 1.2 1.3 3.4 1.3 3.1 2.8 6 4.5 8.9 2.6 4.2 5.4 8.2 8.5 12 3.5 4.3 7.6 8.8 11.8 13.7 8.6 9.6 15.2 19.3 18.9 27 1.5 3 2.6 6.2 3.4 9.4.2.9.4 1.8.5 2.7 0 .3.1.6 0 .9zM226 725.6c-.7.5-1.4.9-2.2 1.2-2 1.1-3.9 2.4-5.7 3.8-2.7 2.1-5.2 4.4-7.5 6.9-2.6 2.8-5.4 6-8.1 9.5-5.5 7-10.8 13.1-13.9 18.1-1.6 2.4-2.7 4.5-3.5 5.9-.4.8-.8 1.5-1.2 2.2 0-.2.1-.4.2-.6.2-.4.4-1 .7-1.7 1-2.1 2.1-4.1 3.3-6.1 3-5 8.2-11.3 13.7-18.3 2.8-3.5 5.5-6.7 8.2-9.5 2.4-2.5 4.9-4.8 7.7-6.8 1.9-1.4 3.9-2.6 6-3.6.7-.4 1.3-.6 1.7-.8.2-.1.4-.1.6-.2z"/><path class="st19" d="M226.9 741.1c-1.5.3-3.1.6-4.7.7-3.8.4-7.5 1.1-11.1 2.2-3.6 1.2-6.9 2.9-9.9 5.2-2.3 1.8-3.4 3.2-3.5 3.1.2-.4.4-.8.7-1.1.7-.9 1.5-1.7 2.4-2.5 2.9-2.5 6.3-4.3 10-5.5 3.7-1.1 7.4-1.8 11.3-2 1.6-.2 3.2-.2 4.8-.1z"/><path class="st19" d="M199.1 750.6c-.2-.1 1.9-3.4 3.5-7.7s1.9-8.2 2.2-8.2c.1.8.1 1.7-.1 2.5-.2 2-.7 4-1.4 5.9-.7 1.9-1.6 3.7-2.7 5.4-.4.8-.9 1.5-1.5 2.1zM239.7 684.1c-.2.2-.5.3-.8.4l-2.2 1c-1 .4-2.1.9-3.5 1.6-1.3.7-2.9 1.4-4.5 2.3l-2.5 1.5c-.9.5-1.8 1.1-2.7 1.7-1.9 1.1-3.8 2.5-5.8 4-4.3 3.2-8.3 6.8-12 10.6-3.7 3.9-7.2 8-10.3 12.4-1.4 2-2.7 4-3.8 5.9-.6 1-1.1 1.8-1.6 2.7-.5.9-.9 1.8-1.4 2.6-.9 1.6-1.6 3.2-2.2 4.5-.6 1.3-1.1 2.5-1.5 3.5-.4 1-.7 1.6-.9 2.2-.1.3-.2.5-.4.8 0-.3.1-.5.2-.8l.8-2.3c.3-1 .8-2.2 1.4-3.6.6-1.4 1.2-3 2.1-4.6.4-.8.9-1.7 1.3-2.6.5-.9 1-1.8 1.6-2.8 1.1-2 2.4-3.9 3.7-6 3.1-4.4 6.5-8.6 10.2-12.5 3.8-3.9 7.8-7.4 12.2-10.6 2-1.4 3.9-2.8 5.9-4 .9-.6 1.8-1.2 2.7-1.7l2.6-1.4c1.6-.9 3.2-1.6 4.5-2.2 1.1-.6 2.3-1.1 3.5-1.5l2.2-.9c.7-.1.9-.2 1.2-.2z"/><path class="st4" d="M206.3 706.5c.3-1.1 1-2 1.8-2.7 2.1-1.8 4.7-2.8 7.4-2.8s5.3.5 7.8 1.5c1 .3 2 .8 2.9 1.4-1.1-.2-2.1-.5-3.1-.9-2.4-.8-5-1.3-7.6-1.3-2.6.1-5 .9-7.1 2.5-.7.7-1.4 1.5-2.1 2.3z"/><g class="st13"><path class="st12" d="M135.8 696.9c-6.8-4.2-14.4-6.9-22.3-7.7-3.6-.4-7.6-.3-10.6 1.9-.3.2-.6.5-.8.8-.2.3-.3.7-.3 1.1.2.5.5 1 1 1.3 9.1 7 22.8 7.9 33 2.6"/></g><g class="st17"><path class="st18" d="M135.7 696.8c-.9-6.3-1.2-12.8.3-18.9s4.8-12.1 10.1-15.6c2 4.6 1.1 10-.3 14.8-2.2 7.5-5.6 14.6-10 21"/></g><g class="st13"><path class="st12" d="M149.4 720.2c-2.7-6.8-3.6-14.2-2.7-21.5.9-7.3 3.6-14.2 7.8-20.2 3.9 13.8 2.4 29.5-5.1 41.7z"/></g><g class="st13"><path class="st12" d="M164.3 737.9c-6.3-.4-12.5 1.1-17.9 4.2-5.4 3.1-9.8 7.8-12.6 13.4-.4.8-.7 1.7-.2 2.4.3.2.6.4.9.5.3.1.7.1 1.1.1 6-.4 11.4-4 15.8-8.1s8.2-8.9 13.1-12.5"/></g><g class="st17"><path class="st18" d="M206.7 745.3c13.5 3.5 29 .1 40.2-8.2-6.7-3.4-14.4-4.3-21.8-2.7-7.2 1.7-13.8 4.9-18.4 10.9"/></g><g class="st13"><path class="st12" d="M209.7 737.9c7.5-12.3 22-20.4 36.5-21.1-1.7 5.9-6.5 10.4-11.9 13.2s-11.5 4-17.5 5.1c-2.4.4-5.6.9-7.1 2.8"/></g><g class="st17"><path class="st18" d="M222.5 692.9c12.3 1.9 22.8 9.7 34.3 14.5 2.4 1.2 5.1 1.7 7.8 1.5 2.6-.3 5.2-2.1 5.8-4.7.2-1.1.1-2.2-.3-3.2-.3-1-.9-2-1.7-2.8-1.6-1.5-3.5-2.7-5.6-3.4-12.5-5.2-26-5.3-39.2-2.2"/></g><g class="st13"><path class="st12" d="M216.9 645.9c6.7-4.9 14.4-8.2 22.6-9.5 8.2-1.3 16.6-.7 24.5 1.8-5.9 5.8-14.2 9-22.4 9.8-8.4.8-16.7.1-24.7-2.1"/></g><g class="st17"><path class="st18" d="M213.1 622c-1.1-11.1-.4-19.8-1.1-30.9-.1-.9-.2-2-1.1-2.3-1.2-.4-2.1 1-2.5 2.2-1.6 5.2-2 10.6-1.2 16 .8 5.3 2.8 10.4 5.9 14.9"/></g><g class="st17"><path class="st18" d="M230.3 618.2c16.5-6.1 31.8-15.1 45.1-26.6-5.4-2.2-11.6-.9-17 1.3-12.3 5-22.4 13.4-28.4 25.2"/></g><g class="st17"><path class="st18" d="M169.7 649.8c-5.7-11.5-5.3-24.9-.4-36.7 3.4 5.3 3.9 12 3.2 18.2-.6 6.2-2.5 12.7-2.7 19"/></g><g class="st17"><path class="st18" d="M131.8 633.2c-7-.6-13.6-1.4-20.3.6-6.7 2-12.8 6.7-15.5 13.1 6.5.7 13.1-.9 19-3.6 5.9-2.6 11.4-6.3 16.8-10.1"/></g><g class="st13"><path class="st12" d="M154.4 633.8c-10.7-10.5-14.7-29.3-10.4-43.7 8.4 12.9 12.1 28.4 10.4 43.7"/></g><g class="st13"><path class="st12" d="M178.5 610.3c-3.3-4.6-7.2-10.8-11.7-14.2-4.5-3.4-10.4-5.5-15.9-4.2 2.9 5 6.8 9.3 11.6 12.5s10.3 5.2 16 5.9"/></g><g class="st17"><path class="st18" d="M183.8 570.1c3.3-11 13.4-19.1 24.2-22.8 1.3-.6 2.8-.8 4.2-.6.7.1 1.4.4 2 .8.6.5 1 1.1 1.2 1.8.4 1.9-1.1 3.5-2.6 4.8-8.4 7.2-18.3 12.6-29 16"/></g><g class="st13"><path class="st12" d="M183.8 565.9c-2.7-8-3-18.2-7.8-25.2-3.4-4.9-8.7-8.2-11.6-13.4-1.9 4.8-1.3 10.4.7 15.2 2 4.8 5.3 8.9 8.9 12.7 3.5 3.9 6.5 6.7 9.8 10.7z"/></g><g class="st17"><path class="st18" d="M173.7 657.9c-.1.1-2.9-3.1-4.3-8-.8-2.6-1.2-5.4-1-8.1h.3c-.1.6-.3 1-.3.9-.1-.1-.1-.4 0-1h.3c.2 2.7.6 5.3 1.4 7.9 1.4 4.8 3.8 8.1 3.6 8.3z"/></g><g class="st17"><path class="st18" d="M206.3 706.5c.3-1.1 1-2 1.8-2.7 2.1-1.8 4.7-2.8 7.4-2.8s5.3.5 7.8 1.5c1 .3 2 .8 2.9 1.4-1.1-.2-2.1-.5-3.1-.9-2.4-.8-5-1.3-7.6-1.3-2.6.1-5 .9-7.1 2.5-.7.7-1.4 1.5-2.1 2.3z"/></g><path class="st19" d="M201.3 711.6c-.2-.1 1.7-2.9 2.1-6.8s-.7-7.1-.5-7.1c.4.6.7 1.3.9 2 .4 1.7.6 3.5.4 5.2-.2 1.8-.7 3.4-1.6 5-.6 1.2-1.2 1.8-1.3 1.7z"/><path class="st20" d="M147 780.9c1.2 20.4 7.3 41.2 16.8 62.1h41.1c9-20.8 14.8-41.5 15.8-62.1H147z"/><path class="st20" d="M224 774.4h-80v6.8h80v-6.8z"/><path class="st12" d="M147 780.9c.1 1 .1 2.1.2 3.1h57.7s.4 35.3-11.7 59h11.6c9-20.7 14.7-41.3 15.8-61.9l-73.6-.2z"/><path class="st12" d="M204.9 774.4v6.7l19.1.1v-6.8h-19.1z"/><path class="st16" d="M1154.2 619H901.8v159.4h229.4l23-159.4z"/><path class="st20" d="M1046.1 628.3V674c0 .6-2.1.6-2.1 0v-45.5l2.1-.2z"/><path class="st20" d="M907.9 770.9h224.3l.3-2.1h-223v-45.4H1139l.3-2.4H909.6v-46.3h236.6l.4-2.4h-237v-42.6h243.1l.3-2.2H908l-.1 143.4z"/><path class="st20" d="M1109.8 649.7c0 2.5-1.7 4.5-3.9 4.5s-3.9-2-3.9-4.5 1.7-4.5 3.9-4.5 3.9 2.1 3.9 4.5zM979.7 649.7c0 2.5-1.7 4.5-3.9 4.5s-3.9-2-3.9-4.5 1.7-4.5 3.9-4.5 3.9 2.1 3.9 4.5zM1049.9 699.2c0 2.5-1.7 4.5-3.9 4.5-2.1 0-3.9-2-3.9-4.5s1.7-4.5 3.9-4.5 3.9 2 3.9 4.5z"/><path class="st16" d="M927.2 778.4 916.8 840h8.7l23.4-61.6h-21.7zM990.1 778.4 978.7 840h8.7l24.4-61.6h-21.7z"/><path class="st20" d="M1049.6 744.3c0 2.5-1.7 4.5-3.9 4.5s-3.9-2-3.9-4.5 1.7-4.5 3.9-4.5 3.9 2 3.9 4.5z"/><path class="st12" d="m924.4 793.6 8.3 2.4-11.1 44h3.8l23.8-61.5h-21.6l-3.2 15.1zM987.2 793.3l7.3 5.4-10.7 41.3h3.5l24.8-61.5h-21.6l-3.3 14.8z"/><path class="st4" d="M999 568.5h-24v47h24v-47z"/><path class="st18" d="M999 568.5h-24v47h24v-47z"/><path class="st4" d="M1030.3 557.5h-23.9v58h23.9v-58z"/><path class="st18" d="M1030.3 557.5h-23.9v58h23.9v-58z"/><path class="st4" d="M1015 580.2h-24v35.3h23.9v-35.3z"/><path d="M1015 580.2h-24v35.3h23.9v-35.3z" style="opacity:.2;fill:#fff;enable-background:new"/><path d="M987.5 565.6h-1v2.9h1v-2.9zM1018.9 554.6h-1v2.9h1v-2.9zM1003.5 577.3h-1v2.9h1v-2.9z"/><path class="st4" d="M1042.8 615.5h-77.4v3.3h77.4v-3.3z"/><path class="st6" d="M1001.1 229.2h-80.3v111.1h80.3V229.2z"/><path class="st22" d="M990.4 239.4h-58.8v90.5h58.8v-90.5z"/><path class="st16" d="M1003.5 229.1h-2.3v111.1h2.3V229.1z"/><path class="st23" d="M974.8 271.5h-27.6v43.7h27.6v-43.7z"/><path class="st4" d="M961 266c3.6 0 7.1-1.4 9.6-4 2.5-2.5 4-6 4-9.6h-27.2c0 1.8.3 3.5 1 5.2.7 1.6 1.7 3.1 2.9 4.4 1.3 1.3 2.8 2.3 4.4 2.9s3.5 1.1 5.3 1.1"/><path class="st6" d="M258.6 225.8H145.5v88.9h113.2v-88.9z"/><path class="st22" d="M247.2 237.7h-90.4v65.2h90.4v-65.2z"/><path class="st16" d="M261.2 225.9h-2.6v88.8h2.6v-88.8z"/><path class="st23" d="M229.7 255.6h-56v30h56v-30z"/><path d="M1102.9 295.7h-77.2v111.9h77.2V295.7z" style="fill:#e1e1e1"/><path class="st6" d="M1098.7 295.7h-77.2v111.9h77.2V295.7z"/><path d="M1089.3 307.4H1031v87.8h58.2v-87.8z" style="fill:#dbdbdb"/><path class="st4" d="M1050.4 356.9c-1.3 0-2.6-.4-3.7-1.1s-1.9-1.8-2.5-3c-.5-1.2-.6-2.6-.4-3.9.3-1.3.9-2.5 1.8-3.4.9-.9 2.1-1.6 3.4-1.8 1.3-.3 2.6-.1 3.9.4 1.2.5 2.3 1.4 3 2.5.7 1.1 1.1 2.4 1.1 3.7 0 1.8-.7 3.5-2 4.7-1.1 1.2-2.8 1.9-4.6 1.9z"/><g class="st13"><g class="st13"><path class="st12" d="M1069.9 323.7h-19.4v55.2h19.4v-55.2z"/></g></g><path class="st10" d="m399.2 825.7 54.3 1.3-21.7-15.5c-1.8-1.3-3.2-3-4.3-4.9-1-1.9-1.6-4.1-1.7-6.3l-.7-17-29.6.1 3.7 42.3z"/><path class="st11" d="M405.2 805.9v-.3c-.1-.5 0-.9.1-1.3s.3-.9.6-1.2c.3-.4.6-.7 1-.9.4-.2.8-.4 1.3-.4l17.3-2.5-.2-3.4h-29l2.6 28.7 23.6-2.6-7.8-3.1c-2.6-1.1-4.9-2.8-6.6-5.1-1.6-2.4-2.6-5-2.9-7.9z"/><path class="st10" d="M301.4 824.7h24.4l4.6-41.4-29 .1v41.3z"/><path class="st11" d="m307.4 817.8.6-12.7c0-.8.4-1.6.9-2.2.5-.6 1.3-1 2.1-1.1l17.6-2.7.4-3.5-27.5.1-.1 29.3 6-7.2z"/><path class="st4" d="M299.7 457.7v338h31.8l27.6-275.6c.1-.9.5-1.7 1.2-2.3.7-.6 1.5-.9 2.4-.9.9 0 1.7.3 2.3.9.6.6 1 1.4 1.1 2.2l29.4 275.6h31.8l-10.9-336.1-116.7-1.8z"/><path class="st2" d="m303.1 810.2.7-.7c2.8-2.7 6.6-4.3 10.5-4.2 3.9 0 7.7 1.6 10.5 4.4l.4.5c1.4 1.4 2.2 3.3 2.2 5.3v3.1c0 1.8.2 3.7.8 5.4l2.6 8.7c.6 2.1 1 4.3 1 6.4v1c0 .8-.4 1.6-1 2.2-.6.6-1.4.9-2.2.8h-30c-.4 0-.8 0-1.2-.2s-.7-.4-1-.6c-.3-.3-.5-.6-.7-1-.2-.4-.3-.8-.3-1.2v-.4c0-2.5.4-5.1 1.2-7.5l3-8.4c.6-1.9 1-4 1-6l.1-2.4c.2-2 1-3.8 2.4-5.2z"/><path class="st4" d="M298.9 795.7h33.9l.6-6.9H299l-.1 6.9z"/><path class="st3" d="M298.9 795.7h33.9l.6-6.9H299l-.1 6.9z"/><path class="st12" d="M298.9 795.7H313l.3-6.9H299l-.1 6.9z"/><path d="M295.3 839.9v.4c0 .8.4 1.6 1 2.2.6.6 1.4.9 2.2.8h30c.4 0 .8 0 1.2-.2s.7-.4 1-.6c.3-.3.5-.6.7-1s.3-.8.3-1.2v-1c0-.4 0-.8-.1-1.2h-36.5c.2.6.2 1.2.2 1.8z"/><path class="st2" d="M395.4 816.1v21.1c0 .8.1 1.6.5 2.4s.8 1.4 1.3 2c.6.6 1.3 1 2 1.3.7.3 1.6.5 2.4.4h72c.3 0 .7-.1 1-.2s.6-.3.8-.6c.2-.2.4-.5.6-.8.1-.3.2-.7.2-1 0-2.5-.8-4.9-2.2-6.9-1.4-2-3.5-3.5-5.8-4.3l-16.2-5.3-20.6-15.9c-1-.8-2.3-1.2-3.6-1.2-1.3 0-2.6.5-3.6 1.4l-9.2 7.8c-.7.5-1.5.9-2.3 1.1-.9.2-1.7.1-2.6-.1l-11.6-3.6c-.4-.1-.8-.2-1.1-.1-.4 0-.7.2-1 .4-.3.2-.5.5-.7.9-.3.5-.3.9-.3 1.2z"/><path d="M401.6 843.4h72c.3 0 .7-.1 1-.2s.6-.3.8-.6c.2-.2.4-.5.6-.8.1-.3.2-.7.2-1 0-.9-.1-1.8-.3-2.6h-80.3c.2 1.5.9 2.8 2 3.8 1.1.9 2.5 1.4 4 1.4z"/><path class="st6" d="M430.8 816.9c-.1 0-.2 0-.2-.1-.1 0-.1-.1-.2-.2s-.2-.3-.2-.5.1-.3.2-.5l4.4-4.7c.1-.1.3-.2.5-.2s.3.1.5.2c.1.1.2.3.2.5s-.1.3-.2.5l-4.4 4.7c-.2.2-.4.3-.6.3zM434.3 819.6c-.1 0-.2 0-.2-.1-.1 0-.1-.1-.2-.2s-.2-.3-.2-.5.1-.3.2-.5l4.4-4.7c.1-.1.1-.1.2-.1s.2-.1.3-.1c.1 0 .2 0 .3.1.1 0 .2.1.2.1.1.1.1.1.1.2v.4c0 .1-.1.2-.1.2l-4.4 4.7c-.2.4-.4.5-.6.5zM437.7 822.2c-.1 0-.2 0-.2-.1-.1 0-.1-.1-.2-.2s-.2-.3-.2-.5.1-.3.2-.5l4.4-4.7c.1-.1.3-.1.5-.1s.3 0 .5.1c.1.1.2.3.2.5s-.1.3-.2.5l-4.4 4.7c-.2.3-.3.3-.6.3zM319.9 817.3h-.2c-.1 0-.1 0-.1-.1-1.7-.8-3.6-1.2-5.5-1.2s-3.8.4-5.5 1.2c-.2.1-.4.1-.6.1-.2-.1-.4-.2-.5-.4-.1-.2-.1-.4-.1-.6.1-.2.2-.4.4-.5 1.9-.9 4.1-1.4 6.2-1.4 2.2 0 4.3.5 6.2 1.4.2.1.3.3.3.4.1.2 0 .4 0 .6l-.3.3c0 .1-.1.2-.3.2zM319.9 821.1h-.2c-.1 0-.1-.1-.1-.1-1.7-.8-3.6-1.2-5.5-1.2s-3.8.4-5.5 1.2c-.1.1-.2.1-.3.1h-.3c-.1 0-.2-.1-.3-.1-.1-.1-.2-.1-.2-.2s-.1-.2-.1-.3v-.3c0-.1.1-.2.2-.3.1-.1.2-.1.3-.2 1.9-1 4.1-1.5 6.2-1.5 2.2 0 4.3.5 6.2 1.5.2.1.3.3.3.4.1.2 0 .4 0 .6-.1.1-.2.3-.3.3-.1.1-.2.1-.4.1zM319.9 824.9h-.2c-.1 0-.1-.1-.1-.1-1.7-.8-3.6-1.2-5.5-1.2s-3.8.4-5.5 1.2c-.1.1-.2.1-.3.1h-.3c-.1 0-.2-.1-.3-.1-.1-.1-.2-.1-.2-.2s-.1-.2-.1-.3v-.3c0-.1.1-.2.2-.3.1-.1.2-.1.3-.2 1.9-1 4.1-1.5 6.2-1.5 2.2 0 4.3.5 6.2 1.5.2.1.3.3.3.4.1.2 0 .4 0 .6-.1.1-.2.3-.3.3-.1.1-.2.1-.4.1z"/><path class="st12" d="M413.9 792 383 531.7c-.5-4-2.4-7.7-5.5-10.4-3-2.7-6.9-4.2-11-4.2h-4c.9 0 1.7.3 2.3.9.6.6 1 1.4 1.1 2.2l29.2 274 18.8-2.2z"/><path class="st4" d="M394.6 795.7h33.6l-.4-6.9h-34l.8 6.9z"/><path class="st3" d="M394.6 795.7h33.6l-.4-6.9h-34l.8 6.9z"/><path class="st12" d="M394.6 795.7h19.8l-.9-6.9h-19.6l.7 6.9zM299.7 460.2v328.4l13.6.1L326 460.2h-26.3z"/><path class="st2" d="m418.9 387.6-2.7 72.6H299.7l-2.3-46.9 7.5-62.6 79.8-22.1 38.4 80.7"/><path class="st2" d="m431.5 414.9 4.2 1.2c14.4 3.6 27.3-10 23-24.2l-24.5-84.5c-1.2-3.9-3.4-7.4-6.5-10-3.1-2.7-6.8-4.4-10.8-5l-44.4-7.3-41.8.2s-2.6-.2-41.2 11.6c-5.2 1.6-9.8 5-12.8 9.5-3 4.6-4.4 10-3.9 15.5l7.5 76.2c.3 2.5 1 5 2.3 7.2 1.2 2.2 2.9 4.2 4.9 5.8 2 1.6 4.3 2.7 6.7 3.4 2.5.7 5 .8 7.5.5l30.5-3.9v-28.2H324l-1.6-41.9.7 20.4 104.3 19.8 4.1 33.7z"/><path class="st10" d="m429.2 380.9-15.4-3-5.6-19.7 38.6-7.6 11.9 41.4c4.3 14.2-8.6 27.8-23 24.2l-3.7-1.1-2.8-34.2z"/><path class="st3" d="m315.7 379.5-2.6-43.6c0-.1.1-.3.2-.4.1-.1.2-.2.4-.2.1 0 .3 0 .4.1.1.1.2.2.2.4l9.8 47.5-8 2"/><path class="st10" d="m314.4 358.3 1.7 26.8 15.5-1.8 1.2-20.7-4.8-.9-2.3-1.7c-1.5-1.1-5.6-1.1-6.9-1.4l-4.4-.3z"/><path class="st3" d="M414.1 378.9 400.7 332c-.1-.2-.2-.3-.3-.5-.2-.1-.4-.2-.5-.1-.2 0-.4.1-.5.3-.1.1-.2.3-.2.5l.5 43.7 14.4 3z"/><path class="st10" d="M370.1 256.9c0 2.2-.2 4.4-.7 6.6l2.4 21.8c.1.7 0 1.4-.3 2-.3.6-.7 1.2-1.2 1.6l-15.6 13.4c-.3.2-.6.4-1 .4s-.7 0-1-.2l-20.1-13.6c-.6-.3-1-.8-1.4-1.4-.3-.6-.5-1.2-.5-1.9l2.5-36.7.5-7.3c1.2-28 37.8-5.1 37.8-5.1s-1 9.7-1.4 20.4z"/><path d="M374.7 238.1c-2.5 0-4.9-.7-6.9-2.1-2-1.4-3.6-3.3-4.6-5.6-.9-2.3-1.2-4.8-.7-7.2.5-2.4 1.7-4.6 3.4-6.4 1.7-1.7 3.9-2.9 6.4-3.4 2.4-.5 4.9-.2 7.2.7s4.2 2.5 5.6 4.6c1.4 2 2.1 4.4 2.1 6.9 0 1.6-.3 3.2-.9 4.7-.6 1.5-1.5 2.9-2.7 4-1.2 1.2-2.5 2.1-4 2.7-1.6.8-3.2 1.1-4.9 1.1z"/><path class="st10" d="m334.9 215.9-1 24.4s2.7 37.6 26.8 34.3c27.8-3.6 14.9-58 14.9-58l-40.7-.7z"/><path d="M377.8 199.8c-1.5-1-3.3-1.5-5.1-1.7-1.8-.1-3.6.2-5.2.9-.8.4-1.8.4-2.6.2-.9-.3-1.6-.8-2.1-1.6-1.2-1.8-2.8-3.3-4.7-4.4-1.9-1-4-1.6-6.2-1.6-7.8-.3-11.2 4-12.7 6.4-.3.5-.7.9-1.1 1.2-.5.3-1 .5-1.6.5-3.6.5-11 3.2-13.6 10.7-4.6 13.1 4.9 27.6 4.9 27.6l5.8-3.7 1 1.7 1 5.1c0 .5.7.9 1.2.9.3 0 .6-.2.7-.4.2-.2.3-.5.3-.8l-.3-5.4c0-.2 0-.4.1-.6.1-.2.2-.4.3-.5s.3-.3.5-.4c.2-.1.4-.1.6-.1.7-.1 1.4-.3 2.1-.6.7-.3 1.2-.8 1.7-1.3.5-.6.8-1.2 1.1-1.9.2-.7.3-1.4.2-2.2-.1-.7 0-1.5.2-2.2.2-.7.6-1.4 1.1-1.9.5-.6 1.1-1 1.7-1.3.7-.3 1.4-.5 2.1-.6l24.7-1.8c8.6-1.4 11.8-15.3 3.9-20.2z"/><path class="st11" d="m332.7 255.7 4-6c-1.1.7-2.4 1-3.6.9l-.4 5.1z"/><path class="st10" d="M336.2 243.7c.9 4.2 2 7.3-3.4 6.9-10.3-.7-11.4-14.6-5.4-17.3.6-.4 1.3-.6 2.1-.6.7-.1 1.5 0 2.1.3.7.3 1.3.7 1.8 1.2s.9 1.2 1.1 1.8l1.7 7.7z"/><path class="st11" d="m424.3 353.9 2.3-.2c.5 0 .9 0 1.4.2.4.2.8.5 1 .9.3.5.5 1.1.4 1.7-.1.6-.3 1.1-.7 1.6-.2.2-.3.4-.4.6-.1.2-.1.4-.1.7 0 .4.1.7.3 1 .2.3.5.5.9.7l.5.2c.4.1.8.4 1.1.7.3.3.5.7.7 1.1v.1c.2.5.2 1 .1 1.5s-.4 1-.7 1.3c-.3.3-.6.5-.9.6-.3.1-.7.2-1.1.2h-1.5l-.1.1v.2c.2.5.3 1 .2 1.5-.1.5-.3 1-.7 1.4-.2.2-.5.4-.8.5-.3.1-.6.2-1 .2h-5l.8.8c.2.2.3.4.4.6l.1.2c.2.4.3.9.2 1.4-.1.5-.3.9-.6 1.2-.3.3-.6.5-1 .6-.4.1-.7.1-1.1.1l-8.9-1.8.4-16.2 13.8-3.7z"/><path class="st12" d="M326.7 238.1c.2.3.5.3.9.2.3-.2.6-.4.9-.5.3-.1.7-.1 1.1 0 .5 0 .9.5 1.5 1.2.6.9.9 2 .9 3.1l.2 1.2c0 .3.3.5.7.5.4 0 .5-.3.5-.7l-.2-1.2c0-1.3-.4-2.7-1-3.9-.3-.4-.6-.8-1-1.1-.4-.3-.9-.5-1.4-.6-1-.1-2.1.1-2.9.7-.2.1-.3.4-.2 1.1z"/><path class="st11" d="M356.2 276c-5-.7-9.6-3.1-12.9-6.9-.1-.1-.1-.2-.1-.4 0-.1.1-.2.2-.3s.2-.1.3-.2c.1 0 .3 0 .4.1 2.6 2.9 6 5 9.8 6 7.5 1.7 14.2-1.8 16.6-4.2l.9 8.8c-2.6.5-5.3.5-7.8 0s-5.2-1.5-7.4-2.9z"/><g class="st13"><path class="st12" d="M363.2 264.2v-.3c0-.1-.1-.2-.1-.3l-.2-.2c-.1 0-.2-.1-.3-.1-1.1.1-2.2.1-3.2 0-.2 0-.4.1-.5.2-.1.1-.2.3-.3.5 0 .2.1.4.2.5.1.1.3.2.5.3 1.1-.1 2.3-.1 3.5 0 .2-.1.6-.5.4-.6z"/></g><path class="st12" d="M365.4 261.4c-.6.2-1.1.3-1.6.4l-.5.1c-4 .7-5.8-1.5-6.4-2.5v-.1c-.1-.2-.1-.3 0-.5 0-.2.1-.3.2-.4l.1-.1H357.9c.1 0 .2.1.3.2l.1.1c.5.9 2.2 2.8 6.4 1.4.2-.1.4-.1.6 0 .2.1.3.2.4.4.1.2.1.4.1.6-.1.1-.2.3-.4.4z"/><path d="M357.2 245.2c-.4 0-.9-.1-1.2-.4-.4-.2-.6-.6-.8-1-.2-.4-.2-.8-.1-1.3.1-.4.3-.8.6-1.1.3-.3.7-.5 1.1-.6.4-.1.9 0 1.3.1.4.2.7.4 1 .8.2.4.4.8.4 1.2 0 .3 0 .6-.2.8-.1.3-.3.5-.5.7-.2.2-.4.4-.7.5-.3.3-.6.3-.9.3z"/><path class="st6" d="M358.1 243.9c-.1 0-.2 0-.3-.1-.1-.1-.2-.1-.2-.2s-.1-.2 0-.3c0-.1.1-.2.1-.3.1-.1.2-.1.3-.1h.3c.1 0 .2.1.2.2.1.1.1.2.1.3v.2c0 .1-.1.1-.1.2 0 0-.1.1-.2.1 0-.1-.1 0-.2 0z"/><path d="M374.4 245.2c-.4 0-.9-.1-1.2-.4-.4-.2-.6-.6-.8-1-.2-.4-.2-.8-.1-1.3.1-.4.3-.8.6-1.1.3-.3.7-.5 1.1-.6.4-.1.9 0 1.3.1.4.2.7.4 1 .8.2.4.4.8.4 1.2 0 .3 0 .6-.2.8-.1.3-.3.5-.5.7-.2.2-.4.4-.7.5-.3.3-.6.3-.9.3z"/><path class="st6" d="M375.3 243.9c-.1 0-.2 0-.3-.1-.1-.1-.2-.1-.2-.2s-.1-.2 0-.3c0-.1.1-.2.1-.3.1-.1.2-.1.3-.1h.3c.1 0 .2.1.2.2.1.1.1.2.1.3v.2c0 .1-.1.1-.1.2 0 0-.1.1-.2.1 0-.1-.1 0-.2 0z"/><g class="st14"><path class="st15" d="M427 325.5c-.8 0-1.6-.2-2.2-.7-.7-.4-1.2-1.1-1.5-1.8-.3-.7-.4-1.5-.2-2.3.2-.8.5-1.5 1.1-2 .6-.6 1.3-.9 2-1.1.8-.2 1.6-.1 2.3.2.7.3 1.4.8 1.8 1.5.4.7.7 1.4.7 2.2 0 1.1-.4 2.1-1.2 2.8s-1.7 1.2-2.8 1.2zm0-7.4c-.7 0-1.4.2-1.9.6-.6.4-1 .9-1.3 1.6-.3.6-.3 1.3-.2 2 .1.7.5 1.3.9 1.8.5.5 1.1.8 1.8.9.7.1 1.4.1 2-.2.6-.3 1.2-.7 1.5-1.3.4-.6.6-1.2.6-1.9 0-.9-.4-1.8-1-2.4-.6-.8-1.5-1.1-2.4-1.1z"/><path class="st15" d="M427 324.1c-.1 0-.1 0-.2-.1s-.1-.1-.1-.2 0-.1.1-.2.1-.1.2-.1c.4 0 .8-.1 1.1-.3.3-.2.6-.5.7-.9.2-.4.2-.8.1-1.2-.1-.4-.3-.7-.5-1-.3-.3-.6-.5-1-.5-.4-.1-.8 0-1.2.1-.4.2-.7.4-.9.7-.2.3-.3.7-.3 1.1 0 .1 0 .1-.1.2s-.1.1-.2.1-.1 0-.2-.1-.1-.1-.1-.2c0-.5.1-1 .4-1.4.3-.4.7-.7 1.1-.9s1-.2 1.5-.1.9.3 1.3.7c.4.4.6.8.7 1.3.1.5 0 1-.1 1.5-.2.5-.5.9-.9 1.1-.4.3-.9.4-1.4.4zM401.4 309.1c-.8 0-1.6-.2-2.2-.7-.7-.4-1.2-1.1-1.5-1.8-.3-.7-.4-1.5-.2-2.3.2-.8.5-1.5 1.1-2 .6-.6 1.3-.9 2.1-1.1.8-.1 1.6-.1 2.3.2.7.3 1.4.8 1.8 1.5.4.7.7 1.4.7 2.2 0 1.1-.4 2.1-1.2 2.8-.8.8-1.9 1.2-2.9 1.2zm0-7.4c-.7 0-1.4.2-1.9.6-.6.4-1 .9-1.3 1.6-.3.6-.3 1.3-.2 2 .1.7.5 1.3.9 1.8.5.5 1.1.8 1.8 1 .7.1 1.4.1 2-.2.6-.3 1.2-.7 1.6-1.3.4-.6.6-1.2.6-1.9 0-.9-.4-1.8-1-2.4-.7-.9-1.6-1.2-2.5-1.2z"/><path class="st15" d="M401.4 307.7c-.1 0-.1 0-.2-.1s-.1-.1-.1-.2 0-.1.1-.2.1-.1.2-.1c.4 0 .8-.1 1.1-.3s.6-.5.7-.9c.2-.4.2-.8.1-1.2-.1-.4-.3-.7-.5-1-.3-.3-.6-.5-1-.5-.4-.1-.8 0-1.2.1-.4.2-.7.4-.9.7-.2.3-.3.7-.3 1.1 0 .1 0 .1-.1.2 0 0-.1.1-.2.1s-.1 0-.2-.1-.1-.1-.1-.2c0-.5.1-1 .4-1.4.3-.4.7-.7 1.1-.9.5-.2 1-.2 1.5-.1s.9.3 1.3.7c.4.4.6.8.7 1.3.1.5 0 1-.1 1.5-.2.5-.5.9-.9 1.1-.4.3-.9.4-1.4.4zM375.2 333.2c-.8 0-1.6-.2-2.2-.7-.7-.4-1.2-1.1-1.5-1.8-.3-.7-.4-1.5-.2-2.3.1-.8.5-1.5 1.1-2.1.6-.6 1.3-1 2-1.1.8-.2 1.6-.1 2.3.2.7.3 1.4.8 1.8 1.5.4.7.7 1.4.7 2.2 0 1.1-.4 2.1-1.2 2.8-.8.8-1.8 1.3-2.8 1.3zm0-7.4c-.7 0-1.3.2-1.9.6-.6.4-1 .9-1.3 1.5-.3.6-.3 1.3-.2 2 .1.7.5 1.3.9 1.8.5.5 1.1.8 1.8.9.7.1 1.4.1 2-.2.6-.3 1.2-.7 1.5-1.3.4-.6.6-1.2.6-1.9 0-.5-.1-.9-.3-1.3-.2-.4-.4-.8-.7-1.1-.3-.3-.7-.6-1.1-.7-.4-.2-.9-.3-1.3-.3z"/><path class="st15" d="M375.2 331.8c-.1 0-.1 0-.2-.1s-.1-.1-.1-.2 0-.1.1-.2c0 0 .1-.1.2-.1.4 0 .8-.1 1.1-.3.3-.2.6-.5.7-.9.2-.4.2-.8.1-1.2-.1-.4-.3-.7-.5-1-.3-.3-.6-.5-1-.5-.4-.1-.8 0-1.2.1-.4.2-.7.4-.9.7-.2.3-.3.7-.3 1.1 0 .1 0 .1-.1.2s-.1.1-.2.1-.1 0-.2-.1-.1-.1-.1-.2c0-.5.1-1 .4-1.4.3-.4.7-.7 1.1-.9.5-.2 1-.2 1.5-.1s.9.3 1.3.7c.4.4.6.8.7 1.3.1.5 0 1-.1 1.5-.2.5-.5.9-.9 1.1-.4.3-.9.4-1.4.4zM325.5 311.3c-.8 0-1.6-.2-2.2-.7-.7-.4-1.2-1.1-1.5-1.8-.3-.7-.4-1.5-.2-2.3s.5-1.5 1.1-2c.6-.6 1.3-.9 2-1.1.8-.2 1.6-.1 2.3.2.7.3 1.4.8 1.8 1.5.4.7.7 1.4.7 2.2 0 1.1-.4 2.1-1.2 2.8-.7.8-1.8 1.2-2.8 1.2zm0-7.4c-.7 0-1.4.2-1.9.6-.6.4-1 .9-1.3 1.6-.3.6-.3 1.3-.2 2 .1.7.5 1.3 1 1.8s1.1.8 1.8.9c.7.1 1.4.1 2-.2.6-.3 1.2-.7 1.6-1.3.4-.6.6-1.2.6-1.9 0-.9-.4-1.8-1-2.4s-1.7-1.1-2.6-1.1z"/><path class="st15" d="M325.5 309.9c-.1 0-.1 0-.2-.1s-.1-.1-.1-.2 0-.1.1-.2.1-.1.2-.1c.4 0 .8-.1 1.1-.3.3-.2.6-.5.7-.9.2-.4.2-.8.1-1.2-.1-.4-.3-.7-.5-1-.3-.3-.6-.5-1-.5-.4-.1-.8 0-1.2.1-.4.2-.7.4-.9.7-.2.3-.3.7-.3 1.1 0 .1 0 .1-.1.2s-.1.1-.2.1-.1 0-.2-.1-.1-.1-.1-.2c0-.5.1-1 .4-1.4.3-.4.7-.7 1.1-.9.5-.2 1-.2 1.5-.1s.9.3 1.3.7c.4.4.6.8.7 1.3.1.5 0 1-.1 1.5-.2.5-.5.9-.9 1.1-.4.3-.9.5-1.4.4zM289.7 332.8c-.8 0-1.6-.2-2.2-.7-.7-.4-1.2-1.1-1.5-1.8-.3-.7-.4-1.5-.2-2.3.1-.8.5-1.5 1.1-2.1.6-.6 1.3-1 2-1.1.8-.2 1.6-.1 2.3.2s1.4.8 1.8 1.5c.4.7.7 1.4.7 2.2 0 1.1-.4 2.1-1.2 2.8-.7.9-1.7 1.3-2.8 1.3zm0-7.4c-.7 0-1.4.2-1.9.6-.6.4-1 .9-1.3 1.6-.3.6-.3 1.3-.2 2 .1.7.5 1.3.9 1.8.5.5 1.1.8 1.8.9s1.4.1 2-.2c.6-.3 1.2-.7 1.6-1.3.4-.6.6-1.2.6-1.9 0-.9-.4-1.8-1-2.4-.7-.7-1.6-1.1-2.5-1.1z"/><path class="st15" d="M289.7 331.4c-.1 0-.1 0-.2-.1 0 0-.1-.1-.1-.2s0-.1.1-.2.1-.1.2-.1c.4 0 .8-.1 1.1-.3.3-.2.6-.5.7-.9.2-.4.2-.8.1-1.2-.1-.4-.3-.7-.5-1-.3-.3-.6-.5-1-.5-.4-.1-.8 0-1.2.1-.4.2-.7.4-.9.7s-.3.7-.3 1.1c0 .1 0 .1-.1.2 0 0-.1.1-.2.1s-.1 0-.2-.1c0 0-.1-.1-.1-.2 0-.5.1-1 .4-1.4.3-.4.7-.7 1.1-.9.5-.2 1-.2 1.5-.1s.9.3 1.3.7.6.8.7 1.3c.1.5 0 1-.1 1.5-.2.5-.5.9-.9 1.1-.3.3-.8.4-1.4.4zM340.8 348.2c-.8 0-1.6-.2-2.2-.7-.7-.4-1.2-1.1-1.5-1.8-.3-.7-.4-1.5-.2-2.3s.5-1.5 1.1-2c.6-.6 1.3-.9 2-1.1.8-.2 1.6-.1 2.3.2.7.3 1.4.8 1.8 1.5.4.7.7 1.4.7 2.2 0 1.1-.4 2.1-1.2 2.8-.7.7-1.7 1.2-2.8 1.2zm0-7.4c-.7 0-1.4.2-1.9.6-.6.4-1 .9-1.3 1.6-.3.6-.3 1.3-.2 2 .1.7.5 1.3.9 1.8.5.5 1.1.8 1.8 1 .7.1 1.4.1 2-.2.6-.3 1.2-.7 1.6-1.3.4-.6.6-1.2.6-1.9 0-.9-.4-1.8-1-2.4-.7-.9-1.5-1.2-2.5-1.2z"/><path class="st15" d="M340.8 346.8c-.1 0-.1 0-.2-.1s-.1-.1-.1-.2 0-.1.1-.2.1-.1.2-.1c.4 0 .8-.1 1.1-.3.3-.2.6-.5.7-.9.2-.4.2-.8.1-1.2-.1-.4-.3-.7-.5-1-.3-.3-.6-.5-1-.5-.4-.1-.8 0-1.2.1-.4.2-.7.4-.9.7-.2.3-.3.7-.3 1.1 0 .1 0 .1-.1.2s-.1.1-.2.1-.1 0-.2-.1-.1-.1-.1-.2c0-.5.1-1 .4-1.4.3-.4.7-.7 1.1-.9.5-.2 1-.2 1.5-.1s.9.3 1.3.7c.4.4.6.8.7 1.3.1.5 0 1-.1 1.5-.2.5-.5.9-.9 1.1-.3.2-.8.4-1.4.4zM392 364.7c-.8 0-1.6-.2-2.2-.7-.7-.4-1.2-1.1-1.5-1.8-.3-.7-.4-1.5-.2-2.3.2-.8.5-1.5 1.1-2 .6-.6 1.3-.9 2-1.1s1.6-.1 2.3.2c.7.3 1.4.8 1.8 1.5.4.7.7 1.4.7 2.2 0 1.1-.4 2.1-1.2 2.8-.7.8-1.8 1.2-2.8 1.2zm0-7.4c-.7 0-1.4.2-1.9.6-.6.4-1 .9-1.3 1.6-.3.6-.3 1.3-.2 2s.5 1.3.9 1.8c.5.5 1.1.8 1.8.9.7.1 1.4.1 2-.2.6-.3 1.2-.7 1.6-1.3.4-.6.6-1.2.6-1.9 0-.9-.4-1.8-1-2.4-.7-.8-1.6-1.1-2.5-1.1z"/><path class="st15" d="M392 363.3c-.1 0-.1 0-.2-.1s-.1-.1-.1-.2 0-.1.1-.2c0 0 .1-.1.2-.1.4 0 .8-.1 1.1-.3.3-.2.6-.5.7-.9.2-.4.2-.8.1-1.2-.1-.4-.3-.7-.5-1-.3-.3-.6-.5-1-.5-.4-.1-.8 0-1.2.1-.4.2-.7.4-.9.7-.2.3-.3.7-.3 1.1 0 .1 0 .1-.1.2s-.1.1-.2.1-.1 0-.2-.1-.1-.1-.1-.2c0-.5.1-1 .4-1.4.3-.4.7-.7 1.1-.9.5-.2 1-.2 1.5-.1s.9.3 1.3.7c.4.4.6.8.7 1.3.1.5 0 1-.1 1.5-.2.5-.5.9-.9 1.1-.4.3-.9.4-1.4.4zM305.5 362.7c-.8 0-1.6-.2-2.2-.6-.7-.4-1.2-1.1-1.5-1.8-.3-.7-.4-1.5-.2-2.3.1-.8.5-1.5 1.1-2.1.6-.6 1.3-1 2-1.1.8-.2 1.6-.1 2.3.2.7.3 1.4.8 1.8 1.5.4.7.7 1.4.7 2.2 0 1.1-.4 2.1-1.2 2.8-.8.8-1.8 1.2-2.8 1.2zm0-7.4c-.7 0-1.4.2-1.9.6-.6.4-1 .9-1.3 1.6-.3.6-.3 1.3-.2 2 .1.7.5 1.3.9 1.8.5.5 1.1.8 1.8.9s1.4.1 2-.2c.6-.3 1.2-.7 1.6-1.3.4-.6.6-1.2.6-1.9 0-.9-.4-1.8-1-2.4-.8-.7-1.6-1.1-2.5-1.1z"/><path class="st15" d="M305.5 361.3c-.1 0-.1 0-.2-.1 0 0-.1-.1-.1-.2s0-.1.1-.2c0 0 .1-.1.2-.1.4 0 .8-.1 1.1-.3.3-.2.6-.5.7-.9.2-.4.2-.8.1-1.2-.1-.4-.3-.7-.5-1-.3-.3-.6-.5-1-.5-.4-.1-.8 0-1.2.1-.4.2-.7.4-.9.7-.2.3-.3.7-.3 1.1 0 .1 0 .1-.1.2 0 0-.1.1-.2.1s-.1 0-.2-.1c0 0-.1-.1-.1-.2 0-.5.1-1 .4-1.4.3-.4.7-.7 1.1-.9.5-.2 1-.2 1.5-.1s.9.3 1.3.7c.4.4.6.8.7 1.3.1.5 0 1-.1 1.5-.2.5-.5.9-.9 1.1-.4.3-.9.4-1.4.4zM376.5 403.6c-.8 0-1.6-.2-2.2-.7-.7-.4-1.2-1.1-1.5-1.8-.3-.7-.4-1.5-.2-2.3.2-.8.5-1.5 1.1-2 .6-.6 1.3-.9 2.1-1.1.8-.1 1.6-.1 2.3.2.7.3 1.4.8 1.8 1.5.4.7.7 1.4.7 2.2 0 1.1-.4 2.1-1.2 2.8-.9.8-1.9 1.2-2.9 1.2zm0-7.4c-.7 0-1.3.2-1.9.6-.6.4-1 .9-1.3 1.5-.3.6-.3 1.3-.2 2 .1.7.5 1.3.9 1.8.5.5 1.1.8 1.8.9.7.1 1.4.1 2-.2s1.2-.7 1.5-1.3c.4-.6.6-1.2.6-1.9 0-.9-.4-1.8-1-2.4-.6-.6-1.5-1-2.4-1z"/><path class="st15" d="M376.5 402.2c-.1 0-.1 0-.2-.1s-.1-.1-.1-.2 0-.1.1-.2.1-.1.2-.1c.4 0 .8-.1 1.1-.3.3-.2.6-.5.7-.9.2-.4.2-.8.1-1.2-.1-.4-.3-.7-.5-1-.3-.3-.6-.5-1-.5-.4-.1-.8 0-1.2.1-.4.2-.7.4-.9.7-.2.3-.3.7-.3 1.1 0 .1 0 .1-.1.2s-.1.1-.2.1-.1 0-.2-.1-.1-.1-.1-.2c0-.5.1-1 .4-1.4.3-.4.7-.7 1.1-.9.5-.2 1-.2 1.5-.1s.9.3 1.3.7c.4.4.6.8.7 1.3.1.5 0 1-.1 1.5-.2.5-.5.9-.9 1.1-.4.3-.9.5-1.4.4zM397.1 426.9c-.8 0-1.6-.2-2.2-.7-.7-.4-1.2-1.1-1.5-1.8-.3-.7-.4-1.5-.2-2.3.1-.8.5-1.5 1.1-2.1.6-.6 1.3-1 2-1.1.8-.2 1.6-.1 2.3.2.7.3 1.4.8 1.8 1.5.4.7.7 1.4.7 2.2 0 1.1-.4 2.1-1.2 2.8-.8.9-1.8 1.3-2.8 1.3zm0-7.4c-.7 0-1.4.2-1.9.6-.6.4-1 .9-1.3 1.6s-.3 1.3-.2 2 .5 1.3.9 1.8c.5.5 1.1.8 1.8 1 .7.1 1.4.1 2-.2.6-.3 1.2-.7 1.6-1.3.4-.6.6-1.2.6-1.9 0-.9-.4-1.8-1-2.4-.7-.8-1.6-1.2-2.5-1.2z"/><path class="st15" d="M397.1 425.5c-.1 0-.1 0-.2-.1s-.1-.1-.1-.2 0-.1.1-.2.1-.1.2-.1c.4 0 .8-.1 1.1-.3.3-.2.6-.5.7-.9.2-.4.2-.8.1-1.2-.1-.4-.3-.7-.5-1-.3-.3-.6-.5-1-.5-.4-.1-.8 0-1.2.1-.4.2-.7.4-.9.7-.2.3-.3.7-.3 1.1 0 .1 0 .1-.1.2 0 0-.1.1-.2.1s-.1 0-.2-.1-.1-.1-.1-.2c0-.5.1-1 .4-1.4s.7-.7 1.1-.9c.5-.2 1-.2 1.5-.1s.9.3 1.3.7c.4.4.6.8.7 1.3s0 1-.1 1.5c-.2.5-.5.9-.9 1.1-.4.3-.9.4-1.4.4zM377.8 452.8c-.8 0-1.6-.2-2.2-.7-.7-.4-1.2-1.1-1.5-1.8-.3-.7-.4-1.5-.2-2.3.2-.8.5-1.5 1.1-2 .6-.6 1.3-.9 2-1.1.8-.2 1.6-.1 2.3.2.7.3 1.4.8 1.8 1.5.4.7.7 1.4.7 2.2 0 1.1-.4 2.1-1.2 2.8-.7.7-1.7 1.2-2.8 1.2zm0-7.5c-.7 0-1.4.2-1.9.6-.6.4-1 .9-1.3 1.6-.3.6-.3 1.3-.2 2 .1.7.5 1.3.9 1.8.5.5 1.1.8 1.8.9.7.1 1.4.1 2-.2.6-.3 1.2-.7 1.6-1.3.4-.6.6-1.2.6-1.9 0-.9-.4-1.8-1-2.4-.7-.7-1.5-1.1-2.5-1.1z"/><path class="st15" d="M377.8 451.3c-.1 0-.1 0-.2-.1 0 0-.1-.1-.1-.2s0-.1.1-.2c0 0 .1-.1.2-.1.4 0 .8-.1 1.1-.3.3-.2.6-.5.7-.9.2-.4.2-.8.1-1.2-.1-.4-.3-.7-.5-1-.3-.3-.6-.5-1-.5-.4-.1-.8 0-1.2.1-.4.2-.7.4-.9.7-.2.3-.3.7-.3 1.1 0 .1 0 .1-.1.2s-.1.1-.2.1-.1 0-.2-.1c0 0-.1-.1-.1-.2 0-.5.2-1 .4-1.4.3-.4.7-.7 1.1-.9.5-.2 1-.2 1.5-.1s.9.3 1.3.7c.4.4.6.8.7 1.3.1.5 0 1-.1 1.5-.2.5-.5.9-.9 1.1s-.8.5-1.4.4zM353.7 428.7c-.8 0-1.6-.2-2.2-.7-.7-.4-1.2-1.1-1.5-1.8-.3-.7-.4-1.5-.2-2.3.2-.8.5-1.5 1.1-2 .6-.6 1.3-.9 2.1-1.1.8-.1 1.6-.1 2.3.2.7.3 1.4.8 1.8 1.5.4.7.7 1.4.7 2.2 0 1.1-.4 2.1-1.2 2.8-.8.7-1.8 1.2-2.9 1.2zm0-7.4c-.7 0-1.3.2-1.9.6-.6.4-1 .9-1.3 1.6-.3.6-.3 1.3-.2 2 .1.7.5 1.3.9 1.8.5.5 1.1.8 1.8.9.7.1 1.4.1 2-.2.6-.3 1.2-.7 1.5-1.3.4-.6.6-1.2.6-1.9 0-.9-.4-1.8-1-2.4-.6-.8-1.5-1.1-2.4-1.1z"/><path class="st15" d="M353.7 427.3c-.1 0-.1 0-.2-.1s-.1-.1-.1-.2 0-.1.1-.2.1-.1.2-.1c.4 0 .8-.1 1.1-.3.3-.2.6-.5.7-.9.2-.4.2-.8.1-1.2-.1-.4-.3-.7-.5-1-.3-.3-.6-.5-1-.5-.4-.1-.8 0-1.2.1-.4.2-.7.4-.9.7-.2.3-.3.7-.3 1.1 0 .1 0 .1-.1.2s-.1.1-.2.1-.1 0-.2-.1-.1-.1-.1-.2c0-.5.1-1 .4-1.4.3-.4.7-.7 1.1-.9.5-.2 1-.2 1.5-.1s.9.3 1.3.7c.4.4.6.8.7 1.3.1.5 0 1-.1 1.5-.2.5-.5.9-.9 1.1-.3.2-.8.4-1.4.4zM323.4 452.2c-.8 0-1.6-.2-2.2-.7-.7-.4-1.2-1.1-1.5-1.8-.3-.7-.4-1.5-.2-2.3.2-.8.5-1.5 1.1-2 .6-.6 1.3-.9 2-1.1.8-.2 1.6-.1 2.3.2.7.3 1.4.8 1.8 1.5.4.7.7 1.4.7 2.2 0 1.1-.4 2.1-1.2 2.8-.8.8-1.8 1.2-2.8 1.2zm0-7.4c-.7 0-1.4.2-1.9.6-.6.4-1 .9-1.3 1.6-.3.6-.3 1.3-.2 2 .1.7.5 1.3.9 1.8.5.5 1.1.8 1.8 1 .7.1 1.4.1 2-.2.6-.3 1.2-.7 1.6-1.3.4-.6.6-1.2.6-1.9 0-.9-.4-1.8-1-2.4-.8-.8-1.6-1.2-2.5-1.2z"/><path class="st15" d="M323.4 450.8c-.1 0-.1 0-.2-.1s-.1-.1-.1-.2 0-.1.1-.2.1-.1.2-.1c.4 0 .8-.1 1.1-.3.3-.2.6-.5.7-.9.2-.4.2-.8.1-1.2-.1-.4-.3-.7-.5-1-.3-.3-.6-.5-1-.5-.4-.1-.8 0-1.2.1-.4.2-.7.4-.9.7-.2.3-.3.7-.3 1.1 0 .1 0 .1-.1.2s-.1.1-.2.1-.1 0-.2-.1c0 0-.1-.1-.1-.2 0-.5.1-1 .4-1.4.3-.4.7-.7 1.1-.9.5-.2 1-.2 1.5-.1s.9.3 1.3.7c.4.4.6.8.7 1.3.1.5 0 1-.1 1.5-.2.5-.5.9-.9 1.1-.4.3-.9.4-1.4.4zM411.6 350.5c-.8 0-1.6-.2-2.2-.7-.7-.4-1.2-1.1-1.5-1.8-.3-.7-.4-1.5-.2-2.3.2-.8.5-1.5 1.1-2 .6-.6 1.3-.9 2-1.1.8-.2 1.6-.1 2.3.2.7.3 1.4.8 1.8 1.5.4.7.7 1.4.7 2.2 0 1.1-.4 2.1-1.2 2.8-.7.8-1.7 1.2-2.8 1.2zm0-7.4c-.7 0-1.4.2-1.9.6-.6.4-1 .9-1.3 1.6-.3.6-.3 1.3-.2 2 .1.7.5 1.3.9 1.8.5.5 1.1.8 1.8.9s1.4.1 2-.2c.6-.3 1.2-.7 1.6-1.3.4-.6.6-1.2.6-1.9 0-.5-.1-.9-.3-1.3-.2-.4-.4-.8-.7-1.1-.3-.3-.7-.6-1.1-.7-.5-.3-.9-.4-1.4-.4z"/><path class="st15" d="M411.6 349.1c-.1 0-.1 0-.2-.1 0 0-.1-.1-.1-.2s0-.1.1-.2c0 0 .1-.1.2-.1.4 0 .8-.1 1.1-.3.3-.2.6-.5.7-.9.2-.4.2-.8.1-1.2-.1-.4-.3-.7-.5-1-.3-.3-.6-.5-1-.5-.4-.1-.8 0-1.2.1-.4.2-.7.4-.9.7-.2.3-.3.7-.3 1.1 0 .1 0 .1-.1.2s-.1.1-.2.1-.1 0-.2-.1c0 0-.1-.1-.1-.2 0-.5.1-1 .4-1.4.3-.4.7-.7 1.1-.9.5-.2 1-.2 1.5-.1s.9.3 1.3.7c.4.4.6.8.7 1.3.1.5 0 1-.1 1.5-.2.5-.5.9-.9 1.1-.3.3-.8.4-1.4.4z"/></g><g class="st13"><path class="st12" d="M367.9 252c-.1-.7-.4-1.3-1-1.8-.5-.4-1.2-.7-1.9-.6-.3 0-.5.3-.5.7 0 .4.3.5.7.5.4 0 .7.1 1 .3.3.2.4.6.5.9 0 .4-.1.7-.3 1s-.5.4-.9.5l-2.9.2c-.3 0-.5.3-.5.7 0 .4.3.5.7.5l2.9-.2c.3 0 .7-.1 1-.3.3-.2.6-.4.8-.6.2-.3.4-.6.5-.9 0-.2 0-.5-.1-.9z"/></g><path class="st10" d="m383.9 371.1 5.5 16.8 3.8-1.9c14.8.2 17-11.9 17-11.9l8.8.8c.4 0 .7-.1 1-.4.3-.2.4-.5.5-.9.1-.4 0-.7-.2-1.1-.2-.3-.5-.6-.8-.7l-7.1-2.2 11.6-.3c.5 0 1-.2 1.3-.5.4-.3.6-.8.7-1.3 0-.2 0-.5-.1-.7-.1-.2-.2-.5-.4-.6-.2-.2-.4-.3-.6-.4-.2-.1-.5-.2-.7-.2l4.3.3h.1c.4 0 .7-.1 1-.3.3-.2.6-.4.7-.7.2-.3.3-.6.3-1 0-.3-.1-.7-.2-1-.1-.3-.4-.6-.6-.8-.3-.2-.6-.3-.9-.4l-17.8-2.4 14.7-.8c.5-.1 1-.3 1.3-.7s.5-.9.5-1.4v-.2c0-.3-.1-.5-.2-.8-.1-.2-.3-.5-.5-.6-.2-.2-.4-.3-.7-.4-.3-.1-.5-.1-.8-.1h-14.8c-2.2 0-4.4.8-6.1 2.2L387.9 370l-4 1.1z"/><path class="st10" d="m277.9 373.1 3.8 40.9c.3 2.7 1.1 5.2 2.6 7.5 1.4 2.3 3.4 4.1 5.7 5.5 2.3 1.4 4.9 2.1 7.6 2.3 2.7.2 5.3-.3 7.8-1.4l87.5-38.2-6.7-19.3-70.3 14.8-1.4-18.5-36.6 6.4z"/><path class="st12" d="m332.9 361.4-.2 1.2L413 378v-1.7l-80.1-14.9z"/><path class="st3" d="m376.2 397.2-1.8 1.2 43.7 13-.1-1.2-41.8-13z"/><path class="st11" d="m411.6 364.6 12.7 1.3v-1l-12.6-1.3-.1 1z"/><path class="st10" d="m331.5 383.3-2-.9 106.8 34-7.1-35.4-96.4-18.5-1.3 20.8z"/><path class="st11" d="m316.1 385.2-7.2 1.8h-.2c-.6 0-1.1-.8-.3-1.6l7.4-5.9"/><path class="st3" d="m278.3 373.1-5.5-51c-.4-3.9.1-7.9 1.7-11.6 1.5-3.7 4-6.9 7.1-9.3-1.8 3.9-2.6 8.2-2.2 12.5l6.2 58-7.3 1.4z"/><path class="st11" d="m285.6 371.7 4.9 42.2c.3 3.4 1.7 6.7 4 9.3 2.2 2.6 5.2 4.5 8.5 5.4-2.4.6-4.9.7-7.3.3-2.4-.4-4.7-1.4-6.7-2.8s-3.7-3.2-5-5.3c-1.3-2.1-2-4.5-2.3-6.9l-1.8-22.8-1.7-18 7.4-1.4z"/><path class="st3" d="M298.2 429.2c1.6 0 3.2-.2 4.8-.6l13.8-5.8 59.4-25.5-42.5 28.2c-1.9 1.1-3.5 2.7-4.6 4.6-1.1 1.9-1.8 4.1-1.9 6.3l-1.2 23.8h-26.2l-1.6-31z"/><path d="M360 234.9c-.2.4-2.1.1-4.4.1-2.3 0-4.2.4-4.4 0-.1-.2.2-.5 1-.9 1.1-.4 2.2-.6 3.3-.6 1.2 0 2.3.2 3.4.6.8.3 1.2.7 1.1.8zM370.7 234.9c.2.4 2.1.1 4.4.1 2.3.1 4.2.4 4.4 0 .1-.2-.2-.5-1-.9-1.1-.4-2.2-.7-3.3-.7-1.2 0-2.3.2-3.4.5-.8.5-1.2.8-1.1 1z"/><path class="st11" d="M413 375s9.1 1.8 16.2 5.9l-15.4-3-.8-2.9zM314.7 358.6l3.5 13.6c.5 1.9 1.7 3.6 3.4 4.7s3.7 1.6 5.6 1.3l2.7-.4 85 25.3c42.8 12.9 44.4-6 44.4-6.7-.6 22.1-23.7 20.4-23.7 20.4l-106.2-34.5L316 385l-.2-4.1h-.1l-1-22.3z"/></svg>